<?xml version="1.0" encoding="iso-8859-1"?>
<!-- Generator: Adobe Illustrator 19.0.0, SVG Export Plug-In . SVG Version: 6.00 Build 0)  -->
<svg xmlns="http://www.w3.org/2000/svg" xmlns:xlink="http://www.w3.org/1999/xlink" version="1.1" id="Capa_1" x="0px" y="0px" viewBox="0 0 512 512" style="enable-background:new 0 0 512 512;" xml:space="preserve">
<path style="fill:#49B5CE;" d="M256,493.822c0,10.041-8.136,18.178-18.178,18.178H30.295c-10.038,0-18.177-8.137-18.177-18.178  V274.178c0-10.04,8.139-18.178,18.177-18.178h207.527c10.042,0,18.178,8.137,18.178,18.178L256,493.822L256,493.822z"/>
<path style="fill:#34A4B7;" d="M32.769,493.822V274.178c0-10.04,8.139-18.178,18.177-18.178h-20.65  c-10.038,0-18.177,8.137-18.177,18.178v219.644c0,10.041,8.139,18.178,18.177,18.178h20.65  C40.908,512,32.769,503.863,32.769,493.822z"/>
<path style="fill:#E04E4B;" d="M499.882,493.822c0,10.041-8.135,18.178-18.177,18.178H274.178C264.139,512,256,503.863,256,493.822  V274.178c0-10.04,8.139-18.178,18.178-18.178h207.527c10.042,0,18.177,8.137,18.177,18.178L499.882,493.822L499.882,493.822z"/>
<path style="fill:#3BBC56;" d="M377.941,237.823c0,10.039-8.136,18.178-18.178,18.178H152.237c-10.039,0-18.178-8.139-18.178-18.178  V18.178C134.059,8.138,142.198,0,152.237,0h207.526c10.042,0,18.178,8.138,18.178,18.178V237.823z"/>
<circle style="fill:#F0C419;" cx="256" cy="128" r="59.58"/>
<path style="fill:#F7AC16;" d="M296.268,164.701c-49.491,0-77.187-56.93-47.246-95.864C219.407,72.295,196.42,97.456,196.42,128  c0,32.906,26.675,59.581,59.58,59.581c19.251,0,36.358-9.137,47.25-23.301C300.958,164.548,298.631,164.701,296.268,164.701z"/>
<path style="fill:#F0C419;" d="M436.228,392.286c-32.885,7.428-60.802-24.841-48.787-56.248c2.829-7.392-3.733-15.011-11.483-13.259  c-28.485,6.437-48.379,31.347-48.379,60.573c0,34.25,27.864,62.114,62.113,62.114c25.562,0,48.879-16.042,58.018-39.923  C450.539,398.149,443.978,390.537,436.228,392.286z"/>
<path style="fill:#F7AC16;" d="M354.425,364.013c0-14.626,4.983-28.17,13.53-38.859c-24.137,8.921-40.375,31.797-40.375,58.199  c0,34.25,27.864,62.114,62.113,62.114c19.017,0,36.787-8.884,48.405-23.264C397.584,437.351,354.425,407.111,354.425,364.013z"/>
<path style="fill:#F0C419;" d="M194.231,369.405c-1.335-4.112-4.89-7.109-9.172-7.732l-28.198-4.098l-12.613-25.554  c-1.914-3.879-5.863-6.333-10.189-6.333c-4.323,0-8.272,2.454-10.187,6.333l-12.612,25.554l-28.201,4.098  c-4.278,0.623-7.835,3.62-9.169,7.732c-1.338,4.114-0.222,8.629,2.873,11.647l20.405,19.89l-4.817,28.087  c-0.73,4.262,1.02,8.569,4.521,11.111c3.497,2.541,8.133,2.879,11.965,0.865l25.222-13.26l25.225,13.26  c1.663,0.874,3.476,1.305,5.284,1.305c2.358,0,4.702-0.732,6.681-2.17c3.497-2.542,5.251-6.849,4.52-11.111l-4.82-28.087  l20.408-19.89C194.453,378.034,195.568,373.519,194.231,369.405z"/>
<path style="fill:#F7AC16;" d="M128.834,417.672l4.817-28.087l-20.405-19.89c-3.094-3.018-4.211-7.533-2.873-11.647  c0.041-0.126,0.102-0.24,0.147-0.364l-27.461,3.99c-4.278,0.623-7.835,3.62-9.169,7.732c-1.338,4.114-0.222,8.629,2.873,11.647  l20.405,19.89l-4.817,28.087c-0.73,4.262,1.02,8.569,4.521,11.111c3.497,2.541,8.133,2.879,11.965,0.865l24.029-12.633  C129.706,425.795,128.14,421.722,128.834,417.672z"/>
<path style="fill:#C44137;" d="M276.65,493.822V274.178c0-10.04,8.139-18.178,18.177-18.178h-20.65  C264.139,256,256,264.137,256,274.178v219.644c0,10.041,8.139,18.178,18.177,18.178h20.65  C284.789,512,276.65,503.863,276.65,493.822z"/>
<path style="fill:#31A845;" d="M154.709,237.822V18.178C154.709,8.138,162.848,0,172.886,0h-20.65  c-10.038,0-18.177,8.138-18.177,18.178v219.644c0,10.041,8.139,18.178,18.177,18.178h20.65  C162.848,256,154.709,247.862,154.709,237.822z"/>
<g>
</g>
<g>
</g>
<g>
</g>
<g>
</g>
<g>
</g>
<g>
</g>
<g>
</g>
<g>
</g>
<g>
</g>
<g>
</g>
<g>
</g>
<g>
</g>
<g>
</g>
<g>
</g>
<g>
</g>
</svg>
