<?xml version="1.0" encoding="iso-8859-1"?>
<!-- Generator: Adobe Illustrator 19.0.0, SVG Export Plug-In . SVG Version: 6.00 Build 0)  -->
<svg xmlns="http://www.w3.org/2000/svg" xmlns:xlink="http://www.w3.org/1999/xlink" version="1.1" id="Capa_1" x="0px" y="0px" viewBox="0 0 512 512" style="enable-background:new 0 0 512 512;" xml:space="preserve">
<path style="fill:#49B5CE;" d="M154.139,122.143l-37.586-80.471c-1.782-3.815-5.613-6.254-9.823-6.254H83.601  c-4.212,0-8.041,2.439-9.825,6.254L36.19,122.143c-0.669,1.437-1.016,3.003-1.016,4.588v374.411c0,5.988,4.853,10.842,10.841,10.842  h98.302c5.985,0,10.841-4.854,10.841-10.842V126.731C155.158,125.146,154.808,123.579,154.139,122.143z"/>
<path style="fill:#34A4B7;" d="M55.778,501.142V126.731c0-1.585,0.347-3.152,1.016-4.588L94.38,41.672  c1.785-3.815,5.613-6.254,9.825-6.254H83.601c-4.212,0-8.041,2.439-9.825,6.254L36.19,122.143c-0.669,1.437-1.016,3.003-1.016,4.588  v374.411c0,5.988,4.853,10.842,10.841,10.842h20.604C60.631,511.984,55.778,507.13,55.778,501.142z"/>
<path style="fill:#A2E7F2;" d="M46.015,511.984h98.302c5.985,0,10.841-4.854,10.841-10.842V126.731H35.173v374.411  C35.173,507.13,40.027,511.984,46.015,511.984z"/>
<path style="fill:#6EDCF9;" d="M55.778,501.142V126.731H35.173v374.411c0,5.988,4.853,10.842,10.841,10.842h20.604  C60.631,511.984,55.778,507.13,55.778,501.142z"/>
<g>
	<rect x="35.171" y="169.62" style="fill:#49B5CE;" width="119.98" height="38.549"/>
	<rect x="35.171" y="425.01" style="fill:#49B5CE;" width="119.98" height="38.549"/>
</g>
<g>
	<rect x="35.171" y="169.62" style="fill:#34A4B7;" width="20.604" height="38.549"/>
	<rect x="35.171" y="425.01" style="fill:#34A4B7;" width="20.604" height="38.549"/>
</g>
<path style="fill:#A2E7F2;" d="M83.601,35.418h23.13c2.4,0,4.662,0.813,6.505,2.201V18.07c0-9.98-8.092-18.07-18.069-18.07  c-9.981,0-18.071,8.09-18.071,18.07v19.549C78.94,36.231,81.201,35.418,83.601,35.418z"/>
<path style="fill:#6EDCF9;" d="M95.165,18.07c0-6.685,3.639-12.507,9.035-15.633C101.54,0.896,98.461,0,95.166,0  c-9.981,0-18.071,8.09-18.071,18.07v19.549c1.844-1.388,4.106-2.201,6.505-2.201h11.565V18.07z"/>
<path style="fill:#F7AC16;" d="M438.2,41.671c-1.782-3.815-5.613-6.254-9.823-6.254h-23.129c-4.212,0-8.041,2.439-9.825,6.254  c-41.009,87.8-38.602,81.672-38.602,85.06v374.411c0,5.988,4.853,10.842,10.841,10.842h98.302c5.985,0,10.841-4.854,10.841-10.842  V126.731C476.805,123.321,479.119,129.279,438.2,41.671z"/>
<path style="fill:#E2960E;" d="M377.424,501.142c0-401.01-0.491-375.762,1.016-378.999l37.586-80.471  c1.785-3.815,5.613-6.254,9.825-6.254h-20.604c-4.212,0-8.041,2.439-9.825,6.254c-41.009,87.8-38.602,81.672-38.602,85.06v374.411  c0,5.988,4.853,10.842,10.841,10.842h20.604C382.278,511.984,377.424,507.13,377.424,501.142z"/>
<path style="fill:#F7C937;" d="M367.661,511.984h98.302c5.985,0,10.841-4.854,10.841-10.842V126.731H356.82v374.411  C356.82,507.13,361.673,511.984,367.661,511.984z"/>
<g>
	<path style="fill:#F7AC16;" d="M377.424,501.142V126.731H356.82v374.411c0,5.988,4.853,10.842,10.841,10.842h20.604   C382.278,511.984,377.424,507.13,377.424,501.142z"/>
	<rect x="356.821" y="169.62" style="fill:#F7AC16;" width="119.98" height="38.549"/>
	<rect x="356.821" y="425.01" style="fill:#F7AC16;" width="119.98" height="38.549"/>
</g>
<g>
	<rect x="356.821" y="169.62" style="fill:#E2960E;" width="20.604" height="38.549"/>
	<rect x="356.821" y="425.01" style="fill:#E2960E;" width="20.604" height="38.549"/>
</g>
<path style="fill:#F7C937;" d="M405.247,35.418h23.129c2.4,0,4.662,0.813,6.505,2.201V18.07c0-9.98-8.092-18.07-18.069-18.07  c-9.981,0-18.071,8.09-18.071,18.07v19.549C400.586,36.231,402.848,35.418,405.247,35.418z"/>
<path style="fill:#F0C419;" d="M416.812,18.07c0-6.685,3.639-12.507,9.035-15.633C423.187,0.896,420.107,0,416.813,0  c-9.981,0-18.071,8.09-18.071,18.07v19.549c1.844-1.388,4.106-2.201,6.505-2.201h11.565L416.812,18.07L416.812,18.07z"/>
<path style="fill:#3BBC56;" d="M277.376,470.313c-1.782,3.815-5.613,6.254-9.823,6.254h-23.13c-4.212,0-8.04-2.439-9.825-6.254  l-37.586-80.471c-1.508-3.238-1.016,22.011-1.016-378.999c0-5.988,4.853-10.842,10.841-10.842h98.302  c5.985,0,10.841,4.854,10.841,10.842v374.411C315.981,388.664,318.295,382.706,277.376,470.313z"/>
<path style="fill:#31A845;" d="M216.6,10.842v374.411c0,1.585,0.347,3.152,1.016,4.588l37.586,80.471  c1.785,3.815,5.613,6.254,9.825,6.254h-20.604c-4.212,0-8.04-2.439-9.825-6.254l-37.586-80.471  c-1.508-3.238-1.016,22.011-1.016-378.999C195.996,4.854,200.849,0,206.837,0h20.604C221.454,0.001,216.6,4.855,216.6,10.842z"/>
<path style="fill:#A4E55A;" d="M206.837,0.001h98.302c5.985,0,10.841,4.854,10.841,10.842v374.411H195.996V10.842  C195.996,4.855,200.849,0.001,206.837,0.001z"/>
<path style="fill:#8DD83D;" d="M216.6,10.842v374.411h-20.604V10.842C195.996,4.854,200.849,0,206.837,0h20.604  C221.454,0.001,216.6,4.855,216.6,10.842z"/>
<g>
	<rect x="196.001" y="303.82" style="fill:#3BBC56;" width="119.98" height="38.549"/>
	<rect x="196.001" y="48.43" style="fill:#3BBC56;" width="119.98" height="38.549"/>
</g>
<g>
	<rect x="196.001" y="303.82" style="fill:#31A845;" width="20.604" height="38.549"/>
	<rect x="196.001" y="48.43" style="fill:#31A845;" width="20.604" height="38.549"/>
</g>
<path style="fill:#A4E55A;" d="M244.423,476.567c24.967,0,25.852,0.647,29.635-2.201v19.549c0,9.98-8.092,18.07-18.069,18.07  c-9.981,0-18.071-8.09-18.071-18.07v-19.549C239.762,475.753,242.024,476.567,244.423,476.567z"/>
<path style="fill:#8DD83D;" d="M255.988,493.914c0,6.685,3.639,12.507,9.035,15.633c-12.026,6.966-27.105-1.737-27.105-15.633  v-19.549c1.844,1.388,4.106,2.201,6.505,2.201h11.565L255.988,493.914L255.988,493.914z"/>
<g>
</g>
<g>
</g>
<g>
</g>
<g>
</g>
<g>
</g>
<g>
</g>
<g>
</g>
<g>
</g>
<g>
</g>
<g>
</g>
<g>
</g>
<g>
</g>
<g>
</g>
<g>
</g>
<g>
</g>
</svg>
