<?xml version="1.0" encoding="iso-8859-1"?>
<!-- Generator: Adobe Illustrator 19.0.0, SVG Export Plug-In . SVG Version: 6.00 Build 0)  -->
<svg xmlns="http://www.w3.org/2000/svg" xmlns:xlink="http://www.w3.org/1999/xlink" version="1.1" id="Capa_1" x="0px" y="0px" viewBox="0 0 512.001 512.001" style="enable-background:new 0 0 512.001 512.001;" xml:space="preserve">
<path style="fill:#D3D3D3;" d="M475.536,0.001H36.465C16.36,0.001,0,16.358,0,36.466v439.07C0,495.643,16.36,512,36.465,512h439.071  c20.108,0,36.465-16.357,36.465-36.465V36.466C512.001,16.358,495.644,0.001,475.536,0.001z"/>
<path style="fill:#BABABA;" d="M36.691,475.535V36.466c0-20.107,16.36-36.465,36.465-36.465H36.465C16.36,0.001,0,16.358,0,36.466  v439.07C0,495.643,16.36,512,36.465,512h36.691C53.051,512,36.691,495.643,36.691,475.535z"/>
<path style="fill:#585A60;" d="M474.791,462.429c0,6.828-5.535,12.363-12.363,12.363H49.573c-6.828,0-12.363-5.535-12.363-12.363  V49.573c0-6.828,5.535-12.363,12.363-12.363h412.856c6.828,0,12.363,5.535,12.363,12.363v412.856H474.791z"/>
<path style="fill:#414356;" d="M57.815,462.429V49.573c0-6.828,5.535-12.363,12.363-12.363H49.573  c-6.828,0-12.363,5.535-12.363,12.363v412.856c0,6.828,5.535,12.363,12.363,12.363h20.605  C63.35,474.792,57.815,469.257,57.815,462.429z"/>
<circle style="fill:#49B5CE;" cx="159.27" cy="347.36" r="58.54"/>
<path style="fill:#34A4B7;" d="M152.239,347.358c0-23.088,13.371-43.048,32.787-52.578c-7.773-3.815-16.512-5.965-25.756-5.965  c-32.332,0-58.544,26.211-58.544,58.543c0,43.304,45.519,71.613,84.3,52.579C165.61,390.407,152.239,370.447,152.239,347.358z"/>
<path style="fill:#F2D422;" d="M410.016,177.77c-2.357-2.724-6.024-3.927-9.541-3.133c-3.038,0.686-6.128,1.034-9.189,1.034  c-22.873,0-41.483-18.611-41.483-41.485c0-5.09,0.922-10.075,2.735-14.817c1.288-3.366,0.62-7.167-1.738-9.892  c-2.361-2.724-6.027-3.931-9.544-3.136c-27.988,6.326-47.535,30.799-47.535,59.518c0,33.651,27.378,61.031,61.029,61.031  c25.116,0,48.026-15.765,57.007-39.227C413.045,184.296,412.376,180.495,410.016,177.77z"/>
<path style="fill:#F7AC16;" d="M381.978,203.455c-33.651,0-61.029-27.38-61.029-61.031c0-11.874,3.349-23.016,9.247-32.456  c-21.94,9.54-36.475,31.132-36.475,55.891c0,33.651,27.378,61.031,61.029,61.031c21.109,0,40.655-11.137,51.687-28.618  C398.851,201.618,390.544,203.455,381.978,203.455z"/>
<path style="fill:#3BBC56;" d="M412.402,306.675c0-9.863-7.998-17.86-17.86-17.86h-81.363c-9.867,0-17.861,7.997-17.861,17.86  v81.366c0,9.863,7.994,17.861,17.861,17.861h81.363c9.862,0,17.86-7.998,17.86-17.861L412.402,306.675L412.402,306.675z"/>
<path style="fill:#31A845;" d="M331.376,388.041v-81.366c0-9.863,7.994-17.86,17.861-17.86h-36.059  c-9.867,0-17.861,7.997-17.861,17.86v81.366c0,9.863,7.994,17.861,17.861,17.861h36.059  C339.37,405.902,331.376,397.905,331.376,388.041z"/>
<path style="fill:#E04E4B;" d="M218.392,152.155c-1.314-4.041-4.807-6.986-9.011-7.598l-27.71-4.026l-12.392-25.109  c-1.88-3.81-5.759-6.223-10.009-6.223c-4.251,0-8.131,2.413-10.012,6.223l-12.389,25.109l-27.71,4.026  c-4.206,0.612-7.698,3.557-9.012,7.598s-0.218,8.476,2.826,11.443l20.05,19.543l-4.733,27.597c-0.718,4.187,1.002,8.42,4.439,10.917  c3.439,2.497,7.993,2.828,11.755,0.85l24.785-13.029l24.781,13.029c1.634,0.857,3.419,1.282,5.195,1.282  c2.314,0,4.619-0.719,6.561-2.132c3.439-2.497,5.16-6.73,4.442-10.917l-4.733-27.597l20.049-19.543  C218.611,160.632,219.704,156.196,218.392,152.155z"/>
<path style="fill:#C44137;" d="M157.415,210.324c-3.437-2.497-5.157-6.73-4.439-10.917l4.733-27.597l-20.05-19.544  c-3.043-2.966-4.139-7.399-2.827-11.438l-25.672,3.73c-4.206,0.612-7.698,3.557-9.012,7.598s-0.218,8.476,2.826,11.443l20.05,19.543  l-4.733,27.597c-0.718,4.187,1.002,8.42,4.439,10.917c3.439,2.497,7.993,2.828,11.755,0.85l23.042-12.112  C157.492,210.368,157.451,210.35,157.415,210.324z"/>
<g>
</g>
<g>
</g>
<g>
</g>
<g>
</g>
<g>
</g>
<g>
</g>
<g>
</g>
<g>
</g>
<g>
</g>
<g>
</g>
<g>
</g>
<g>
</g>
<g>
</g>
<g>
</g>
<g>
</g>
</svg>
