<?xml version="1.0" encoding="iso-8859-1"?>
<!-- Generator: Adobe Illustrator 19.0.0, SVG Export Plug-In . SVG Version: 6.00 Build 0)  -->
<svg xmlns="http://www.w3.org/2000/svg" xmlns:xlink="http://www.w3.org/1999/xlink" version="1.1" id="Capa_1" x="0px" y="0px" viewBox="0 0 512 512" style="enable-background:new 0 0 512 512;" xml:space="preserve">
<path style="fill:#BABABA;" d="M216.153,272.345c-13.513,14.853-46.337,43.861-99.314,47.837  c-73.864,5.546-73.435,60.874-73.121,101.271c0.322,41.097-2.236,56.777-30.604,58.371c-8.657,0.486-14.415,7.999-12.86,16.782  c0.66,3.72,2.526,7.073,5.113,9.663c3.524,3.522,8.387,5.637,13.375,5.357c25.477-1.432,42.505-12.216,50.605-32.052  c6.52-15.975,6.37-35.549,6.222-54.479c-0.344-44.415,1.691-69.711,47.476-73.147c61.814-4.64,100-37.106,117.037-55.676  L216.153,272.345z"/>
<path style="fill:#A4A4A5;" d="M14.63,507.56c-1.554-8.782,4.202-16.295,12.86-16.782c28.369-1.594,30.926-17.275,30.604-58.371  c-0.314-40.397-0.743-95.724,73.121-101.271c50.947-3.823,83.246-30.791,97.666-46.063l-12.729-12.728  c-13.513,14.853-46.337,43.861-99.314,47.837c-73.864,5.546-73.435,60.874-73.121,101.271c0.322,41.097-2.236,56.777-30.604,58.371  c-8.657,0.486-14.415,7.999-12.86,16.782c0.66,3.72,2.526,7.073,5.113,9.663c2.831,2.829,6.53,4.725,10.459,5.226  C15.281,510.246,14.873,508.928,14.63,507.56z"/>
<path style="fill:#C44137;" d="M309.405,0.369l0.097,0.006h0.002c2.115,0.159,164.76,12.401,160.622,12.09  c27.192,2.046,29.664,29.075,29.716,29.689l12.141,161.292c0.137,2.479-0.007,18.55-26.074,25.716l-245.472,67.466l-24.756-24.755  l67.342-245.014c0,0,0-0.001,0-0.003C290.515-0.4,308.01,0.27,309.405,0.369z"/>
<path style="fill:#E04E4B;" d="M499.842,42.154c-0.052-0.614-2.524-27.642-29.716-29.689c-0.002,0-0.005-0.001-0.01-0.001  l-42.945-3.232c-81.502,22.818-141.279,97.637-141.279,186.423c0,29.828,6.753,58.078,18.804,83.312l181.214-49.805  c26.066-7.166,26.211-23.237,26.074-25.716L499.842,42.154z"/>
<path style="fill:#FF8828;" d="M411.149,112.2l84.133-84.132c-2.259-4.05-5.614-8.18-10.594-11.192l-84.431,84.431L301.024,2.076  c-3.622,1.569-7.867,4.55-11.621,10.163l99.961,99.961L222.686,278.877l10.893,10.892l166.678-166.677l99.919,99.919  c5.705-3.733,8.682-7.965,10.216-11.569L411.149,112.2z"/>
<g>
</g>
<g>
</g>
<g>
</g>
<g>
</g>
<g>
</g>
<g>
</g>
<g>
</g>
<g>
</g>
<g>
</g>
<g>
</g>
<g>
</g>
<g>
</g>
<g>
</g>
<g>
</g>
<g>
</g>
</svg>
