<?xml version="1.0" encoding="iso-8859-1"?>
<!-- Generator: Adobe Illustrator 19.0.0, SVG Export Plug-In . SVG Version: 6.00 Build 0)  -->
<svg xmlns="http://www.w3.org/2000/svg" xmlns:xlink="http://www.w3.org/1999/xlink" version="1.1" id="Capa_1" x="0px" y="0px" viewBox="0 0 511.999 511.999" style="enable-background:new 0 0 511.999 511.999;" xml:space="preserve">
<path style="fill:#C17C44;" d="M371.931,105.161c109.065-166.399-29.765-90.775-65.665-69.592  C336.435,48.984,360.243,74.103,371.931,105.161z"/>
<path style="fill:#BA7542;" d="M398.822,0.253c21.065,2.718,23.631,28.111-27.632,106.034c-2.658-7.279-5.988-14.233-9.9-20.8  C389.98,40.918,400.025,14.59,398.822,0.253z"/>
<path style="fill:#C17C44;" d="M155.218,336.843c0.345,0,0.685,0.027,1.028,0.036c-0.005,0-0.01-0.002-0.014-0.002v-69.996  c0-11.652,5.796-21.939,14.653-28.161c0.056,0.052,0.113,0.104,0.17,0.156c-2.951-2.783-5.765-5.706-8.43-8.761  c-10.977-0.473-22.123,3.327-30.717,11.492l-88.3,83.863c-16.811,15.967-17.496,42.543-1.529,59.354  c13.91,14.646,35.871,17.046,52.413,6.868C103.687,357.852,127.401,336.843,155.218,336.843z"/>
<path style="fill:#BA7542;" d="M156.232,310.142l-79.54,58.277c-12.85,9.414-29.273,10.446-42.737,4.105  c1.906,4.428,4.611,8.599,8.124,12.298c13.91,14.646,35.871,17.046,52.413,6.868c9.196-33.839,32.91-54.848,60.726-54.848  c0.345,0,0.685,0.027,1.028,0.036c-0.005,0-0.01-0.002-0.014-0.002L156.232,310.142L156.232,310.142z"/>
<path style="fill:#DB8C52;" d="M340.356,239.423c-47.804,44.51-121.98,44.25-169.472-0.703c-8.856,6.223-14.653,16.51-14.653,28.161  v68.966c35.325,0.751,61.737,38.272,61.737,87.022c0,18.814-4.251,36.253-11.489,50.636h102.129  c-7.239-14.383-11.488-31.823-11.488-50.636c0-46.511,23.856-82.62,56.916-86.678v-69.31  C354.037,255.662,348.667,245.703,340.356,239.423z"/>
<path style="fill:#E5955E;" d="M275.89,271.014c-26.878,22.828-43.966,56.85-43.966,94.794c0,45.959,25.063,86.173,62.238,107.697  h14.447c-7.239-14.383-11.488-31.823-11.488-50.636c0-46.511,23.856-82.62,56.916-86.678v-69.31c0-9.734-4.047-18.516-10.545-24.773  c-2.435,0.25-4.847,0.578-7.239,0.967C319.42,257.418,298.698,267.328,275.89,271.014z"/>
<path style="fill:#C17C44;" d="M468.393,325.469l-88.3-83.863c-8.594-8.164-19.741-11.964-30.718-11.492  c-2.843,3.259-5.853,6.363-9.019,9.308c8.31,6.282,13.681,16.239,13.681,27.458v68.87l1.392,1.323  c1.469-0.136,2.948-0.23,4.445-0.23c28.352,0,52.437,21.956,61.232,56.826c16.021,7.799,35.893,4.763,48.815-8.846  C485.889,368.012,485.202,341.436,468.393,325.469z"/>
<path style="fill:#BA7542;" d="M434.713,367.997l-80.676-59.666v27.419l1.392,1.323c1.469-0.136,2.948-0.23,4.445-0.23  c28.352,0,52.437,21.956,61.232,56.826c21.635,10.532,47.96,0.735,57.209-21.811C464.66,378.609,447.802,377.677,434.713,367.997z"/>
<ellipse style="fill:#AF6A37;" cx="155.22" cy="422.87" rx="64.813" ry="89.12"/>
<path style="fill:#A05D30;" d="M110.994,422.869c0-44.4,23.617-81.202,54.518-87.986c-3.353-0.735-6.79-1.131-10.294-1.131  c-35.795,0-64.813,39.899-64.813,89.117c0,54.355,35.301,96.717,75.107,87.986C134.611,504.071,110.994,467.269,110.994,422.869z"/>
<ellipse style="fill:#E5955E;" cx="155.22" cy="448.33" rx="27.776" ry="38.19"/>
<ellipse style="fill:#AF6A37;" cx="359.87" cy="422.87" rx="64.813" ry="89.12"/>
<ellipse style="fill:#E5955E;" cx="359.87" cy="448.33" rx="27.777" ry="38.19"/>
<g>
	<path style="fill:#DB8C52;" d="M148.505,448.331c0-15.968,7.129-29.638,17.245-35.344c-3.249-1.832-6.804-2.849-10.533-2.849   c-15.34,0-27.777,17.098-27.777,38.193c0,26.868,19.878,45.739,38.31,35.345C155.634,477.97,148.505,464.298,148.505,448.331z"/>
	<path style="fill:#DB8C52;" d="M353.161,448.331c0-15.968,7.127-29.638,17.245-35.344c-3.248-1.832-6.803-2.849-10.531-2.849   c-15.343,0-27.778,17.098-27.778,38.193c0,26.984,19.96,45.694,38.309,35.345C360.288,477.97,353.161,464.298,353.161,448.331z"/>
</g>
<path style="fill:#D1CFCF;" d="M255.135,341.479c-4.267,0-7.727-3.459-7.727-7.727v-40.124c0-4.268,3.459-7.727,7.727-7.727  c4.267,0,7.727,3.459,7.727,7.727v40.124C262.862,338.02,259.402,341.479,255.135,341.479z"/>
<g>
	<path style="fill:#91562D;" d="M107.769,362.189l9.952,20.865c1.325,2.779,4.094,4.403,6.98,4.403   c5.646,0,9.419-5.917,6.969-11.055l-12.957-27.167C114.719,352.985,111.053,357.337,107.769,362.189z"/>
	<path style="fill:#91562D;" d="M203.842,363.98c-3.201-4.993-6.801-9.486-10.734-13.391l-12.312,25.813   c-1.837,3.851-0.204,8.463,3.648,10.3c1.074,0.512,2.206,0.755,3.321,0.755c2.885,0,5.654-1.624,6.98-4.403L203.842,363.98z"/>
	<path style="fill:#91562D;" d="M155.218,333.752c-2.267,0-4.506,0.163-6.713,0.475V368.5c0,4.268,3.459,7.727,7.727,7.727   s7.727-3.459,7.727-7.727v-33.918C161.098,334.051,158.184,333.752,155.218,333.752z"/>
	<path style="fill:#91562D;" d="M397.07,349.911l-12.635,26.491c-1.837,3.851-0.204,8.463,3.648,10.3   c3.854,1.839,8.464,0.201,10.3-3.648l9.536-19.993C404.677,358.141,401.032,353.736,397.07,349.911z"/>
	<path style="fill:#91562D;" d="M352.148,334.404V368.5c0,4.268,3.459,7.727,7.727,7.727c4.267,0,7.727-3.459,7.727-7.727v-34.096   C362.292,333.536,357.462,333.535,352.148,334.404z"/>
</g>
<path style="fill:#FF8828;" d="M350.643,251.993c-2.392-4.966-5.93-9.277-10.286-12.57c-47.804,44.51-121.98,44.25-169.472-0.703  c-4.358,3.063-7.971,7.114-10.521,11.824c22.713,33.849,57.12,55.431,95.636,55.431  C293.962,305.975,327.925,285.002,350.643,251.993z"/>
<circle style="fill:#F0C419;" cx="255.13" cy="349.95" r="16.204"/>
<path style="fill:#F7AC16;" d="M255.134,349.955c0-5.994,3.263-11.215,8.101-14.018c-2.385-1.381-5.146-2.185-8.101-2.185  c-8.95,0-16.204,7.254-16.204,16.203c0,8.947,7.254,16.203,16.204,16.203c2.955,0,5.716-0.804,8.101-2.186  C258.398,361.169,255.134,355.948,255.134,349.955z"/>
<path style="fill:#E5955E;" d="M256,24.419c-68.568,0-124.352,55.784-124.352,124.353S187.432,273.127,256,273.127  c68.569,0,124.353-55.785,124.353-124.354S324.569,24.419,256,24.419z"/>
<path style="fill:#DB8C52;" d="M153.028,148.772c0-64.967,50.08-118.448,113.662-123.888  c-72.8-6.234-135.042,51.329-135.042,123.888c0,72.434,62.118,130.134,135.042,123.889  C203.109,267.222,153.028,213.739,153.028,148.772z"/>
<g>
	<circle style="fill:#414356;" cx="307.04" cy="132.84" r="16.203"/>
	<circle style="fill:#414356;" cx="203.63" cy="132.84" r="16.202"/>
</g>
<g>
	<path style="fill:#2D313F;" d="M307.043,132.839c0-5.995,3.263-11.216,8.102-14.018c-2.385-1.382-5.147-2.185-8.102-2.185   c-8.948,0-16.202,7.253-16.202,16.203c0,8.947,7.254,16.203,16.202,16.203c2.955,0,5.717-0.804,8.102-2.185   C310.307,144.054,307.043,138.832,307.043,132.839z"/>
	<path style="fill:#2D313F;" d="M211.73,118.821c-10.768-6.243-24.304,1.546-24.304,14.018c0,12.451,13.514,20.269,24.304,14.018   C200.93,140.6,200.946,125.067,211.73,118.821z"/>
</g>
<path style="fill:#E04E4B;" d="M255.135,178.445c0,15.559-12.183,28.269-27.528,29.123c1.499,16.936,13.251,31.151,27.528,31.151  c14.276,0,26.025-14.215,27.524-31.151C267.314,206.714,255.135,194.004,255.135,178.445z"/>
<path style="fill:#C44137;" d="M272.134,227.387c-13.094,0-24.059-11.959-26.943-27.007c-4.75,4.166-10.864,6.814-17.584,7.188  c1.499,16.936,13.251,31.151,27.528,31.151c8.095,0,15.376-4.574,20.438-11.619C274.445,227.283,273.299,227.387,272.134,227.387z"/>
<path style="fill:#C17C44;" d="M205.066,35.86c-35.188-20.819-176.371-98.219-65.424,70.428  C151.092,74.936,174.849,49.511,205.066,35.86z"/>
<path style="fill:#BA7542;" d="M112.01,0.253c-21.065,2.718-23.631,28.111,27.632,106.034c2.658-7.279,5.988-14.233,9.9-20.8  C120.852,40.918,110.807,14.59,112.01,0.253z"/>
<path style="fill:#AF6A37;" d="M313.48,171.748c-4.267,0-7.727,3.459-7.727,7.727c0,11.825-9.621,21.444-21.448,21.444  c-11.824,0-21.444-9.619-21.444-21.444v-8.332c0-4.268-3.46-7.727-7.727-7.727c-4.267,0-7.727,3.459-7.727,7.727v8.332  c0,11.825-9.621,21.444-21.448,21.444c-11.824,0-21.444-9.619-21.444-21.444c0-4.268-3.459-7.727-7.727-7.727  c-4.267,0-7.727,3.459-7.727,7.727c0,35.043,44.57,50.297,66.071,22.554c6.755,8.717,17.315,14.344,29.171,14.344  c20.348,0,36.901-16.552,36.901-36.897C321.207,175.207,317.747,171.748,313.48,171.748z"/>
<path style="fill:#414356;" d="M263.648,163.598c-2.793-0.805-5.658-1.212-8.513-1.212c-2.853,0-5.718,0.407-8.514,1.211  c-8.557,2.46-6.737,15.154,2.127,15.154c0.856,0,1.189-0.091,6.386-0.833l5.284,0.755c0.37,0.052,0.737,0.078,1.1,0.078  c3.589,0,6.775-2.504,7.548-6.109C269.916,168.673,267.55,164.721,263.648,163.598z"/>
<path style="fill:#A05D30;" d="M315.649,422.869c0-44.4,23.617-81.202,54.518-87.986c-39.811-8.732-75.107,33.635-75.107,87.986  c0,54.355,35.301,96.717,75.107,87.986C339.266,504.071,315.649,467.269,315.649,422.869z"/>
<path style="fill:#91562D;" d="M311.827,363.062l9.535,19.993c1.325,2.779,4.093,4.403,6.98,4.403c1.115,0,2.247-0.243,3.321-0.755  c3.852-1.837,5.485-6.449,3.648-10.3l-12.634-26.491C318.713,353.737,315.068,358.141,311.827,363.062z"/>
<path style="fill:#ED6E18;" d="M275.89,271.014c0.009-0.002,0.009-0.002,0.015-0.002c-38.215,6.176-76.857-5.634-105.02-32.292  c-4.358,3.063-7.971,7.114-10.521,11.824c21.029,31.34,52.086,52.149,87.144,55.065C254.833,292.431,264.473,280.71,275.89,271.014z  "/>
<g>
</g>
<g>
</g>
<g>
</g>
<g>
</g>
<g>
</g>
<g>
</g>
<g>
</g>
<g>
</g>
<g>
</g>
<g>
</g>
<g>
</g>
<g>
</g>
<g>
</g>
<g>
</g>
<g>
</g>
</svg>
