<?xml version="1.0" encoding="iso-8859-1"?>
<!-- Generator: Adobe Illustrator 19.0.0, SVG Export Plug-In . SVG Version: 6.00 Build 0)  -->
<svg xmlns="http://www.w3.org/2000/svg" xmlns:xlink="http://www.w3.org/1999/xlink" version="1.1" id="Capa_1" x="0px" y="0px" viewBox="0 0 512.001 512.001" style="enable-background:new 0 0 512.001 512.001;" xml:space="preserve">
<g>
	<rect x="128.219" y="173.58" style="fill:#FF8828;" width="39.08" height="147.33"/>
	<rect x="344.709" y="173.58" style="fill:#FF8828;" width="39.07" height="147.33"/>
</g>
<g>
	<rect x="128.219" y="173.58" style="fill:#ED6E18;" width="19.538" height="147.33"/>
	<rect x="344.709" y="173.58" style="fill:#ED6E18;" width="19.538" height="147.33"/>
</g>
<path style="fill:#E04E4B;" d="M405.93,142.562L272.096,6.667c-8.889-8.889-23.301-8.889-32.191,0L106.072,142.562H405.93z"/>
<path style="fill:#C44137;" d="M271.955,6.539c-8.899-8.754-23.206-8.716-32.05,0.127L106.072,142.562h31.91L271.815,6.667  C271.86,6.621,271.91,6.584,271.955,6.539z"/>
<path style="fill:#BABABA;" d="M437.444,258.962H74.555c-4.267,0-7.727,3.459-7.727,7.727s3.459,7.727,7.727,7.727h12.611v42.37  c0,4.267,3.459,7.727,7.727,7.727s7.727-3.459,7.727-7.727v-42.37h92.022v42.37c0,4.267,3.459,7.727,7.727,7.727  s7.727-3.459,7.727-7.727v-42.37h92.021v42.37c0,4.267,3.459,7.727,7.727,7.727c4.267,0,7.727-3.459,7.727-7.727v-42.37h92.021  v42.37c0,4.267,3.459,7.727,7.727,7.727s7.727-3.459,7.727-7.727v-42.37h12.398c4.267,0,7.727-3.459,7.727-7.727  S441.711,258.962,437.444,258.962z"/>
<path style="fill:#F0C419;" d="M429.712,160.038c0-10.79-8.747-19.537-19.536-19.537h-308.35c-10.791,0-19.538,8.747-19.538,19.537  c0,10.79,8.747,19.537,19.538,19.537h308.35C420.965,179.575,429.712,170.828,429.712,160.038z"/>
<path style="fill:#F7AC16;" d="M410.176,159.413h-308.35c-7.097,0-13.292-3.796-16.713-9.456c-1.781,2.946-2.825,6.388-2.825,10.081  c0,10.79,8.747,19.537,19.538,19.537h308.35c10.789,0,19.536-8.747,19.536-19.537c0-3.693-1.044-7.135-2.825-10.081  C423.465,155.617,417.272,159.413,410.176,159.413z"/>
<path style="fill:#F0C419;" d="M418.887,310.503H93.113c-10.248,0-18.558,8.308-18.558,18.557v145.928h113.217v-49.86  c0-37.683,30.548-68.231,68.229-68.231c37.685,0,68.23,30.548,68.23,68.231v49.86h113.214V329.06  C437.444,318.812,429.139,310.503,418.887,310.503z"/>
<g>
	<path style="fill:#F7AC16;" d="M113.718,310.503H93.113c-10.248,0-18.558,8.308-18.558,18.557v145.928H95.16V329.06   C95.16,318.812,103.469,310.503,113.718,310.503z"/>
	<path style="fill:#F7AC16;" d="M276.606,356.897c-3.502,0-6.942,0.266-10.302,0.775c32.795,4.967,57.927,33.275,57.927,67.456   v49.86h20.605v-49.86C344.835,387.445,314.29,356.897,276.606,356.897z"/>
</g>
<path style="fill:#D3D3D3;" d="M458.064,492.464c0,10.79-8.747,19.537-19.538,19.537H73.474c-10.791,0-19.538-8.747-19.538-19.537  l0,0c0-10.79,8.747-19.537,19.538-19.537h365.052C449.317,472.927,458.064,481.674,458.064,492.464L458.064,492.464z"/>
<path style="fill:#BABABA;" d="M438.526,492.464H73.474c-7.228,0-13.524-3.934-16.903-9.769c-1.666,2.876-2.635,6.206-2.635,9.769  c0,10.79,8.747,19.537,19.538,19.537h365.052c10.791,0,19.538-8.747,19.538-19.537c0-3.563-0.969-6.892-2.635-9.769  C452.05,488.53,445.754,492.464,438.526,492.464z"/>
<g>
</g>
<g>
</g>
<g>
</g>
<g>
</g>
<g>
</g>
<g>
</g>
<g>
</g>
<g>
</g>
<g>
</g>
<g>
</g>
<g>
</g>
<g>
</g>
<g>
</g>
<g>
</g>
<g>
</g>
</svg>
