<?xml version="1.0" encoding="iso-8859-1"?>
<!-- Generator: Adobe Illustrator 19.0.0, SVG Export Plug-In . SVG Version: 6.00 Build 0)  -->
<svg xmlns="http://www.w3.org/2000/svg" xmlns:xlink="http://www.w3.org/1999/xlink" version="1.1" id="Capa_1" x="0px" y="0px" viewBox="0 0 512 512" style="enable-background:new 0 0 512 512;" xml:space="preserve">
<path style="fill:#E04E4B;" d="M153.972,325.771l-54.837,49.485c-0.041,0.038-15.368,14.616-9.505,36.641l0,0  c0.004,0.016,22.208,83.432,22.213,83.448c7.497,28.17,14.374,8.974,16.376,2.144c6.877-25.752,22.112-59.059,46.055-73.507  C164.666,395.134,157.779,361.613,153.972,325.771z"/>
<path style="fill:#C44137;" d="M161.08,373.152c3.447,41.095-26.425,75.636-62.544,72.206c0.004,0.016,13.301,49.971,13.306,49.987  c7.497,28.17,14.374,8.974,16.376,2.144c6.877-25.752,22.112-59.059,46.055-73.507C169.05,408.297,164.637,391.222,161.08,373.152z"/>
<path style="fill:#E04E4B;" d="M358.028,325.771l54.837,49.485c0.041,0.038,15.368,14.616,9.505,36.641l0,0  c-0.004,0.016-22.208,83.432-22.213,83.448c-7.497,28.17-14.374,8.974-16.376,2.144c-6.877-25.752-22.112-59.059-46.055-73.507  C347.333,395.134,354.221,361.613,358.028,325.771z"/>
<path style="fill:#C44137;" d="M350.92,373.152c-3.447,41.09,26.419,75.635,62.544,72.206c-0.004,0.016-13.301,49.971-13.306,49.987  c-7.497,28.17-14.374,8.974-16.376,2.144c-6.877-25.752-22.112-59.059-46.055-73.507C342.95,408.297,347.362,391.222,350.92,373.152  z"/>
<path style="fill:#E5E5E5;" d="M280.949,434.812h-10.923c-26.137,0-45.464,0-67.888,0v26.132c0,7.435,6.027,13.466,13.466,13.466  c33.373,0,20.986,0,54.422,0h10.923h15.447c7.436,0,13.466-6.031,13.466-13.466v-26.132H280.949z"/>
<path style="fill:#D1CFCF;" d="M222.738,460.944v-26.132c-7.441,0-12.815,0-20.6,0v26.132c0,7.435,6.027,13.466,13.466,13.466h20.6  C228.765,474.41,222.738,468.379,222.738,460.944z"/>
<path style="fill:#E5E5E5;" d="M178.08,78.984c-19.103,48.375-29.623,112.513-29.623,180.601c0,33.964,2.667,67.19,7.735,97.97  h199.614c14.532-88.277,9.252-199.717-21.886-278.571C292.379-26.224,219.704-26.433,178.08,78.984z"/>
<path style="fill:#D1CFCF;" d="M178.08,78.984c-31.366,79.428-36.3,191.043-21.888,278.571h20.6  C150.916,200.403,191.838,17.324,266.301,1.253C223.916-7.886,194.006,38.651,178.08,78.984z"/>
<circle style="fill:#49B5CE;" cx="255.997" cy="159.595" r="52.041"/>
<path style="fill:#34A4B7;" d="M232.002,159.599c0-23.88,16.09-43.99,38.018-50.113c-4.462-1.246-9.16-1.927-14.019-1.927  c-28.741,0-52.038,23.302-52.038,52.04s23.298,52.036,52.038,52.036c4.86,0,9.557-0.68,14.019-1.926  C248.092,203.586,232.002,183.478,232.002,159.599z"/>
<path style="fill:#2571A0;" d="M280.949,159.599c0,13.778-11.17,24.949-24.95,24.949c-13.779,0-24.95-11.171-24.95-24.949  c0-13.782,11.17-24.953,24.95-24.953C269.779,134.646,280.949,145.816,280.949,159.599z"/>
<path style="fill:#1A6287;" d="M256,159.599c0-9.235,5.019-17.292,12.475-21.607c-3.671-2.124-7.928-3.346-12.475-3.346  c-13.78,0-24.95,11.171-24.95,24.953c0,13.778,11.17,24.949,24.95,24.949c4.546,0,8.804-1.222,12.475-3.346  C261.019,176.887,256,168.831,256,159.599z"/>
<path style="fill:#414356;" d="M155.863,355.518c4.434,27.592,10.782,53.263,18.873,75.784c1.201,3.341,4.37,5.57,7.921,5.57h59.317  h28.053c7.106,0,52.349,0,59.319,0c3.55,0,6.72-2.229,7.921-5.57c8.09-22.521,14.438-48.193,18.871-75.784  C346.803,355.518,163.093,355.518,155.863,355.518z"/>
<path style="fill:#2D313F;" d="M195.336,431.302c-8.09-22.52-14.44-48.192-18.873-75.784h-20.6  c3.443,19.747,8.293,46.313,18.873,75.784c1.201,3.341,4.37,5.57,7.921,5.57h20.6C199.706,436.872,196.537,434.643,195.336,431.302z  "/>
<path style="fill:#E04E4B;" d="M256,512c-7.747,0-14.026-6.28-14.026-14.025v-170.51c0-7.749,6.279-14.027,14.026-14.027  c7.746,0,14.026,6.278,14.026,14.027v170.51C270.026,505.72,263.746,512,256,512z"/>
<path style="fill:#C44137;" d="M256,497.975v-170.51c0-5.19,2.824-9.71,7.013-12.136c-2.064-1.195-4.455-1.891-7.013-1.891  c-7.747,0-14.026,6.278-14.026,14.027v170.51c0,7.745,6.279,14.025,14.026,14.025c2.558,0,4.948-0.696,7.013-1.892  C258.824,507.682,256,503.163,256,497.975z"/>
<g>
</g>
<g>
</g>
<g>
</g>
<g>
</g>
<g>
</g>
<g>
</g>
<g>
</g>
<g>
</g>
<g>
</g>
<g>
</g>
<g>
</g>
<g>
</g>
<g>
</g>
<g>
</g>
<g>
</g>
</svg>
