<?xml version="1.0" encoding="iso-8859-1"?>
<!-- Generator: Adobe Illustrator 19.0.0, SVG Export Plug-In . SVG Version: 6.00 Build 0)  -->
<svg xmlns="http://www.w3.org/2000/svg" xmlns:xlink="http://www.w3.org/1999/xlink" version="1.1" id="Capa_1" x="0px" y="0px" viewBox="0 0 512 512" style="enable-background:new 0 0 512 512;" xml:space="preserve">
<path style="fill:#C16B3D;" d="M446.064,66.849c-5.199-5.198-10.641-10.002-16.28-14.433l17.702-17.702  c8.649-8.65,22.676-8.65,31.325,0c8.65,8.649,8.65,22.676,0,31.325l-17.773,17.775C456.463,77.927,451.472,72.257,446.064,66.849z"/>
<path style="fill:#B25932;" d="M458.92,51.136c6.77-6.771,15.832-9.846,24.69-9.241c-6.027-14.558-24.964-18.342-36.123-7.182  l-17.702,17.702c5.12,4.023,10.069,8.372,14.83,13.026L458.92,51.136z"/>
<path style="fill:#C16B3D;" d="M181.881,306.984c7.4,8.936,15.62,17.157,24.83,24.703L77.037,496.962  c-5.751,6.878-29.287,30.463-60.418-0.667c-29.381-29.381-9.537-51.515-1.308-58.621L181.881,306.984z"/>
<path style="fill:#B25932;" d="M40.904,462.213l152.707-142.367c-4.05-4.045-7.773-8.082-11.731-12.861L15.311,437.674  c-34.205,29.536,1.689,65.35,21.731,72.381C19.986,487.721,34.315,468.962,40.904,462.213z"/>
<circle style="fill:#EF5854;" cx="319.7" cy="193.21" r="180.16"/>
<path style="fill:#E04E4B;" d="M261.738,87.793c39.925-39.925,93.926-57.183,146.028-51.796  C339.142-2.492,250.68,7.447,192.307,65.82c-70.359,70.358-70.359,184.43,0,254.785c30.432,30.432,69.044,47.69,108.758,51.796  C196.794,313.916,177.462,172.068,261.738,87.793z"/>
<path style="fill:#FF8828;" d="M484.169,266.837c11.383-25.445,16.568-52.982,15.554-80.34L326.412,13.189  c-27.356-1.014-54.893,4.171-80.337,15.555L484.169,266.837z"/>
<path style="fill:#ED6E18;" d="M326.412,13.189c-27.356-1.014-54.893,4.171-80.337,15.555l39.199,39.2  c20.45-14.46,43.238-24.141,66.823-29.069L326.412,13.189z"/>
<path style="fill:#FF8828;" d="M155.23,119.59c-11.384,25.442-16.569,52.98-15.556,80.335l173.31,173.311  c27.356,1.014,54.894-4.17,80.338-15.554L155.23,119.59z"/>
<path style="fill:#ED6E18;" d="M221.796,282.047c-13.318-33.377-16.259-69.929-8.819-104.711L155.23,119.59  c-12.001,26.822-16.802,56.144-15.555,80.335L221.796,282.047z"/>
<path style="fill:#F0C419;" d="M393.324,357.682L155.23,119.591c17.496-39.105,49.373-72.289,90.846-90.848L484.17,266.837  C466.602,306.1,434.626,339.206,393.324,357.682z"/>
<path style="fill:#F7AC16;" d="M155.23,119.591l57.747,57.745c9.675-45.232,36.07-83.777,72.3-109.393l-39.2-39.2  C205.566,46.871,173.15,79.537,155.23,119.591z"/>
<g>
	<path style="fill:#C44137;" d="M487.134,277.517c-4.723,0,11.199,14.395-249.11-245.913c-3.013-3.014-3.013-7.898,0-10.912   c3.013-3.012,7.898-3.012,10.91,0l243.655,243.654C497.465,269.223,493.945,277.517,487.134,277.517z"/>
	<path style="fill:#C44137;" d="M497.736,195.422L315.483,13.17c-3.013-3.014-3.013-7.898,0-10.911c3.013-3.012,7.898-3.012,10.91,0   l182.253,182.252c3.013,3.014,3.013,7.898,0,10.911C505.634,198.434,500.75,198.435,497.736,195.422z"/>
	<path style="fill:#C44137;" d="M392.171,367.443l-246.7-246.701c-3.013-3.014-3.013-7.898,0-10.911   c3.013-3.012,7.898-3.012,10.91,0l246.7,246.701c3.013,3.014,3.013,7.898,0,10.911S395.184,370.455,392.171,367.443z"/>
	<path style="fill:#C44137;" d="M311.255,382.418L130.21,201.372c-3.013-3.014-3.013-7.898,0-10.912   c3.013-3.012,7.898-3.012,10.911,0l181.046,181.046c3.013,3.014,3.013,7.898,0,10.912   C319.151,385.431,314.268,385.429,311.255,382.418z"/>
</g>
<circle style="fill:#49B5CE;" cx="397.63" cy="268.18" r="23.14"/>
<path style="fill:#34A4B7;" d="M395.942,262.112c5.772-5.773,13.831-7.84,21.257-6.237c-0.904-1.435-1.963-2.8-3.213-4.049  c-9.036-9.037-23.684-9.037-32.72,0c-9.034,9.033-9.034,23.682,0,32.717c3.264,3.263,7.263,5.329,11.462,6.235  C387.099,281.839,388.158,269.894,395.942,262.112z"/>
<circle style="fill:#49B5CE;" cx="321.18" cy="191.73" r="23.14"/>
<path style="fill:#34A4B7;" d="M319.818,186.176c5.765-5.766,13.813-7.835,21.233-6.242c-0.964-1.621-2.118-3.162-3.514-4.559  c-9.034-9.034-23.685-9.037-32.719,0c-9.036,9.033-9.034,23.685,0,32.718c3.27,3.271,7.278,5.339,11.486,6.242  C311.026,205.458,312.178,193.814,319.818,186.176z"/>
<circle style="fill:#49B5CE;" cx="244.73" cy="115.28" r="23.14"/>
<path style="fill:#34A4B7;" d="M228.369,98.925c-9.035,9.036-9.035,23.685,0,32.718c0.245,0.245,0.51,0.458,0.763,0.69  c6.918-13.355,15.619-26.02,26.106-37.653C246.546,90.247,235.642,91.655,228.369,98.925z"/>
<g>
</g>
<g>
</g>
<g>
</g>
<g>
</g>
<g>
</g>
<g>
</g>
<g>
</g>
<g>
</g>
<g>
</g>
<g>
</g>
<g>
</g>
<g>
</g>
<g>
</g>
<g>
</g>
<g>
</g>
</svg>
