<?xml version="1.0" encoding="iso-8859-1"?>
<!-- Generator: Adobe Illustrator 19.0.0, SVG Export Plug-In . SVG Version: 6.00 Build 0)  -->
<svg xmlns="http://www.w3.org/2000/svg" xmlns:xlink="http://www.w3.org/1999/xlink" version="1.1" id="Capa_1" x="0px" y="0px" viewBox="0 0 512 512" style="enable-background:new 0 0 512 512;" xml:space="preserve">
<path style="fill:#C16B3D;" d="M505.276,175.53l-55.75-11.627c1.207,21.339-4.188,41.407-14.561,58.377l71.904-30.664  C514.468,188.376,513.369,177.216,505.276,175.53z"/>
<path style="fill:#B25932;" d="M434.965,222.28l52.783-22.51l-40.37-8.419C444.957,202.454,440.714,212.876,434.965,222.28z"/>
<path style="fill:#F0C419;" d="M451.769,169.783c0-55.677-45.135-100.812-100.813-100.812c-66.367,0-114.78,63.175-97.26,127.4  c0-0.003-0.003-0.005-0.003-0.005c0.003,0.113,0.542,45.886-33.302,45.886H21.017c-21.597,0-21.269,17.697-20.934,21.62  C10.868,364.59,96.12,443.029,199.699,443.029c105.605,0,192.161-81.53,200.17-185.082  C430.821,240.738,451.769,207.709,451.769,169.783z"/>
<path style="fill:#F7AC16;" d="M383.388,260.934c-56.992,0-103.193-46.201-103.193-103.193c0-35.628,18.056-67.04,45.517-85.582  c-53.867,13.889-86.944,69.49-72.015,124.212c0-0.003-0.003-0.005-0.003-0.005c0.003,0.113,0.542,45.886-33.302,45.886H21.017  c-21.597,0-21.269,17.697-20.934,21.62C10.868,364.59,96.12,443.029,199.699,443.029c105.026,0,191.199-80.643,200.018-183.385  C394.398,260.49,388.945,260.934,383.388,260.934z"/>
<path style="fill:#E2960E;" d="M22.844,263.871c-0.335-3.923-0.663-21.62,20.934-21.62H21.017c-21.597,0-21.269,17.697-20.934,21.62  C10.868,364.59,96.12,443.029,199.699,443.029c3.821,0,7.614-0.119,11.382-0.33C112.698,437.2,33.231,360.875,22.844,263.871z"/>
<path style="fill:#F9B946;" d="M199.699,393.178c46.489,0,89.691-20.955,118.526-57.492c2.655-3.364,2.08-8.243-1.284-10.898  c-3.364-2.654-8.243-2.079-10.898,1.284c-25.875,32.785-64.636,51.588-106.345,51.588c-74.664,0-135.407-60.743-135.407-135.408  H48.773C48.773,325.473,116.478,393.178,199.699,393.178z"/>
<circle style="fill:#414356;" cx="384" cy="148.43" r="19.957"/>
<path style="fill:#2D313F;" d="M393.974,131.165c-13.28-7.692-29.935,1.918-29.935,17.266c0,11.022,8.934,19.955,19.956,19.955  c3.64,0,7.041-0.989,9.979-2.691C380.671,157.989,380.691,138.862,393.974,131.165z"/>
<g>
</g>
<g>
</g>
<g>
</g>
<g>
</g>
<g>
</g>
<g>
</g>
<g>
</g>
<g>
</g>
<g>
</g>
<g>
</g>
<g>
</g>
<g>
</g>
<g>
</g>
<g>
</g>
<g>
</g>
</svg>
