<?xml version="1.0" encoding="iso-8859-1"?>
<!-- Generator: Adobe Illustrator 19.0.0, SVG Export Plug-In . SVG Version: 6.00 Build 0)  -->
<svg xmlns="http://www.w3.org/2000/svg" xmlns:xlink="http://www.w3.org/1999/xlink" version="1.1" id="Capa_1" x="0px" y="0px" viewBox="0 0 512 512" style="enable-background:new 0 0 512 512;" xml:space="preserve">
<path style="fill:#A54925;" d="M376.886,0c-21.831,0-40.809,12.196-50.502,30.145c28.695,18.957,49.305,49.166,55.524,84.348  c29.326-2.546,52.34-27.143,52.34-57.13C434.248,25.681,408.566,0,376.886,0z"/>
<path style="fill:#933C21;" d="M425.159,26.395c23.658,36.799-1.199,85.766-45.001,88.232c-1.178-6.706-2.884-13.228-5.064-19.53  C408.475,91.562,432.082,59.889,425.159,26.395z"/>
<path style="fill:#B25830;" d="M375.121,34.202c-11.206,0-20.617,7.597-23.427,17.915c8.057,9.084,14.843,19.322,20.07,30.439  c1.1,0.151,2.215,0.259,3.356,0.259c13.425,0,24.307-10.881,24.307-24.307C399.428,45.083,388.547,34.202,375.121,34.202z"/>
<path style="fill:#BC5F3B;" d="M343.102,230.509c-49.36,45.959-125.95,45.689-174.99-0.726  c-9.144,6.426-15.129,17.048-15.129,29.078v69.084c53.697,1.14,84.168,84.351,54.012,144.268h101.199  c-29.339-58.304-1.456-137.713,49.035-143.914V258.86C357.229,247.275,351.683,236.992,343.102,230.509z"/>
<path style="fill:#B25830;" d="M297.559,472.212c-63.295-54.125-69.115-149.241-13.349-210.565  c-40.52,9.127-84.225-1.698-116.097-31.865c-9.144,6.426-15.129,17.048-15.129,29.078v69.084  c53.697,1.14,84.168,84.351,54.012,144.268L297.559,472.212L297.559,472.212z"/>
<path style="fill:#A54925;" d="M475.307,319.357l-91.173-86.594c-8.875-8.431-20.386-12.355-31.72-11.867  c-2.935,3.365-8.104,6.57-11.372,9.612c8.58,6.485,14.127,16.766,14.127,28.351v69.981l1.438,1.366  c1.517-0.14,3.043-0.238,4.589-0.238c29.276,0,56.206,23.801,65.288,59.807c16.541,8.053,37.061,4.918,50.404-9.133  C493.373,363.284,492.666,335.843,475.307,319.357z"/>
<path style="fill:#933C21;" d="M434.116,365.965l-78.947-64.883v27.76l1.438,1.366c1.517-0.14,3.043-0.238,4.589-0.238  c29.276,0,56.206,23.801,65.288,59.807c16.541,8.053,37.061,4.918,50.404-9.133c3.299-3.474,5.898-7.355,7.825-11.468  C469.344,378.837,448.909,378.123,434.116,365.965z"/>
<path style="fill:#A54925;" d="M153.996,329.969c0.357,0,0.706,0.028,1.062,0.037c-0.005,0-0.01-0.002-0.014-0.002V258.86  c0-12.03,5.984-22.652,15.129-29.078c0.058,0.053,0.118,0.108,0.176,0.161c-3.046-2.873-8.012-5.892-10.765-9.047  c-11.334-0.488-22.843,3.436-31.718,11.867l-91.174,86.594c-17.359,16.486-18.065,43.927-1.58,61.286  c14.364,15.122,37.039,17.601,54.12,7.091C98.728,352.792,125.275,329.969,153.996,329.969z"/>
<path style="fill:#933C21;" d="M155.045,301.713l-77.138,64.043c-14.741,12.24-35.186,13.048-50.605,3.446  c11.098,23.646,40.172,31.92,61.931,18.531c9.495-34.941,36.042-57.764,64.764-57.764c0.357,0,0.706,0.028,1.062,0.037  c-0.005,0-0.01-0.002-0.014-0.002V301.713z"/>
<ellipse style="fill:#BC613C;" cx="151.94" cy="419.93" rx="66.922" ry="92.02"/>
<ellipse style="fill:#E5955E;" cx="151.94" cy="459.37" rx="38.24" ry="52.581"/>
<ellipse style="fill:#BC613C;" cx="363.26" cy="419.93" rx="66.923" ry="92.02"/>
<g>
	<path style="fill:#AA502D;" d="M380.316,342.25c9.196,0,17.958,2.552,25.934,7.166c-11.629-13.42-26.624-21.507-42.994-21.507   c-36.961,0-66.923,41.199-66.923,92.018c0,38.175,16.908,70.92,40.988,84.852C289.698,449.82,317.959,342.25,380.316,342.25z"/>
	<path style="fill:#AA502D;" d="M102.073,434.268c0-65.418,48.622-110.441,92.856-84.852c-11.629-13.42-26.624-21.507-42.994-21.507   c-36.961,0-66.923,41.199-66.923,92.018c0,38.175,16.908,70.92,40.988,84.852C111.375,487.899,102.073,462.578,102.073,434.268z"/>
</g>
<ellipse style="fill:#E5955E;" cx="363.26" cy="459.37" rx="38.24" ry="52.581"/>
<g>
	<path style="fill:#DB8C52;" d="M163.306,409.145c-24.712-10.562-49.611,14.944-49.611,50.22c0,29.04,17.122,52.581,38.241,52.581   c3.959,0,7.778-0.828,11.37-2.363C127.622,494.325,127.642,424.394,163.306,409.145z"/>
	<path style="fill:#DB8C52;" d="M374.625,409.145c-24.728-10.57-49.611,14.966-49.611,50.22c0,35.069,24.757,60.841,49.611,50.218   C338.942,494.326,338.959,424.394,374.625,409.145z"/>
	<path style="fill:#DB8C52;" d="M193.001,347.305c28.34,30.325,33.969,85.219,13.995,124.907h101.199   c-19.17-38.095-14.791-90.222,10.804-121.269C289.773,288.63,224.08,286.772,193.001,347.305z"/>
</g>
<path style="fill:#D8774C;" d="M257.62,303.075c-28.328-1.262-51.424,18.536-64.615,44.222  c29.064,31.095,33.435,86.279,13.99,124.915h90.563C248.133,429.947,232.803,361.364,257.62,303.075z"/>
<path style="fill:#C9724C;" d="M256,8.523c-70.792,0-128.385,57.593-128.385,128.385c0,70.791,57.594,128.384,128.385,128.384  c70.792,0,128.384-57.593,128.384-128.384C384.384,66.116,326.792,8.523,256,8.523z"/>
<path style="fill:#C16B3D;" d="M148.219,136.908c0-67.324,52.09-122.706,118.083-127.971  c-74.808-5.979-138.688,53.268-138.688,127.971c0,74.568,63.745,133.957,138.688,127.97  C200.31,259.613,148.219,204.231,148.219,136.908z"/>
<path style="fill:#A54925;" d="M184.292,31.025C174.749,12.599,155.521,0,133.339,0c-31.68,0-57.362,25.681-57.362,57.363  c0,30.583,23.934,55.566,54.09,57.263C136.164,79.93,156.249,50.052,184.292,31.025z"/>
<path style="fill:#933C21;" d="M85.066,26.395c-23.658,36.799,1.199,85.766,45.001,88.232c1.178-6.706,2.884-13.228,5.064-19.53  C101.75,91.562,78.144,59.889,85.066,26.395z"/>
<path style="fill:#B25830;" d="M136.876,34.202c-13.423,0-24.307,10.881-24.307,24.306c0,14.48,12.695,26.1,27.668,24.048  c5.228-11.119,12.007-21.363,20.063-30.45C157.487,41.792,148.08,34.202,136.876,34.202z"/>
<path style="fill:#823119;" d="M299.267,197.309c-4.267,0-7.727,3.459-7.727,7.727c0,7.915-6.439,14.354-14.354,14.354  c-7.914,0-14.353-6.439-14.353-14.354v-11.457c0-4.268-3.459-7.727-7.727-7.727c-4.267,0-7.727,3.459-7.727,7.727v11.457  c0,7.915-6.439,14.354-14.354,14.354c-7.915,0-14.355-6.439-14.355-14.354c0-4.268-3.459-7.727-7.727-7.727  s-7.727,3.459-7.727,7.727c0,27.21,33.645,40.121,51.889,20.002c18.233,20.107,51.887,7.219,51.887-20.002  C306.993,200.768,303.534,197.309,299.267,197.309z"/>
<g>
	<circle style="fill:#414356;" cx="308.7" cy="120.45" r="16.731"/>
	<circle style="fill:#414356;" cx="201.93" cy="120.45" r="16.731"/>
</g>
<g>
	<path style="fill:#2D313F;" d="M308.705,120.454c0-6.188,3.369-11.58,8.366-14.475c-2.463-1.427-5.314-2.257-8.365-2.257   c-9.241,0-16.731,7.491-16.731,16.731c0,9.239,7.49,16.73,16.731,16.73c3.051,0,5.902-0.83,8.365-2.257   C312.075,132.033,308.705,126.643,308.705,120.454z"/>
	<path style="fill:#2D313F;" d="M201.925,120.454c0-6.188,3.369-11.58,8.365-14.475c-2.463-1.427-5.314-2.257-8.365-2.257   c-9.241,0-16.731,7.491-16.731,16.731c0,9.239,7.49,16.73,16.731,16.73c3.051,0,5.902-0.83,8.365-2.257   C205.294,132.033,201.925,126.643,201.925,120.454z"/>
</g>
<ellipse style="fill:#A54925;" cx="256" cy="172.44" rx="39.735" ry="23.304"/>
<path style="fill:#91381D;" d="M239.528,172.443c0-10.495,11.835-19.368,28.103-22.286c-3.679-0.66-7.584-1.017-11.632-1.017  c-21.945,0-39.735,10.434-39.735,23.303c0,12.871,17.791,23.304,39.735,23.304c4.048,0,7.952-0.357,11.632-1.017  C251.363,191.813,239.528,182.939,239.528,172.443z"/>
<g>
</g>
<g>
</g>
<g>
</g>
<g>
</g>
<g>
</g>
<g>
</g>
<g>
</g>
<g>
</g>
<g>
</g>
<g>
</g>
<g>
</g>
<g>
</g>
<g>
</g>
<g>
</g>
<g>
</g>
</svg>
