<?xml version="1.0" encoding="iso-8859-1"?>
<!-- Generator: Adobe Illustrator 19.0.0, SVG Export Plug-In . SVG Version: 6.00 Build 0)  -->
<svg xmlns="http://www.w3.org/2000/svg" xmlns:xlink="http://www.w3.org/1999/xlink" version="1.1" id="Capa_1" x="0px" y="0px" viewBox="0 0 512 512" style="enable-background:new 0 0 512 512;" xml:space="preserve">
<path style="fill:#414356;" d="M424.531,499.199c0,7.071-5.728,12.801-12.797,12.801H100.266c-7.067,0-12.797-5.73-12.797-12.801  V12.801C87.469,5.732,93.199,0,100.266,0h311.468c7.069,0,12.797,5.732,12.797,12.801L424.531,499.199L424.531,499.199z"/>
<path style="fill:#2D313F;" d="M108.348,499.199V12.801c0-7.069,5.73-12.801,12.797-12.801h-20.88  c-7.067,0-12.797,5.732-12.797,12.801v486.397c0,7.071,5.731,12.801,12.797,12.801h20.88  C114.079,512,108.348,506.27,108.348,499.199z"/>
<path style="fill:#E04E4B;" d="M159.146,344.361v10.732h-10.732c-7.731,0-13.997,6.27-13.997,13.999  c-0.004,7.732,6.266,14.001,13.997,13.999l10.732,0.002v10.73c0,7.731,6.27,13.998,14.001,13.998  c7.731,0,13.999-6.267,13.999-13.998v-10.73l10.732-0.002c7.729,0.002,13.999-6.267,13.999-13.999  c0-7.729-6.27-13.999-13.999-13.999h-10.732v-10.732c0-7.731-6.27-13.998-13.999-13.998  C165.415,330.363,159.146,336.63,159.146,344.361z"/>
<path style="fill:#C44137;" d="M172.885,393.824c0-5.867,0.826-10.731-6.174-10.731l-4.558-0.001  c-7.731,0.002-14.001-6.267-13.997-13.999c-0.004-7.732,6.266-14.001,13.997-13.999c5.217-0.001,4.313-0.001,5.387-0.001  c11.072-0.61-0.918-15.358,12.475-22.92c-9.301-5.255-20.871,1.48-20.871,12.189c0,1.35,0,9.411,0,10.732h-10.732  c-7.731,0-13.997,6.27-13.997,13.999s6.266,13.999,13.997,13.999h10.732c0,1.355,0,9.428,0,10.732  c0,7.731,6.27,13.998,14.001,13.998c2.498,0,4.839-0.662,6.87-1.809C175.663,403.554,172.885,398.945,172.885,393.824z"/>
<g>
	<path style="fill:#F0C419;" d="M319.034,398.128c0,11.642-9.436,21.08-21.078,21.08c-11.64,0-21.076-9.438-21.076-21.08   c0-11.639,9.436-21.074,21.076-21.074C309.598,377.054,319.034,386.489,319.034,398.128z"/>
	<path style="fill:#F0C419;" d="M377.589,340.056c0,11.643-9.438,21.079-21.078,21.079c-11.642,0-21.076-9.436-21.076-21.079   c0-11.638,9.434-21.077,21.076-21.077C368.151,318.979,377.589,328.418,377.589,340.056z"/>
</g>
<g>
	<path style="fill:#F7AC16;" d="M308.495,379.896c-14.017-8.12-31.615,2.018-31.615,18.232c0,11.642,9.436,21.08,21.076,21.08   c3.844,0,7.436-1.046,10.539-2.843C294.448,408.227,294.467,388.021,308.495,379.896z"/>
	<path style="fill:#F7AC16;" d="M356.512,340.056c0-7.796,4.244-14.588,10.537-18.234c-3.103-1.797-6.695-2.843-10.538-2.843   c-11.642,0-21.076,9.439-21.076,21.077c0,11.643,9.434,21.079,21.076,21.079c3.843,0,7.435-1.046,10.538-2.842   C360.757,354.647,356.512,347.854,356.512,340.056z"/>
</g>
<path style="fill:#49B5CE;" d="M390.936,259.201c0,7.067-5.735,12.799-12.804,12.799H133.868c-7.069,0-12.8-5.732-12.8-12.799  V45.867c0-7.068,5.731-12.8,12.8-12.8h244.264c7.069,0,12.804,5.732,12.804,12.8V259.201z"/>
<path style="fill:#34A4B7;" d="M141.68,259.201V45.867c0-7.068,5.731-12.8,12.8-12.8h-20.611c-7.069,0-12.8,5.732-12.8,12.8v213.335  c0,7.067,5.731,12.799,12.8,12.799h20.611C147.41,272.001,141.68,266.268,141.68,259.201z"/>
<path style="fill:#2571A0;" d="M121.068,232.497v27.734c0,7.067,5.731,12.799,12.8,12.799h244.264  c7.069,0,12.804-5.732,12.804-12.799v-27.734H121.068z"/>
<path style="fill:#1A6287;" d="M133.868,272.001h20.611c-7.069,0-12.8-5.732-12.8-12.799v-26.704h-20.611v26.704  C121.068,266.268,126.799,272.001,133.868,272.001z"/>
<g>
	<path style="fill:#EFEFEF;" d="M345.184,88.441H166.82c-4.269,0-7.729-3.46-7.729-7.729s3.461-7.729,7.729-7.729h178.365   c4.269,0,7.729,3.46,7.729,7.729S349.453,88.441,345.184,88.441z"/>
	<path style="fill:#EFEFEF;" d="M345.184,113.328H166.82c-4.269,0-7.729-3.46-7.729-7.729s3.461-7.729,7.729-7.729h178.365   c4.269,0,7.729,3.46,7.729,7.729S349.453,113.328,345.184,113.328z"/>
	<path style="fill:#EFEFEF;" d="M260.568,138.219H166.82c-4.269,0-7.729-3.46-7.729-7.729s3.461-7.729,7.729-7.729h93.749   c4.269,0,7.729,3.46,7.729,7.729C268.297,134.758,264.837,138.219,260.568,138.219z"/>
</g>
<path style="fill:#F0C419;" d="M241.081,177.037c0-7.855-6.371-14.222-14.223-14.222H181.04c-7.852,0-14.22,6.368-14.22,14.222  c0,9.162,6.886,14.815,14.22,14.815h45.818C234.232,191.853,241.081,186.162,241.081,177.037z"/>
<path style="fill:#3BBC56;" d="M345.184,177.628v-0.591c0-7.855-6.373-14.222-14.224-14.222h-45.816  c-7.375,0-14.223,5.689-14.223,14.813c0,7.855,6.369,14.224,14.223,14.224h45.816C338.813,191.853,345.184,185.483,345.184,177.628z  "/>
<path style="fill:#F7AC16;" d="M203.951,177.037c0-7.855,6.369-14.222,14.22-14.222h-37.13c-7.373,0-14.22,5.689-14.22,14.813  c0,7.855,6.369,14.224,14.22,14.224h37.13C210.797,191.853,203.951,186.162,203.951,177.037z"/>
<path style="fill:#31A845;" d="M308.052,177.628v-0.591c0-7.855,6.369-14.222,14.223-14.222h-37.13  c-7.375,0-14.223,5.689-14.223,14.813c0,7.855,6.369,14.224,14.223,14.224h37.13C314.421,191.853,308.052,185.483,308.052,177.628z"/>
<path style="fill:#6D6E72;" d="M313.692,476.061H198.309c-7.069,0-12.8,5.729-12.8,12.799V512h140.985v-23.139  C326.494,481.791,320.763,476.061,313.692,476.061z"/>
<path style="fill:#585A60;" d="M219.188,476.061h-20.879c-7.069,0-12.8,5.729-12.8,12.799V512h20.879v-23.139  C206.387,481.791,212.118,476.061,219.188,476.061z"/>
<g>
</g>
<g>
</g>
<g>
</g>
<g>
</g>
<g>
</g>
<g>
</g>
<g>
</g>
<g>
</g>
<g>
</g>
<g>
</g>
<g>
</g>
<g>
</g>
<g>
</g>
<g>
</g>
<g>
</g>
</svg>
