<?xml version="1.0" encoding="iso-8859-1"?>
<!-- Generator: Adobe Illustrator 19.0.0, SVG Export Plug-In . SVG Version: 6.00 Build 0)  -->
<svg xmlns="http://www.w3.org/2000/svg" xmlns:xlink="http://www.w3.org/1999/xlink" version="1.1" id="Capa_1" x="0px" y="0px" viewBox="0 0 512 512" style="enable-background:new 0 0 512 512;" xml:space="preserve">
<g>
	<path style="fill:#EFEFEF;" d="M272.649,329.554v126.687c0,7.652,6.202,13.855,13.854,13.855h29.435   c7.653,0,13.854-6.204,13.854-13.855V329.554H272.649z"/>
	<path style="fill:#EFEFEF;" d="M182.208,329.554v126.687c0,7.652,6.201,13.855,13.852,13.855h29.436   c7.652,0,13.854-6.204,13.854-13.855V329.554H182.208z"/>
</g>
<g>
	<path style="fill:#E5E5E5;" d="M300.593,456.241V329.554h-27.944v126.687c0,7.652,6.202,13.855,13.854,13.855h27.944   C306.796,470.096,300.593,463.893,300.593,456.241z"/>
	<path style="fill:#E5E5E5;" d="M210.152,456.241V329.554h-27.944v126.687c0,7.652,6.201,13.855,13.852,13.855h27.944   C216.354,470.096,210.152,463.893,210.152,456.241z"/>
</g>
<path style="fill:#C4C4C4;" d="M309.063,94.755c0,12.559-10.181,22.742-22.742,22.742h-60.643c-12.56,0-22.741-10.183-22.741-22.742  V22.742C202.938,10.183,213.118,0,225.678,0h60.643c12.561,0,22.742,10.183,22.742,22.742V94.755z"/>
<path style="fill:#BABABA;" d="M223.939,94.755V22.742C223.939,10.183,234.12,0,246.68,0h-21.001  c-12.56,0-22.741,10.183-22.741,22.742v72.013c0,12.559,10.181,22.742,22.741,22.742h21.001  C234.12,117.497,223.939,107.314,223.939,94.755z"/>
<g>
	<path style="fill:#585A60;" d="M202.938,21.897h-11.482c-7.078,0-12.818,5.739-12.818,12.818v18.693   c0,7.078,5.74,12.818,12.818,12.818h11.482V21.897z"/>
	<path style="fill:#585A60;" d="M309.063,21.897h11.482c7.078,0,12.818,5.739,12.818,12.818v18.693   c0,7.078-5.74,12.818-12.818,12.818h-11.482V21.897z"/>
</g>
<path style="fill:#C4C4C4;" d="M346.521,319.828c0,7.08-5.739,12.818-12.819,12.818H178.298c-7.08,0-12.818-5.738-12.818-12.818  V153.206c0-7.078,5.738-12.818,12.818-12.818h155.406c7.079,0,12.819,5.74,12.819,12.818v166.622H346.521z"/>
<path style="fill:#BABABA;" d="M256,319.828V153.206c0-7.078,5.738-12.818,12.818-12.818h-90.521c-7.08,0-12.818,5.74-12.818,12.818  v166.622c0,7.08,5.738,12.818,12.818,12.818h90.521C261.738,332.646,256,326.908,256,319.828z"/>
<g>
	<path style="fill:#6D6E72;" d="M389.809,156.043h-29.435c-7.652,0-13.853,6.203-13.853,13.854v133.239   c0,7.652,6.202,13.855,13.853,13.855h29.435c7.653,0,13.855-6.203,13.855-13.855V169.897   C403.665,162.246,397.462,156.043,389.809,156.043z"/>
	<path style="fill:#6D6E72;" d="M151.626,156.043h-29.436c-7.651,0-13.853,6.203-13.853,13.854v133.239   c0,7.652,6.202,13.855,13.853,13.855h29.436c7.652,0,13.854-6.203,13.854-13.855V169.897   C165.48,162.246,159.277,156.043,151.626,156.043z"/>
</g>
<g>
	<path style="fill:#585A60;" d="M375.093,303.136V169.897c0-7.651,6.201-13.854,13.853-13.854h-28.572   c-7.652,0-13.853,6.203-13.853,13.854v133.239c0,7.652,6.202,13.855,13.853,13.855h28.572   C381.294,316.991,375.093,310.788,375.093,303.136z"/>
	<path style="fill:#585A60;" d="M136.908,303.136V169.897c0-7.651,6.202-13.854,13.853-13.854h-28.572   c-7.651,0-13.853,6.203-13.853,13.854v133.239c0,7.652,6.202,13.855,13.853,13.855h28.572   C143.111,316.991,136.908,310.788,136.908,303.136z"/>
</g>
<g>
	<path style="fill:#414356;" d="M362.274,280.924h-15.753v22.212c0,7.652,6.202,13.855,13.853,13.855h14.719v-23.25   C375.093,286.662,369.353,280.924,362.274,280.924z"/>
	<path style="fill:#414356;" d="M149.726,280.924h15.754v22.212c0,7.652-6.203,13.855-13.854,13.855h-14.718v-23.25   C136.908,286.662,142.646,280.924,149.726,280.924z"/>
</g>
<g>
	<path style="fill:#585A60;" d="M329.793,499.182c0,7.078-5.739,12.818-12.818,12.818h-31.508c-7.078,0-12.818-5.739-12.818-12.818   v-16.268c0-7.079,5.74-12.818,12.818-12.818h31.508c7.079,0,12.818,5.738,12.818,12.818V499.182z"/>
	<path style="fill:#585A60;" d="M239.351,499.182c0,7.078-5.739,12.818-12.819,12.818h-31.507c-7.08,0-12.818-5.739-12.818-12.818   v-16.268c0-7.079,5.738-12.818,12.818-12.818h31.507c7.08,0,12.819,5.738,12.819,12.818V499.182z"/>
</g>
<g>
	<path style="fill:#414356;" d="M301.22,499.182v-16.268c0-7.079,5.74-12.818,12.818-12.818h-28.571   c-7.078,0-12.818,5.738-12.818,12.818v16.268c0,7.078,5.74,12.818,12.818,12.818h28.571C306.96,512,301.22,506.261,301.22,499.182z   "/>
	<path style="fill:#414356;" d="M210.78,499.182v-16.268c0-7.079,5.738-12.818,12.818-12.818h-28.571   c-7.08,0-12.818,5.738-12.818,12.818v16.268c0,7.078,5.738,12.818,12.818,12.818h28.571C216.517,512,210.78,506.261,210.78,499.182   z"/>
</g>
<path style="fill:#49B5CE;" d="M200.456,140.337v18.821c0,6.954,5.637,12.59,12.59,12.59h85.909c6.951,0,12.588-5.636,12.588-12.59  v-18.821H200.456z"/>
<path style="fill:#34A4B7;" d="M255.999,159.158v-18.821h-55.543v18.821c0,6.954,5.637,12.59,12.59,12.59h55.543  C261.636,171.748,255.999,166.112,255.999,159.158z"/>
<circle style="fill:#F0C419;" cx="256" cy="218.7" r="22.698"/>
<path style="fill:#F7AC16;" d="M255.999,218.704c0-8.4,4.567-15.729,11.349-19.654c-3.339-1.932-7.213-3.044-11.349-3.044  c-12.536,0-22.698,10.162-22.698,22.698c0,17.51,19.001,28.361,34.048,19.654C260.566,234.433,255.999,227.104,255.999,218.704z"/>
<g>
	<circle style="fill:#414356;" cx="235.001" cy="48.3" r="9.153"/>
	<circle style="fill:#414356;" cx="277" cy="48.3" r="9.154"/>
</g>
<path style="fill:#E5E5E5;" d="M309.215,95.318H200.844c-4.269,0-7.729-3.46-7.729-7.729s3.46-7.729,7.729-7.729h108.372  c4.269,0,7.729,3.46,7.729,7.729C316.944,91.857,313.483,95.318,309.215,95.318z"/>
<g>
</g>
<g>
</g>
<g>
</g>
<g>
</g>
<g>
</g>
<g>
</g>
<g>
</g>
<g>
</g>
<g>
</g>
<g>
</g>
<g>
</g>
<g>
</g>
<g>
</g>
<g>
</g>
<g>
</g>
</svg>
