<?xml version="1.0" encoding="iso-8859-1"?>
<!-- Generator: Adobe Illustrator 19.0.0, SVG Export Plug-In . SVG Version: 6.00 Build 0)  -->
<svg xmlns="http://www.w3.org/2000/svg" xmlns:xlink="http://www.w3.org/1999/xlink" version="1.1" id="Capa_1" x="0px" y="0px" viewBox="0 0 512 512" style="enable-background:new 0 0 512 512;" xml:space="preserve">
<path style="fill:#49B5CE;" d="M479.496,262.111L256,38.615L32.504,262.111c-7.243,7.243-18.988,7.243-26.231,0  c-7.242-7.243-7.242-18.987,0-26.23L232.393,9.762c13.017-13.018,34.197-13.015,47.213,0l226.12,226.119  c7.244,7.243,7.244,18.987,0,26.23C498.486,269.354,486.739,269.358,479.496,262.111z"/>
<path style="fill:#34A4B7;" d="M54.416,240.199L281.675,11.832l-2.069-2.07c-13.016-13.015-34.196-13.018-47.213,0L6.273,235.881  c-7.242,7.243-7.242,18.987,0,26.23c7.243,7.243,18.988,7.243,26.231,0L54.416,240.199C55.251,238.65,53.107,241.508,54.416,240.199  z"/>
<polygon style="fill:#F0C419;" points="256,36.555 64.339,228.218 64.339,476.965 447.661,476.965 447.661,228.216 "/>
<polygon style="fill:#F7AC16;" points="85.974,236.46 270.423,50.978 256,36.555 64.339,228.218 64.339,476.965 85.974,476.965 "/>
<path style="fill:#E04E4B;" d="M187.991,381.402h-31.887H64.339v93.502c10.065,0,372.732,0,383.322,0v-93.502L187.991,381.402  L187.991,381.402z"/>
<rect x="64.34" y="381.4" style="fill:#C44137;" width="21.635" height="93.5"/>
<path style="fill:#585A60;" d="M64.339,446.938v27.967c6.891,0,373.001,0,383.322,0v-27.967  C436.79,446.938,70.917,446.938,64.339,446.938z"/>
<rect x="64.34" y="446.94" style="fill:#414356;" width="21.635" height="27.967"/>
<polygon style="fill:#C16B3D;" points="447.661,179.876 447.661,36.555 373.769,36.555 373.769,105.984 "/>
<polygon style="fill:#B25932;" points="410.715,142.93 410.715,36.555 373.769,36.555 373.769,105.984 "/>
<path style="fill:#C4C4C4;" d="M309.17,287.897H202.829c-8.196,0-14.838,6.644-14.838,14.838v172.169h136.018V302.735  C324.009,294.542,317.365,287.897,309.17,287.897z"/>
<path style="fill:#BABABA;" d="M232.01,287.897h-29.181c-8.196,0-14.838,6.644-14.838,14.838v172.169h29.181V302.735  C217.172,294.542,223.815,287.897,232.01,287.897z"/>
<path style="fill:#989DA0;" d="M217.172,399.639c-4.268,0-7.727-3.459-7.727-7.727v-21.02c0-4.268,3.459-7.727,7.727-7.727  c4.267,0,7.727,3.459,7.727,7.727v21.02C224.899,396.18,221.44,399.639,217.172,399.639z"/>
<path style="fill:#C16B3D;" d="M477.956,512H34.044c-10.245,0-18.548-8.303-18.548-18.547c0-10.243,8.302-18.548,18.548-18.548  h443.912c10.242,0,18.547,8.305,18.547,18.548C496.504,503.697,488.198,512,477.956,512z"/>
<path style="fill:#B25932;" d="M477.956,493.452H34.044c-6.862,0-12.838-3.735-16.046-9.273C10.842,496.533,19.793,512,34.044,512  h443.912c10.242,0,18.547-8.303,18.547-18.547c0-3.383-0.92-6.544-2.502-9.274C490.793,489.717,484.816,493.452,477.956,493.452z"/>
<path style="fill:#E04E4B;" d="M469.648,20.067c0-10.242-8.305-18.547-18.548-18.547h-81.782c-10.243,0-18.547,8.305-18.547,18.547  c0,10.245,8.304,18.548,18.547,18.548H451.1C461.343,38.615,469.648,30.312,469.648,20.067z"/>
<path style="fill:#C44137;" d="M392.242,20.067c0-10.242,8.304-18.547,18.547-18.547h-41.471c-10.243,0-18.547,8.305-18.547,18.547  c0,10.245,8.304,18.548,18.547,18.548h41.471C400.546,38.615,392.242,30.312,392.242,20.067z"/>
<g>
</g>
<g>
</g>
<g>
</g>
<g>
</g>
<g>
</g>
<g>
</g>
<g>
</g>
<g>
</g>
<g>
</g>
<g>
</g>
<g>
</g>
<g>
</g>
<g>
</g>
<g>
</g>
<g>
</g>
</svg>
