<?xml version="1.0" encoding="iso-8859-1"?>
<!-- Generator: Adobe Illustrator 19.0.0, SVG Export Plug-In . SVG Version: 6.00 Build 0)  -->
<svg xmlns="http://www.w3.org/2000/svg" xmlns:xlink="http://www.w3.org/1999/xlink" version="1.1" id="Capa_1" x="0px" y="0px" viewBox="0 0 512 512" style="enable-background:new 0 0 512 512;" xml:space="preserve">
<path style="fill:#D1CFCF;" d="M43.981,63.3c-0.457-0.241-25.873-13.516-17.461,15.141c0.002,0.005,0.002,0.009,0.007,0.016  l16.307,53.08c14.03-14.976,33.773-27.695,57.411-37.044L43.981,63.3z"/>
<g>
	<path style="fill:#BABABA;" d="M55.651,70.222c-0.01-0.014-0.149-0.52-0.154-0.537L43.981,63.3   c-0.457-0.241-25.873-13.516-17.461,15.141c0.002,0.005,0.002,0.009,0.007,0.016l16.307,53.08   c7.058-7.534,15.564-14.495,25.282-20.745L55.651,70.222z"/>
	<path style="fill:#BABABA;" d="M65.859,257.431L3.902,392.497c-14.432,31.466,13.406,65.676,46.866,58.522   c12.51-2.674,23.647-11.015,29.391-23.539l64.31-140.199C113.993,281.737,86.975,271.291,65.859,257.431z"/>
</g>
<path style="fill:#989DA0;" d="M105.347,276.845L50.25,396.96c-7.972,17.378,0.313,38.242,18.907,45.019  c9.49-8.042,4.664-0.683,75.312-154.698C130.64,284.768,117.524,281.242,105.347,276.845z"/>
<path style="fill:#BABABA;" d="M201.355,291.663v39.527h-77.028l-12.025,26.218h89.577c14.167,0,25.692-11.524,25.692-25.694v-41.84  c-0.007,0.002-0.014,0.005-0.021,0.005C219.017,290.857,210.271,291.462,201.355,291.663z"/>
<path style="fill:#D1CFCF;" d="M395.85,96.935h-2.093c-8.315,0-15.061,6.743-15.061,15.061v24.437h32.216v-24.437  C410.912,103.678,404.169,96.935,395.85,96.935z"/>
<path style="fill:#585A60;" d="M351.175,134.374c12.625,14.852,19.766,31.728,19.766,49.622c0,21.844-10.636,42.163-28.901,59.143  c52.065-45.569,139.804-45.658,139.804-45.658v-63.107H351.175z"/>
<path style="fill:#414356;" d="M342.039,243.139c52.065-45.569,139.804-45.658,139.804-45.658v-28.44  c0,0-57.761,0.053-111.136,20.472C369.078,209.257,358.756,227.598,342.039,243.139z"/>
<ellipse style="fill:#EF5854;" cx="194.765" cy="183.995" rx="176.175" ry="107.753"/>
<path style="fill:#E04E4B;" d="M256.659,253.141c-134.511,0-220.624-89.442-152.741-161.476  c-51.13,18.859-85.324,53.151-85.324,92.331c0,59.511,78.874,107.749,176.173,107.749c65.309,0,122.314-21.734,152.74-54.022  C320.981,247.509,289.897,253.141,256.659,253.141z"/>
<path style="fill:#C44137;" d="M373,192.767H13.072c-4.264,0-7.721-3.456-7.721-7.721s3.457-7.721,7.721-7.721H373  c4.264,0,7.721,3.456,7.721,7.721C380.721,189.31,377.263,192.767,373,192.767z"/>
<path style="fill:#49B5CE;" d="M496.938,118.477h-2.093c-8.318,0-15.061,6.743-15.061,15.063v64.609  c0,8.316,6.743,15.061,15.061,15.061h2.093c8.318,0,15.061-6.745,15.061-15.061v-64.609  C512,125.221,505.258,118.477,496.938,118.477z"/>
<path style="fill:#34A4B7;" d="M496.938,174.08h-2.093c-8.318,0-15.061-6.745-15.061-15.061v39.131  c0,8.316,6.743,15.061,15.061,15.061h2.093c8.318,0,15.061-6.745,15.061-15.061v-39.131C512,167.335,505.258,174.08,496.938,174.08z  "/>
<g>
</g>
<g>
</g>
<g>
</g>
<g>
</g>
<g>
</g>
<g>
</g>
<g>
</g>
<g>
</g>
<g>
</g>
<g>
</g>
<g>
</g>
<g>
</g>
<g>
</g>
<g>
</g>
<g>
</g>
</svg>
