<?xml version="1.0" encoding="iso-8859-1"?>
<!-- Generator: Adobe Illustrator 19.0.0, SVG Export Plug-In . SVG Version: 6.00 Build 0)  -->
<svg xmlns="http://www.w3.org/2000/svg" xmlns:xlink="http://www.w3.org/1999/xlink" version="1.1" id="Capa_1" x="0px" y="0px" viewBox="0 0 512 512" style="enable-background:new 0 0 512 512;" xml:space="preserve">
<path style="fill:#C16B3D;" d="M256.209,0h-0.415c-14.178,0-25.672,11.496-25.672,25.672v11.167v39.966v224.73  c0.02,2.163,0.404,39.194,3.813,60.402l5.137,31.843c-3.002-0.245-5.991-0.534-8.951-0.916c0,72.297-1.139,80.247,3.813,88.648  c0.057,0.097,14.784,24.989,14.784,24.989c4.486,7.636,10.407,7.021,14.564,0c0.001,0,0.001-0.003,0.003-0.005l14.781-24.984  c4.936-8.375,3.814-15.513,3.814-88.648c-2.961,0.381-5.949,0.671-8.951,0.916l5.137-31.843c3.408-21.208,3.794-58.24,3.814-60.402  V76.804V36.838V25.672C281.881,11.496,270.389,0,256.209,0z"/>
<path style="fill:#B25932;" d="M256.002,392.865c2.96,0.381,5.949,0.671,8.951,0.916l-5.137-31.843  c-3.409-21.208-3.793-58.24-3.813-60.402V76.804V36.838V25.672c0-9.542,5.211-17.863,12.94-22.289  C265.188,1.235,260.844,0,256.209,0h-0.415c-14.178,0-25.672,11.496-25.672,25.672v11.167v39.966v224.73  c0.02,2.163,0.404,39.194,3.813,60.402l5.137,31.843c-3.002-0.245-5.991-0.534-8.951-0.916c0,72.297-1.139,80.247,3.813,88.648  c0.057,0.097,14.784,24.989,14.784,24.989c4.486,7.636,10.407,7.021,14.564,0c0.001,0,0.001-0.003,0.003-0.005l5.655-9.559  C252.498,469.145,256.002,484.307,256.002,392.865z"/>
<path style="fill:#FF8828;" d="M285.914,76.804h-59.829c-6.394,0-11.58,5.186-11.58,11.58v24.032h82.99V88.384  C297.495,81.991,292.309,76.804,285.914,76.804z"/>
<path style="fill:#ED6E18;" d="M267.58,76.804h-41.495c-6.394,0-11.58,5.186-11.58,11.58v24.032H256V88.384  C256,81.991,261.186,76.804,267.58,76.804z"/>
<path style="fill:#F0C419;" d="M469.129,126.997c0-9.191-7.45-16.642-16.64-16.642H59.512c-9.191,0-16.641,7.45-16.641,16.642v0.269  c0,9.191,7.449,16.64,16.641,16.64h392.977C461.346,143.905,469.129,136.889,469.129,126.997z"/>
<path style="fill:#F7AC16;" d="M123.427,126.997c0-9.191,7.449-16.642,16.641-16.642H59.512c-9.191,0-16.641,7.45-16.641,16.642  v0.269c0,9.191,7.449,16.64,16.641,16.64h80.556C131.209,143.905,123.427,136.889,123.427,126.997z"/>
<path style="fill:#EF5854;" d="M445.404,219.88c-1.946-7.689-8.86-9.737-8.86-9.737l0.008-0.007  c-12.219-4.092-15.244-19.943-5.823-28.408c0.012-0.015,0.017-0.03,0.028-0.047c3.98-5.322,0-8.449,0-8.449l0.023-0.001  c-11.356-10.117-4.276-29.327,11.053-29.327H71.125c15.344,0,22.398,19.218,11.052,29.327l0.022,0.001c0,0-3.978,3.126,0,8.449  c0.012,0.017,0.018,0.032,0.028,0.047c9.443,8.48,6.371,24.325-5.822,28.408l0.008,0.007c0,0-6.915,2.048-8.861,9.737  c6.861,94.492,84.581,174.548,189.975,174.548C356.931,394.428,438.32,317.459,445.404,219.88z"/>
<path style="fill:#E04E4B;" d="M136.523,219.88c1.587-7.689,7.228-9.737,7.228-9.737l-0.006-0.007  c4.998-2.052,9.267-7.854,9.267-16.04c0-7.808-3.945-11.385-4.541-12.415c-3.245-5.322,0-8.449,0-8.449l-0.018-0.001  c9.179-10.026,3.646-29.327-9.015-29.327H71.125c15.344,0,22.398,19.218,11.052,29.327l0.022,0.001c0,0-3.978,3.126,0,8.449  c0.012,0.017,0.018,0.032,0.028,0.047c9.443,8.48,6.371,24.325-5.822,28.408l0.008,0.007c0,0-6.915,2.048-8.861,9.737  c7.446,102.555,97.323,184.052,207.736,173.715C200.911,385.07,141.954,311.578,136.523,219.88z"/>
<path style="fill:#C44137;" d="M441.833,143.905H71.125c15.344,0,22.398,19.218,11.052,29.327l0.022,0.001  c0,0-1.554,1.221-1.747,3.437h352.054c-0.195-2.217-1.749-3.437-1.749-3.437l0.023-0.001  C419.424,163.115,426.504,143.905,441.833,143.905z"/>
<path style="fill:#BA2B20;" d="M148.146,173.233l-0.022-0.001c11.217-9.993,4.534-29.327-11.052-29.327H71.125  c15.344,0,22.398,19.218,11.052,29.327l0.022,0.001c0,0-1.554,1.221-1.747,3.437h65.947  C146.592,174.453,148.146,173.233,148.146,173.233z"/>
<g>
</g>
<g>
</g>
<g>
</g>
<g>
</g>
<g>
</g>
<g>
</g>
<g>
</g>
<g>
</g>
<g>
</g>
<g>
</g>
<g>
</g>
<g>
</g>
<g>
</g>
<g>
</g>
<g>
</g>
</svg>
