<?xml version="1.0" encoding="iso-8859-1"?>
<!-- Generator: Adobe Illustrator 19.0.0, SVG Export Plug-In . SVG Version: 6.00 Build 0)  -->
<svg xmlns="http://www.w3.org/2000/svg" xmlns:xlink="http://www.w3.org/1999/xlink" version="1.1" id="Capa_1" x="0px" y="0px" viewBox="0 0 512 512" style="enable-background:new 0 0 512 512;" xml:space="preserve">
<path style="fill:#414356;" d="M494.439,123.531c23.415,23.412,23.415,61.368,0,84.784L208.312,494.442  c-23.41,23.412-61.37,23.412-84.781-0.002L17.561,388.469c-23.414-23.412-23.414-61.37-0.004-84.782L303.684,17.561  c23.417-23.414,61.374-23.414,84.784-0.002L494.439,123.531z"/>
<path style="fill:#2D313F;" d="M138.1,479.871L32.129,373.902c-23.414-23.414-23.414-61.372-0.004-84.784l-14.568,14.569  c-23.41,23.412-23.41,61.37,0.004,84.782l105.97,105.971c23.411,23.414,61.371,23.414,84.781,0.002l14.568-14.569  C199.471,503.284,161.51,503.284,138.1,479.871z"/>
<path style="fill:#E04E4B;" d="M138.594,347.943l-9.76,9.762l-9.763-9.762c-7.029-7.03-18.431-7.03-25.462,0  c-7.031,7.032-7.032,18.432,0.001,25.464l9.759,9.76l-9.76,9.76c-7.032,7.03-7.032,18.432,0.001,25.464  c7.03,7.032,18.432,7.032,25.463,0l9.762-9.76l9.76,9.76c7.03,7.032,18.432,7.032,25.463,0s7.031-18.432,0-25.464l-9.76-9.76  l9.759-9.76c7.031-7.032,7.031-18.432,0-25.464C157.027,340.913,145.625,340.913,138.594,347.943z"/>
<path style="fill:#C44137;" d="M164.057,418.392c2.102-2.103,3.561-4.597,4.406-7.247c-18.85,6.013-22.554-17.462-31.336-10.806  l-6.399,6.398c-7.027,7.03-18.433,7.034-25.463,0c-7.038-7.036-7.027-18.434-0.001-25.464l6.4-6.398  c1.207-1.593,2.273-4.44-1.224-7.947l-5.174-5.175c-4.93-4.927-6.391-12.002-4.409-18.215c-2.649,0.845-5.144,2.306-7.246,4.406  c-1.327,1.328-2.403,2.813-3.23,4.392c-3.55,6.791-2.474,15.368,3.23,21.072l9.759,9.76l0,0l0,0  c-5.984,5.986-3.771,3.773-9.759,9.76c-7.032,7.034-7.032,18.43,0,25.464c7.031,7.03,18.43,7.031,25.463,0l4.881-4.881l4.88-4.879  h0.002l9.76,9.76C145.616,425.411,157.008,425.43,164.057,418.392z"/>
<path style="fill:#49B5CE;" d="M387.985,247.511L264.488,124.014c-5.624-5.624-14.744-5.624-20.371,0L124.014,244.117  c-5.624,5.626-5.625,14.746,0.001,20.372l123.498,123.497c5.624,5.623,14.746,5.623,20.369,0l120.103-120.103  C393.611,262.259,393.611,253.137,387.985,247.511z"/>
<path style="fill:#34A4B7;" d="M262.081,373.417L138.583,249.92c-5.626-5.624-5.625-14.744-0.001-20.372l-14.568,14.569  c-5.624,5.626-5.625,14.746,0.001,20.372l123.498,123.497c5.624,5.623,14.746,5.623,20.369,0l14.568-14.569  C276.827,379.041,267.705,379.041,262.081,373.417z"/>
<path style="fill:#3BBC56;" d="M317.334,274.402c5.378,5.378,5.378,14.098,0,19.476l-29.188,29.188  c-5.379,5.378-14.096,5.378-19.472,0l0,0c-5.378-5.378-5.379-14.096-0.003-19.474l29.188-29.188  C303.237,269.028,311.959,269.026,317.334,274.402L317.334,274.402z"/>
<path style="fill:#31A845;" d="M293.004,298.735c-5.378-5.378-5.379-14.096-0.002-19.474l4.87-4.869  c-0.004,0.004-0.009,0.008-0.013,0.012l-29.188,29.188c-5.376,5.378-5.376,14.096,0.003,19.474c5.376,5.378,14.094,5.378,19.472,0  l24.331-24.331C307.098,304.113,298.38,304.113,293.004,298.735z"/>
<g>
	<path style="fill:#49B5CE;" d="M365.653,92.647c-5.378-5.378-14.098-5.378-19.475,0l-0.612,0.614   c-5.378,5.378-5.378,14.096,0,19.474c5.378,5.38,14.095,5.38,19.472,0l0.615-0.612C371.028,106.745,371.032,98.027,365.653,92.647z   "/>
	<path style="fill:#49B5CE;" d="M419.353,146.347c-5.023-5.023-13.559-5.936-20.088,0.616c-5.378,5.376-5.379,14.094,0,19.472   c5.378,5.378,14.098,5.378,19.475,0l0.613-0.614C424.73,160.444,424.731,151.726,419.353,146.347z"/>
	<path style="fill:#49B5CE;" d="M345.565,146.347c-5.377,5.378-5.377,14.096,0.001,19.476l0.612,0.612   c5.378,5.378,14.098,5.378,19.472-0.002c5.378-5.376,5.382-14.096,0.004-19.474l-0.615-0.612   C359.662,140.969,350.942,140.969,345.565,146.347z"/>
	<path style="fill:#49B5CE;" d="M399.265,92.647c-5.378,5.378-5.379,14.096,0,19.474l0.612,0.612c5.378,5.378,14.098,5.378,19.476,0   c4.902-4.903,6.059-13.403-0.613-20.086C413.362,87.269,404.643,87.267,399.265,92.647z"/>
</g>
<g>
	<path style="fill:#34A4B7;" d="M358.338,112.735c-5.378-5.378-5.378-14.096,0-19.474l0.612-0.614   c1.014-1.013,2.146-1.835,3.352-2.467c-5.194-2.719-11.759-1.898-16.123,2.467l-0.612,0.614c-5.378,5.378-5.378,14.096,0,19.474   c4.365,4.367,10.929,5.188,16.122,2.467C360.483,114.57,359.351,113.748,358.338,112.735z"/>
	<path style="fill:#34A4B7;" d="M416.002,143.882c-5.194-2.72-11.761-1.897-16.126,2.468l-0.612,0.614   c-5.378,5.376-5.379,14.094,0,19.472c4.364,4.365,10.929,5.186,16.123,2.467C405.238,163.584,405.718,149.267,416.002,143.882z"/>
	<path style="fill:#34A4B7;" d="M358.95,166.435l-0.612-0.612c-5.379-5.38-5.378-14.098-0.002-19.476   c1.013-1.013,2.146-1.835,3.352-2.467c-5.194-2.719-11.759-1.898-16.123,2.467c-5.377,5.378-5.377,14.096,0.001,19.476l0.612,0.612   c4.364,4.365,10.929,5.186,16.121,2.466C361.094,168.269,359.962,167.448,358.95,166.435z"/>
	<path style="fill:#34A4B7;" d="M412.648,112.733l-0.612-0.612c-5.379-5.378-5.378-14.096,0-19.474   c1.014-1.014,2.145-1.835,3.352-2.467c-5.194-2.72-11.758-1.899-16.123,2.467c-5.378,5.378-5.379,14.096,0,19.474l0.612,0.612   c4.364,4.364,10.929,5.186,16.124,2.467C414.794,114.568,413.662,113.747,412.648,112.733z"/>
</g>
<g>
	<path style="fill:#EFEFEF;" d="M165.717,265.557c-3.019-3.02-3.019-7.911-0.001-10.927l83.18-83.181   c3.018-3.016,7.91-3.016,10.926,0c3.018,3.018,3.018,7.907,0.001,10.927l-83.179,83.181   C173.623,268.573,168.734,268.572,165.717,265.557z"/>
	<path style="fill:#EFEFEF;" d="M187.785,287.625c-3.018-3.018-3.018-7.909-0.001-10.927l83.181-83.181   c3.018-3.018,7.91-3.016,10.926,0c3.018,3.016,3.018,7.907,0,10.927l-83.18,83.181   C195.688,290.644,190.798,290.636,187.785,287.625z"/>
	<path style="fill:#EFEFEF;" d="M215.317,311.956c-1.977-0.002-3.955-0.755-5.464-2.264c-3.018-3.018-3.018-7.909,0-10.927   l83.181-83.181c3.018-3.016,7.909-3.016,10.926,0c3.018,3.018,3.018,7.909-0.001,10.927l-83.18,83.181   C219.271,311.202,217.293,311.954,215.317,311.956z"/>
</g>
<g>
</g>
<g>
</g>
<g>
</g>
<g>
</g>
<g>
</g>
<g>
</g>
<g>
</g>
<g>
</g>
<g>
</g>
<g>
</g>
<g>
</g>
<g>
</g>
<g>
</g>
<g>
</g>
<g>
</g>
</svg>
