<?xml version="1.0" encoding="iso-8859-1"?>
<!-- Generator: Adobe Illustrator 19.0.0, SVG Export Plug-In . SVG Version: 6.00 Build 0)  -->
<svg xmlns="http://www.w3.org/2000/svg" xmlns:xlink="http://www.w3.org/1999/xlink" version="1.1" id="Capa_1" x="0px" y="0px" viewBox="0 0 512 512" style="enable-background:new 0 0 512 512;" xml:space="preserve">
<g>
	<path style="fill:#D3D3D3;" d="M426.446,120.952c0,10.455-8.402,18.93-18.765,18.93H104.318c-10.362,0-18.763-8.475-18.763-18.93   l0,0c0-10.454,8.4-18.929,18.763-18.929h303.363C418.044,102.023,426.446,110.498,426.446,120.952L426.446,120.952z"/>
	<path style="fill:#D3D3D3;" d="M426.446,391.046c0,10.454-8.402,18.929-18.765,18.929H104.318   c-10.362,0-18.763-8.475-18.763-18.929l0,0c0-10.455,8.4-18.93,18.763-18.93h303.363   C418.044,372.116,426.446,380.592,426.446,391.046L426.446,391.046z"/>
</g>
<g>
	<path style="fill:#BABABA;" d="M407.682,122.642H104.318c-7.282,0-13.581-4.194-16.69-10.31c-6.404,12.593,2.697,27.55,16.69,27.55   h303.363c14.012,0,23.088-14.974,16.692-27.55C421.263,118.448,414.963,122.642,407.682,122.642z"/>
	<path style="fill:#BABABA;" d="M407.682,392.736H104.318c-7.282,0-13.581-4.194-16.69-10.309   c-6.404,12.593,2.697,27.549,16.69,27.549h303.363c14.012,0,23.088-14.974,16.692-27.549   C421.263,388.542,414.963,392.736,407.682,392.736z"/>
</g>
<rect x="104.32" y="139.88" style="fill:#C44137;" width="303.36" height="232.23"/>
<path style="fill:#E04E4B;" d="M129.814,230.417c0,55.877,23.585,106.24,61.332,141.7h216.535V139.882H152.156  C137.898,166.923,129.814,197.723,129.814,230.417z"/>
<rect x="104.32" y="139.88" style="fill:#BA2B20;" width="303.36" height="37.563"/>
<path style="fill:#C44137;" d="M137.122,177.445h270.559v-37.563H152.156C145.906,151.734,140.836,164.303,137.122,177.445z"/>
<rect x="104.32" y="334.549" style="fill:#BA2B20;" width="303.36" height="37.563"/>
<path style="fill:#C44137;" d="M191.147,372.116h216.535v-37.563H160.04C168.814,348.354,179.28,360.969,191.147,372.116z"/>
<polygon style="fill:#F7AC16;" points="256.096,334.553 104.318,334.553 180.208,177.445 180.208,177.445 "/>
<g>
	<path style="fill:#F0C419;" d="M134.364,272.351c4.933,22.432,13.732,43.412,25.676,62.202h96.055l-75.888-157.107L134.364,272.351   z"/>
	<polygon style="fill:#F0C419;" points="407.875,334.553 256.096,334.553 331.985,177.445 331.985,177.445  "/>
</g>
<path style="fill:#D3D3D3;" d="M8.622,393.394V144.113c9.518,8.336,23.627,8.347,33.161,0v249.282  c0,9.157-7.425,16.581-16.582,16.581C16.044,409.975,8.622,402.551,8.622,393.394z"/>
<path style="fill:#BABABA;" d="M25.202,393.394V150.367c-6.178,0-12.009-2.249-16.581-6.254v249.282  c0,9.157,7.423,16.581,16.58,16.581c3.024,0,5.85-0.822,8.291-2.236C28.541,404.871,25.202,399.528,25.202,393.394z"/>
<path style="fill:#D3D3D3;" d="M470.219,393.394V144.113c9.518,8.337,23.634,8.346,33.159,0v249.282  c0,9.157-7.425,16.581-16.58,16.581C477.642,409.975,470.219,402.551,470.219,393.394z"/>
<path style="fill:#BABABA;" d="M486.799,393.394V150.367c-6.358,0-12.147-2.371-16.579-6.254v249.282  c0,9.157,7.423,16.581,16.579,16.581c3.023,0,5.849-0.822,8.289-2.236C490.137,404.871,486.799,399.528,486.799,393.394z"/>
<g>
	<circle style="fill:#C16B3D;" cx="25.2" cy="127.229" r="25.2"/>
	<circle style="fill:#C16B3D;" cx="486.8" cy="127.229" r="25.2"/>
</g>
<g>
	<path style="fill:#AA532D;" d="M26.25,102.049C11.776,101.466,0,113.021,0,127.225c0,13.918,11.282,25.202,25.201,25.202   c8.156,0,15.403-3.878,20.01-9.886C24.827,141.706,13.893,118.168,26.25,102.049z"/>
	<path style="fill:#AA532D;" d="M487.847,102.049c-14.47-0.582-26.25,10.968-26.25,25.176c0,24.111,30.654,34.303,45.209,15.316   C486.382,141.704,475.513,118.138,487.847,102.049z"/>
</g>
<g>
</g>
<g>
</g>
<g>
</g>
<g>
</g>
<g>
</g>
<g>
</g>
<g>
</g>
<g>
</g>
<g>
</g>
<g>
</g>
<g>
</g>
<g>
</g>
<g>
</g>
<g>
</g>
<g>
</g>
</svg>
