<?xml version="1.0" encoding="iso-8859-1"?>
<!-- Generator: Adobe Illustrator 19.0.0, SVG Export Plug-In . SVG Version: 6.00 Build 0)  -->
<svg xmlns="http://www.w3.org/2000/svg" xmlns:xlink="http://www.w3.org/1999/xlink" version="1.1" id="Capa_1" x="0px" y="0px" viewBox="0 0 512 512" style="enable-background:new 0 0 512 512;" xml:space="preserve">
<path style="fill:#E5E5E5;" d="M266.566,2.823c-6.518-3.764-14.55-3.764-21.067,0L42.061,120.277  c-4.547,2.626-7.871,6.808-9.469,11.65c1.598,4.845,4.921,9.026,9.469,11.65c218.746,126.292,205.912,120.278,213.971,120.278  c3.638,0,7.275-0.942,10.534-2.824l203.437-117.454c4.547-2.624,7.871-6.805,9.469-11.65c-1.598-4.842-4.921-9.024-9.469-11.65  L266.566,2.823z"/>
<path style="fill:#EFEFEF;" d="M470.003,120.277L266.566,2.823c-6.518-3.764-14.55-3.764-21.067,0l-129.78,74.928  c-0.095,1.578-0.16,3.162-0.16,4.755c0,70.249,93.557,127.198,208.965,127.198c11.52,0,22.817-0.576,33.829-1.668l111.65-64.461  c4.547-2.624,7.871-6.805,9.469-11.65C477.874,127.084,474.55,122.902,470.003,120.277z"/>
<path style="fill:#C4C4C4;" d="M479.472,131.926c-1.598,4.845-4.921,9.026-9.469,11.65  C251.257,269.868,264.091,263.854,256.032,263.854v248.098c7.971,0-5,6.147,213.971-120.275  c6.518-3.764,10.533-10.718,10.533-18.246V138.522C480.536,136.246,480.164,134.025,479.472,131.926z"/>
<path style="fill:#D1CFCF;" d="M42.061,143.576c-4.547-2.624-7.871-6.805-9.469-11.65c-1.521,4.612-1.064-12.926-1.064,241.505  c0,7.528,4.016,14.481,10.533,18.246c218.747,126.291,205.907,120.275,213.971,120.275V263.854  C248.062,263.854,261.032,269.998,42.061,143.576z"/>
<g>
	<ellipse style="fill:#C44137;" cx="255.95" cy="134.32" rx="26.868" ry="18.319"/>
	
		<ellipse transform="matrix(0.7427 0.6696 -0.6696 0.7427 190.6001 1.2749)" style="fill:#C44137;" cx="93.641" cy="248.663" rx="23.566" ry="19.709"/>
	
		<ellipse transform="matrix(0.7428 0.6695 -0.6695 0.7428 255.8945 -11.0098)" style="fill:#C44137;" cx="142.277" cy="327.558" rx="23.565" ry="19.71"/>
	
		<ellipse transform="matrix(0.7428 0.6695 -0.6695 0.7428 321.2082 -23.2936)" style="fill:#C44137;" cx="190.922" cy="406.425" rx="23.565" ry="19.71"/>
</g>
<path style="fill:#BABABA;" d="M361.214,206.385c-102.211,59.012-97.416,57.469-105.182,57.469v248.098  c7.364,0,7.155-0.871,48.6-24.799C274.228,387.656,296.99,260.855,361.214,206.385z"/>
<g>
	
		<ellipse transform="matrix(0.7427 -0.6696 0.6696 0.7427 -58.8504 344.1708)" style="fill:#C44137;" cx="418.44" cy="248.667" rx="23.566" ry="19.709"/>
	
		<ellipse transform="matrix(0.7428 -0.6696 0.6696 0.7428 -121.9004 293.581)" style="fill:#C44137;" cx="321.121" cy="305.434" rx="23.566" ry="19.711"/>
	
		<ellipse transform="matrix(0.7428 -0.6695 0.6695 0.7428 -189.5011 319.4907)" style="fill:#C44137;" cx="321.086" cy="406.393" rx="23.565" ry="19.71"/>
	
		<ellipse transform="matrix(0.7428 -0.6696 0.6696 0.7428 -126.5084 370.1224)" style="fill:#C44137;" cx="418.43" cy="349.701" rx="23.567" ry="19.711"/>
</g>
<g>
</g>
<g>
</g>
<g>
</g>
<g>
</g>
<g>
</g>
<g>
</g>
<g>
</g>
<g>
</g>
<g>
</g>
<g>
</g>
<g>
</g>
<g>
</g>
<g>
</g>
<g>
</g>
<g>
</g>
</svg>
