<?xml version="1.0" encoding="iso-8859-1"?>
<!-- Generator: Adobe Illustrator 19.0.0, SVG Export Plug-In . SVG Version: 6.00 Build 0)  -->
<svg xmlns="http://www.w3.org/2000/svg" xmlns:xlink="http://www.w3.org/1999/xlink" version="1.1" id="Capa_1" x="0px" y="0px" viewBox="0 0 512 512" style="enable-background:new 0 0 512 512;" xml:space="preserve">
<circle style="fill:#E04E4B;" cx="256" cy="256" r="256"/>
<path style="fill:#C44137;" d="M158.538,437.009c-99.969-99.969-99.969-262.05,0-362.02c39.32-39.32,88.251-63.165,139.23-71.554  C219.134-9.505,135.627,14.34,74.977,74.989c-99.969,99.97-99.969,262.051,0,362.02c60.651,60.65,144.161,84.494,222.794,71.554  C246.791,500.174,197.86,476.33,158.538,437.009z"/>
<path style="fill:#F7AC16;" d="M334.646,305.529l-9.353-108.487c-0.475-5.5-4.835-9.861-10.336-10.335l-108.485-9.353  c-4.897-0.422-9.505,2.356-11.424,6.877l-38.037,89.665c-1.807,4.256-0.848,9.187,2.424,12.459l66.211,66.212  c3.269,3.269,8.202,4.23,12.46,2.422l89.664-38.035C332.291,315.034,335.068,310.424,334.646,305.529z"/>
<path style="fill:#E2960E;" d="M2.24,222.254c-6.881,52.026,2.211,105.758,27.302,153.263l38.199-70.342  c4.116-7.583,2.38-18.545-3.88-24.48L2.24,222.254z"/>
<path style="fill:#F7AC16;" d="M289.784,509.755l-57.646-60.78c-5.939-6.262-16.898-7.999-24.479-3.882l-69.97,37.997  C184.907,507.703,238.184,516.586,289.784,509.755z"/>
<g>
	<path style="fill:#E2960E;" d="M286.674,506.475c-36.939-7.761-72.492-23.745-103.73-47.961l-45.253,24.575   c45.69,23.804,98.814,33.716,152.082,26.654L286.674,506.475z"/>
	<path style="fill:#E2960E;" d="M57.246,94.626l82.054,4.49c8.616,0.474,17.775-5.793,20.456-13.994l24.5-74.9   C133.064,25.115,89.384,55.147,57.246,94.626z"/>
</g>
<g>
	<path style="fill:#F7AC16;" d="M426.878,352.244c-8.2,2.682-14.466,11.841-13.994,20.458l4.49,82.051   c39.564-32.202,69.541-75.928,84.403-127.008L426.878,352.244z"/>
	<path style="fill:#F7AC16;" d="M481.301,134.344C457.666,90.615,421.478,54.385,377.656,30.7l10.006,76.113   c1.125,8.554,8.97,16.402,17.526,17.525L481.301,134.344z"/>
</g>
<g>
</g>
<g>
</g>
<g>
</g>
<g>
</g>
<g>
</g>
<g>
</g>
<g>
</g>
<g>
</g>
<g>
</g>
<g>
</g>
<g>
</g>
<g>
</g>
<g>
</g>
<g>
</g>
<g>
</g>
</svg>
