<?xml version="1.0" encoding="iso-8859-1"?>
<!-- Generator: Adobe Illustrator 19.0.0, SVG Export Plug-In . SVG Version: 6.00 Build 0)  -->
<svg xmlns="http://www.w3.org/2000/svg" xmlns:xlink="http://www.w3.org/1999/xlink" version="1.1" id="Capa_1" x="0px" y="0px" viewBox="0 0 511.999 511.999" style="enable-background:new 0 0 511.999 511.999;" xml:space="preserve">
<path style="fill:#E04E4B;" d="M431.716,80.287C334.668-16.762,177.33-16.76,80.285,80.285c-97.044,97.046-97.044,254.385,0,351.43  c97.046,97.045,254.388,97.047,351.433,0.002S528.758,177.328,431.716,80.287z"/>
<path style="fill:#C44137;" d="M161.401,431.714c-97.044-97.044-97.044-254.384,0-351.43c38.17-38.17,85.669-61.316,135.157-69.461  C220.225-1.737,139.16,21.41,80.285,80.285c-97.044,97.046-97.044,254.385,0,351.43c58.876,58.875,139.944,82.023,216.277,69.461  C247.072,493.032,199.572,469.885,161.401,431.714z"/>
<path style="fill:#BA2B20;" d="M255.999,0C187.621,0,123.333,26.63,74.98,74.981C26.629,123.333,0,187.621,0,255.999  c0,141.493,114.497,255.998,256.001,255.999C397.366,511.999,512,397.631,511.999,256C511.998,114.508,397.505,0,255.999,0z   M496.931,261.593c-14.51-5.858-30.274-9.113-46.954-9.673c-48.523-5.002-91.433-23.86-124.62-54.667L431.626,90.984  C473.821,135.822,498.416,195.801,496.931,261.593z M431.662,420.982L266.646,255.964l48.1-48.1  c35.729,33.346,81.908,53.715,134.061,59.019c0.258,0.025,0.515,0.039,0.769,0.039c0.021,0,0.042-0.003,0.063-0.003  c19.131,0.664,31.433,4.465,46.403,10.594C491.314,331.284,468.919,381.375,431.662,420.982z M266.958,448.732  c-5.304-52.156-25.672-98.336-59.016-134.064l48.098-48.098l165.018,165.02c-39.595,37.277-89.676,59.692-143.441,64.441  C266.325,467.844,268.075,459.607,266.958,448.732z M63.347,245.119c-0.271-0.026-0.539-0.037-0.806-0.035  c-16.743-0.578-32.356-4.153-46.457-10.63c4.63-52.041,26.071-102.848,64.327-143.511l165.02,165.021l-48.101,48.101  C161.607,270.76,115.457,250.416,63.347,245.119z M234.505,15.958c10.724,23.314,10.37,44.147,10.69,47.314  c5.296,52.111,25.639,98.262,58.944,133.985l-48.102,48.102L91.021,80.338C130.634,43.077,180.73,20.68,234.505,15.958z   M421.019,80.377L314.753,186.643c-30.768-33.181-49.6-76.063-54.596-124.544c-0.56-16.734-3.826-32.51-9.706-47.03  c1.846-0.041,3.695-0.067,5.547-0.067C317.865,15.001,376.165,38.167,421.019,80.377z M15.181,250.391  c14.511,5.87,30.274,9.131,46.995,9.691c48.479,4.996,91.361,23.828,124.543,54.596L80.377,421.019  C35.506,373.304,13.768,311.632,15.181,250.391z M90.984,431.627l106.344-106.344c30.805,33.184,49.663,76.092,54.667,124.614  c0.561,16.711,3.827,32.502,9.706,47.032C197.918,498.41,137.332,475.241,90.984,431.627z"/>
<g>
</g>
<g>
</g>
<g>
</g>
<g>
</g>
<g>
</g>
<g>
</g>
<g>
</g>
<g>
</g>
<g>
</g>
<g>
</g>
<g>
</g>
<g>
</g>
<g>
</g>
<g>
</g>
<g>
</g>
</svg>
