<?xml version="1.0" encoding="iso-8859-1"?>
<!-- Generator: Adobe Illustrator 19.0.0, SVG Export Plug-In . SVG Version: 6.00 Build 0)  -->
<svg xmlns="http://www.w3.org/2000/svg" xmlns:xlink="http://www.w3.org/1999/xlink" version="1.1" id="Capa_1" x="0px" y="0px" viewBox="0 0 511.995 511.995" style="enable-background:new 0 0 511.995 511.995;" xml:space="preserve">
<path style="fill:#D1CFCF;" d="M275.089,511.169c-3.813,0-7.13-2.821-7.649-6.704c-16.542-123.697-77.286-206.513-77.897-207.335  c-2.548-3.424-1.837-8.264,1.587-10.812c3.424-2.547,8.264-1.835,10.812,1.588c0.655,0.879,16.238,21.974,34.068,59.058  c16.405,34.119,37.832,88.785,46.747,155.452c0.566,4.23-2.405,8.118-6.635,8.683C275.775,511.146,275.43,511.169,275.089,511.169z"/>
<ellipse transform="matrix(-0.4067 -0.9136 0.9136 -0.4067 47.726 298.0532)" style="fill:#E04E4B;" cx="120.644" cy="133.53" rx="135.462" ry="117.453"/>
<path style="fill:#C44137;" d="M48.624,167.201C20.589,104.236,38.215,34.107,87.491,2.816c-7.442,1.471-14.788,3.766-21.937,6.949  C6.291,36.152-17.084,112.951,13.35,181.304c30.435,68.349,103.146,102.369,162.412,75.982c4.672-2.081,9.121-4.475,13.339-7.154  C134.844,260.855,75.388,227.305,48.624,167.201z"/>
<path style="fill:#E04E4B;" d="M185.824,252.12c-3.231,1.886-6.582,3.616-10.062,5.165c-3.486,1.553-7.018,2.887-10.586,4.028  l2.38,32.533c0.169,2.302,1.295,4.624,2.976,6.138c1.679,1.512,3.675,2.001,5.276,1.288l32.595-14.514  c0.006-0.002,0.012-0.004,0.014-0.006c2.55-1.134,3.338-4.92,1.763-8.455c-0.528-1.192-1.262-2.202-2.096-2.977L185.824,252.12z"/>
<path style="fill:#BABABA;" d="M236.917,511.169c-4.686,0-8.288-4.121-7.668-8.752c8.916-66.668,30.343-121.333,46.748-155.452  c17.83-37.084,33.412-58.179,34.067-59.058c2.547-3.424,7.387-4.132,10.812-1.588c3.424,2.548,4.134,7.388,1.587,10.812  c-0.758,1.024-61.403,84.018-77.897,207.335C244.047,508.348,240.73,511.169,236.917,511.169z"/>
<ellipse transform="matrix(-0.4067 0.9136 -0.9136 -0.4067 672.5249 -169.6569)" style="fill:#F7AC16;" cx="391.352" cy="133.547" rx="135.462" ry="117.453"/>
<path style="fill:#E2960E;" d="M305.678,95.02c28.338-63.646,93.334-97.514,149.998-80.571c-2.972-1.698-6.042-3.268-9.224-4.685  c-59.266-26.388-131.977,7.632-162.41,75.983c-30.433,68.35-7.061,145.152,52.205,171.538c4.079,1.816,8.223,3.336,12.412,4.588  C296.27,231.943,276.879,159.701,305.678,95.02z"/>
<path style="fill:#F7AC16;" d="M326.183,252.12c3.229,1.886,6.582,3.616,10.063,5.165c3.484,1.553,7.017,2.887,10.583,4.028  l-2.38,32.533c-0.169,2.302-1.294,4.624-2.974,6.138c-1.681,1.512-3.679,2.001-5.278,1.288L303.6,286.758  c-0.004-0.002-0.01-0.004-0.012-0.006c-2.549-1.134-3.336-4.92-1.765-8.455c0.532-1.192,1.264-2.202,2.097-2.977L326.183,252.12z"/>
<g>
</g>
<g>
</g>
<g>
</g>
<g>
</g>
<g>
</g>
<g>
</g>
<g>
</g>
<g>
</g>
<g>
</g>
<g>
</g>
<g>
</g>
<g>
</g>
<g>
</g>
<g>
</g>
<g>
</g>
</svg>
