<?xml version="1.0" encoding="iso-8859-1"?>
<!-- Generator: Adobe Illustrator 19.0.0, SVG Export Plug-In . SVG Version: 6.00 Build 0)  -->
<svg xmlns="http://www.w3.org/2000/svg" xmlns:xlink="http://www.w3.org/1999/xlink" version="1.1" id="Capa_1" x="0px" y="0px" viewBox="0 0 512 512" style="enable-background:new 0 0 512 512;" xml:space="preserve">
<path style="fill:#989DA0;" d="M418.789,430.386c0,8.754-7.099,15.852-15.852,15.852H15.852C7.097,446.238,0,439.14,0,430.386  V81.614c0-8.755,7.097-15.852,15.852-15.852h387.085c8.753,0,15.852,7.097,15.852,15.852L418.789,430.386L418.789,430.386z"/>
<path style="fill:#6D6E72;" d="M20.605,430.386V81.614c0-8.755,7.097-15.852,15.852-15.852H15.852C7.097,65.762,0,72.859,0,81.614  v348.772c0,8.754,7.097,15.852,15.852,15.852h20.605C27.702,446.238,20.605,439.14,20.605,430.386z"/>
<path style="fill:#EF5854;" d="M0,314.128v116.258c0,8.754,7.097,15.852,15.852,15.852h387.085c8.753,0,15.852-7.098,15.852-15.852  V314.128H0z"/>
<path style="fill:#E04E4B;" d="M20.605,430.386V314.128H0v116.258c0,8.754,7.097,15.852,15.852,15.852h20.605  C27.702,446.238,20.605,439.14,20.605,430.386z"/>
<g>
	<circle style="fill:#2571A0;" cx="94.29" cy="378.86" r="34.18"/>
	<circle style="fill:#2571A0;" cx="324.5" cy="378.86" r="34.18"/>
</g>
<g>
	<path style="fill:#1A6287;" d="M94.289,378.863c0-12.651,6.876-23.686,17.089-29.596c-5.029-2.91-10.862-4.584-17.09-4.584   c-18.878,0-34.179,15.301-34.179,34.18c0,18.876,15.301,34.179,34.179,34.179c6.228,0,12.061-1.674,17.09-4.584   C101.165,402.547,94.289,391.511,94.289,378.863z"/>
	<path style="fill:#1A6287;" d="M324.5,378.863c0-12.65,6.876-23.685,17.089-29.596c-5.029-2.91-10.862-4.584-17.089-4.584   c-18.877,0-34.18,15.301-34.18,34.18c0,18.876,15.303,34.179,34.18,34.179c6.227,0,12.06-1.674,17.089-4.585   C331.376,402.546,324.5,391.511,324.5,378.863z"/>
</g>
<g>
	<path style="fill:#F7AC16;" d="M250.022,358.846h-81.253c-4.267,0-7.727-3.459-7.727-7.727c0-4.268,3.46-7.727,7.727-7.727h81.253   c4.267,0,7.727,3.459,7.727,7.727S254.289,358.846,250.022,358.846z"/>
	<path style="fill:#F7AC16;" d="M250.022,387.825h-81.253c-4.267,0-7.727-3.459-7.727-7.727c0-4.268,3.46-7.727,7.727-7.727h81.253   c4.267,0,7.727,3.459,7.727,7.727S254.289,387.825,250.022,387.825z"/>
	<path style="fill:#F7AC16;" d="M250.022,416.804h-81.253c-4.267,0-7.727-3.459-7.727-7.727c0-4.268,3.46-7.727,7.727-7.727h81.253   c4.267,0,7.727,3.459,7.727,7.727C257.749,413.345,254.289,416.804,250.022,416.804z"/>
</g>
<path style="fill:#E5E5E5;" d="M372.921,97.026H45.871c-7.399,0-13.397,5.997-13.397,13.395v203.707h353.841V110.421  C386.314,103.022,380.32,97.026,372.921,97.026z"/>
<path style="fill:#49B5CE;" d="M193.422,193.883c-6.552-8.166-17.176-8.166-23.729,0l-68.269,85.096h90.333l34.966-43.585  L193.422,193.883z"/>
<path style="fill:#34A4B7;" d="M193.422,193.883c-6.552-8.166-17.176-8.166-23.729,0l-68.269,85.096h31.201l64.533-80.44  L193.422,193.883z"/>
<path style="fill:#49B5CE;" d="M262.437,213.602c-5.037-6.275-13.197-6.275-18.231,0l-17.483,21.792l34.966,43.585h53.194  L262.437,213.602z"/>
<polygon style="fill:#2571A0;" points="191.757,278.98 261.689,278.98 226.723,235.395 "/>
<path style="fill:#C16B3D;" d="M334.682,286.707H84.106c-4.267,0-7.727-3.459-7.727-7.727c0-4.268,3.46-7.727,7.727-7.727h250.576  c4.267,0,7.727,3.459,7.727,7.727S338.95,286.707,334.682,286.707z"/>
<path style="fill:#F0C419;" d="M280.74,154.277c0,11.913-9.663,21.575-21.58,21.575c-11.916,0-21.578-9.662-21.578-21.575  c0-11.92,9.662-21.58,21.578-21.58C271.078,132.697,280.74,142.357,280.74,154.277z"/>
<path style="fill:#F7AC16;" d="M259.161,154.277c0-7.983,4.345-14.937,10.789-18.669c-3.177-1.84-6.855-2.911-10.79-2.911  c-11.916,0-21.578,9.661-21.578,21.58c0,11.913,9.662,21.575,21.578,21.575c3.935,0,7.613-1.071,10.79-2.911  C263.507,169.208,259.161,162.256,259.161,154.277z"/>
<path style="fill:#F0C419;" d="M511.557,389.872V109.979c0-10.799-8.758-19.558-19.561-19.558h-1.088  c-10.803,0-19.558,8.759-19.558,19.558v279.893H511.557z"/>
<path style="fill:#F7AC16;" d="M501.726,93.029c-2.868-1.65-6.184-2.608-9.73-2.608h-1.088c-10.803,0-19.558,8.759-19.558,19.558  v279.893h20.546V109.979C491.897,102.724,495.857,96.405,501.726,93.029z"/>
<path style="fill:#989DA0;" d="M471.351,389.872H512l-17.314,43.98c-1.665,4.224-4.357,4.224-6.02,0L471.351,389.872z"/>
<path style="fill:#6D6E72;" d="M491.233,389.872h-19.882l17.315,43.98c1.662,4.224,4.354,4.224,6.02,0l6.931-17.605L491.233,389.872  z"/>
<path style="fill:#EF5854;" d="M491.996,90.421h-1.088c-10.803,0-19.558,8.759-19.558,19.558v130.169h40.206V109.979  C511.557,99.18,502.799,90.421,491.996,90.421z"/>
<path style="fill:#E04E4B;" d="M491.897,109.979c0-7.254,3.961-13.573,9.829-16.95c-0.317-0.183-0.642-0.353-0.97-0.519  c-0.126-0.063-0.255-0.123-0.382-0.184c-0.489-0.232-0.99-0.444-1.5-0.637c-0.23-0.087-0.46-0.176-0.695-0.255  c-0.255-0.086-0.513-0.163-0.773-0.238c-0.357-0.103-0.718-0.196-1.082-0.279c-0.189-0.042-0.376-0.089-0.566-0.126  c-0.5-0.098-1.007-0.174-1.52-0.232c-0.161-0.019-0.323-0.034-0.485-0.049c-0.579-0.051-1.163-0.089-1.756-0.089h-1.088  c-10.803,0-19.558,8.759-19.558,19.558v130.169h20.546L491.897,109.979L491.897,109.979z"/>
<g>
</g>
<g>
</g>
<g>
</g>
<g>
</g>
<g>
</g>
<g>
</g>
<g>
</g>
<g>
</g>
<g>
</g>
<g>
</g>
<g>
</g>
<g>
</g>
<g>
</g>
<g>
</g>
<g>
</g>
</svg>
