<?xml version="1.0" encoding="iso-8859-1"?>
<!-- Generator: Adobe Illustrator 19.0.0, SVG Export Plug-In . SVG Version: 6.00 Build 0)  -->
<svg xmlns="http://www.w3.org/2000/svg" xmlns:xlink="http://www.w3.org/1999/xlink" version="1.1" id="Capa_1" x="0px" y="0px" viewBox="0 0 511.999 511.999" style="enable-background:new 0 0 511.999 511.999;" xml:space="preserve">
<path style="fill:#BABABA;" d="M104.158,175.525c-4.201,0-7.606-3.405-7.606-7.606v-44.582c0-6.341-5.159-11.501-11.5-11.501H7.606  c-4.201,0-7.606-3.405-7.606-7.606c0-4.201,3.405-7.606,7.606-7.606h77.447c14.729,0,26.711,11.983,26.711,26.712v44.582  C111.764,172.121,108.359,175.525,104.158,175.525z"/>
<path style="fill:#989DA0;" d="M69.174,133.064c-4.201,0-7.606-3.405-7.606-7.606V80.876c0-4.201,3.405-7.606,7.606-7.606  s7.606,3.405,7.606,7.606v44.582C76.78,129.659,73.375,133.064,69.174,133.064z"/>
<path style="fill:#49B5CE;" d="M318.149,6.283c-3.62-0.478-29.29-2.979-29.29,22.182v141.483h183.494  C463.142,87.391,399.511,19.253,318.149,6.283z"/>
<path style="fill:#34A4B7;" d="M323.853,7.298c-1.892-0.365-3.792-0.71-5.704-1.015c-3.62-0.478-29.29-2.979-29.29,22.182v141.483  h20.282V28.465C309.141,15.018,316.473,9.475,323.853,7.298z"/>
<path style="fill:#D3D3D3;" d="M493.725,190.211c0,10.551-8.556,19.106-19.108,19.106H103.096c-10.553,0-19.107-8.555-19.107-19.106  v-3.185c0-10.553,8.554-19.107,19.107-19.107h371.521c10.552,0,19.108,8.553,19.108,19.107V190.211z"/>
<path style="fill:#BABABA;" d="M474.618,189.632H103.096c-7.594,0-14.132-4.441-17.214-10.856c-1.201,2.501-1.893,5.291-1.893,8.251  v3.185c0,10.551,8.554,19.106,19.107,19.106h371.521c10.552,0,19.108-8.555,19.108-19.106v-3.185c0-2.959-0.692-5.75-1.894-8.251  C488.75,185.191,482.211,189.632,474.618,189.632z"/>
<path style="fill:#2571A0;" d="M164.409,309.102c36.117,0,67.657,19.514,84.712,48.561h79.471  c17.055-29.048,48.596-48.561,84.712-48.561c17.824,0,34.522,4.773,48.934,13.076c7.163-11.509,11.318-25.09,11.318-39.646v-73.216  H104.158v73.216c0,14.556,4.153,28.138,11.319,39.646C129.887,313.876,146.584,309.102,164.409,309.102z"/>
<path style="fill:#1A6287;" d="M121.657,279.191v-69.874h-17.499v73.216c0,14.556,4.153,28.138,11.319,39.646  c5.092-2.934,10.475-5.416,16.087-7.415C125.27,304.28,121.657,292.141,121.657,279.191z"/>
<rect x="104.16" y="209.32" style="fill:#49B5CE;" width="369.4" height="41.4"/>
<rect x="104.16" y="209.32" style="fill:#34A4B7;" width="17.499" height="41.4"/>
<g>
	<circle style="fill:#414356;" cx="164.41" cy="407.29" r="15.392"/>
	<circle style="fill:#414356;" cx="413.3" cy="407.29" r="15.391"/>
</g>
<path style="fill:#6D6E72;" d="M164.409,308.595c-54.421,0-98.695,44.274-98.695,98.695c0,54.42,44.275,98.694,98.695,98.694  s98.694-44.274,98.694-98.694C263.104,352.87,218.83,308.595,164.409,308.595z M164.409,470.473  c-34.839,0-63.183-28.344-63.183-63.183c0-34.838,28.344-63.181,63.183-63.181s63.183,28.343,63.183,63.181  C227.592,442.13,199.249,470.473,164.409,470.473z"/>
<path style="fill:#585A60;" d="M413.304,308.595c-54.42,0-98.694,44.274-98.694,98.695c0,54.42,44.274,98.694,98.694,98.694  c54.421,0,98.695-44.274,98.695-98.694S467.724,308.595,413.304,308.595z M413.304,470.473c-34.838,0-63.181-28.344-63.181-63.183  c0-34.838,28.342-63.181,63.181-63.181s63.183,28.343,63.183,63.181C476.486,442.13,448.143,470.473,413.304,470.473z"/>
<path style="fill:#6D6E72;" d="M413.304,308.595c-54.42,0-98.694,44.274-98.694,98.695c0,54.42,44.274,98.694,98.694,98.694  c54.421,0,98.695-44.274,98.695-98.694S467.724,308.595,413.304,308.595z M413.304,470.473c-34.838,0-63.181-28.344-63.181-63.183  c0-34.838,28.342-63.181,63.181-63.181s63.183,28.343,63.183,63.181C476.486,442.13,448.143,470.473,413.304,470.473z"/>
<g>
	<path style="fill:#585A60;" d="M100.194,407.291c0-48.542,35.225-89.008,81.456-97.186c-5.6-0.99-11.36-1.509-17.24-1.509   c-54.421,0-98.695,44.274-98.695,98.695c0,61.125,55.358,107.897,115.935,97.185C135.419,496.298,100.194,455.831,100.194,407.291z   "/>
	<path style="fill:#585A60;" d="M349.089,407.291c0-48.542,35.225-89.008,81.456-97.186c-5.6-0.99-11.36-1.509-17.24-1.509   c-54.421,0-98.695,44.274-98.695,98.695c0,54.42,44.275,98.694,98.695,98.694c5.88,0,11.64-0.519,17.24-1.509   C384.314,496.298,349.089,455.831,349.089,407.291z"/>
</g>
<g>
</g>
<g>
</g>
<g>
</g>
<g>
</g>
<g>
</g>
<g>
</g>
<g>
</g>
<g>
</g>
<g>
</g>
<g>
</g>
<g>
</g>
<g>
</g>
<g>
</g>
<g>
</g>
<g>
</g>
</svg>
