<?xml version="1.0" encoding="iso-8859-1"?>
<!-- Generator: Adobe Illustrator 19.0.0, SVG Export Plug-In . SVG Version: 6.00 Build 0)  -->
<svg xmlns="http://www.w3.org/2000/svg" xmlns:xlink="http://www.w3.org/1999/xlink" version="1.1" id="Capa_1" x="0px" y="0px" viewBox="0 0 512 512" style="enable-background:new 0 0 512 512;" xml:space="preserve">
<rect x="33.01" y="193.921" style="fill:#F0C419;" width="354.58" height="37.604"/>
<rect x="33.01" y="212.731" style="fill:#F7AC16;" width="354.58" height="18.802"/>
<path style="fill:#FF8828;" d="M289.94,366.591H151.525c-37.521,0-68.044-30.527-68.044-68.047  c0-37.519,30.523-68.043,68.044-68.043H289.94c37.52,0,68.045,30.525,68.045,68.043C357.985,336.064,327.459,366.591,289.94,366.591  z M151.525,268.103c-16.787,0-30.441,13.656-30.441,30.44c0,16.787,13.654,30.443,30.441,30.443H289.94  c16.785,0,30.441-13.656,30.441-30.443c0-16.784-13.656-30.44-30.441-30.44H151.525z"/>
<path style="fill:#ED6E18;" d="M289.94,348.718H151.525c-34.49,0-63.047-25.801-67.439-59.111c-0.386,2.927-0.605,5.906-0.605,8.936  c0,37.521,30.523,68.047,68.044,68.047H289.94c37.52,0,68.045-30.527,68.045-68.047c0-3.03-0.22-6.009-0.606-8.936  C352.988,322.917,324.429,348.718,289.94,348.718z"/>
<path style="fill:#FC9F60;" d="M0,233.408c0,9.969,8.081,18.049,18.049,18.049l0,0c9.969,0,18.049-8.08,18.049-18.049v-41.363  c0-9.968-8.081-18.049-18.049-18.049l0,0C8.081,173.996,0,182.077,0,192.045V233.408z"/>
<g>
	<path style="fill:#BABABA;" d="M200.05,151.61h-27.074c-4.263,0-7.719,3.455-7.719,7.719s3.456,7.719,7.719,7.719h5.818v220.91   c0,4.264,3.456,7.719,7.719,7.719s7.719-3.455,7.719-7.719v-220.91h5.818c4.263,0,7.719-3.455,7.719-7.719   S204.313,151.61,200.05,151.61z"/>
	<path style="fill:#BABABA;" d="M268.489,151.61h-27.075c-4.263,0-7.719,3.455-7.719,7.719s3.456,7.719,7.719,7.719h5.819v220.91   c0,4.264,3.456,7.719,7.719,7.719c4.263,0,7.719-3.455,7.719-7.719v-220.91h5.818c4.263,0,7.719-3.455,7.719-7.719   S272.752,151.61,268.489,151.61z"/>
</g>
<path style="fill:#FC9F60;" d="M383.555,194.023v37.406c38.881,0,72.937,21.202,91.829,52.963V141.061  C456.492,172.822,422.436,194.023,383.555,194.023z"/>
<path style="fill:#FF8828;" d="M383.555,212.627v18.802c38.881,0,72.937,21.202,91.829,52.963v-55.096  C448.737,218.736,417.272,212.627,383.555,212.627z"/>
<path style="fill:#F0C419;" d="M493.435,116.324c-10.237,0-18.565,8.328-18.565,18.564v155.678c0,10.237,8.328,18.565,18.565,18.565  S512,300.803,512,290.566V134.888C512,124.652,503.671,116.324,493.435,116.324z"/>
<path style="fill:#F7AC16;" d="M493.435,245.472c-10.237,0-18.565-8.328-18.565-18.565v63.658c0,10.237,8.328,18.565,18.565,18.565  S512,300.802,512,290.565v-63.658C512,237.144,503.671,245.472,493.435,245.472z"/>
<path style="fill:#FF8828;" d="M18.049,217.873c-9.968,0-18.049-8.08-18.049-18.05v33.585c0,9.969,8.081,18.049,18.049,18.049  c9.969,0,18.049-8.08,18.049-18.049v-33.585C36.099,209.793,28.018,217.873,18.049,217.873z"/>
<g>
</g>
<g>
</g>
<g>
</g>
<g>
</g>
<g>
</g>
<g>
</g>
<g>
</g>
<g>
</g>
<g>
</g>
<g>
</g>
<g>
</g>
<g>
</g>
<g>
</g>
<g>
</g>
<g>
</g>
</svg>
