<?xml version="1.0" encoding="iso-8859-1"?>
<!-- Generator: Adobe Illustrator 19.0.0, SVG Export Plug-In . SVG Version: 6.00 Build 0)  -->
<svg xmlns="http://www.w3.org/2000/svg" xmlns:xlink="http://www.w3.org/1999/xlink" version="1.1" id="Capa_1" x="0px" y="0px" viewBox="0 0 512 512" style="enable-background:new 0 0 512 512;" xml:space="preserve">
<path style="fill:#E04E4B;" d="M295.47,204.97c-59.312,0-63.483-92.382-62.729-129.911h-0.003c0,0,0.003-0.01,0.003-0.016  c0.008-0.386,0.016-0.755,0.025-1.133c-0.061-3.591-1.456-14.42-16.098-14.42L40.945,76.405  c-11.197,0.008-20.272,9.083-20.283,20.281v255.822h467.29C497.057,187.295,369.902,204.97,295.47,204.97z"/>
<path style="fill:#C44137;" d="M49.256,75.605l-8.311,0.8c-11.197,0.008-20.272,9.083-20.283,20.281v255.822h20.609V91.888  C41.277,85.264,44.409,79.385,49.256,75.605z"/>
<g>
	<path style="fill:#EF5854;" d="M188.8,73.909c-0.009,0.378-0.017,0.747-0.025,1.133c0,0.006-0.003,0.016-0.003,0.016h0.003   c-0.755,37.53,3.416,129.911,62.729,129.911c11.214,0,23.626-0.4,36.588-0.517c-52.278-7.377-56.072-93.487-55.35-129.394h-0.003   c0,0,0.003-0.01,0.003-0.016c0.008-0.386,0.016-0.755,0.025-1.133c-0.061-3.591-1.456-14.42-16.098-14.42l-32.993,3.176   C188.15,66.152,188.76,71.568,188.8,73.909z"/>
	<path style="fill:#EF5854;" d="M313.276,204.751c67.033,2.608,137.572,23.238,130.71,147.757h43.966   C496.365,199.854,388.448,203.339,313.276,204.751z"/>
</g>
<path style="fill:#49B5CE;" d="M168.116,305.984H20.662v44.463h167.754v-24.164C188.416,315.073,179.328,305.984,168.116,305.984z"/>
<rect x="20.662" y="305.98" style="fill:#F0C419;" width="72.942" height="44.46"/>
<rect x="20.662" y="305.98" style="fill:#F7AC16;" width="20.609" height="44.46"/>
<path style="fill:#C44137;" d="M69.076,184.388c11.21,0,20.299-9.089,20.299-20.299V71.741l-48.43,4.663  c-11.197,0.008-20.272,9.083-20.283,20.281v87.703H69.076z"/>
<path style="fill:#BA2B20;" d="M41.271,91.888c0.006-6.624,3.138-12.502,7.986-16.283l-8.311,0.8  c-11.197,0.008-20.272,9.083-20.283,20.281v87.703h20.609L41.271,91.888L41.271,91.888z"/>
<g>
	<path style="fill:#BABABA;" d="M248.386,127.835h-49.903c-4.268,0-7.729-3.46-7.729-7.729s3.46-7.729,7.729-7.729h49.903   c4.268,0,7.729,3.46,7.729,7.729C256.115,124.376,252.654,127.835,248.386,127.835z"/>
	<path style="fill:#BABABA;" d="M206.09,176.048c-3.463,0-6.614-2.344-7.492-5.856c-1.035-4.141,1.482-8.337,5.623-9.373   l50.749-12.688c4.14-1.036,8.337,1.481,9.372,5.623c1.035,4.141-1.482,8.337-5.623,9.373l-50.749,12.688   C207.341,175.973,206.71,176.048,206.09,176.048z"/>
	<path style="fill:#BABABA;" d="M234.859,222.567c-2.437,0-4.836-1.15-6.339-3.299c-2.447-3.497-1.596-8.316,1.901-10.764   l37.474-26.221c3.497-2.445,8.316-1.595,10.763,1.902c2.447,3.497,1.596,8.316-1.901,10.764l-37.474,26.221   C237.934,222.113,236.389,222.567,234.859,222.567z"/>
</g>
<path style="fill:#6D6E72;" d="M491.335,350.447h-6.115h-85.46H292.908H93.604H20.662C9.252,350.447,0,359.699,0,371.113v3.138  c0,11.412,9.252,20.664,20.662,20.664h22.344h101.195h98.112h101.192h5.659h101.193h34.863h6.115  c11.413,0,20.665-9.252,20.665-20.664v-3.138C512,359.699,502.748,350.447,491.335,350.447z"/>
<path style="fill:#585A60;" d="M491.335,372.68h-6.115h-34.863H349.164h-5.659H242.313h-98.112H43.006H20.662  c-7.963,0-14.864-4.514-18.313-11.117C0.856,364.422,0,367.665,0,371.113v3.138c0,11.412,9.252,20.664,20.662,20.664h22.344h101.195  h98.112h101.192h5.659h101.193h34.863h6.115c11.413,0,20.665-9.252,20.665-20.664v-3.138c0-3.448-0.856-6.691-2.349-9.549  C506.202,368.166,499.301,372.68,491.335,372.68z"/>
<circle style="fill:#D3D3D3;" cx="93.6" cy="401.48" r="51.03"/>
<path style="fill:#BABABA;" d="M63.183,401.479c0-24.653,17.481-45.224,40.725-49.991c-3.328-0.682-6.774-1.042-10.304-1.042  c-28.185,0-51.03,22.85-51.03,51.032c0,28.187,22.845,51.032,51.03,51.032c3.53,0,6.976-0.359,10.304-1.041  C80.664,446.704,63.183,426.136,63.183,401.479z"/>
<g>
	<circle style="fill:#D3D3D3;" cx="292.91" cy="401.48" r="51.03"/>
	<circle style="fill:#D3D3D3;" cx="399.76" cy="401.48" r="51.03"/>
</g>
<g>
	<circle style="fill:#989DA0;" cx="399.76" cy="401.48" r="14.12"/>
	<circle style="fill:#989DA0;" cx="292.91" cy="401.48" r="14.11"/>
	<circle style="fill:#989DA0;" cx="93.6" cy="401.48" r="14.12"/>
</g>
<g>
	<path style="fill:#BABABA;" d="M262.486,401.479c0-24.653,17.481-45.224,40.725-49.991c-3.328-0.682-6.774-1.042-10.304-1.042   c-28.185,0-51.031,22.85-51.031,51.032c0,28.187,22.846,51.032,51.031,51.032c3.53,0,6.976-0.359,10.304-1.041   C279.967,446.704,262.486,426.136,262.486,401.479z"/>
	<path style="fill:#BABABA;" d="M369.338,401.479c0-24.653,17.481-45.224,40.725-49.991c-3.328-0.682-6.774-1.042-10.304-1.042   c-28.185,0-51.03,22.85-51.03,51.032c0,28.187,22.845,51.032,51.03,51.032c3.53,0,6.976-0.359,10.304-1.041   C386.819,446.704,369.338,426.136,369.338,401.479z"/>
</g>
<g>
</g>
<g>
</g>
<g>
</g>
<g>
</g>
<g>
</g>
<g>
</g>
<g>
</g>
<g>
</g>
<g>
</g>
<g>
</g>
<g>
</g>
<g>
</g>
<g>
</g>
<g>
</g>
<g>
</g>
</svg>
