<?xml version="1.0" encoding="iso-8859-1"?>
<!-- Generator: Adobe Illustrator 19.0.0, SVG Export Plug-In . SVG Version: 6.00 Build 0)  -->
<svg xmlns="http://www.w3.org/2000/svg" xmlns:xlink="http://www.w3.org/1999/xlink" version="1.1" id="Capa_1" x="0px" y="0px" viewBox="0 0 511.999 511.999" style="enable-background:new 0 0 511.999 511.999;" xml:space="preserve">
<path style="fill:#BABABA;" d="M373.334,277.579h-18.969c-0.889,0-1.753,0.091-2.602,0.233v74.325  c0.849,0.142,1.712,0.233,2.602,0.233h18.969c8.62,0,15.609-6.988,15.609-15.609v-43.574  C388.943,284.566,381.954,277.579,373.334,277.579z"/>
<path style="fill:#989DA0;" d="M373.334,314.975h-18.969c-0.889,0-1.753-0.092-2.602-0.233v37.396  c0.849,0.142,1.712,0.233,2.602,0.233h18.969c8.62,0,15.609-6.988,15.609-15.609v-37.396  C388.943,307.986,381.954,314.975,373.334,314.975z"/>
<path style="fill:#BABABA;" d="M148.42,0c-14.011,0-25.364,11.355-25.364,25.364v48.898h50.73V25.364  C173.786,11.355,162.429,0,148.42,0z"/>
<path style="fill:#989DA0;" d="M161.102,3.401C157.371,1.242,153.042,0,148.42,0c-14.011,0-25.364,11.355-25.364,25.364v48.898  h25.365V25.364C148.421,15.976,153.523,7.787,161.102,3.401z"/>
<path style="fill:#414356;" d="M173.786,104.927V72.202h-50.73v92.178C123.057,134.355,145.038,109.471,173.786,104.927z"/>
<path style="fill:#2D313F;" d="M148.421,72.202h-25.365v92.178c0-20.262,10.019-38.172,25.365-49.081V72.202z"/>
<path style="fill:#FF8828;" d="M293.625,102.119H183.256c-33.248,0-60.199,26.951-60.199,60.2v289.48  c0,33.247,26.951,60.2,60.199,60.2h110.369c33.248,0,60.199-26.953,60.199-60.2v-289.48  C353.824,129.07,326.872,102.119,293.625,102.119z"/>
<path style="fill:#ED6E18;" d="M148.421,451.799v-289.48c0-33.249,26.951-60.2,60.199-60.2h-25.365  c-33.248,0-60.199,26.951-60.199,60.2v289.48c0,33.247,26.951,60.2,60.199,60.2h25.365  C175.373,511.999,148.421,485.046,148.421,451.799z"/>
<g>
	<circle style="fill:#F0C419;" cx="175.47" cy="392.25" r="16.26"/>
	<circle style="fill:#F0C419;" cx="239.85" cy="392.25" r="16.259"/>
	<circle style="fill:#F0C419;" cx="304.24" cy="392.25" r="16.259"/>
	<circle style="fill:#F0C419;" cx="175.47" cy="335.58" r="16.26"/>
	<circle style="fill:#F0C419;" cx="239.85" cy="335.58" r="16.259"/>
	<circle style="fill:#F0C419;" cx="304.24" cy="335.58" r="16.259"/>
	<circle style="fill:#F0C419;" cx="175.47" cy="448.92" r="16.26"/>
	<circle style="fill:#F0C419;" cx="239.85" cy="448.92" r="16.259"/>
	<circle style="fill:#F0C419;" cx="304.24" cy="448.92" r="16.259"/>
</g>
<g>
	<path style="fill:#F7AC16;" d="M175.466,392.247c0-6.014,3.274-11.253,8.129-14.066c-2.394-1.386-5.164-2.192-8.129-2.192   c-8.98,0-16.259,7.28-16.259,16.259c0,8.98,7.278,16.26,16.259,16.26c2.965,0,5.736-0.806,8.129-2.192   C178.74,403.502,175.466,398.263,175.466,392.247z"/>
	<path style="fill:#F7AC16;" d="M239.853,392.247c0-6.014,3.274-11.253,8.129-14.066c-2.394-1.385-5.164-2.192-8.129-2.192   c-8.98,0-16.259,7.28-16.259,16.259c0,8.98,7.278,16.26,16.259,16.26c2.965,0,5.736-0.806,8.129-2.192   C243.127,403.501,239.853,398.263,239.853,392.247z"/>
	<path style="fill:#F7AC16;" d="M304.239,392.247c0-6.014,3.274-11.253,8.129-14.066c-2.394-1.385-5.164-2.192-8.129-2.192   c-8.98,0-16.259,7.28-16.259,16.259c0,8.98,7.278,16.26,16.259,16.26c2.965,0,5.736-0.806,8.129-2.192   C307.513,403.501,304.239,398.263,304.239,392.247z"/>
	<path style="fill:#F7AC16;" d="M175.466,335.58c0-6.014,3.274-11.254,8.129-14.066c-2.394-1.386-5.164-2.192-8.129-2.192   c-8.98,0-16.259,7.279-16.259,16.259s7.278,16.259,16.259,16.259c2.965,0,5.736-0.806,8.129-2.192   C178.74,346.834,175.466,341.595,175.466,335.58z"/>
	<path style="fill:#F7AC16;" d="M239.853,335.58c0-6.014,3.274-11.253,8.129-14.066c-2.394-1.386-5.164-2.192-8.129-2.192   c-8.98,0-16.259,7.279-16.259,16.259s7.278,16.259,16.259,16.259c2.965,0,5.736-0.806,8.129-2.192   C243.127,346.834,239.853,341.595,239.853,335.58z"/>
	<path style="fill:#F7AC16;" d="M304.239,335.58c0-6.014,3.274-11.253,8.129-14.066c-2.394-1.386-5.164-2.192-8.129-2.192   c-8.98,0-16.259,7.279-16.259,16.259s7.278,16.259,16.259,16.259c2.965,0,5.736-0.806,8.129-2.192   C307.513,346.834,304.239,341.595,304.239,335.58z"/>
	<path style="fill:#F7AC16;" d="M175.466,448.916c0-6.014,3.274-11.254,8.129-14.067c-2.394-1.386-5.164-2.192-8.129-2.192   c-8.98,0-16.259,7.28-16.259,16.26s7.278,16.26,16.259,16.26c2.965,0,5.736-0.806,8.129-2.192   C178.74,460.17,175.466,454.93,175.466,448.916z"/>
	<path style="fill:#F7AC16;" d="M239.853,448.916c0-6.014,3.274-11.254,8.129-14.067c-2.394-1.386-5.164-2.192-8.129-2.192   c-8.98,0-16.259,7.28-16.259,16.26s7.278,16.26,16.259,16.26c2.965,0,5.736-0.806,8.129-2.192   C243.127,460.17,239.853,454.93,239.853,448.916z"/>
	<path style="fill:#F7AC16;" d="M304.239,448.916c0-6.014,3.274-11.254,8.129-14.067c-2.394-1.386-5.164-2.192-8.129-2.192   c-8.98,0-16.259,7.28-16.259,16.26s7.278,16.26,16.259,16.26c2.965,0,5.736-0.806,8.129-2.192   C307.513,460.17,304.239,454.93,304.239,448.916z"/>
</g>
<path style="fill:#49B5CE;" d="M319.085,271.648c0,8.62-6.988,15.609-15.609,15.609H173.404c-8.62,0-15.609-6.988-15.609-15.609  v-106.35c0-8.62,6.988-15.609,15.609-15.609h130.073c8.62,0,15.609,6.988,15.609,15.609v106.35H319.085z"/>
<path style="fill:#34A4B7;" d="M178.4,271.648v-106.35c0-8.62,6.988-15.609,15.609-15.609h-20.605  c-8.62,0-15.609,6.988-15.609,15.609v106.35c0,8.62,6.988,15.609,15.609,15.609h20.605C185.388,287.257,178.4,280.268,178.4,271.648  z"/>
<path style="fill:#E5E5E5;" d="M157.795,261.896v9.752c0,8.62,6.988,15.609,15.609,15.609h130.073  c8.62,0,15.609-6.988,15.609-15.609v-9.752H157.795z"/>
<path style="fill:#D1CFCF;" d="M178.4,271.648v-9.752h-20.605v9.752c0,8.62,6.988,15.609,15.609,15.609h20.605  C185.388,287.257,178.4,280.268,178.4,271.648z"/>
<g>
</g>
<g>
</g>
<g>
</g>
<g>
</g>
<g>
</g>
<g>
</g>
<g>
</g>
<g>
</g>
<g>
</g>
<g>
</g>
<g>
</g>
<g>
</g>
<g>
</g>
<g>
</g>
<g>
</g>
</svg>
