<?xml version="1.0" encoding="iso-8859-1"?>
<!-- Generator: Adobe Illustrator 19.0.0, SVG Export Plug-In . SVG Version: 6.00 Build 0)  -->
<svg xmlns="http://www.w3.org/2000/svg" xmlns:xlink="http://www.w3.org/1999/xlink" version="1.1" id="Capa_1" x="0px" y="0px" viewBox="0 0 512 512" style="enable-background:new 0 0 512 512;" xml:space="preserve">
<circle style="fill:#49B5CE;" cx="256" cy="256" r="256"/>
<path style="fill:#34A4B7;" d="M190.497,423.115C57.685,290.301,108.987,65.121,283.847,1.528  C209.391-6.572,132.062,17.9,74.982,74.981c-99.975,99.976-99.975,262.065,0,362.041c72.652,72.653,178.105,92.49,268.688,59.546  C287.719,490.481,233.39,466.009,190.497,423.115z"/>
<path style="fill:#F0C419;" d="M484.513,140.484c-24.801-0.713-53.176-13.441-76.366-36.631L103.855,408.149  c23.189,23.19,35.917,51.562,36.63,76.364c96.037,48.571,216.294,32.751,296.535-47.492  C517.264,356.777,533.084,236.524,484.513,140.484z"/>
<path style="fill:#F7AC16;" d="M146.931,365.072l-43.077,43.077c23.189,23.19,35.917,51.562,36.63,76.364  c61.776,31.244,135.598,36.634,203.185,12.054C258.222,487.272,186.009,436.364,146.931,365.072z"/>
<path style="fill:#3BBC56;" d="M136.763,461.973c-5.393-18.472-16.524-37.44-32.908-53.824  c-16.384-16.385-35.355-27.518-53.827-32.91C42.723,235.598,235.485,42.73,375.223,50.028c5.397,18.473,16.544,37.443,32.924,53.826  c16.386,16.384,35.355,27.529,53.827,32.925C469.267,276.417,276.496,469.287,136.763,461.973z"/>
<path style="fill:#31A845;" d="M118.816,201.101C72.119,261.339,47.42,325.389,50.028,375.239  c18.472,5.392,37.443,16.524,53.827,32.91c16.384,16.384,27.515,35.353,32.908,53.824c24.346,1.275,52.079-3.965,81.1-15.098  C141.768,389.643,103.57,295.585,118.816,201.101z"/>
<path style="fill:#E04E4B;" d="M136.763,461.973c-5.393-18.472-16.524-37.44-32.908-53.824l304.292-304.296  c16.386,16.384,35.355,27.529,53.827,32.925C469.267,276.417,276.496,469.287,136.763,461.973z"/>
<path style="fill:#C44137;" d="M136.763,461.973c24.346,1.275,52.079-3.965,81.1-15.098c-29.205-21.965-53.419-49.854-70.932-81.803  l-43.077,43.077C120.238,424.533,131.37,443.501,136.763,461.973z"/>
<path style="fill:#D3D3D3;" d="M484.513,140.484c-24.801-0.713-53.176-13.441-76.366-36.631  c-23.188-23.19-35.918-51.562-36.63-76.364C420.063,52.037,459.914,91.836,484.513,140.484z"/>
<path style="fill:#BABABA;" d="M140.485,484.513L140.485,484.513c-23.615-11.941-45.775-27.762-65.503-47.492  C55.25,417.29,39.43,395.134,27.489,371.518l0,0c24.801,0.712,53.177,13.441,76.366,36.631  C127.044,431.339,139.772,459.711,140.485,484.513z"/>
<g>
</g>
<g>
</g>
<g>
</g>
<g>
</g>
<g>
</g>
<g>
</g>
<g>
</g>
<g>
</g>
<g>
</g>
<g>
</g>
<g>
</g>
<g>
</g>
<g>
</g>
<g>
</g>
<g>
</g>
</svg>
