<?xml version="1.0" encoding="iso-8859-1"?>
<!-- Generator: Adobe Illustrator 19.0.0, SVG Export Plug-In . SVG Version: 6.00 Build 0)  -->
<svg xmlns="http://www.w3.org/2000/svg" xmlns:xlink="http://www.w3.org/1999/xlink" version="1.1" id="Capa_1" x="0px" y="0px" viewBox="0 0 511.999 511.999" style="enable-background:new 0 0 511.999 511.999;" xml:space="preserve">
<path style="fill:#EF5854;" d="M431.805,511.999H80.194c-16.666,0-30.228-13.56-30.228-30.227V30.228  C49.966,13.56,63.528,0,80.194,0h351.611c16.668,0,30.228,13.56,30.228,30.228v451.544  C462.034,498.439,448.473,511.999,431.805,511.999z M80.811,481.154h350.378V30.845H80.811V481.154z"/>
<path style="fill:#E04E4B;" d="M80.873,481.772v-0.618h-0.062V30.845h0.062v-0.617C80.873,13.56,94.435,0,111.101,0H80.194  C63.528,0,49.966,13.56,49.966,30.228v451.544c0,16.667,13.562,30.227,30.228,30.227h30.907  C94.435,511.999,80.873,498.439,80.873,481.772z"/>
<g>
	<path style="fill:#BABABA;" d="M431.189,108.243H80.811c-4.267,0-7.727-3.459-7.727-7.727s3.459-7.727,7.727-7.727h350.378   c4.267,0,7.727,3.459,7.727,7.727S435.456,108.243,431.189,108.243z"/>
	<path style="fill:#BABABA;" d="M431.189,187.051H80.811c-4.267,0-7.727-3.459-7.727-7.727s3.459-7.727,7.727-7.727h350.378   c4.267,0,7.727,3.459,7.727,7.727S435.456,187.051,431.189,187.051z"/>
	<path style="fill:#BABABA;" d="M431.189,265.861H80.811c-4.267,0-7.727-3.459-7.727-7.727c0-4.268,3.459-7.727,7.727-7.727h350.378   c4.267,0,7.727,3.459,7.727,7.727C438.915,262.402,435.456,265.861,431.189,265.861z"/>
	<path style="fill:#BABABA;" d="M431.189,344.67H80.811c-4.267,0-7.727-3.459-7.727-7.727c0-4.268,3.459-7.727,7.727-7.727h350.378   c4.267,0,7.727,3.459,7.727,7.727C438.915,341.211,435.456,344.67,431.189,344.67z"/>
	<path style="fill:#BABABA;" d="M431.189,423.479H80.811c-4.267,0-7.727-3.459-7.727-7.727c0-4.268,3.459-7.727,7.727-7.727h350.378   c4.267,0,7.727,3.459,7.727,7.727C438.915,420.02,435.456,423.479,431.189,423.479z"/>
</g>
<path style="fill:#FF8828;" d="M152.862,114.5c0,8.177-6.629,14.805-14.806,14.805h-1.233c-8.177,0-14.806-6.629-14.806-14.805  V86.533c0-8.177,6.629-14.806,14.806-14.806h1.233c8.177,0,14.806,6.629,14.806,14.806V114.5z"/>
<path style="fill:#F0C419;" d="M183.707,114.5c0,8.177-6.629,14.805-14.806,14.805h-1.234c-8.177,0-14.806-6.629-14.806-14.805  V86.533c0-8.177,6.629-14.806,14.806-14.806h1.234c8.177,0,14.806,6.629,14.806,14.806V114.5z"/>
<path style="fill:#FF8828;" d="M214.552,114.5c0,8.177-6.629,14.805-14.806,14.805h-1.233c-8.177,0-14.806-6.629-14.806-14.805  V86.533c0-8.177,6.629-14.806,14.806-14.806h1.233c8.177,0,14.806,6.629,14.806,14.806V114.5z"/>
<path style="fill:#F0C419;" d="M245.396,114.5c0,8.177-6.628,14.805-14.805,14.805h-1.235c-8.176,0-14.805-6.629-14.805-14.805  V86.533c0-8.177,6.629-14.806,14.805-14.806h1.235c8.177,0,14.805,6.629,14.805,14.806V114.5z"/>
<path style="fill:#FF8828;" d="M276.241,114.5c0,8.177-6.629,14.805-14.806,14.805h-1.233c-8.176,0-14.806-6.629-14.806-14.805  V86.533c0-8.177,6.63-14.806,14.806-14.806h1.233c8.177,0,14.806,6.629,14.806,14.806V114.5z"/>
<path style="fill:#F0C419;" d="M152.862,193.308c0,8.177-6.629,14.805-14.806,14.805h-1.233c-8.177,0-14.806-6.628-14.806-14.805  v-27.967c0-8.177,6.629-14.805,14.806-14.805h1.233c8.177,0,14.806,6.629,14.806,14.805V193.308z"/>
<path style="fill:#FF8828;" d="M183.707,193.308c0,8.177-6.629,14.805-14.806,14.805h-1.234c-8.177,0-14.806-6.628-14.806-14.805  v-27.967c0-8.177,6.629-14.805,14.806-14.805h1.234c8.177,0,14.806,6.629,14.806,14.805V193.308z"/>
<path style="fill:#F0C419;" d="M214.552,193.308c0,8.177-6.629,14.805-14.806,14.805h-1.233c-8.177,0-14.806-6.628-14.806-14.805  v-27.967c0-8.177,6.629-14.805,14.806-14.805h1.233c8.177,0,14.806,6.629,14.806,14.805V193.308z"/>
<path style="fill:#FF8828;" d="M245.396,193.308c0,8.177-6.628,14.805-14.805,14.805h-1.235c-8.176,0-14.805-6.628-14.805-14.805  v-27.967c0-8.177,6.629-14.805,14.805-14.805h1.235c8.177,0,14.805,6.629,14.805,14.805V193.308z"/>
<path style="fill:#F0C419;" d="M276.241,193.308c0,8.177-6.629,14.805-14.806,14.805h-1.233c-8.176,0-14.806-6.628-14.806-14.805  v-27.967c0-8.177,6.63-14.805,14.806-14.805h1.233c8.177,0,14.806,6.629,14.806,14.805V193.308z"/>
<path style="fill:#FF8828;" d="M152.862,272.117c0,8.177-6.629,14.806-14.806,14.806h-1.233c-8.177,0-14.806-6.629-14.806-14.806  V244.15c0-8.178,6.629-14.806,14.806-14.806h1.233c8.177,0,14.806,6.628,14.806,14.806V272.117z"/>
<path style="fill:#F0C419;" d="M183.707,272.117c0,8.177-6.629,14.806-14.806,14.806h-1.234c-8.177,0-14.806-6.629-14.806-14.806  V244.15c0-8.178,6.629-14.806,14.806-14.806h1.234c8.177,0,14.806,6.628,14.806,14.806V272.117z"/>
<path style="fill:#FF8828;" d="M214.552,272.117c0,8.177-6.629,14.806-14.806,14.806h-1.233c-8.177,0-14.806-6.629-14.806-14.806  V244.15c0-8.178,6.629-14.806,14.806-14.806h1.233c8.177,0,14.806,6.628,14.806,14.806V272.117z"/>
<path style="fill:#F0C419;" d="M245.396,272.117c0,8.177-6.628,14.806-14.805,14.806h-1.235c-8.176,0-14.805-6.629-14.805-14.806  V244.15c0-8.178,6.629-14.806,14.805-14.806h1.235c8.177,0,14.805,6.628,14.805,14.806V272.117z"/>
<path style="fill:#FF8828;" d="M276.241,272.117c0,8.177-6.629,14.806-14.806,14.806h-1.233c-8.176,0-14.806-6.629-14.806-14.806  V244.15c0-8.178,6.63-14.806,14.806-14.806h1.233c8.177,0,14.806,6.628,14.806,14.806V272.117z"/>
<path style="fill:#F0C419;" d="M152.862,350.404c0,8.177-6.629,14.805-14.806,14.805h-1.233c-8.177,0-14.806-6.628-14.806-14.805  v-27.968c0-8.176,6.629-14.805,14.806-14.805h1.233c8.177,0,14.806,6.629,14.806,14.805V350.404z"/>
<path style="fill:#FF8828;" d="M183.707,350.404c0,8.177-6.629,14.805-14.806,14.805h-1.234c-8.177,0-14.806-6.628-14.806-14.805  v-27.968c0-8.176,6.629-14.805,14.806-14.805h1.234c8.177,0,14.806,6.629,14.806,14.805V350.404z"/>
<path style="fill:#F0C419;" d="M214.552,350.404c0,8.177-6.629,14.805-14.806,14.805h-1.233c-8.177,0-14.806-6.628-14.806-14.805  v-27.968c0-8.176,6.629-14.805,14.806-14.805h1.233c8.177,0,14.806,6.629,14.806,14.805V350.404z"/>
<path style="fill:#FF8828;" d="M245.396,350.404c0,8.177-6.628,14.805-14.805,14.805h-1.235c-8.176,0-14.805-6.628-14.805-14.805  v-27.968c0-8.176,6.629-14.805,14.805-14.805h1.235c8.177,0,14.805,6.629,14.805,14.805V350.404z"/>
<path style="fill:#F0C419;" d="M276.241,350.404c0,8.177-6.629,14.805-14.806,14.805h-1.233c-8.176,0-14.806-6.628-14.806-14.805  v-27.968c0-8.176,6.63-14.805,14.806-14.805h1.233c8.177,0,14.806,6.629,14.806,14.805V350.404z"/>
<path style="fill:#FF8828;" d="M152.862,429.212c0,8.177-6.629,14.805-14.806,14.805h-1.233c-8.177,0-14.806-6.628-14.806-14.805  v-27.967c0-8.178,6.629-14.806,14.806-14.806h1.233c8.177,0,14.806,6.628,14.806,14.806V429.212z"/>
<path style="fill:#F0C419;" d="M183.707,429.212c0,8.177-6.629,14.805-14.806,14.805h-1.234c-8.177,0-14.806-6.628-14.806-14.805  v-27.967c0-8.178,6.629-14.806,14.806-14.806h1.234c8.177,0,14.806,6.628,14.806,14.806V429.212z"/>
<path style="fill:#FF8828;" d="M214.552,429.212c0,8.177-6.629,14.805-14.806,14.805h-1.233c-8.177,0-14.806-6.628-14.806-14.805  v-27.967c0-8.178,6.629-14.806,14.806-14.806h1.233c8.177,0,14.806,6.628,14.806,14.806V429.212z"/>
<path style="fill:#F0C419;" d="M245.396,429.212c0,8.177-6.628,14.805-14.805,14.805h-1.235c-8.176,0-14.805-6.628-14.805-14.805  v-27.967c0-8.178,6.629-14.806,14.805-14.806h1.235c8.177,0,14.805,6.628,14.805,14.806V429.212z"/>
<path style="fill:#FF8828;" d="M276.241,429.212c0,8.177-6.629,14.805-14.806,14.805h-1.233c-8.176,0-14.806-6.628-14.806-14.805  v-27.967c0-8.178,6.63-14.806,14.806-14.806h1.233c8.177,0,14.806,6.628,14.806,14.806V429.212z"/>
<g>
	<path style="fill:#ED6E18;" d="M137.44,114.5V86.533c0-5.606,3.117-10.483,7.711-12.996c-2.107-1.152-4.524-1.809-7.095-1.809   h-1.233c-8.177,0-14.806,6.629-14.806,14.806V114.5c0,8.177,6.629,14.805,14.806,14.805h1.233c2.571,0,4.987-0.657,7.095-1.81   C140.557,124.982,137.44,120.106,137.44,114.5z"/>
	<path style="fill:#ED6E18;" d="M199.13,114.5V86.533c0-5.606,3.117-10.483,7.711-12.996c-2.107-1.152-4.524-1.809-7.095-1.809   h-1.233c-8.177,0-14.806,6.629-14.806,14.806V114.5c0,8.177,6.629,14.805,14.806,14.805h1.233c2.571,0,4.987-0.657,7.095-1.81   C202.247,124.982,199.13,120.106,199.13,114.5z"/>
	<path style="fill:#ED6E18;" d="M168.285,193.308v-27.967c0-5.606,3.117-10.483,7.711-12.996c-2.107-1.152-4.524-1.809-7.094-1.809   h-1.234c-8.177,0-14.806,6.629-14.806,14.806v27.967c0,8.176,6.629,14.805,14.806,14.805h1.234c2.571,0,4.987-0.657,7.094-1.81   C171.402,203.79,168.285,198.914,168.285,193.308z"/>
	<path style="fill:#ED6E18;" d="M260.819,114.5V86.533c0-5.606,3.117-10.483,7.711-12.996c-2.107-1.152-4.524-1.809-7.094-1.809   h-1.233c-8.177,0-14.806,6.629-14.806,14.806V114.5c0,8.177,6.629,14.805,14.806,14.805h1.233c2.571,0,4.987-0.657,7.094-1.81   C263.936,124.982,260.819,120.106,260.819,114.5z"/>
	<path style="fill:#ED6E18;" d="M229.975,193.308v-27.967c0-5.606,3.117-10.483,7.711-12.996c-2.107-1.152-4.524-1.809-7.094-1.809   h-1.234c-8.177,0-14.806,6.629-14.806,14.806v27.967c0,8.176,6.629,14.805,14.806,14.805h1.234c2.571,0,4.987-0.657,7.094-1.81   C233.092,203.79,229.975,198.914,229.975,193.308z"/>
	<path style="fill:#ED6E18;" d="M137.44,271.595v-27.967c0-5.606,3.117-10.483,7.711-12.996c-2.107-1.153-4.524-1.81-7.095-1.81   h-1.233c-8.177,0-14.806,6.629-14.806,14.806v27.967c0,8.177,6.629,14.806,14.806,14.806h1.233c2.571,0,4.987-0.658,7.095-1.81   C140.557,282.076,137.44,277.201,137.44,271.595z"/>
	<path style="fill:#ED6E18;" d="M199.13,271.595v-27.967c0-5.606,3.117-10.483,7.711-12.996c-2.107-1.153-4.524-1.81-7.095-1.81   h-1.233c-8.177,0-14.806,6.629-14.806,14.806v27.967c0,8.177,6.629,14.806,14.806,14.806h1.233c2.571,0,4.987-0.658,7.095-1.81   C202.247,282.076,199.13,277.201,199.13,271.595z"/>
	<path style="fill:#ED6E18;" d="M168.285,350.404v-27.967c0-5.606,3.117-10.484,7.711-12.997c-2.107-1.153-4.524-1.809-7.094-1.809   h-1.234c-8.177,0-14.806,6.628-14.806,14.806v27.967c0,8.176,6.629,14.805,14.806,14.805h1.234c2.571,0,4.987-0.657,7.094-1.81   C171.402,360.885,168.285,356.01,168.285,350.404z"/>
	<path style="fill:#ED6E18;" d="M260.819,271.595v-27.967c0-5.606,3.117-10.483,7.711-12.996c-2.107-1.153-4.524-1.81-7.094-1.81   h-1.233c-8.177,0-14.806,6.629-14.806,14.806v27.967c0,8.177,6.629,14.806,14.806,14.806h1.233c2.571,0,4.987-0.658,7.094-1.81   C263.936,282.076,260.819,277.201,260.819,271.595z"/>
	<path style="fill:#ED6E18;" d="M137.44,429.211v-27.967c0-5.606,3.117-10.483,7.711-12.996c-2.107-1.153-4.524-1.81-7.095-1.81   h-1.233c-8.177,0-14.806,6.629-14.806,14.806v27.967c0,8.177,6.629,14.806,14.806,14.806h1.233c2.571,0,4.987-0.658,7.095-1.81   C140.557,439.693,137.44,434.817,137.44,429.211z"/>
	<path style="fill:#ED6E18;" d="M199.13,429.211v-27.967c0-5.606,3.117-10.483,7.711-12.996c-2.107-1.153-4.524-1.81-7.095-1.81   h-1.233c-8.177,0-14.806,6.629-14.806,14.806v27.967c0,8.177,6.629,14.806,14.806,14.806h1.233c2.571,0,4.987-0.658,7.095-1.81   C202.247,439.693,199.13,434.817,199.13,429.211z"/>
	<path style="fill:#ED6E18;" d="M260.819,429.211v-27.967c0-5.606,3.117-10.483,7.711-12.996c-2.107-1.153-4.524-1.81-7.094-1.81   h-1.233c-8.177,0-14.806,6.629-14.806,14.806v27.967c0,8.177,6.629,14.806,14.806,14.806h1.233c2.571,0,4.987-0.658,7.094-1.81   C263.936,439.693,260.819,434.817,260.819,429.211z"/>
	<path style="fill:#ED6E18;" d="M229.975,350.404v-27.967c0-5.606,3.117-10.484,7.711-12.997c-2.107-1.153-4.524-1.809-7.094-1.809   h-1.234c-8.177,0-14.806,6.628-14.806,14.806v27.967c0,8.176,6.629,14.805,14.806,14.805h1.234c2.571,0,4.987-0.657,7.094-1.81   C233.092,360.885,229.975,356.01,229.975,350.404z"/>
</g>
<g>
	<path style="fill:#F7AC16;" d="M137.44,193.308v-27.967c0-5.606,3.117-10.483,7.711-12.996c-2.107-1.152-4.524-1.809-7.095-1.809   h-1.233c-8.177,0-14.806,6.629-14.806,14.806v27.967c0,8.176,6.629,14.805,14.806,14.805h1.233c2.571,0,4.987-0.657,7.095-1.81   C140.557,203.79,137.44,198.914,137.44,193.308z"/>
	<path style="fill:#F7AC16;" d="M199.13,193.308v-27.967c0-5.606,3.117-10.483,7.711-12.996c-2.107-1.152-4.524-1.809-7.095-1.809   h-1.233c-8.177,0-14.806,6.629-14.806,14.806v27.967c0,8.176,6.629,14.805,14.806,14.805h1.233c2.571,0,4.987-0.657,7.095-1.81   C202.247,203.79,199.13,198.914,199.13,193.308z"/>
	<path style="fill:#F7AC16;" d="M260.819,193.308v-27.967c0-5.606,3.117-10.483,7.711-12.996c-2.107-1.152-4.524-1.809-7.094-1.809   h-1.233c-8.177,0-14.806,6.629-14.806,14.806v27.967c0,8.176,6.629,14.805,14.806,14.805h1.233c2.571,0,4.987-0.657,7.094-1.81   C263.936,203.79,260.819,198.914,260.819,193.308z"/>
	<path style="fill:#F7AC16;" d="M137.44,350.404v-27.967c0-5.606,3.117-10.484,7.711-12.997c-2.107-1.153-4.524-1.809-7.095-1.809   h-1.233c-8.177,0-14.806,6.628-14.806,14.806v27.967c0,8.176,6.629,14.805,14.806,14.805h1.233c2.571,0,4.987-0.657,7.095-1.81   C140.557,360.885,137.44,356.01,137.44,350.404z"/>
	<path style="fill:#F7AC16;" d="M199.13,350.404v-27.967c0-5.606,3.117-10.484,7.711-12.997c-2.107-1.153-4.524-1.809-7.095-1.809   h-1.233c-8.177,0-14.806,6.628-14.806,14.806v27.967c0,8.176,6.629,14.805,14.806,14.805h1.233c2.571,0,4.987-0.657,7.095-1.81   C202.247,360.885,199.13,356.01,199.13,350.404z"/>
	<path style="fill:#F7AC16;" d="M260.819,350.404v-27.967c0-5.606,3.117-10.484,7.711-12.997c-2.107-1.153-4.524-1.809-7.094-1.809   h-1.233c-8.177,0-14.806,6.628-14.806,14.806v27.967c0,8.176,6.629,14.805,14.806,14.805h1.233c2.571,0,4.987-0.657,7.094-1.81   C263.936,360.885,260.819,356.01,260.819,350.404z"/>
	<path style="fill:#F7AC16;" d="M229.975,429.212v-27.967c0-5.606,3.117-10.484,7.711-12.997c-2.107-1.153-4.524-1.809-7.094-1.809   h-1.234c-8.177,0-14.806,6.628-14.806,14.806v27.967c0,8.176,6.629,14.805,14.806,14.805h1.234c2.571,0,4.987-0.657,7.094-1.81   C233.092,439.694,229.975,434.818,229.975,429.212z"/>
	<path style="fill:#F7AC16;" d="M168.285,429.212v-27.967c0-5.606,3.117-10.484,7.711-12.997c-2.107-1.153-4.524-1.809-7.094-1.809   h-1.234c-8.177,0-14.806,6.628-14.806,14.806v27.967c0,8.176,6.629,14.805,14.806,14.805h1.234c2.571,0,4.987-0.657,7.094-1.81   C171.402,439.694,168.285,434.818,168.285,429.212z"/>
	<path style="fill:#F7AC16;" d="M229.975,272.117V244.15c0-5.606,3.117-10.484,7.711-12.997c-2.107-1.153-4.524-1.809-7.094-1.809   h-1.234c-8.177,0-14.806,6.628-14.806,14.806v27.967c0,8.176,6.629,14.805,14.806,14.805h1.234c2.571,0,4.987-0.657,7.094-1.81   C233.092,282.599,229.975,277.723,229.975,272.117z"/>
	<path style="fill:#F7AC16;" d="M168.285,272.117V244.15c0-5.606,3.117-10.484,7.711-12.997c-2.107-1.153-4.524-1.809-7.094-1.809   h-1.234c-8.177,0-14.806,6.628-14.806,14.806v27.967c0,8.176,6.629,14.805,14.806,14.805h1.234c2.571,0,4.987-0.657,7.094-1.81   C171.402,282.599,168.285,277.723,168.285,272.117z"/>
	<path style="fill:#F7AC16;" d="M229.975,114.5V86.533c0-5.606,3.117-10.484,7.711-12.997c-2.107-1.153-4.524-1.809-7.094-1.809   h-1.234c-8.177,0-14.806,6.628-14.806,14.806V114.5c0,8.176,6.629,14.805,14.806,14.805h1.234c2.571,0,4.987-0.657,7.094-1.81   C233.092,124.981,229.975,120.106,229.975,114.5z"/>
	<path style="fill:#F7AC16;" d="M168.285,114.5V86.533c0-5.606,3.117-10.484,7.711-12.997c-2.107-1.153-4.524-1.809-7.094-1.809   h-1.234c-8.177,0-14.806,6.628-14.806,14.806V114.5c0,8.176,6.629,14.805,14.806,14.805h1.234c2.571,0,4.987-0.657,7.094-1.81   C171.402,124.981,168.285,120.106,168.285,114.5z"/>
</g>
<g>
</g>
<g>
</g>
<g>
</g>
<g>
</g>
<g>
</g>
<g>
</g>
<g>
</g>
<g>
</g>
<g>
</g>
<g>
</g>
<g>
</g>
<g>
</g>
<g>
</g>
<g>
</g>
<g>
</g>
</svg>
