<?xml version="1.0" encoding="iso-8859-1"?>
<!-- Generator: Adobe Illustrator 19.0.0, SVG Export Plug-In . SVG Version: 6.00 Build 0)  -->
<svg xmlns="http://www.w3.org/2000/svg" xmlns:xlink="http://www.w3.org/1999/xlink" version="1.1" id="Capa_1" x="0px" y="0px" viewBox="0 0 512 512" style="enable-background:new 0 0 512 512;" xml:space="preserve">
<circle style="fill:#6D6E72;" cx="68.03" cy="394.56" r="68.03"/>
<circle style="fill:#414356;" cx="68.03" cy="394.56" r="29.963"/>
<circle style="fill:#6D6E72;" cx="443.97" cy="394.56" r="68.03"/>
<g>
	<path style="fill:#585A60;" d="M397.582,394.564c0-33.888,24.782-61.977,57.21-67.16c-3.524-0.563-7.135-0.865-10.816-0.865   c-37.57,0-68.026,30.455-68.026,68.025s30.456,68.025,68.026,68.025c3.682,0,7.292-0.302,10.816-0.865   C422.364,456.541,397.582,428.452,397.582,394.564z"/>
	<path style="fill:#585A60;" d="M21.633,394.564c0-33.888,24.782-61.977,57.21-67.16c-3.524-0.563-7.135-0.865-10.816-0.865   C30.457,326.539,0,356.994,0,394.564s30.457,68.025,68.026,68.025c3.682,0,7.292-0.302,10.816-0.865   C46.415,456.541,21.633,428.452,21.633,394.564z"/>
</g>
<path style="fill:#414356;" d="M473.937,394.564c0,16.549-13.417,29.964-29.961,29.964c-16.55,0-29.965-13.415-29.965-29.964  c0-16.549,13.415-29.964,29.965-29.964C460.52,364.6,473.937,378.016,473.937,394.564z"/>
<g>
	<path style="fill:#2D313F;" d="M443.974,394.564c0-11.089,6.028-20.764,14.982-25.945c-4.408-2.551-9.522-4.019-14.98-4.019   c-16.55,0-29.965,13.415-29.965,29.964c0,16.549,13.415,29.964,29.965,29.964c5.458,0,10.572-1.468,14.98-4.019   C450.001,415.328,443.974,405.653,443.974,394.564z"/>
	<path style="fill:#2D313F;" d="M68.026,394.564c0-11.089,6.028-20.764,14.982-25.945c-4.408-2.551-9.522-4.019-14.98-4.019   c-16.55,0-29.964,13.415-29.964,29.964c0,16.549,13.415,29.964,29.964,29.964c5.459,0,10.572-1.468,14.98-4.019   C74.054,415.328,68.026,405.653,68.026,394.564z"/>
</g>
<path id="SVGCleanerId_0" style="fill:#49B5CE;" d="M164.472,350.833c5.158,11.919,8.019,25.059,8.019,38.872H325.51  c0-13.625,2.369-26.673,6.666-38.872H164.472z"/>
<g>
	<path id="SVGCleanerId_0_1_" style="fill:#49B5CE;" d="M164.472,350.833c5.158,11.919,8.019,25.059,8.019,38.872H325.51   c0-13.625,2.369-26.673,6.666-38.872H164.472z"/>
</g>
<path style="fill:#34A4B7;" d="M193.865,350.833h-29.393c5.158,11.919,8.019,25.059,8.019,38.872h29.053  C200.747,376.168,198.11,363.128,193.865,350.833z"/>
<path style="fill:#2571A0;" d="M325.51,397.431H172.491c-4.267,0-7.726-3.459-7.726-7.726c0-36.362-21.64-69.008-55.13-83.173  c-3.93-1.662-5.768-6.195-4.106-10.125c1.662-3.929,6.195-5.768,10.125-4.106c36.831,15.577,61.425,50.246,64.284,89.677h138.088  c1.841-29.294,14.111-57.428,35.016-79.949c21.853-23.542,51.387-39.378,83.162-44.591c4.212-0.687,8.184,2.163,8.875,6.374  c0.691,4.21-2.162,8.184-6.373,8.875c-60.128,9.864-105.47,60.17-105.47,117.016C333.236,393.973,329.777,397.431,325.51,397.431z"/>
<path style="fill:#BABABA;" d="M443.975,399.591c-4.267,0-7.726-3.459-7.726-7.726V76.572c0-6.457-5.254-11.71-11.712-11.71h-51.923  c-4.267,0-7.726-3.459-7.726-7.726s3.459-7.726,7.726-7.726h51.923c14.978,0,27.164,12.185,27.164,27.162v315.293  C451.701,396.132,448.242,399.591,443.975,399.591z"/>
<path style="fill:#989DA0;" d="M464.489,199.835h-39.952c-4.267,0-7.726-3.459-7.726-7.726s3.459-7.726,7.726-7.726h39.952  c4.267,0,7.726,3.459,7.726,7.726C472.215,196.376,468.756,199.835,464.489,199.835z"/>
<path style="fill:#1A6287;" d="M200.883,381.979h-20.945c-2.86-39.431-27.453-74.101-64.284-89.677  c-3.93-1.663-8.463,0.176-10.125,4.106s0.176,8.463,4.106,10.125c33.49,14.164,55.13,46.811,55.13,83.173  c0,4.267,3.459,7.726,7.726,7.726h29.306C201.762,392.21,201.453,387.055,200.883,381.979z"/>
<g>
</g>
<g>
</g>
<g>
</g>
<g>
</g>
<g>
</g>
<g>
</g>
<g>
</g>
<g>
</g>
<g>
</g>
<g>
</g>
<g>
</g>
<g>
</g>
<g>
</g>
<g>
</g>
<g>
</g>
</svg>
