<?xml version="1.0" encoding="iso-8859-1"?>
<!-- Generator: Adobe Illustrator 19.0.0, SVG Export Plug-In . SVG Version: 6.00 Build 0)  -->
<svg xmlns="http://www.w3.org/2000/svg" xmlns:xlink="http://www.w3.org/1999/xlink" version="1.1" id="Capa_1" x="0px" y="0px" viewBox="0 0 512.001 512.001" style="enable-background:new 0 0 512.001 512.001;" xml:space="preserve">
<path style="fill:#C16B3D;" d="M492.728,175.682l-17.791-1.141l-195.83-12.561v-0.001l-36.602-2.348v0.001l-79.614-5.107l0,0  l-36.606-2.348l0,0l-104.374-6.693c-11.336-0.727-21.137,7.882-21.867,19.231c-0.726,11.347,7.882,21.137,19.231,21.865  l455.661,29.227l15.155,0.972c0.449,0.028,0.893,0.042,1.338,0.042c10.77,0,19.829-8.373,20.528-19.272  C512.685,186.2,504.077,176.411,492.728,175.682z"/>
<path style="fill:#B25932;" d="M491.43,196.4c-0.445,0-0.889-0.014-1.338-0.042l-15.155-0.972L19.275,166.159  c-7.161-0.46-13.225-4.532-16.547-10.322c-1.51,2.639-2.477,5.64-2.685,8.877c-0.726,11.347,7.882,21.137,19.231,21.865  l455.661,29.227l15.155,0.972c0.449,0.028,0.893,0.042,1.338,0.042c10.77,0,19.829-8.373,20.528-19.272  c0.268-4.184-0.74-8.15-2.679-11.534C505.708,192.255,498.999,196.4,491.43,196.4z"/>
<path style="fill:#C16B3D;" d="M492.728,336.314l-17.791,1.141l-195.83,12.56v0.001l-36.602,2.348v-0.001l-79.614,5.107l0,0  l-36.606,2.348l0,0l-104.374,6.694c-11.336,0.727-21.137-7.882-21.867-19.231c-0.726-11.347,7.882-21.137,19.231-21.865  l455.661-29.227l15.155-0.972c0.449-0.028,0.893-0.042,1.338-0.042c10.77,0,19.829,8.374,20.528,19.272  C512.685,325.796,504.077,335.585,492.728,336.314z"/>
<path style="fill:#B25932;" d="M509.088,305.208c-3.359,5.62-9.331,9.552-16.361,10.003l-17.791,1.141l-195.83,12.56v0.001  l-36.602,2.348v-0.001l-79.614,5.107l-36.606,2.348l-104.373,6.694c-7.96,0.511-15.149-3.592-18.986-10.005  c-2.071,3.457-3.158,7.552-2.881,11.877c0.73,11.349,10.531,19.958,21.867,19.231l104.374-6.694l36.606-2.348l79.614-5.107v0.001  l36.602-2.348v-0.001l195.83-12.56l17.791-1.141c11.349-0.728,19.958-10.517,19.23-21.866  C511.741,311.065,510.717,307.929,509.088,305.208z"/>
<g>
	<path style="fill:#F0C419;" d="M126.285,392.004c0,8.245-6.683,14.928-14.927,14.928H61.599c-8.244,0-14.928-6.683-14.928-14.928   V119.991c0-8.245,6.684-14.928,14.928-14.928h49.759c8.244,0,14.927,6.683,14.927,14.928V392.004z"/>
	<path style="fill:#F0C419;" d="M242.505,378.278c0,8.244-6.685,14.927-14.928,14.927h-49.759c-8.244,0-14.927-6.683-14.927-14.927   v-244.56c0-8.245,6.683-14.928,14.927-14.928h49.759c8.244,0,14.928,6.683,14.928,14.928V378.278z"/>
	<path style="fill:#F0C419;" d="M358.721,364.552c0,8.243-6.683,14.927-14.928,14.927h-49.758c-8.245,0-14.928-6.684-14.928-14.927   V147.445c0-8.245,6.683-14.928,14.928-14.928h49.758c8.245,0,14.928,6.683,14.928,14.928V364.552z"/>
	<path style="fill:#F0C419;" d="M474.937,350.825c0,8.244-6.683,14.928-14.927,14.928h-49.759c-8.244,0-14.927-6.684-14.927-14.928   V161.171c0-8.245,6.683-14.927,14.927-14.927h49.759c8.244,0,14.927,6.682,14.927,14.927V350.825z"/>
</g>
<g>
	<path style="fill:#F7AC16;" d="M86.478,392.004V119.991c0-8.245,6.685-14.928,14.928-14.928H61.599   c-8.244,0-14.928,6.683-14.928,14.928v272.013c0,8.245,6.684,14.928,14.928,14.928h39.807   C93.163,406.932,86.478,400.249,86.478,392.004z"/>
	<path style="fill:#F7AC16;" d="M202.698,378.278v-244.56c0-8.245,6.683-14.928,14.927-14.928h-39.807   c-8.244,0-14.927,6.683-14.927,14.928v244.56c0,8.244,6.683,14.927,14.927,14.927h39.807   C209.382,393.205,202.698,386.522,202.698,378.278z"/>
	<path style="fill:#F7AC16;" d="M318.914,364.552V147.445c0-8.245,6.683-14.928,14.928-14.928h-39.807   c-8.245,0-14.928,6.683-14.928,14.928v217.107c0,8.243,6.683,14.927,14.928,14.927h39.807   C325.598,379.479,318.914,372.795,318.914,364.552z"/>
	<path style="fill:#F7AC16;" d="M435.131,350.825V161.171c0-8.245,6.683-14.927,14.927-14.927h-39.807   c-8.244,0-14.927,6.682-14.927,14.927v189.654c0,8.244,6.683,14.928,14.927,14.928h39.807   C441.815,365.753,435.131,359.069,435.131,350.825z"/>
</g>
<g>
	<circle style="fill:#FF8828;" cx="86.481" cy="166.888" r="11.667"/>
	<circle style="fill:#FF8828;" cx="86.481" cy="345.108" r="11.667"/>
	<circle style="fill:#FF8828;" cx="202.701" cy="176.498" r="11.667"/>
	<circle style="fill:#FF8828;" cx="202.701" cy="335.498" r="11.667"/>
	<path style="fill:#FF8828;" d="M330.582,184.735c0,6.444-5.226,11.665-11.668,11.665c-6.445,0-11.667-5.221-11.667-11.665   c0-6.446,5.222-11.669,11.667-11.669C325.356,173.066,330.582,178.289,330.582,184.735z"/>
	<circle style="fill:#FF8828;" cx="318.911" cy="327.258" r="11.667"/>
	<circle style="fill:#FF8828;" cx="435.131" cy="191.598" r="11.668"/>
	<circle style="fill:#FF8828;" cx="435.131" cy="320.398" r="11.668"/>
</g>
<path style="fill:#D3D3D3;" d="M143.443,81.041h257.898c-4.019-4.587-6.472-10.579-6.472-17.158s2.453-12.571,6.472-17.158H143.443  c-9.475,0-17.158,7.682-17.158,17.158S133.968,81.041,143.443,81.041z"/>
<path style="fill:#BABABA;" d="M394.869,63.883H143.443c-6.346,0-11.875-3.455-14.844-8.579c-1.464,2.526-2.315,5.45-2.315,8.579  c0,9.476,7.683,17.158,17.158,17.158h257.899C397.323,76.454,394.869,70.462,394.869,63.883L394.869,63.883z"/>
<path style="fill:#D3D3D3;" d="M427.812,465.272H169.913c4.019-4.587,6.472-10.579,6.472-17.158c0-6.579-2.454-12.57-6.472-17.157  h257.898c9.475,0,17.158,7.681,17.158,17.157C444.97,457.589,437.286,465.272,427.812,465.272z"/>
<path style="fill:#BABABA;" d="M427.812,448.114H176.386c0,6.579-2.454,12.57-6.472,17.157h257.898  c9.475,0,17.158-7.682,17.158-17.158c0-3.128-0.851-6.053-2.315-8.579C439.687,444.659,434.158,448.114,427.812,448.114z"/>
<circle style="fill:#C16B3D;" cx="418.891" cy="63.883" r="26.08"/>
<path style="fill:#B25932;" d="M418.89,63.883c-9.653,0-18.074-5.247-22.583-13.04c-2.221,3.837-3.498,8.288-3.498,13.04  c0,14.405,11.676,26.08,26.081,26.08c14.404,0,26.08-11.676,26.08-26.08c0-4.753-1.277-9.203-3.498-13.04  C436.963,58.636,428.542,63.883,418.89,63.883z"/>
<circle style="fill:#C16B3D;" cx="152.361" cy="448.118" r="26.08"/>
<path style="fill:#B25932;" d="M152.366,448.112c-9.653,0-18.074-5.247-22.583-13.04c-2.221,3.838-3.498,8.288-3.498,13.04  c0,14.405,11.676,26.081,26.081,26.081c14.404,0,26.08-11.676,26.08-26.081c0-4.752-1.277-9.202-3.498-13.04  C170.438,442.865,162.018,448.112,152.366,448.112z"/>
<g>
</g>
<g>
</g>
<g>
</g>
<g>
</g>
<g>
</g>
<g>
</g>
<g>
</g>
<g>
</g>
<g>
</g>
<g>
</g>
<g>
</g>
<g>
</g>
<g>
</g>
<g>
</g>
<g>
</g>
</svg>
