<?xml version="1.0" encoding="iso-8859-1"?>
<!-- Generator: Adobe Illustrator 19.0.0, SVG Export Plug-In . SVG Version: 6.00 Build 0)  -->
<svg xmlns="http://www.w3.org/2000/svg" xmlns:xlink="http://www.w3.org/1999/xlink" version="1.1" id="Capa_1" x="0px" y="0px" viewBox="0 0 512.001 512.001" style="enable-background:new 0 0 512.001 512.001;" xml:space="preserve">
<path style="fill:#E04E4B;" d="M168.395,19.257h-73.34c-10.881,0-19.696,8.819-19.696,19.697v45.96  c0,10.88,8.816,19.698,19.696,19.698h73.34V19.257z"/>
<path style="fill:#BABABA;" d="M168.395,176.396c-4.268,0-7.728-3.46-7.728-7.728V8.315c0-4.268,3.46-7.728,7.728-7.728  c4.268,0,7.728,3.46,7.728,7.728v160.354C176.123,172.936,172.663,176.396,168.395,176.396z"/>
<path style="fill:#2571A0;" d="M445.91,324.014l-122.779-154.98c-6.226-7.861-15.706-12.444-25.73-12.444H108.185  c-18.132,0-32.827,14.697-32.827,32.828v136.657L445.91,324.014z"/>
<path style="fill:#1A6287;" d="M95.966,189.417c0-18.131,14.695-32.828,32.827-32.828h-20.608  c-18.132,0-32.827,14.697-32.827,32.828v136.657l20.608-0.115V189.417z"/>
<path style="fill:#49B5CE;" d="M208.886,261.64h187.608l-73.363-92.606c-6.226-7.861-15.706-12.444-25.73-12.444H189.189v85.354  C189.189,252.821,198.009,261.64,208.886,261.64z"/>
<path style="fill:#34A4B7;" d="M209.797,241.943v-85.354h-20.608v85.354c0,10.878,8.82,19.696,19.697,19.696h20.608  C218.617,261.64,209.797,252.821,209.797,241.943z"/>
<path style="fill:#49B5CE;" d="M126.815,261.64c10.878,0,19.696-8.819,19.696-19.696V156.59h-38.326  c-18.132,0-32.827,14.697-32.827,32.828v72.222H126.815z"/>
<path style="fill:#34A4B7;" d="M95.966,189.417c0-18.131,14.695-32.828,32.827-32.828h-20.608  c-18.132,0-32.827,14.697-32.827,32.828v72.222h20.608V189.417z"/>
<path style="fill:#E04E4B;" d="M492.303,324.014H19.695C8.82,324.014,0,332.83,0,343.71v28.067  c0,77.121,62.514,139.637,139.636,139.637h232.728c77.118,0,139.637-62.516,139.637-139.637V343.71  C512,332.83,503.181,324.014,492.303,324.014z"/>
<g>
	<path style="fill:#C44137;" d="M96.309,84.913v-45.96c0-10.878,8.816-19.697,19.697-19.697H95.054   c-10.881,0-19.696,8.819-19.696,19.697v45.96c0,10.88,8.816,19.698,19.696,19.698h20.952   C105.125,104.611,96.309,95.793,96.309,84.913z"/>
	<path style="fill:#C44137;" d="M20.951,371.777V343.71c0-10.88,8.82-19.696,19.696-19.696H19.695C8.82,324.014,0,332.83,0,343.71   v28.067c0,77.121,62.514,139.637,139.636,139.637h20.952C83.465,511.413,20.951,448.897,20.951,371.777z"/>
</g>
<path style="fill:#EF5854;" d="M9.585,422.613h492.83c5.504-14.068,8.8-29.236,9.441-45.095H0.144  C0.788,393.377,4.08,408.545,9.585,422.613z"/>
<path style="fill:#E04E4B;" d="M21.078,377.518H0.144c0.644,15.859,3.936,31.027,9.441,45.095h20.913  C24.998,408.548,21.72,393.374,21.078,377.518z"/>
<g>
</g>
<g>
</g>
<g>
</g>
<g>
</g>
<g>
</g>
<g>
</g>
<g>
</g>
<g>
</g>
<g>
</g>
<g>
</g>
<g>
</g>
<g>
</g>
<g>
</g>
<g>
</g>
<g>
</g>
</svg>
