<?xml version="1.0" encoding="iso-8859-1"?>
<!-- Generator: Adobe Illustrator 19.0.0, SVG Export Plug-In . SVG Version: 6.00 Build 0)  -->
<svg xmlns="http://www.w3.org/2000/svg" xmlns:xlink="http://www.w3.org/1999/xlink" version="1.1" id="Capa_1" x="0px" y="0px" viewBox="0 0 511.999 511.999" style="enable-background:new 0 0 511.999 511.999;" xml:space="preserve">
<path style="fill:#C16B3D;" d="M492.007,450.473H276.544c0-355.411,0.128-331.846-0.309-344.607h0.309v-65.44  c0-11.04-8.948-19.991-19.987-19.991h-1.113c-11.043,0-19.989,8.951-19.989,19.991v65.44h0.309  c-0.203,5.926-0.309,12.025-0.309,18.253v326.354H19.991C8.951,450.473,0,459.423,0,470.465c0,13.372,9.817,21.101,19.991,21.101  h472.015c11.041,0,19.993-8.95,19.993-19.99v-1.111C512,459.423,503.048,450.473,492.007,450.473z"/>
<g>
	<path style="fill:#B25932;" d="M492.007,472.536H19.991c-7.815,0-14.565-4.495-17.853-11.031C0.782,464.202,0,467.239,0,470.465   c0,13.372,9.817,21.101,19.991,21.101h472.015c11.041,0,19.993-8.95,19.993-19.99v-1.111c0-3.226-0.782-6.262-2.138-8.959   C506.574,468.04,499.823,472.536,492.007,472.536z"/>
	<path style="fill:#B25932;" d="M255.496,124.118c0-6.228,0.106-12.327,0.309-18.253h-0.309v-65.44   c0-7.615,4.258-14.234,10.524-17.609c-2.818-1.518-6.039-2.382-9.463-2.382h-1.113c-11.043,0-19.989,8.951-19.989,19.991v65.44   h0.309c-0.203,5.926-0.309,12.025-0.309,18.253v326.354h20.042L255.496,124.118L255.496,124.118z"/>
</g>
<path style="fill:#EF5854;" d="M487.837,416.112c0-18.517-15.014-33.53-33.531-33.53H57.694c-16.983,0-33.531,12.852-33.531,35.392  c0,18.518,15.013,33.529,33.531,33.529h396.612C471.5,451.503,487.837,438.433,487.837,416.112z"/>
<path style="fill:#49B5CE;" d="M453.962,347.191c0-18.517-15.011-33.53-33.531-33.53H91.567c-17.026,0-33.531,12.894-33.531,35.392  c0,18.518,15.015,33.529,33.531,33.529H420.43C437.613,382.582,453.962,369.523,453.962,347.191z"/>
<path style="fill:#F0C419;" d="M418.976,278.269c0-18.517-15.011-33.53-33.531-33.53H126.551c-18.513,0-33.529,15.013-33.529,33.53  v1.862c0,18.519,15.016,33.53,33.529,33.53h258.894C402.443,313.661,418.976,300.795,418.976,278.269z"/>
<path style="fill:#3BBC56;" d="M383.435,209.348c0-18.517-15.01-33.53-33.529-33.53H162.089c-16.898,0-33.523,12.775-33.523,35.393  c0,18.517,15.008,33.528,33.523,33.528h187.816C367.101,244.739,383.435,231.67,383.435,209.348z"/>
<path style="fill:#FF8828;" d="M349.484,142.289v-1.862c0-18.517-15.009-33.53-33.525-33.53H196.041  c-18.518,0-33.527,15.013-33.527,33.53v1.862c0,18.518,15.009,33.529,33.527,33.529h119.917  C334.475,175.818,349.484,160.806,349.484,142.289z"/>
<path style="fill:#E04E4B;" d="M454.306,417.042H57.694c-12.6,0-23.572-6.954-29.302-17.229c-11.73,21.036,1.406,51.69,29.302,51.69  h396.612c27.714,0,41.123-30.489,29.301-51.69C477.878,410.088,466.905,417.042,454.306,417.042z"/>
<path style="fill:#F7AC16;" d="M385.444,279.2H126.551c-12.597,0-23.57-6.954-29.299-17.23  c-11.654,20.903,1.231,51.691,29.299,51.691h258.894c27.923,0,41.011-30.691,29.302-51.691  C409.018,272.246,398.046,279.2,385.444,279.2z"/>
<path style="fill:#ED6E18;" d="M315.959,141.356H196.041c-12.6,0-23.571-6.954-29.299-17.229c-2.69,4.826-4.229,10.382-4.229,16.299  v1.862c0,18.518,15.009,33.529,33.527,33.529h119.917c18.516,0,33.525-15.011,33.525-33.529v-1.862  c0-5.917-1.538-11.473-4.229-16.299C339.528,134.403,328.558,141.356,315.959,141.356z"/>
<g>
	<path style="fill:#31A845;" d="M380.126,194.824c-0.29-0.602-0.596-1.195-0.919-1.776c-0.337,0.605-0.695,1.195-1.068,1.776   H380.126z"/>
	<path style="fill:#31A845;" d="M133.862,194.824c-0.372-0.581-0.731-1.172-1.068-1.776c-0.324,0.581-0.629,1.175-0.919,1.776   H133.862z"/>
	<path style="fill:#31A845;" d="M128.566,210.261c0,20.842,16.044,34.478,33.523,34.478h187.816   c17.369,0,33.529-13.453,33.529-34.68C382.051,210.389,129.597,210.305,128.566,210.261z"/>
</g>
<g>
	<path style="fill:#34A4B7;" d="M450.652,332.668c-0.29-0.602-0.595-1.195-0.92-1.777c-0.337,0.605-0.696,1.196-1.068,1.777H450.652   z"/>
	<path style="fill:#34A4B7;" d="M63.335,332.668c-0.373-0.581-0.731-1.172-1.069-1.777c-0.325,0.581-0.63,1.175-0.92,1.777H63.335z"/>
	<path style="fill:#34A4B7;" d="M58.036,348.113c0,20.725,15.951,34.469,33.531,34.469H420.43c17.397,0,33.531-13.542,33.531-34.493   C453.391,348.137,58.611,348.128,58.036,348.113z"/>
</g>
<path style="fill:#8DD83D;" d="M381.634,218.005H128.916c-4.267,0-7.727-3.459-7.727-7.727c0-4.267,3.459-7.727,7.727-7.727h252.718  c4.267,0,7.727,3.459,7.727,7.727S385.902,218.005,381.634,218.005z"/>
<path style="fill:#6EDCF9;" d="M453.31,355.849H58.2c-4.267,0-7.727-3.459-7.727-7.727s3.459-7.727,7.727-7.727h395.11  c4.267,0,7.727,3.459,7.727,7.727S457.577,355.849,453.31,355.849z"/>
<g>
</g>
<g>
</g>
<g>
</g>
<g>
</g>
<g>
</g>
<g>
</g>
<g>
</g>
<g>
</g>
<g>
</g>
<g>
</g>
<g>
</g>
<g>
</g>
<g>
</g>
<g>
</g>
<g>
</g>
</svg>
