<?xml version="1.0" encoding="iso-8859-1"?>
<!-- Generator: Adobe Illustrator 19.0.0, SVG Export Plug-In . SVG Version: 6.00 Build 0)  -->
<svg xmlns="http://www.w3.org/2000/svg" xmlns:xlink="http://www.w3.org/1999/xlink" version="1.1" id="Capa_1" x="0px" y="0px" viewBox="0 0 512 512" style="enable-background:new 0 0 512 512;" xml:space="preserve">
<g>
	<path style="fill:#989DA0;" d="M35.903,191.491c-9.982,0-18.073,8.091-18.073,18.072v73.922c0,9.981,8.091,18.072,18.073,18.072   c9.98,0,18.071-8.091,18.071-18.072v-73.922C53.974,199.581,45.883,191.491,35.903,191.491z"/>
	<path style="fill:#989DA0;" d="M35.903,337.699c-9.982,0-18.073,8.092-18.073,18.071v73.923c0,9.981,8.091,18.071,18.073,18.071   c9.98,0,18.071-8.09,18.071-18.071V355.77C53.974,345.791,45.883,337.699,35.903,337.699z"/>
</g>
<g>
	<path style="fill:#6D6E72;" d="M35.902,283.484v-73.922c0-6.686,3.64-12.509,9.037-15.635c-2.66-1.541-5.74-2.437-9.036-2.437   c-9.982,0-18.073,8.091-18.073,18.072v73.922c0,9.981,8.091,18.072,18.073,18.072c3.295,0,6.375-0.896,9.036-2.437   C39.541,295.993,35.902,290.17,35.902,283.484z"/>
	<path style="fill:#6D6E72;" d="M35.902,429.693V355.77c0-6.684,3.64-12.507,9.037-15.634c-12.025-6.966-27.109,1.738-27.109,15.634   v73.923c0,9.981,8.091,18.071,18.073,18.071c3.295,0,6.375-0.896,9.036-2.437C39.541,442.201,35.902,436.379,35.902,429.693z"/>
</g>
<path style="fill:#BABABA;" d="M104.573,301.556H18.072C8.09,301.556,0,309.647,0,319.627c0,9.981,8.09,18.072,18.072,18.072h86.501  C101.977,325.905,101.888,313.754,104.573,301.556z"/>
<path style="fill:#989DA0;" d="M102.593,319.628H18.072c-6.686,0-12.509-3.64-15.635-9.036C0.896,313.252,0,316.332,0,319.627  c0,9.981,8.09,18.072,18.072,18.072h86.501C103.256,331.716,102.593,325.676,102.593,319.628z"/>
<path style="fill:#F0C419;" d="M305.372,64.236c-38.021,0-68.846,30.824-68.846,68.846v104.922H374.22V133.082  C374.22,95.059,343.398,64.236,305.372,64.236z"/>
<path style="fill:#F7AC16;" d="M315.674,65.006c-3.361-0.505-6.8-0.77-10.302-0.77c-38.021,0-68.846,30.824-68.846,68.846v104.922  h20.602V133.082C257.129,98.561,282.539,69.978,315.674,65.006z"/>
<path style="fill:#6EDCF9;" d="M374.22,134.504h-74c-7.883,0-14.272,6.391-14.272,14.272v37.269c0,7.882,6.389,14.273,14.272,14.273  h74V134.504z"/>
<path style="fill:#49B5CE;" d="M306.55,186.045v-37.269c0-7.882,6.389-14.272,14.272-14.272H300.22  c-7.883,0-14.272,6.391-14.272,14.272v37.269c0,7.882,6.389,14.273,14.272,14.273h20.602  C312.939,200.318,306.55,193.927,306.55,186.045z"/>
<path style="fill:#FF8828;" d="M512,319.628c0,46.217-37.466,83.684-83.683,83.684H181.129c-46.217,0-83.687-37.467-83.687-83.684  l0,0c0-46.217,37.47-83.685,83.687-83.685h247.188C474.534,235.944,512,273.412,512,319.628L512,319.628z"/>
<path style="fill:#ED6E18;" d="M118.044,319.628c0-46.217,37.47-83.685,83.687-83.685h-20.602  c-46.217,0-83.687,37.468-83.687,83.685s37.47,83.684,83.687,83.684h20.602C155.514,403.312,118.044,365.845,118.044,319.628z"/>
<g>
	<path style="fill:#6EDCF9;" d="M231.859,319.627c0,13.573-11.001,24.578-24.576,24.578c-13.573,0-25.882-11.004-25.882-24.578   c0-13.572,12.309-24.577,25.882-24.577C220.858,295.051,231.859,306.055,231.859,319.627z"/>
	<circle style="fill:#6EDCF9;" cx="305.37" cy="319.63" r="24.578"/>
	<circle style="fill:#6EDCF9;" cx="403.46" cy="319.63" r="24.577"/>
</g>
<g>
	<path style="fill:#49B5CE;" d="M206.632,319.627c0-9.03,5.452-16.919,13.097-21.19c-3.651-2.149-7.902-3.386-12.445-3.386   c-13.573,0-25.882,11.004-25.882,24.577s12.309,24.578,25.882,24.578c4.543,0,8.794-1.237,12.445-3.386   C212.083,336.547,206.632,328.658,206.632,319.627z"/>
	<path style="fill:#49B5CE;" d="M306.027,319.627c0-8.96,4.797-16.798,11.961-21.092c-3.688-2.211-8.003-3.484-12.616-3.484   c-13.572,0-24.576,11.004-24.576,24.577s11.003,24.578,24.576,24.578c4.613,0,8.928-1.273,12.616-3.484   C310.825,336.426,306.027,328.588,306.027,319.627z"/>
	<path style="fill:#49B5CE;" d="M416.08,298.535c-16.268-9.75-37.193,1.954-37.193,21.092c0,19.129,20.913,30.851,37.193,21.093   C400.141,331.166,400.145,308.087,416.08,298.535z"/>
</g>
<g>
</g>
<g>
</g>
<g>
</g>
<g>
</g>
<g>
</g>
<g>
</g>
<g>
</g>
<g>
</g>
<g>
</g>
<g>
</g>
<g>
</g>
<g>
</g>
<g>
</g>
<g>
</g>
<g>
</g>
</svg>
