<?xml version="1.0" encoding="iso-8859-1"?>
<!-- Generator: Adobe Illustrator 19.0.0, SVG Export Plug-In . SVG Version: 6.00 Build 0)  -->
<svg xmlns="http://www.w3.org/2000/svg" xmlns:xlink="http://www.w3.org/1999/xlink" version="1.1" id="Capa_1" x="0px" y="0px" viewBox="0 0 512 512" style="enable-background:new 0 0 512 512;" xml:space="preserve">
<rect x="168.79" y="285.12" style="fill:#FF8828;" width="174.43" height="171.51"/>
<path style="fill:#ED6E18;" d="M205.806,287.186c0.975-0.535,1.892-1.235,2.738-2.061h-39.756V456.63h22.674V287.186H205.806z"/>
<path style="fill:#A2E7F2;" d="M336.944,129.422H320.11H191.89h-16.834h-4.208v121.462h4.208c11.481,0,138.533,0,145.055,0h16.834  h4.205V129.422H336.944z"/>
<polygon style="fill:#6EDCF9;" points="175.056,129.422 170.848,129.422 170.848,250.884 175.056,250.884 191.89,250.884   191.89,129.422 "/>
<path style="fill:#F0C419;" d="M361.39,112.455l-84.898-84.899c-5.474-5.474-12.752-8.488-20.493-8.488  c-7.742,0-15.017,3.014-20.491,8.489l-84.901,84.899c-3.187,3.188-4.142,7.982-2.418,12.147c1.727,4.165,5.793,6.881,10.301,6.881  h195.018c4.508,0,8.573-2.715,10.298-6.881C365.532,120.437,364.579,115.642,361.39,112.455z"/>
<path style="fill:#F7AC16;" d="M177.644,124.602c-1.724-4.165-0.769-8.96,2.418-12.147l84.901-84.899  c1.751-1.751,3.689-3.248,5.765-4.477c-4.414-2.614-9.464-4.011-14.728-4.011c-7.742,0-15.017,3.014-20.491,8.489l-84.901,84.899  c-3.187,3.188-4.142,7.982-2.418,12.147c1.727,4.165,5.793,6.881,10.301,6.881h29.454  C183.437,131.483,179.371,128.768,177.644,124.602z"/>
<rect x="29.638" y="285.13" style="fill:#49B5CE;" width="141.21" height="171.5"/>
<rect x="29.638" y="285.13" style="fill:#34A4B7;" width="20.18" height="171.5"/>
<path style="fill:#49B5CE;" d="M175.056,199.282h-10.519c-8.356,0-10.67,5.235-11.22,9.254v16.228  c0,9.685-7.85,17.535-17.534,17.535c-9.681,0-17.534-7.85-17.534-17.535v-12.857c0-12.625-9.587-12.625-9.587-12.625H93.463  c-9.526,0-11.033,7.45-11.222,10.899v14.583c0,9.685-7.849,17.535-17.534,17.535c-9.684,0-17.534-7.85-17.534-17.535v-12.857  c0-11.222-11.688-12.625-11.688-12.625H25.431c-9.295,0-16.834,7.537-16.834,16.833v54.238c0,9.297,7.539,16.833,16.834,16.833  h149.625c9.298,0,16.834-7.537,16.834-16.833v-54.238C191.89,206.819,184.354,199.282,175.056,199.282z"/>
<path style="fill:#34A4B7;" d="M29.21,270.354v-54.238c0-7.045,4.334-13.072,10.477-15.581c-2.283-1.021-4.203-1.252-4.203-1.252  H25.431c-9.295,0-16.834,7.537-16.834,16.833v54.238c0,9.297,7.539,16.833,16.834,16.833h20.613  C36.749,287.187,29.21,279.65,29.21,270.354z"/>
<rect x="29.638" y="287.19" style="fill:#F0C419;" width="141.21" height="38.36"/>
<rect x="29.638" y="287.19" style="fill:#F7AC16;" width="20.18" height="38.36"/>
<path style="fill:#2571A0;" d="M100.247,370.878c-13.422,0-24.302,10.879-24.302,24.3v59.392h48.599v-59.392  C124.544,381.757,113.665,370.878,100.247,370.878z"/>
<path style="fill:#1A6287;" d="M111.645,373.717c-16.099-8.569-35.7,3.107-35.7,21.461v59.392h22.798v-59.392  C98.743,385.877,103.97,377.801,111.645,373.717z"/>
<g>
	<path style="fill:#2571A0;" d="M255.999,370.878c-13.419,0-24.299,10.879-24.299,24.3v59.392h48.6v-59.392   C280.3,381.757,269.42,370.878,255.999,370.878z"/>
	<path style="fill:#2571A0;" d="M255.999,165.131c-13.419,0-24.299,10.879-24.299,24.3v59.392h48.6v-59.392   C280.3,176.01,269.418,165.131,255.999,165.131z"/>
</g>
<path style="fill:#E04E4B;" d="M298.966,333.492h-86.269c-4.269,0-7.73-3.461-7.73-7.73s3.461-7.73,7.73-7.73h86.269  c4.269,0,7.73,3.461,7.73,7.73S303.235,333.492,298.966,333.492z"/>
<path style="fill:#C44137;" d="M255.832,325.762c0-4.269,3.461-7.73,7.73-7.73h-50.865c-4.269,0-7.73,3.461-7.73,7.73  s3.461,7.73,7.73,7.73h50.865C259.292,333.492,255.832,330.031,255.832,325.762z"/>
<g>
	<path style="fill:#1A6287;" d="M267.4,373.717c-16.099-8.569-35.7,3.107-35.7,21.461v59.392h22.798v-59.392   C254.499,385.877,259.725,377.801,267.4,373.717z"/>
	<path style="fill:#1A6287;" d="M267.4,167.97c-3.4-1.81-7.278-2.839-11.398-2.839c-13.422,0-24.302,10.879-24.302,24.3v59.392   h22.798v-59.392C254.499,180.131,259.725,172.055,267.4,167.97z"/>
</g>
<rect x="341.15" y="285.13" style="fill:#49B5CE;" width="141.21" height="171.5"/>
<rect x="341.15" y="285.13" style="fill:#34A4B7;" width="20.18" height="171.5"/>
<path style="fill:#49B5CE;" d="M486.568,199.282h-10.519c-8.356,0-10.67,5.235-11.22,9.254v16.228  c0,9.685-7.85,17.535-17.534,17.535c-9.682,0-17.534-7.85-17.534-17.535v-12.857c0-12.625-9.587-12.625-9.587-12.625h-15.199  c-9.526,0-11.033,7.45-11.222,10.899v14.583c0,9.685-7.849,17.535-17.534,17.535c-9.684,0-17.534-7.85-17.534-17.535v-12.857  c0-11.222-11.688-12.625-11.688-12.625h-10.053c-9.295,0-16.834,7.537-16.834,16.833v54.238c0,9.297,7.539,16.833,16.834,16.833  h149.625c9.298,0,16.834-7.537,16.834-16.833v-54.238C503.401,206.819,495.866,199.282,486.568,199.282z"/>
<path style="fill:#34A4B7;" d="M340.722,270.354v-54.238c0-7.045,4.334-13.072,10.477-15.581c-2.283-1.021-4.203-1.252-4.203-1.252  h-10.053c-9.295,0-16.834,7.537-16.834,16.833v54.238c0,9.297,7.539,16.833,16.834,16.833h20.613  C348.261,287.187,340.722,279.65,340.722,270.354z"/>
<rect x="341.15" y="287.19" style="fill:#F0C419;" width="141.21" height="38.36"/>
<rect x="341.15" y="287.19" style="fill:#F7AC16;" width="20.18" height="38.36"/>
<path style="fill:#2571A0;" d="M411.758,370.878c-13.422,0-24.302,10.879-24.302,24.3v59.392h48.599v-59.392  C436.056,381.757,425.177,370.878,411.758,370.878z"/>
<path style="fill:#1A6287;" d="M423.156,373.717c-3.4-1.81-7.278-2.839-11.398-2.839c-13.422,0-24.302,10.879-24.302,24.3v59.392  h22.798v-59.392C410.255,385.877,415.481,377.801,423.156,373.717z"/>
<path style="fill:#F0C419;" d="M320.111,270.354v-21.531H191.89v21.531c0,9.292-7.529,16.825-16.817,16.832h161.859  C327.638,287.178,320.111,279.646,320.111,270.354z"/>
<path style="fill:#F7AC16;" d="M205.806,287.186c5.219-2.859,8.758-10.461,8.758-16.832v-21.531H191.89v21.531  c0,9.292-7.529,16.825-16.817,16.832C192.046,287.186,188.368,287.186,205.806,287.186z"/>
<path style="fill:#EF5854;" d="M512,475.227c0,9.778-7.928,17.706-17.705,17.706H17.705C7.928,492.933,0,485.005,0,475.227v-2.951  c0-9.779,7.928-17.706,17.705-17.706h476.59c9.777,0,17.705,7.927,17.705,17.706L512,475.227L512,475.227z"/>
<path style="fill:#E04E4B;" d="M494.295,473.751H17.705c-6.85,0-12.78-3.898-15.724-9.59C0.723,466.592,0,469.348,0,472.276v2.951  c0,9.778,7.928,17.706,17.705,17.706h476.59c9.777,0,17.705-7.928,17.705-17.706v-2.951c0-2.928-0.723-5.683-1.981-8.116  C507.075,469.853,501.145,473.751,494.295,473.751z"/>
<g>
</g>
<g>
</g>
<g>
</g>
<g>
</g>
<g>
</g>
<g>
</g>
<g>
</g>
<g>
</g>
<g>
</g>
<g>
</g>
<g>
</g>
<g>
</g>
<g>
</g>
<g>
</g>
<g>
</g>
</svg>
