<?xml version="1.0" encoding="iso-8859-1"?>
<!-- Generator: Adobe Illustrator 19.0.0, SVG Export Plug-In . SVG Version: 6.00 Build 0)  -->
<svg xmlns="http://www.w3.org/2000/svg" xmlns:xlink="http://www.w3.org/1999/xlink" version="1.1" id="Capa_1" x="0px" y="0px" viewBox="0 0 512.001 512.001" style="enable-background:new 0 0 512.001 512.001;" xml:space="preserve">
<path style="fill:#EF5854;" d="M277.996,280.172v-0.002h-21.425c-8.587,0-194.638,0-203.246,0v0.002H23.734l30.804,193.25  c0,0,0,0.006,0,0.007l0.39,1.985c3.476,14.998,15.282,21.578,26.558,21.578c16.231,0,150.723,0,168.348,0  c7.41,0,14.131-2.883,19.15-7.568c5.679-5.242,7.797-14.916,7.797-16.002l30.802-193.25L277.996,280.172L277.996,280.172z"/>
<g>
	<path style="fill:#E04E4B;" d="M77.059,280.169c-8.528,0-14.018,0-23.733,0v0.002h23.733V280.169z"/>
	<path style="fill:#E04E4B;" d="M78.272,473.421l-30.804-193.25H23.734l30.804,193.25c0,0,0,0.006,0,0.007l0.39,1.985   c0.75,3.236,2.757,9.719,7.406,14.009c9.959,9.293,18.523,7.568,42.885,7.568c-7.412,0-14.131-2.883-19.152-7.568   C80.611,484.386,78.272,474.904,78.272,473.421z"/>
	<path style="fill:#E04E4B;" d="M331.317,263.303c0,10.456-8.473,18.933-18.932,18.933H18.933C8.477,282.236,0,273.759,0,263.303   v-27.685c0-10.457,8.477-18.933,18.933-18.933h293.451c10.46,0,18.932,8.477,18.932,18.933L331.317,263.303L331.317,263.303z"/>
</g>
<path style="fill:#C44137;" d="M312.385,249.46H18.933c-9.591,0-17.496-7.139-18.742-16.388C0.078,233.907,0,234.752,0,235.618  v27.685c0,10.456,8.477,18.933,18.933,18.933h293.451c10.46,0,18.932-8.478,18.932-18.933v-27.685c0-0.866-0.078-1.711-0.191-2.546  C329.881,242.322,321.979,249.46,312.385,249.46z"/>
<path style="fill:#BABABA;" d="M302.852,224.427c-4.276,0-7.743-3.467-7.743-7.743V159.82c0-71.379-58.071-129.45-129.449-129.45  S36.211,88.441,36.211,159.82v56.864c0,4.276-3.467,7.743-7.743,7.743s-7.743-3.467-7.743-7.743V159.82  c0-79.918,65.017-144.936,144.935-144.936S310.595,79.902,310.595,159.82v56.864C310.595,220.961,307.129,224.427,302.852,224.427z"/>
<path style="fill:#C44137;" d="M226.139,334.341H105.181c-4.276,0-7.743-3.467-7.743-7.743s3.467-7.743,7.743-7.743h120.958  c4.276,0,7.743,3.467,7.743,7.743C233.882,330.875,230.415,334.341,226.139,334.341z"/>
<path style="fill:#EF5854;" d="M481.237,22.627h-94.664c-16.964,0-30.768,13.562-30.768,30.234v109.565  c0,3.32,1.448,6.482,3.975,8.69L426.045,229c2.24,1.959,5.05,2.937,7.86,2.937s5.62-0.978,7.863-2.937l66.262-57.884  c2.528-2.208,3.971-5.371,3.971-8.69V52.861C512,36.189,498.2,22.627,481.237,22.627z"/>
<path style="fill:#E04E4B;" d="M380.871,162.858c-2.527-2.208-3.975-5.371-3.975-8.69V44.602c0-8.651,3.723-16.459,9.669-21.975  c-16.96,0.005-30.76,13.565-30.76,30.234v109.565c0,3.32,1.448,6.482,3.975,8.69L426.045,229c2.24,1.959,5.05,2.937,7.86,2.937  c5.527,0,7.592-2.701,15.53-9.634C447.605,221.343,452.61,225.523,380.871,162.858z"/>
<path style="fill:#C16B3D;" d="M485.616,404.048l-35.935-31.944v-150.02c-7.821,6.835-10.112,9.853-15.777,9.853  c-2.81,0-5.619-0.978-7.86-2.937l-7.918-6.916v150.02l-35.935,31.944c-3.368,2.992-5.296,7.284-5.296,11.791v53.595  c0,15.195,12.364,27.557,27.559,27.557h58.9c15.196,0,27.558-12.362,27.558-27.557v-53.595  C490.913,411.332,488.986,407.04,485.616,404.048z M459.359,465.437H408.45v-42.513l25.455-22.625l25.454,22.625V465.437z"/>
<path style="fill:#B25932;" d="M393.12,476.661v-53.595c0-4.508,1.928-8.799,5.296-11.791l32.163-28.591  c0.228-0.206,3.772-3.612,3.772-9.002V231.917c-6.013,0.225-8.473-3.062-16.224-9.833v150.02l-35.935,31.944  c-3.368,2.992-5.296,7.284-5.296,11.791v53.595c0,14.358,11.042,26.181,25.078,27.44C396.534,491.837,393.12,484.641,393.12,476.661  z"/>
<g>
	<path style="fill:#C44137;" d="M400.13,22.627v75.925c0,4.276,3.467,7.743,7.743,7.743s7.743-3.467,7.743-7.743V22.627H400.13z"/>
	<path style="fill:#C44137;" d="M459.936,106.295c4.276,0,7.743-3.467,7.743-7.743V22.627h-15.485v75.925   C452.194,102.828,455.66,106.295,459.936,106.295z"/>
</g>
<g>
</g>
<g>
</g>
<g>
</g>
<g>
</g>
<g>
</g>
<g>
</g>
<g>
</g>
<g>
</g>
<g>
</g>
<g>
</g>
<g>
</g>
<g>
</g>
<g>
</g>
<g>
</g>
<g>
</g>
</svg>
