<?xml version="1.0" encoding="iso-8859-1"?>
<!-- Generator: Adobe Illustrator 19.0.0, SVG Export Plug-In . SVG Version: 6.00 Build 0)  -->
<svg xmlns="http://www.w3.org/2000/svg" xmlns:xlink="http://www.w3.org/1999/xlink" version="1.1" id="Capa_1" x="0px" y="0px" viewBox="0 0 512 512" style="enable-background:new 0 0 512 512;" xml:space="preserve">
<path style="fill:#2571A0;" d="M512,415.369c0,9.557-7.751,17.307-17.307,17.307H17.307C7.75,432.676,0,424.926,0,415.369V96.631  c0-9.558,7.75-17.307,17.307-17.307h477.386c9.556,0,17.307,7.749,17.307,17.307V415.369z"/>
<path style="fill:#1A6287;" d="M20.605,415.369V96.631c0-9.558,7.75-17.307,17.307-17.307H17.307C7.75,79.324,0,87.073,0,96.631  v318.737c0,9.557,7.75,17.307,17.307,17.307h20.605C28.355,432.676,20.605,424.926,20.605,415.369z"/>
<path style="fill:#EFEFEF;" d="M440.608,278.355H71.392c-9.559,0-17.307,7.749-17.307,17.307v137.014h403.829V295.662  C457.914,286.104,450.167,278.355,440.608,278.355z"/>
<path style="fill:#49B5CE;" d="M440.608,241.071H71.392c-9.559,0-17.307,7.75-17.307,17.308v37.283  c0-9.558,7.748-17.307,17.307-17.307h369.216c9.559,0,17.306,7.749,17.306,17.307v-37.283  C457.914,248.821,450.167,241.071,440.608,241.071z"/>
<path style="fill:#F0C419;" d="M438.43,168.13c-1.762-2.034-4.498-2.933-7.125-2.34c-2.269,0.512-4.578,0.772-6.863,0.772  c-17.08,0-30.979-13.898-30.979-30.98c0-3.8,0.689-7.524,2.044-11.065c0.962-2.514,0.462-5.352-1.299-7.387  c-1.762-2.034-4.5-2.935-7.128-2.341c-20.901,4.724-35.495,23-35.495,44.446c0,25.129,20.444,45.574,45.573,45.574  c18.756,0,35.864-11.772,42.57-29.293C440.691,173.003,440.191,170.165,438.43,168.13z"/>
<path style="fill:#F7AC16;" d="M368.291,145.156c0-9.95,3.146-19.215,8.602-26.764c-15.3,7.519-25.307,23.092-25.307,40.845  c0,43.747,56.359,62.504,82.46,26.724C403.711,201.041,368.291,178.745,368.291,145.156z"/>
<path style="fill:#F0C419;" d="M163.356,149.001c-0.981-3.016-3.592-5.216-6.729-5.673l-20.693-3.006l-9.254-18.751  c-3.054-6.178-11.897-6.189-14.951,0l-9.251,18.751l-20.694,3.006c-3.14,0.457-5.748,2.657-6.729,5.673  c-0.981,3.018-0.163,6.33,2.108,8.546l14.975,14.594l-3.536,20.609c-0.534,3.126,0.749,6.288,3.317,8.153s5.97,2.112,8.779,0.634  l18.506-9.73l18.507,9.73c1.221,0.641,2.552,0.958,3.881,0.958c1.726,0,3.447-0.538,4.898-1.592  c2.569-1.865,3.854-5.026,3.317-8.153l-3.533-20.609l14.972-14.594C163.519,155.332,164.334,152.019,163.356,149.001z"/>
<path style="fill:#F7AC16;" d="M115.045,184.509l3.536-20.609l-14.975-14.594c-2.271-2.215-3.089-5.528-2.108-8.546  c0.035-0.108,0.087-0.207,0.127-0.313l-19.841,2.882c-3.14,0.457-5.748,2.657-6.729,5.673c-0.981,3.018-0.163,6.33,2.108,8.546  l14.975,14.594l-3.536,20.609c-0.534,3.126,0.749,6.288,3.317,8.153s5.97,2.112,8.779,0.634l17.363-9.128  C115.703,190.521,114.533,187.505,115.045,184.509z"/>
<g>
	<path style="fill:#49B5CE;" d="M297.875,131.089h-82.688c-4.267,0-7.727-3.459-7.727-7.727c0-4.267,3.459-7.727,7.727-7.727h82.688   c4.267,0,7.727,3.459,7.727,7.727C305.602,127.63,302.142,131.089,297.875,131.089z"/>
	<path style="fill:#49B5CE;" d="M297.875,167.772h-82.688c-4.267,0-7.727-3.459-7.727-7.727s3.459-7.727,7.727-7.727h82.688   c4.267,0,7.727,3.459,7.727,7.727S302.142,167.772,297.875,167.772z"/>
	<path style="fill:#49B5CE;" d="M297.875,204.454h-82.688c-4.267,0-7.727-3.459-7.727-7.727c0-4.267,3.459-7.727,7.727-7.727h82.688   c4.267,0,7.727,3.459,7.727,7.727S302.142,204.454,297.875,204.454z"/>
</g>
<g>
	<path style="fill:#989DA0;" d="M256,356.03c-4.268,0-7.727,3.459-7.727,7.727v68.918h15.454v-68.918   C263.727,359.49,260.267,356.03,256,356.03z"/>
	<path style="fill:#989DA0;" d="M371.381,356.03c-4.267,0-7.727,3.459-7.727,7.727v68.918h15.454v-68.918   C379.107,359.49,375.648,356.03,371.381,356.03z"/>
	<path style="fill:#989DA0;" d="M148.346,432.676v-68.918c0-4.267-3.459-7.727-7.727-7.727c-4.267,0-7.727,3.459-7.727,7.727v68.918   H148.346z"/>
</g>
<g>
	<path style="fill:#585A60;" d="M111.776,278.355v71.632c0,10.062,8.156,18.218,18.215,18.218h21.257   c10.062,0,18.217-8.156,18.217-18.218v-71.632L111.776,278.355L111.776,278.355z"/>
	<path style="fill:#585A60;" d="M227.153,278.355v71.632c0,10.062,8.156,18.218,18.218,18.218h21.254   c10.062,0,18.218-8.156,18.218-18.218v-71.632L227.153,278.355L227.153,278.355z"/>
	<path style="fill:#585A60;" d="M342.535,278.355v71.632c0,10.062,8.155,18.218,18.217,18.218h21.254   c10.062,0,18.218-8.156,18.218-18.218v-71.632L342.535,278.355L342.535,278.355z"/>
</g>
<g>
	<path style="fill:#414356;" d="M140.619,349.987v-71.632h-28.844v71.632c0,10.062,8.156,18.218,18.215,18.218h21.257   c1.302,0,2.57-0.142,3.794-0.401C146.804,366.057,140.619,358.747,140.619,349.987z"/>
	<path style="fill:#414356;" d="M255.997,349.987v-71.632h-28.844v71.632c0,10.062,8.156,18.218,18.218,18.218h21.254   c1.302,0,2.57-0.142,3.795-0.402C262.181,366.057,255.997,358.746,255.997,349.987z"/>
	<path style="fill:#414356;" d="M371.378,349.987v-71.632h-28.844v71.632c0,10.062,8.155,18.218,18.217,18.218h21.254   c1.302,0,2.57-0.142,3.795-0.402C377.562,366.057,371.378,358.746,371.378,349.987z"/>
</g>
<path style="fill:#34A4B7;" d="M74.648,258.379c0-9.558,7.748-17.308,17.307-17.308H71.392c-9.559,0-17.307,7.75-17.307,17.308  v37.283c0-9.558,7.748-17.307,17.307-17.307h3.256C74.648,278.355,74.648,258.379,74.648,258.379z"/>
<path style="fill:#E5E5E5;" d="M74.648,278.355h-3.256c-9.559,0-17.307,7.749-17.307,17.307v137.014h20.563  C74.648,426.716,74.648,285.383,74.648,278.355z"/>
<g>
</g>
<g>
</g>
<g>
</g>
<g>
</g>
<g>
</g>
<g>
</g>
<g>
</g>
<g>
</g>
<g>
</g>
<g>
</g>
<g>
</g>
<g>
</g>
<g>
</g>
<g>
</g>
<g>
</g>
</svg>
