<?xml version="1.0" encoding="iso-8859-1"?>
<!-- Generator: Adobe Illustrator 19.0.0, SVG Export Plug-In . SVG Version: 6.00 Build 0)  -->
<svg xmlns="http://www.w3.org/2000/svg" xmlns:xlink="http://www.w3.org/1999/xlink" version="1.1" id="Capa_1" x="0px" y="0px" viewBox="0 0 512.001 512.001" style="enable-background:new 0 0 512.001 512.001;" xml:space="preserve">
<path style="fill:#34A4B7;" d="M473.313,123.625L261.952,1.594c-3.681-2.126-8.22-2.126-11.902,0L38.687,123.623  c-3.681,2.126-5.95,6.055-5.95,10.306v244.062c0,4.251,2.268,8.181,5.95,10.306C265.684,519.354,251.342,511.923,256,511.923  c2.056,0,4.109-0.533,5.952-1.595l211.361-122.03c3.684-2.125,5.952-6.055,5.952-10.306V133.93  C479.265,129.679,476.996,125.749,473.313,123.625z"/>
<path style="fill:#49B5CE;" d="M473.313,123.625l-54.612-31.531c-61.606,13.667-110.737,113.084-112.738,234.516  c-0.896,54.352,7.798,104.597,23.149,144.942l144.201-83.255c3.684-2.125,5.952-6.055,5.952-10.306V133.93  C479.265,129.679,476.996,125.749,473.313,123.625z"/>
<path style="fill:#C44137;" d="M473.313,123.625L261.952,1.594c-3.681-2.126-8.22-2.126-11.902,0L38.687,123.623  c-1.841,1.062-3.328,2.576-4.354,4.354c1.026,1.779,2.513,3.292,4.354,4.354l211.363,122.03c1.841,1.062,3.898,1.594,5.95,1.594  c2.056,0,4.109-0.531,5.952-1.594l211.361-122.03c1.839-1.063,3.326-2.576,4.356-4.354  C476.639,126.199,475.152,124.686,473.313,123.625z"/>
<path style="fill:#E04E4B;" d="M473.313,123.625L261.952,1.594c-3.681-2.126-8.22-2.126-11.902,0L129.37,71.268  c-5.895,10.417-9.074,21.444-9.074,32.859c0,60.513,88.909,110.169,202.199,115.279l150.818-87.075  c1.839-1.063,3.326-2.576,4.356-4.354C476.639,126.199,475.152,124.686,473.313,123.625z"/>
<path style="fill:#F7AC16;" d="M38.687,132.332c-1.841-1.063-3.328-2.576-4.354-4.354c-1.03,1.78-1.596,3.826-1.596,5.952v244.062  c0,4.251,2.268,8.181,5.95,10.306C265.684,519.354,251.342,511.923,256,511.923V255.955c-2.052,0-4.109-0.531-5.95-1.594  L38.687,132.332z"/>
<path style="fill:#FF8828;" d="M256,352.622v-17.801l-66.713-38.516v-77.024l-15.417-8.901v77.024l-59.006-34.067v-77.024  l-15.417-8.901v77.024L32.736,205.92v17.802l66.711,38.515v67.791l-66.711-38.515v17.801l66.711,38.515v75.548l15.417,8.901V356.73  l59.006,34.067v75.548l15.417,8.901v-75.548L256,438.214v-17.801l-66.713-38.516v-67.791L256,352.622z M173.871,372.997  l-59.006-34.067v-67.791l59.006,34.067V372.997z"/>
<path style="fill:#BA2B20;" d="M397.125,176.318l15.417-8.901l-67.243-38.823l68.312-39.44l-15.417-8.901l-68.313,39.44  l-59.535-34.372l68.313-39.441l-15.416-8.901L254.93,76.42l-67.243-38.821l-15.416,8.9l67.243,38.822l-59.535,34.373l-67.243-38.823  l-15.417,8.901l67.243,38.823L98.389,166.8l15.417,8.901l66.173-38.205l59.535,34.372l-66.173,38.205l15.417,8.901l66.173-38.205  l67.244,38.823l15.417-8.901l-67.244-38.823l59.535-34.372L397.125,176.318z M254.93,162.967l-59.535-34.372l59.535-34.373  l59.535,34.373L254.93,162.967z"/>
<path style="fill:#2571A0;" d="M479.265,223.385v-17.801l-66.715,38.517v-76.689l-15.417,8.901v76.688l-59.002,34.064V210.38  l-15.417,8.901v76.687l-66.715,38.517v17.801l66.715-38.517v67.792l-66.715,38.517v17.801l66.715-38.517v75.885l15.417-8.901  v-75.884l59.002-34.065v75.884l15.417-8.901v-75.883l66.715-38.517v-17.801l-66.715,38.517v-67.791L479.265,223.385z   M397.133,338.595l-59.002,34.065v-67.792l59.002-34.064L397.133,338.595L397.133,338.595z"/>
<g>
</g>
<g>
</g>
<g>
</g>
<g>
</g>
<g>
</g>
<g>
</g>
<g>
</g>
<g>
</g>
<g>
</g>
<g>
</g>
<g>
</g>
<g>
</g>
<g>
</g>
<g>
</g>
<g>
</g>
</svg>
