<?xml version="1.0" encoding="iso-8859-1"?>
<!-- Generator: Adobe Illustrator 19.0.0, SVG Export Plug-In . SVG Version: 6.00 Build 0)  -->
<svg xmlns="http://www.w3.org/2000/svg" xmlns:xlink="http://www.w3.org/1999/xlink" version="1.1" id="Capa_1" x="0px" y="0px" viewBox="0 0 512 512" style="enable-background:new 0 0 512 512;" xml:space="preserve">
<path style="fill:#FF8828;" d="M490.017,121.129c-48.286-40.386,17.451-48.629-12.292-65.408  c-32.506-18.338-151.26-29.926-163.192,121.43c-0.008,0.059-0.018,0.114-0.026,0.174c-2.601,21.806-22.881,25.409-22.881,25.409  c-4.457,0-232.946,0-240.844,0c-12.949,0-23.449,10.498-23.449,23.448c0,12.952,10.499,23.451,23.449,23.451h20.471v109.581  c17.719,16.633,37.853,30.366,59.609,40.747v-65.097c0-10.689,8.663-19.353,19.354-19.353H312.56  c10.686,0,19.352,8.664,19.352,19.353v65.097c21.756-10.38,41.892-24.114,59.61-40.748c0-136.125,0.098-126.651-0.228-129.344  c-0.741-15.605-2.138-61.33,33.755-61.33c28.096,0,24.583,36.436,47.409,28.534C495.285,189.171,538.307,161.514,490.017,121.129z"/>
<path style="fill:#C16B3D;" d="M4.361,350.594c-7.449-10.321-5.121-24.727,5.201-32.175c10.318-7.447,24.725-5.122,32.174,5.201  c93.296,129.261,285.946,129.34,379.299,0c7.451-10.321,21.855-12.649,32.177-5.201c10.319,7.448,12.647,21.854,5.199,32.175  C346.298,505.929,115.797,504.979,4.361,350.594z"/>
<path style="fill:#B25932;" d="M445.452,314.8c2.814,6.683,2.202,14.621-2.351,20.931c-104.558,144.865-319.511,143.968-423.43,0  c-4.553-6.31-5.165-14.248-2.351-20.931c-2.713,0.696-5.349,1.881-7.758,3.619c-10.322,7.448-12.65,21.854-5.201,32.175  c111.452,154.406,341.944,155.326,454.051,0C467.875,337.48,461.234,318.844,445.452,314.8z"/>
<path style="fill:#E04E4B;" d="M184.488,273.894h78.139c8.729,0,15.803-7.076,15.803-15.804v-55.356H168.685v55.356  C168.685,266.818,175.76,273.894,184.488,273.894z"/>
<path style="fill:#C44137;" d="M189.29,258.09v-55.356h-20.604v55.356c0,8.728,7.075,15.804,15.802,15.804h20.604  C196.364,273.894,189.29,266.818,189.29,258.09z"/>
<circle style="fill:#414356;" cx="446.78" cy="122.12" r="9.877"/>
<path style="fill:#ED6E18;" d="M96.085,306.053c0-40.934,17.599-77.757,45.641-103.318c-10.843,0-80.572,0-90.944,0  c-12.949,0-23.449,10.498-23.449,23.448c0,12.952,10.499,23.451,23.449,23.451h20.471v109.581  c17.719,16.633,37.853,30.366,59.609,40.747v-1.658C109.217,373.687,96.085,341.406,96.085,306.053z"/>
<g>
</g>
<g>
</g>
<g>
</g>
<g>
</g>
<g>
</g>
<g>
</g>
<g>
</g>
<g>
</g>
<g>
</g>
<g>
</g>
<g>
</g>
<g>
</g>
<g>
</g>
<g>
</g>
<g>
</g>
</svg>
