<?xml version="1.0" encoding="iso-8859-1"?>
<!-- Generator: Adobe Illustrator 19.0.0, SVG Export Plug-In . SVG Version: 6.00 Build 0)  -->
<svg xmlns="http://www.w3.org/2000/svg" xmlns:xlink="http://www.w3.org/1999/xlink" version="1.1" id="Capa_1" x="0px" y="0px" viewBox="0 0 512.001 512.001" style="enable-background:new 0 0 512.001 512.001;" xml:space="preserve">
<path style="fill:#D3D3D3;" d="M21.688,319.038c-9.544,0.969-16.99,9.027-16.99,18.825v4.732c0,10.451,8.471,18.923,18.925,18.923  c15.151,0,11.444,0,26.554,0c5.971,0,137.016,0,142.972,0h98.872v-42.577C8.238,318.941,23.195,318.886,21.688,319.038z"/>
<path style="fill:#BABABA;" d="M27.123,340.229c-2.358,0-14.67,1.337-20.512-10.644c-1.22,2.501-1.913,5.307-1.913,8.278v4.732  c0,10.451,8.471,18.923,18.925,18.923c15.151,0,11.444,0,26.554,0c5.971,0,137.016,0,142.972,0h98.872v-21.289h-98.872  C176.254,340.229,43.462,340.229,27.123,340.229z"/>
<path style="fill:#FF8828;" d="M450.969,182.093c-3.311-4.434-13.485-15.851-30.429-15.851H304.384  c-6.828,0-12.363,5.535-12.363,12.363c0,7.627,0,175.291,0,182.913c7.699,0,192.607,0,201.058,0  c10.449,0,18.922-8.473,18.922-18.923v-72.407L450.969,182.093z"/>
<path style="fill:#ED6E18;" d="M324.989,166.242h-20.605c-6.828,0-12.363,5.535-12.363,12.363v182.913h20.605V178.605  C312.626,171.777,318.161,166.242,324.989,166.242z"/>
<circle style="fill:#6D6E72;" cx="121.66" cy="361.52" r="71.49"/>
<circle style="fill:#414356;" cx="121.66" cy="361.52" r="31.29"/>
<circle style="fill:#6D6E72;" cx="394.31" cy="361.52" r="71.49"/>
<g>
	<path style="fill:#585A60;" d="M343.422,361.518c0-35.981,26.588-65.741,61.185-70.736c-3.365-0.486-6.802-0.75-10.302-0.75   c-39.479,0-71.487,32.004-71.487,71.485c0,43.319,38.359,77.009,81.79,70.738C370.011,427.26,343.422,397.499,343.422,361.518z"/>
	<path style="fill:#585A60;" d="M70.781,361.518c0-35.981,26.588-65.741,61.185-70.736c-3.365-0.486-6.802-0.75-10.302-0.75   c-39.479,0-71.487,32.004-71.487,71.485s32.008,71.487,71.487,71.487c3.5,0,6.937-0.264,10.302-0.75   C97.369,427.26,70.781,397.499,70.781,361.518z"/>
</g>
<circle style="fill:#414356;" cx="391" cy="361.52" r="31.29"/>
<g>
	<path style="fill:#2D313F;" d="M401.303,331.977c-20.363-7.101-41.588,8.07-41.588,29.541c0,21.476,21.228,36.641,41.588,29.541   C373.381,381.321,373.426,341.701,401.303,331.977z"/>
	<path style="fill:#2D313F;" d="M110.983,361.518c0-13.666,8.768-25.28,20.983-29.541c-3.227-1.125-6.692-1.745-10.303-1.745   c-17.277,0-31.285,14.009-31.285,31.286c0,21.476,21.228,36.641,41.588,29.541C119.751,386.799,110.983,375.187,110.983,361.518z"/>
</g>
<path style="fill:#49B5CE;" d="M450.969,182.093c-3.311-4.434-13.485-15.851-30.429-15.851h-81.999v64.654  c0,10.45,8.47,18.923,18.925,18.923h140.423L450.969,182.093z"/>
<path style="fill:#34A4B7;" d="M359.146,230.896v-64.654h-20.605v64.654c0,10.45,8.47,18.923,18.925,18.923h20.605  C367.616,249.819,359.146,241.346,359.146,230.896z"/>
<path style="fill:#F7AC16;" d="M290.745,193.302L236.558,86.045c-1.7-3.363-4.978-5.644-8.722-6.068  c-38.265-4.324-84.974,5.709-128.155,27.526c-43.177,21.813-78.968,53.46-98.19,86.827c-1.879,3.265-1.988,7.257-0.293,10.619  L55.39,312.208c1.672,3.309,4.702,5.609,9.318,6.12c13.052-17.189,33.702-28.296,56.955-28.296c15.528,0,29.891,4.968,41.616,13.38  c9.745-3.641,19.452-7.846,28.984-12.66c43.181-21.818,78.966-53.464,98.19-86.831C292.335,200.656,292.443,196.664,290.745,193.302  z"/>
<path style="fill:#F7C937;" d="M290.745,193.302L236.558,86.045c-1.7-3.363-4.978-5.644-8.722-6.068  c-38.265-4.324-84.974,5.709-128.155,27.526c-8.652,4.371-17.001,9.143-24.986,14.238c-38.363,53.93-31.271,128.668,18.068,174.381  c8.836-3.913,18.613-6.09,28.9-6.09c15.528,0,29.891,4.968,41.616,13.38c9.745-3.641,19.452-7.846,28.984-12.66  c43.181-21.818,78.966-53.464,98.19-86.831C292.335,200.656,292.443,196.664,290.745,193.302z"/>
<path style="fill:#FF8828;" d="M121.649,97.566c-7.382,2.982-14.726,6.278-21.967,9.937c-7.229,3.652-14.248,7.587-21.02,11.752  l91.66,181.42c7.376-2.97,14.707-6.268,21.943-9.922c7.239-3.658,14.263-7.597,21.043-11.769L121.649,97.566z"/>
<path style="fill:#ED6E18;" d="M98.635,108.046c-6.858,3.501-13.531,7.246-19.974,11.209l91.66,181.42  c7.018-2.826,13.993-5.959,20.887-9.403L98.635,108.046z"/>
<g>
</g>
<g>
</g>
<g>
</g>
<g>
</g>
<g>
</g>
<g>
</g>
<g>
</g>
<g>
</g>
<g>
</g>
<g>
</g>
<g>
</g>
<g>
</g>
<g>
</g>
<g>
</g>
<g>
</g>
</svg>
