<?xml version="1.0" encoding="iso-8859-1"?>
<!-- Generator: Adobe Illustrator 19.0.0, SVG Export Plug-In . SVG Version: 6.00 Build 0)  -->
<svg xmlns="http://www.w3.org/2000/svg" xmlns:xlink="http://www.w3.org/1999/xlink" version="1.1" id="Capa_1" x="0px" y="0px" viewBox="0 0 512 512" style="enable-background:new 0 0 512 512;" xml:space="preserve">
<path style="fill:#C44137;" d="M199.589,187.891H140.48v15.331l0,0l19.046,18.811c0.011,0.012,0.932,0.92,0.944,0.931  c3.05,2.863,13.774,11.59,32.181,13.102h5.492v0.247h24.505v-25.366C222.648,198.215,212.325,187.891,199.589,187.891z"/>
<rect x="339.41" y="130.447" style="fill:#D3D3D3;" width="46.11" height="40.669"/>
<rect x="339.41" y="130.447" style="fill:#BABABA;" width="23.532" height="40.669"/>
<path style="fill:#E04E4B;" d="M121.851,184.874l20.689,20.409V121.15c0-12.732-10.323-23.056-23.056-23.056  c-12.731,0-23.058,10.324-23.058,23.056v51.222C103.878,173.829,114.045,177.176,121.851,184.874z"/>
<path style="fill:#C44137;" d="M119.483,121.15c0-8.532,4.639-15.977,11.528-19.964c-15.294-8.851-34.585,2.2-34.585,19.964v51.222  c6.72,1.315,15.643,4.177,23.057,10.371V121.15z"/>
<path style="fill:#BABABA;" d="M418.395,109.801c0-12.734-10.325-23.058-23.058-23.058h-65.745  c-12.733,0-23.056,10.324-23.056,23.058c0,12.732,10.323,23.057,23.056,23.057h65.745  C408.07,132.858,418.395,122.533,418.395,109.801z"/>
<path style="fill:#989DA0;" d="M395.337,109.801h-65.745c-8.532,0-15.976-4.64-19.964-11.529  c-8.848,15.293,2.194,34.587,19.964,34.587h65.745c12.733,0,23.058-10.325,23.058-23.057c0-4.201-1.129-8.137-3.093-11.529  C411.314,105.161,403.869,109.801,395.337,109.801z"/>
<path style="fill:#49B5CE;" d="M462.118,169.186h-123.73c-19.301,0-21.959,12.471-22.251,17.471v23.583  c0,20.892-13.686,23.711-19.059,24.013h-98.935c-21.798,0-34.332-10.209-37.673-13.349c-0.012-0.012-0.933-0.919-0.944-0.931  l-37.675-37.159c-9.039-8.914-23.868-13.628-35.482-13.628H49.884C22.331,169.186,0,191.522,0,219.07c0,10.796,0,102.734,0,115.197  c0,9.844,7.98,17.825,17.823,17.825h26.58h146.313h130.492h146.313c9.897,0,17.332,0,26.655,0c9.846,0,17.824-7.981,17.824-17.825  c0-23.911,0-91.969,0-115.197C512,191.522,489.666,169.186,462.118,169.186z"/>
<g>
	<path style="fill:#34A4B7;" d="M336.741,210.24v-23.583c0.292-5,2.95-17.471,22.251-17.471h-20.605   c-19.301,0-21.959,12.471-22.251,17.471v23.583c0,20.892-13.686,23.711-19.059,24.013h20.605   C323.055,233.95,336.741,231.132,336.741,210.24z"/>
	<path style="fill:#34A4B7;" d="M20.605,334.268c0-12.441,0-104.403,0-115.197c0-27.548,22.331-49.884,49.885-49.884H49.884   C22.331,169.186,0,191.522,0,219.07c0,10.796,0,102.734,0,115.197c0,9.844,7.98,17.825,17.823,17.825h20.605   C28.585,352.093,20.605,344.111,20.605,334.268z"/>
</g>
<rect y="234.257" style="fill:#A2E7F2;" width="512" height="44.682"/>
<path style="fill:#6EDCF9;" d="M20.605,234.253H0c0,9.242,0,35.813,0,44.682h20.605C20.605,270.047,20.605,243.421,20.605,234.253z"/>
<circle style="fill:#6D6E72;" cx="117.56" cy="352.097" r="73.16"/>
<path style="fill:#414356;" d="M150.68,352.093c0,18.289-14.829,33.116-33.119,33.116c-18.291,0-33.12-14.826-33.12-33.116  c0-18.292,14.829-33.116,33.12-33.116C135.85,318.976,150.68,333.8,150.68,352.093z"/>
<path style="fill:#6D6E72;" d="M467.521,352.093c0,40.404-32.754,73.158-73.152,73.158c-40.406,0-73.161-32.754-73.161-73.158  s32.755-73.158,73.161-73.158C434.768,278.935,467.521,311.689,467.521,352.093z"/>
<g>
	<path style="fill:#585A60;" d="M341.813,352.093c0-36.905,27.333-67.412,62.858-72.422c-3.367-0.475-6.804-0.736-10.302-0.736   c-40.406,0-73.161,32.754-73.161,73.158s32.755,73.158,73.161,73.158c3.498,0,6.934-0.262,10.302-0.737   C369.146,419.504,341.813,388.998,341.813,352.093z"/>
	<path style="fill:#585A60;" d="M65.008,352.093c0-36.905,27.333-67.412,62.858-72.422c-44.477-6.272-83.463,28.283-83.463,72.422   c0,44.147,38.996,78.693,83.463,72.421C92.341,419.504,65.008,388.998,65.008,352.093z"/>
</g>
<path style="fill:#414356;" d="M427.484,352.093c0,18.289-14.828,33.116-33.115,33.116c-18.295,0-33.121-14.826-33.121-33.116  c0-18.292,14.826-33.116,33.121-33.116C412.656,318.976,427.484,333.8,427.484,352.093z"/>
<g>
	<path style="fill:#2D313F;" d="M381.853,352.093c0-14.694,9.57-27.142,22.817-31.474c-3.244-1.06-6.704-1.642-10.301-1.642   c-18.295,0-33.121,14.824-33.121,33.116c0,18.289,14.826,33.116,33.121,33.116c3.597,0,7.057-0.582,10.301-1.643   C391.423,379.234,381.853,366.784,381.853,352.093z"/>
	<path style="fill:#2D313F;" d="M127.863,320.618c-3.244-1.06-6.704-1.642-10.301-1.642c-18.295,0-33.121,14.824-33.121,33.116   c0,22.432,21.941,38.499,43.422,31.473C97.545,373.651,97.515,330.543,127.863,320.618z"/>
</g>
<g>
</g>
<g>
</g>
<g>
</g>
<g>
</g>
<g>
</g>
<g>
</g>
<g>
</g>
<g>
</g>
<g>
</g>
<g>
</g>
<g>
</g>
<g>
</g>
<g>
</g>
<g>
</g>
<g>
</g>
</svg>
