<?xml version="1.0" encoding="iso-8859-1"?>
<!-- Generator: Adobe Illustrator 19.0.0, SVG Export Plug-In . SVG Version: 6.00 Build 0)  -->
<svg xmlns="http://www.w3.org/2000/svg" xmlns:xlink="http://www.w3.org/1999/xlink" version="1.1" id="Capa_1" x="0px" y="0px" viewBox="0 0 512 512" style="enable-background:new 0 0 512 512;" xml:space="preserve">
<path style="fill:#FF8828;" d="M506.833,271.238l-56.183-81.097c-3.328-4.457-13.555-15.933-30.588-15.933H288.814v109.855v86.439  h33.018c4.808,0,159.616,0,171.147,0c10.505,0,19.021-8.517,19.021-19.021v-62.99C512,279.347,506.833,271.238,506.833,271.238z"/>
<polygon style="fill:#ED6E18;" points="311.48,174.207 288.814,174.207 288.814,284.063 288.814,370.502 311.48,370.502   311.48,284.063 "/>
<path style="fill:#49B5CE;" d="M450.65,190.141c-3.328-4.457-13.555-15.933-30.588-15.933h-82.427v64.991  c0,10.504,8.517,19.022,19.021,19.022h141.16L450.65,190.141z"/>
<circle style="fill:#6D6E72;" cx="393.69" cy="370.5" r="71.859"/>
<path style="fill:#585A60;" d="M342.438,370.502c0-36.187,26.753-66.113,61.558-71.112c-3.366-0.484-6.802-0.747-10.302-0.747  c-39.688,0-71.861,32.172-71.861,71.859s32.173,71.861,71.861,71.861c3.5,0,6.937-0.263,10.302-0.747  C369.191,436.617,342.438,406.689,342.438,370.502z"/>
<circle style="fill:#414356;" cx="393.69" cy="370.5" r="31.449"/>
<path style="fill:#2D313F;" d="M383.519,370.502c0-13.633,8.678-25.238,20.81-29.6c-3.323-1.195-6.905-1.85-10.639-1.85  c-17.367,0-31.449,14.083-31.449,31.45c0,17.37,14.082,31.449,31.449,31.449c3.735,0,7.316-0.654,10.639-1.849  C392.197,395.74,383.519,384.137,383.519,370.502z"/>
<path style="fill:#F7AC16;" d="M14.265,151.539v53.577c0,26.155,13.835,45.126,13.835,45.126l50.072,65.144  c12.078-9.207,27.153-14.683,43.513-14.683c39.686,0,67.738,30.111,67.738,69.798h101.451V151.539H14.265z"/>
<path style="fill:#E2960E;" d="M54.937,243.759c0,0-13.835-18.971-13.835-45.126v-47.094H14.265v53.577  c0,26.155,13.835,45.126,13.835,45.126l50.072,65.144c6.776-5.165,14.495-9.155,22.855-11.664L54.937,243.759z"/>
<path style="fill:#F5F5F5;" d="M189.423,370.502h101.451v-42.799H175.289C184.167,339.659,189.423,354.464,189.423,370.502z"/>
<path style="fill:#BABABA;" d="M189.423,370.502h101.451v-21.4H186.166C188.274,355.862,189.423,363.046,189.423,370.502z"/>
<circle style="fill:#6D6E72;" cx="119.62" cy="370.5" r="71.859"/>
<circle style="fill:#414356;" cx="119.62" cy="370.5" r="31.449"/>
<path style="fill:#FF8828;" d="M373.323,69.637h-89.535c-10.506,0-19.021,8.517-19.021,19.023v2.377v2.379v17.387H19.023  C8.517,110.802,0,119.319,0,129.823v4.755C0,145.084,8.517,153.6,19.023,153.6h269.521c10.506,0,19.021-8.516,19.021-19.022v-2.376  v-2.378v-17.387h65.758c10.506,0,19.023-8.517,19.023-19.021V88.66C392.346,78.154,383.829,69.637,373.323,69.637z"/>
<path style="fill:#34A4B7;" d="M358.24,239.199v-64.991h-20.606v64.991c0,10.504,8.517,19.022,19.021,19.022h20.606  C366.757,258.221,358.24,249.703,358.24,239.199z"/>
<path style="fill:#ED6E18;" d="M391.665,83.683c-3.438,4.921-9.136,8.148-15.595,8.148h-80.464c-9.253,0-9.977,6.762-10.02,8.341  v9.046v2.379v2.376c0,10.506-8.515,19.022-19.021,19.022H17.649c-7.074,0-13.234-3.87-16.511-9.6C0.414,125.406,0,127.563,0,129.823  v4.755C0,145.084,8.517,153.6,19.023,153.6h269.521c10.506,0,19.021-8.516,19.021-19.022v-2.376v-2.378v-17.387h65.758  c10.506,0,19.023-8.517,19.023-19.021C392.346,88.39,392.496,86.75,391.665,83.683z"/>
<path style="fill:#585A60;" d="M68.371,370.502c0-36.187,26.753-66.113,61.558-71.112c-3.366-0.484-6.802-0.747-10.302-0.747  c-39.688,0-71.861,32.172-71.861,71.859s32.173,71.861,71.861,71.861c3.5,0,6.937-0.263,10.302-0.747  C95.124,436.617,68.371,406.689,68.371,370.502z"/>
<path style="fill:#2D313F;" d="M109.453,370.502c0-13.633,8.678-25.238,20.81-29.6c-20.503-7.371-42.088,7.884-42.088,29.6  c0,17.37,14.082,31.449,31.449,31.449c3.735,0,7.316-0.654,10.639-1.849C118.131,395.74,109.453,384.137,109.453,370.502z"/>
<g>
</g>
<g>
</g>
<g>
</g>
<g>
</g>
<g>
</g>
<g>
</g>
<g>
</g>
<g>
</g>
<g>
</g>
<g>
</g>
<g>
</g>
<g>
</g>
<g>
</g>
<g>
</g>
<g>
</g>
</svg>
