<?xml version="1.0" encoding="iso-8859-1"?>
<!-- Generator: Adobe Illustrator 19.0.0, SVG Export Plug-In . SVG Version: 6.00 Build 0)  -->
<svg xmlns="http://www.w3.org/2000/svg" xmlns:xlink="http://www.w3.org/1999/xlink" version="1.1" id="Capa_1" x="0px" y="0px" viewBox="0 0 512 512" style="enable-background:new 0 0 512 512;" xml:space="preserve">
<path style="fill:#E04E4B;" d="M378.136,114.643h-18.614c-10.28,0-18.612,8.334-18.612,18.613v106.877h55.84V133.257  C396.751,122.978,388.417,114.643,378.136,114.643z"/>
<path style="fill:#C44137;" d="M382.79,115.253c-1.49-0.384-3.043-0.61-4.653-0.61h-18.614c-10.28,0-18.612,8.334-18.612,18.613  v106.877h27.921V133.257C368.83,124.588,374.766,117.323,382.79,115.253z"/>
<path style="fill:#FF8828;" d="M423.936,255.603c0-9.681-7.849-17.53-17.529-17.53h-75.152c-9.684,0-17.531,7.849-17.531,17.53  v2.922c0,0.004,0,0.01,0,0.014v19.577h17.531c9.271,0,81.008,0,92.681,0C423.936,265.289,423.936,268.414,423.936,255.603z"/>
<path style="fill:#ED6E18;" d="M368.83,255.603c0-9.681,7.847-17.53,17.531-17.53h-55.105c-9.684,0-17.531,7.849-17.531,17.53v2.922  c0,0.004,0,0.01,0,0.014v19.577h17.531h37.575V258.54C368.83,257.268,368.83,256.856,368.83,255.603z"/>
<path style="fill:#F0C419;" d="M462.129,276.055H207.981v146.098h71.008c0-0.54,0.011-1.077,0.02-1.615h179.644  c0.009,0.538,0.02,1.075,0.02,1.615h3.458c0.942,0,1.876-0.036,2.805-0.09c0.588,0.059,1.187,0.09,1.791,0.09h24.836  c9.68,0,17.529-7.849,17.529-17.53c0-3.064,0-78.511,0-81.608C509.09,297.082,488.065,276.055,462.129,276.055z"/>
<rect x="207.984" y="276.056" style="fill:#F7AC16;" width="23.22" height="146.093"/>
<path style="fill:#E04E4B;" d="M30.357,114.643v289.979c0,1.872,0.3,3.67,0.841,5.362h19.083h65.604h93.312  c0.543-1.692,0.843-3.491,0.843-5.362V114.643H30.357z"/>
<path style="fill:#C44137;" d="M49.241,114.643H30.357v289.979c0,1.872,0.3,3.67,0.841,5.362h18.883  c-0.541-1.692-0.841-3.491-0.841-5.362L49.241,114.643L49.241,114.643z"/>
<path style="fill:#F0C419;" d="M33.489,76.662H206.91L137.349,7.104c-9.471-9.472-24.829-9.472-34.3,0L33.489,76.662z"/>
<path style="fill:#F7AC16;" d="M133.429,3.928c-9.403-6.133-22.125-5.079-30.38,3.176l-69.56,69.557h26.46l69.56-69.557  C130.725,5.887,132.042,4.832,133.429,3.928z"/>
<path style="fill:#49B5CE;" d="M168.456,235.128c0,10.429-8.453,18.883-18.881,18.883H90.825c-10.431,0-18.885-8.454-18.885-18.883  v-58.749c0-10.429,8.455-18.883,18.885-18.883h58.749c10.429,0,18.881,8.454,18.881,18.883L168.456,235.128L168.456,235.128z"/>
<path style="fill:#34A4B7;" d="M120.197,235.128v-58.749c0-10.429,8.455-18.883,18.885-18.883H90.825  c-10.431,0-18.885,8.454-18.885,18.883v58.749c0,10.429,8.455,18.883,18.885,18.883h48.258  C128.652,254.011,120.197,245.557,120.197,235.128z"/>
<circle style="fill:#6D6E72;" cx="368.827" cy="422.149" r="89.842"/>
<circle style="fill:#414356;" cx="368.827" cy="422.149" r="51.861"/>
<circle style="fill:#6D6E72;" cx="120.202" cy="422.149" r="89.842"/>
<g>
	<path style="fill:#585A60;" d="M49.241,422.153c0-46.43,35.221-84.63,80.401-89.35c-53.065-5.539-99.285,35.951-99.285,89.35   c0,53.339,46.159,94.897,99.285,89.349C84.462,506.783,49.241,468.583,49.241,422.153z"/>
	<path style="fill:#585A60;" d="M297.872,422.153c0-46.43,35.221-84.63,80.401-89.35c-3.103-0.324-6.253-0.493-9.442-0.493   c-49.618,0-89.843,40.224-89.843,89.843c0,53.339,46.159,94.897,99.285,89.349C333.092,506.783,297.872,468.583,297.872,422.153z"/>
</g>
<path style="fill:#414356;" d="M172.06,422.153c0,28.643-23.22,51.86-51.86,51.86c-28.641,0-51.862-23.217-51.862-51.86  c0-28.642,23.221-51.86,51.862-51.86C148.84,370.293,172.06,393.511,172.06,422.153z"/>
<g>
	<path style="fill:#2D313F;" d="M90.413,422.153c0-24.853,17.487-45.611,40.824-50.671c-3.558-0.772-7.248-1.189-11.037-1.189   c-28.641,0-51.862,23.219-51.862,51.86c0,32.886,30.358,57.729,62.898,50.671C107.901,467.764,90.413,447.006,90.413,422.153z"/>
	<path style="fill:#2D313F;" d="M339.044,422.153c0-24.853,17.487-45.611,40.824-50.671c-3.558-0.772-7.248-1.189-11.037-1.189   c-28.641,0-51.862,23.219-51.862,51.86c0,32.886,30.358,57.729,62.898,50.671C356.531,467.764,339.044,447.006,339.044,422.153z"/>
</g>
<path style="fill:#FF8828;" d="M219.446,76.147H20.953c-9.95,0-18.044,8.095-18.044,18.045v2.922c0,9.95,8.094,18.045,18.044,18.045  h198.493c9.95,0,18.044-8.095,18.044-18.045v-2.922C237.49,84.241,229.396,76.147,219.446,76.147z"/>
<path style="fill:#ED6E18;" d="M219.446,95.652H20.953c-6.96,0-13-3.967-16.009-9.753c-1.293,2.486-2.035,5.303-2.035,8.293v2.922  c0,9.95,8.094,18.045,18.044,18.045h198.493c9.95,0,18.044-8.095,18.044-18.045v-2.922c0-2.99-0.743-5.807-2.035-8.292  C232.446,91.685,226.406,95.652,219.446,95.652z"/>
<g>
</g>
<g>
</g>
<g>
</g>
<g>
</g>
<g>
</g>
<g>
</g>
<g>
</g>
<g>
</g>
<g>
</g>
<g>
</g>
<g>
</g>
<g>
</g>
<g>
</g>
<g>
</g>
<g>
</g>
</svg>
