<?xml version="1.0" encoding="iso-8859-1"?>
<!-- Generator: Adobe Illustrator 19.0.0, SVG Export Plug-In . SVG Version: 6.00 Build 0)  -->
<svg xmlns="http://www.w3.org/2000/svg" xmlns:xlink="http://www.w3.org/1999/xlink" version="1.1" id="Capa_1" x="0px" y="0px" viewBox="0 0 512 512" style="enable-background:new 0 0 512 512;" xml:space="preserve">
<path style="fill:#D3D3D3;" d="M256,512C114.842,512,0,397.159,0,256S114.842,0,256,0c141.159,0,256,114.841,256,256  S397.159,512,256,512z M256,34.275C133.741,34.275,34.275,133.74,34.275,256S133.741,477.725,256,477.725  S477.725,378.26,477.725,256S378.259,34.275,256,34.275z"/>
<path style="fill:#BABABA;" d="M33.651,256c0-135.504,105.832-246.737,239.174-255.433C124.424-9.119,0,109.046,0,256  c0,146.916,124.386,265.124,272.825,255.433C139.483,502.737,33.651,391.504,33.651,256z"/>
<g>
	<path style="fill:#49B5CE;" d="M256,485.452c-4.267,0-7.727-3.46-7.727-7.727v-45.436c0-4.267,3.459-7.727,7.727-7.727   c4.267,0,7.727,3.459,7.727,7.727v45.436C263.727,481.993,260.267,485.452,256,485.452z"/>
	<path style="fill:#49B5CE;" d="M256,86.986c-4.267,0-7.727-3.459-7.727-7.727V34.275c0-4.267,3.459-7.727,7.727-7.727   c4.267,0,7.727,3.459,7.727,7.727V79.26C263.727,83.527,260.267,86.986,256,86.986z"/>
	<path style="fill:#49B5CE;" d="M305.922,472.17l-12.031-44.902c-1.104-4.122,1.342-8.359,5.464-9.463   c4.12-1.101,8.359,1.342,9.463,5.464l12.031,44.902c1.104,4.122-1.342,8.359-5.464,9.463   C311.257,478.738,307.026,476.288,305.922,472.17z"/>
	<path style="fill:#49B5CE;" d="M202.954,87.886L191.15,43.829c-1.104-4.122,1.342-8.359,5.464-9.463   c4.121-1.101,8.359,1.342,9.463,5.464l11.804,44.057c1.104,4.122-1.342,8.359-5.464,9.463   C208.287,94.455,204.057,92.003,202.954,87.886z"/>
	<path style="fill:#49B5CE;" d="M366.87,455.748c-2.67,0-5.268-1.386-6.699-3.865l-23.232-40.238   c-2.134-3.696-0.868-8.422,2.828-10.555c3.695-2.134,8.421-0.868,10.555,2.828l23.232,40.238c2.134,3.696,0.868,8.422-2.828,10.555   C369.51,455.414,368.181,455.748,366.87,455.748z"/>
	<path style="fill:#49B5CE;" d="M161.402,107.604l-22.955-39.761c-2.134-3.696-0.867-8.422,2.828-10.555   c3.696-2.134,8.421-0.868,10.555,2.828l22.955,39.761c2.134,3.696,0.867,8.422-2.828,10.555   C168.262,112.566,163.536,111.301,161.402,107.604z"/>
	<path style="fill:#49B5CE;" d="M412.783,420.51c-1.977,0-3.955-0.754-5.464-2.263l-32.9-32.901c-3.018-3.018-3.018-7.91,0-10.927   s7.91-3.018,10.927,0l32.9,32.902c3.018,3.018,3.018,7.91,0,10.927C416.738,419.756,414.759,420.51,412.783,420.51z"/>
	<path style="fill:#49B5CE;" d="M132.076,139.802c-4.266,0-2.518,0.683-38.322-35.121c-3.018-3.017-3.018-7.91,0-10.927   c3.017-3.017,7.91-3.017,10.927,0l32.858,32.858c3.018,3.017,3.018,7.91,0,10.927C136.031,139.047,134.053,139.802,132.076,139.802   z"/>
	<path style="fill:#49B5CE;" d="M444.156,373.554l-40.217-23.22c-3.696-2.134-4.962-6.86-2.828-10.555   c2.133-3.696,6.86-4.963,10.555-2.828l40.217,23.22c3.696,2.134,4.962,6.86,2.828,10.555   C452.577,374.422,447.851,375.688,444.156,373.554z"/>
	<path style="fill:#49B5CE;" d="M104.052,176.005c-1.311,0-2.639-0.334-3.856-1.037l-40.08-23.14   c-3.695-2.133-4.962-6.859-2.828-10.555s6.86-4.963,10.555-2.828l40.08,23.14c3.695,2.133,4.962,6.859,2.828,10.555   C109.319,174.619,106.722,176.005,104.052,176.005z"/>
	<path style="fill:#49B5CE;" d="M196.614,477.634c-4.122-1.105-6.568-5.341-5.464-9.463l12.042-44.945   c1.105-4.123,5.344-6.567,9.463-5.464c4.122,1.105,6.568,5.341,5.464,9.463l-12.042,44.945   C204.973,476.291,200.737,478.739,196.614,477.634z"/>
	<path style="fill:#49B5CE;" d="M301.598,93.57c-0.663,0-1.335-0.086-2.005-0.265c-4.122-1.105-6.568-5.341-5.464-9.463   l11.792-44.012c1.105-4.123,5.344-6.569,9.463-5.464c4.122,1.105,6.568,5.341,5.464,9.463l-11.792,44.012   C308.132,91.293,305.01,93.57,301.598,93.57z"/>
	<path style="fill:#49B5CE;" d="M141.275,454.712c-3.695-2.133-4.962-6.859-2.828-10.555l22.899-39.665   c2.133-3.695,6.858-4.963,10.555-2.828c3.695,2.133,4.962,6.859,2.828,10.555l-22.899,39.665   C149.698,455.576,144.974,456.847,141.275,454.712z"/>
	<path style="fill:#49B5CE;" d="M343.648,111.905c-1.311,0-2.639-0.334-3.856-1.037c-3.696-2.133-4.962-6.859-2.828-10.555   l23.208-40.197c2.134-3.695,6.859-4.962,10.555-2.828c3.696,2.133,4.962,6.859,2.828,10.555l-23.208,40.197   C348.916,110.519,346.319,111.905,343.648,111.905z"/>
	<path style="fill:#49B5CE;" d="M93.754,418.247c-3.018-3.017-3.018-7.91,0-10.927l32.74-32.741c3.017-3.017,7.91-3.017,10.927,0   c3.018,3.017,3.018,7.91,0,10.927l-32.74,32.741C101.664,421.265,96.771,421.265,93.754,418.247z"/>
	<path style="fill:#49B5CE;" d="M380.449,139.277c-1.977,0-3.955-0.755-5.464-2.263c-3.018-3.017-3.018-7.91,0-10.927l32.333-32.334   c3.017-3.017,7.91-3.017,10.927,0c3.018,3.017,3.018,7.91,0,10.927l-32.333,32.334   C384.404,138.522,382.427,139.277,380.449,139.277z"/>
	<path style="fill:#49B5CE;" d="M63.986,374.591c-7.852,0-10.711-10.471-3.87-14.42l40.492-23.377   c3.695-2.135,8.421-0.868,10.555,2.828s0.867,8.422-2.828,10.555l-40.492,23.377C66.625,374.257,65.297,374.591,63.986,374.591z"/>
	<path style="fill:#49B5CE;" d="M404.639,177.915c-2.67,0-5.267-1.386-6.699-3.865c-2.134-3.696-0.868-8.422,2.828-10.555   l43.387-25.049c3.695-2.135,8.421-0.868,10.555,2.828s0.868,8.422-2.828,10.555l-43.387,25.049   C407.279,177.581,405.95,177.915,404.639,177.915z"/>
	<path style="fill:#49B5CE;" d="M470.173,321.116c-0.662,0-1.335-0.086-2.005-0.265l-44.512-11.927   c-4.122-1.105-6.568-5.342-5.464-9.464c1.105-4.122,5.343-6.565,9.464-5.464l44.512,11.927c4.122,1.105,6.568,5.342,5.464,9.464   C476.707,318.839,473.585,321.116,470.173,321.116z"/>
	<path style="fill:#49B5CE;" d="M82.528,217.518l-42.699-11.441c-4.122-1.105-6.568-5.341-5.464-9.463   c1.105-4.123,5.346-6.569,9.463-5.464l42.698,11.441c4.122,1.105,6.569,5.341,5.465,9.463   C90.888,216.171,86.656,218.622,82.528,217.518z"/>
	<path style="fill:#49B5CE;" d="M477.725,263.727h-45.371c-4.267,0-7.727-3.459-7.727-7.727s3.459-7.727,7.727-7.727h45.371   c4.267,0,7.727,3.459,7.727,7.727C485.452,260.268,481.993,263.727,477.725,263.727z"/>
	<path style="fill:#49B5CE;" d="M77.268,263.727H34.275c-4.267,0-7.727-3.459-7.727-7.727s3.459-7.727,7.727-7.727h42.994   c4.267,0,7.727,3.459,7.727,7.727C84.996,260.268,81.536,263.727,77.268,263.727z"/>
	<path style="fill:#49B5CE;" d="M417.665,212.682c-1.104-4.122,1.342-8.359,5.464-9.464l45.039-12.069   c4.124-1.103,8.359,1.342,9.464,5.464c1.104,4.122-1.342,8.359-5.464,9.464l-45.039,12.069   C422.995,219.25,418.768,216.796,417.665,212.682z"/>
	<path style="fill:#49B5CE;" d="M34.365,315.387c-1.104-4.122,1.342-8.359,5.464-9.463l45.026-12.065   c4.12-1.103,8.359,1.342,9.463,5.464c1.104,4.122-1.342,8.359-5.464,9.463l-45.026,12.065   C39.699,321.955,35.468,319.504,34.365,315.387z"/>
</g>
<path style="fill:#6D6E72;" d="M256,83.371c-95.188,0-172.628,77.441-172.628,172.629S160.813,428.629,256,428.629  S428.629,351.188,428.629,256S351.188,83.371,256,83.371z"/>
<path style="fill:#585A60;" d="M154.794,256c0-82.947,58.808-152.409,136.917-168.904C183.845,64.316,83.372,147.138,83.372,256  c0,95.188,77.441,172.629,172.628,172.629c12.241,0,24.185-1.29,35.712-3.724C213.602,408.409,154.794,338.947,154.794,256z"/>
<g>
</g>
<g>
</g>
<g>
</g>
<g>
</g>
<g>
</g>
<g>
</g>
<g>
</g>
<g>
</g>
<g>
</g>
<g>
</g>
<g>
</g>
<g>
</g>
<g>
</g>
<g>
</g>
<g>
</g>
</svg>
