<?xml version="1.0" encoding="iso-8859-1"?>
<!-- Generator: Adobe Illustrator 19.0.0, SVG Export Plug-In . SVG Version: 6.00 Build 0)  -->
<svg xmlns="http://www.w3.org/2000/svg" xmlns:xlink="http://www.w3.org/1999/xlink" version="1.1" id="Capa_1" x="0px" y="0px" viewBox="0 0 512.001 512.001" style="enable-background:new 0 0 512.001 512.001;" xml:space="preserve">
<path style="fill:#2571A0;" d="M409.858,304.364c-0.058-0.03-68.485-36.912-68.543-36.943c-7.211-6.032-10.771-15.441-12.468-22.033  v-69.483c15.83-17.351,25.488-40.43,25.488-65.767c0-53.91-43.707-97.614-97.616-97.614c-0.242,0-0.479,0.016-0.72,0.018  c-0.24-0.002-0.479-0.018-0.721-0.018c-84.79,0-129.048,100.987-72.129,163.381v69.483c-1.696,6.592-5.258,16.001-12.465,22.033  c-0.055,0.03-68.487,36.912-68.542,36.943C46.301,301.781,0,346.362,0,401.863c0,0.001,0,0.001,0,0.001  c0,53.911,43.701,97.613,97.612,97.613c49.37,0,90.094-36.687,96.661-84.097l41.181-25.698c0.075-0.04,22.177-11.8,41.089-0.001  l41.182,25.699c6.582,47.378,47.245,84.097,96.663,84.097c53.909,0,97.613-43.701,97.613-97.613c0,0,0,0,0-0.001  C512,346.382,465.717,301.78,409.858,304.364z"/>
<path style="fill:#1A6287;" d="M112.625,329.233c0.066-0.037,83.468-44.987,83.535-45.023c8.783-7.352,13.125-18.82,15.192-26.853  v-84.683c-35.519-38.936-40.921-96.177-14.479-140.755c-46.394,34.698-52.437,101.55-13.724,143.987v69.483  c-1.696,6.592-5.258,16.001-12.465,22.033c-0.055,0.03-68.487,36.912-68.542,36.943c-53.738-2.486-98.739,38.742-101.952,91.47  C20.321,354.7,63.451,326.961,112.625,329.233z"/>
<g>
	<circle style="fill:#49B5CE;" cx="414.38" cy="401.86" r="64.916"/>
	<circle style="fill:#49B5CE;" cx="97.61" cy="401.86" r="64.916"/>
</g>
<circle style="fill:#A2E7F2;" cx="255.28" cy="299.52" r="55.15"/>
<path style="fill:#6EDCF9;" d="M237.927,299.518c0-23.819,15.101-44.111,36.252-51.828c-5.895-2.151-12.261-3.325-18.901-3.325  c-30.461,0-55.153,24.694-55.153,55.153c0,30.462,24.692,55.153,55.153,55.153c6.64,0,13.005-1.175,18.901-3.325  C253.028,343.63,237.927,323.339,237.927,299.518z"/>
<circle style="fill:#49B5CE;" cx="255.28" cy="109.56" r="64.915"/>
<g>
	<path style="fill:#34A4B7;" d="M222.288,109.561c0-30.343,20.819-55.818,48.952-62.932c-5.107-1.291-10.454-1.984-15.963-1.984   c-35.854,0-64.916,29.063-64.916,64.915c0,42.141,39.685,73.348,80.879,62.931C243.108,165.378,222.288,139.904,222.288,109.561z"/>
	<path style="fill:#34A4B7;" d="M64.623,401.863c0-30.343,20.819-55.818,48.952-62.931c-41.19-10.415-80.879,20.786-80.879,62.931   c0,35.852,29.062,64.915,64.916,64.915c5.509,0,10.855-0.692,15.963-1.984C85.443,457.681,64.623,432.207,64.623,401.863z"/>
	<path style="fill:#34A4B7;" d="M381.396,401.863c0-30.343,20.819-55.818,48.952-62.931c-41.19-10.415-80.879,20.786-80.879,62.931   c0,42.141,39.685,73.348,80.879,62.932C402.216,457.681,381.396,432.207,381.396,401.863z"/>
</g>
<g>
	<circle style="fill:#A2E7F2;" cx="255.28" cy="109.56" r="32.955"/>
	<circle style="fill:#A2E7F2;" cx="97.61" cy="401.86" r="32.955"/>
	<circle style="fill:#A2E7F2;" cx="414.39" cy="401.86" r="32.955"/>
</g>
<g>
	<path style="fill:#6EDCF9;" d="M252.824,109.561c0-12.697,7.183-23.709,17.704-29.213c-4.561-2.386-9.746-3.743-15.25-3.743   c-18.202,0-32.954,14.754-32.954,32.955c0,18.199,14.752,32.954,32.954,32.954c5.504,0,10.689-1.356,15.25-3.743   C260.007,133.268,252.824,122.256,252.824,109.561z"/>
	<path style="fill:#6EDCF9;" d="M112.861,372.652c-21.837-11.425-48.206,4.433-48.206,29.211c0,24.749,26.339,40.652,48.206,29.212   C89.299,418.749,89.268,384.995,112.861,372.652z"/>
	<path style="fill:#6EDCF9;" d="M429.635,372.652c-21.837-11.425-48.204,4.431-48.204,29.211c0,24.75,26.337,40.654,48.204,29.212   C406.078,418.751,406.043,384.994,429.635,372.652z"/>
</g>
<g>
</g>
<g>
</g>
<g>
</g>
<g>
</g>
<g>
</g>
<g>
</g>
<g>
</g>
<g>
</g>
<g>
</g>
<g>
</g>
<g>
</g>
<g>
</g>
<g>
</g>
<g>
</g>
<g>
</g>
</svg>
