<?xml version="1.0" encoding="iso-8859-1"?>
<!-- Generator: Adobe Illustrator 19.0.0, SVG Export Plug-In . SVG Version: 6.00 Build 0)  -->
<svg xmlns="http://www.w3.org/2000/svg" xmlns:xlink="http://www.w3.org/1999/xlink" version="1.1" id="Capa_1" x="0px" y="0px" viewBox="0 0 512 512" style="enable-background:new 0 0 512 512;" xml:space="preserve">
<path style="fill:#F7AC16;" d="M286.801,80.197V30.831c0-17.011-13.792-30.8-30.801-30.8c-17.011,0-30.8,13.789-30.8,30.8v49.366  C245.165,78.235,265.708,78.124,286.801,80.197z"/>
<path style="fill:#E2960E;" d="M256,30.831c0-11.398,6.196-21.343,15.399-26.669c-20.423-11.818-46.2,2.924-46.2,26.669v49.366  c10.369-1.019,20.643-1.514,30.8-1.514L256,30.831L256,30.831z"/>
<path style="fill:#FF8828;" d="M111.166,173.691C151.98,146.165,203.176,130.08,256,130.08s104.021,16.085,144.835,43.61v-62.308  c-88.799-46.283-200.837-46.303-289.669,0L111.166,173.691L111.166,173.691z"/>
<path style="fill:#ED6E18;" d="M111.166,146.309v27.382C151.98,146.165,203.176,130.08,256,130.08s104.021,16.085,144.835,43.61  v-27.382C314.688,88.211,197.232,88.264,111.166,146.309z"/>
<path style="fill:#A2E7F2;" d="M51.626,452.461c0-6.006,0-340.284,0-347.678c0-17.01,13.789-30.8,30.8-30.8  c17.01,0,30.799,13.79,30.799,30.8c0,7.64,0,340.041,0,347.678H51.626z"/>
<path style="fill:#6EDCF9;" d="M81.634,104.783c0-11.561,6.374-21.629,15.795-26.896c-20.4-11.408-45.803,3.338-45.803,26.896  c0,7.239,0,340.49,0,347.678h30.008C81.634,446.455,81.634,112.177,81.634,104.783z"/>
<path style="fill:#A4E55A;" d="M82.426,73.983c-17.011,0-30.8,13.79-30.8,30.8v115.912h61.599V104.783  C113.225,87.773,99.436,73.983,82.426,73.983z"/>
<path style="fill:#8DD83D;" d="M81.634,104.783c0-11.561,6.374-21.629,15.795-26.896C77.467,66.73,51.626,80.81,51.626,104.783  v115.912h30.008V104.783z"/>
<rect x="51.626" y="217.39" style="fill:#3BBC56;" width="61.6" height="117.61"/>
<path style="fill:#31A845;" d="M81.634,217.393H51.626c0,12.512,0,106.335,0,117.605h30.008  C81.634,323.788,81.634,229.287,81.634,217.393z"/>
<path style="fill:#A2E7F2;" d="M398.775,452.461c0-7.642,0-340.055,0-347.678c0-17.01,13.789-30.8,30.8-30.8  c17.01,0,30.799,13.79,30.799,30.8c0,7.64,0,340.041,0,347.678H398.775z"/>
<path style="fill:#6EDCF9;" d="M428.783,104.783c0-11.561,6.374-21.629,15.795-26.896c-4.44-2.483-9.555-3.903-15.003-3.903  c-17.011,0-30.8,13.79-30.8,30.8c0,7.64,0,340.041,0,347.678h30.008C428.783,444.819,428.783,112.406,428.783,104.783z"/>
<path style="fill:#A4E55A;" d="M429.575,73.983c-17.011,0-30.8,13.79-30.8,30.8v115.912h61.599V104.783  C460.374,87.773,446.585,73.983,429.575,73.983z"/>
<path style="fill:#8DD83D;" d="M428.783,104.783c0-11.561,6.374-21.629,15.795-26.896c-1.095-0.612-2.23-1.158-3.402-1.636  c-0.048-0.019-0.097-0.038-0.145-0.057c-0.513-0.206-1.034-0.397-1.56-0.576c-0.092-0.031-0.184-0.063-0.276-0.094  c-0.552-0.182-1.111-0.35-1.676-0.501c-0.028-0.008-0.054-0.016-0.083-0.023c-0.603-0.159-1.213-0.299-1.83-0.422  c-0.091-0.018-0.182-0.032-0.273-0.049c-0.496-0.094-0.997-0.176-1.502-0.246c-0.179-0.025-0.358-0.047-0.538-0.068  c-0.442-0.053-0.888-0.096-1.336-0.131c-0.179-0.014-0.356-0.03-0.535-0.04c-0.612-0.037-1.227-0.06-1.849-0.06  c-17.011,0-30.8,13.79-30.8,30.8v115.912h30.008V104.783H428.783z"/>
<rect x="398.77" y="217.39" style="fill:#3BBC56;" width="61.6" height="117.61"/>
<path style="fill:#31A845;" d="M428.783,217.393h-30.008c0,12.512,0,106.335,0,117.605h30.008  C428.783,323.788,428.783,229.287,428.783,217.393z"/>
<g>
	<path style="fill:#49B5CE;" d="M115.286,450.401H42.114c-17.009,0-30.798,13.789-30.798,30.8S25.105,512,42.114,512h73.172   C115.286,512,115.286,450.401,115.286,450.401z"/>
	<path style="fill:#49B5CE;" d="M396.714,450.401h73.169c17.011,0,30.8,13.789,30.8,30.8S486.894,512,469.884,512h-73.169v-61.599   H396.714z"/>
</g>
<g>
	<path style="fill:#34A4B7;" d="M469.884,481.2h-73.169V512h73.169c17.011,0,30.8-13.789,30.8-30.799   c0-5.612-1.509-10.869-4.13-15.4C491.227,475.004,481.282,481.2,469.884,481.2z"/>
	<path style="fill:#34A4B7;" d="M42.116,481.2h73.169V512H42.116c-17.011,0-30.8-13.789-30.8-30.799c0-5.612,1.508-10.869,4.13-15.4   C20.773,475.004,30.718,481.2,42.116,481.2z"/>
</g>
<rect x="172.76" y="279.41" style="fill:#E04E4B;" width="166.47" height="232.59"/>
<path style="fill:#F45A56;" d="M291.453,512h47.783V279.41h-98.922C180.531,355.208,204.512,467.676,291.453,512z"/>
<path style="fill:#FF8828;" d="M174.824,512v-87.663V279.41c0-17.011-13.789-30.8-30.801-30.8c-17.008,0-30.797,13.789-30.797,30.8  c0,11.92,0,223.645,0,232.59H174.824z"/>
<path style="fill:#ED6E18;" d="M142.995,279.41c0-11.611,6.427-21.717,15.914-26.965c-20.392-11.281-45.683,3.46-45.683,26.965  c0,11.92,0,223.645,0,232.59h29.769v-87.663V279.41z"/>
<path style="fill:#FF8828;" d="M337.176,512v-87.663V279.41c0-17.011,13.789-30.8,30.798-30.8c17.012,0,30.801,13.789,30.801,30.8  c0,11.92,0,223.645,0,232.59H337.176z"/>
<path style="fill:#ED6E18;" d="M370.036,279.41c0-10.968,5.737-20.59,14.369-26.047c-20.376-12.878-47.229,1.747-47.229,26.047  v144.927V512h32.86v-87.663V279.41z"/>
<rect x="113.23" y="395.7" style="fill:#F7AC16;" width="61.6" height="116.3"/>
<path style="fill:#E2960E;" d="M142.995,395.705h-29.769c0,22.873,0,88.952,0,116.295h29.769v-87.663V395.705z"/>
<rect x="337.18" y="395.7" style="fill:#F7AC16;" width="61.6" height="116.3"/>
<polygon style="fill:#E2960E;" points="370.036,395.705 337.176,395.705 337.176,424.337 337.176,512 370.036,512 370.036,424.337   "/>
<g>
	<path style="fill:#C44137;" d="M207.295,492.57c-4.267,0-7.726-3.459-7.726-7.726V311.318c0-4.267,3.459-7.726,7.726-7.726   s7.726,3.459,7.726,7.726v173.525C215.021,489.111,211.562,492.57,207.295,492.57z"/>
	<path style="fill:#C44137;" d="M239.766,492.57c-4.267,0-7.726-3.459-7.726-7.726V311.318c0-4.267,3.459-7.726,7.726-7.726   s7.726,3.459,7.726,7.726v173.525C247.492,489.111,244.033,492.57,239.766,492.57z"/>
	<path style="fill:#C44137;" d="M272.234,492.57c-4.267,0-7.726-3.459-7.726-7.726V311.318c0-4.267,3.459-7.726,7.726-7.726   s7.726,3.459,7.726,7.726v173.525C279.961,489.111,276.501,492.57,272.234,492.57z"/>
	<path style="fill:#C44137;" d="M304.705,492.57c-4.267,0-7.726-3.459-7.726-7.726V311.318c0-4.267,3.459-7.726,7.726-7.726   s7.726,3.459,7.726,7.726v173.525C312.432,489.111,308.972,492.57,304.705,492.57z"/>
</g>
<g>
</g>
<g>
</g>
<g>
</g>
<g>
</g>
<g>
</g>
<g>
</g>
<g>
</g>
<g>
</g>
<g>
</g>
<g>
</g>
<g>
</g>
<g>
</g>
<g>
</g>
<g>
</g>
<g>
</g>
</svg>
