<?xml version="1.0" encoding="iso-8859-1"?>
<!-- Generator: Adobe Illustrator 19.0.0, SVG Export Plug-In . SVG Version: 6.00 Build 0)  -->
<svg xmlns="http://www.w3.org/2000/svg" xmlns:xlink="http://www.w3.org/1999/xlink" version="1.1" id="Capa_1" x="0px" y="0px" viewBox="0 0 512 512" style="enable-background:new 0 0 512 512;" xml:space="preserve">
<g>
	<path style="fill:#BABABA;" d="M282.957,114.891V26.958C282.957,12.069,270.888,0,256,0c-14.888,0-26.955,12.069-26.955,26.958   v87.932C245.757,114.891,266.199,114.891,282.957,114.891z"/>
	<path style="fill:#BABABA;" d="M229.045,465.377v19.666C229.045,499.931,241.112,512,256,512c14.888,0,26.957-12.069,26.957-26.956   v-19.666L229.045,465.377L229.045,465.377z"/>
</g>
<g>
	<path style="fill:#989DA0;" d="M269.479,3.615C265.513,1.32,260.912,0,256,0c-14.888,0-26.955,12.069-26.955,26.958v87.932   c2.458,0,21.971,0,26.956,0V26.958C256.001,16.981,261.424,8.277,269.479,3.615z"/>
	<path style="fill:#989DA0;" d="M256.001,485.044v-19.666h-26.956v19.666C229.045,499.931,241.112,512,256,512   c4.912,0,9.513-1.32,13.479-3.615C261.424,503.723,256.001,495.02,256.001,485.044z"/>
</g>
<path style="fill:#D3D3D3;" d="M353.409,426.778v-31.565H158.594v31.565c0,22.454,18.203,40.659,40.658,40.659h113.496  C335.202,467.438,353.409,449.232,353.409,426.778z"/>
<path style="fill:#BABABA;" d="M179.199,426.778v-31.565h-20.605v31.565c0,22.454,18.203,40.659,40.658,40.659h20.605  C197.403,467.438,179.199,449.232,179.199,426.778z"/>
<path style="fill:#989DA0;" d="M76.42,325.05v31.566c0,22.455,18.205,40.658,40.661,40.658h277.841  c22.454,0,40.66-18.203,40.66-40.658V325.05H76.42z"/>
<path style="fill:#7E8589;" d="M97.025,356.616V325.05H76.42v31.566c0,22.455,18.205,40.658,40.661,40.658h20.605  C115.231,397.274,97.025,379.071,97.025,356.616z"/>
<path style="fill:#2571A0;" d="M313.468,136.308h-0.004c0,0-0.006-0.018-0.006-0.025c-0.041-0.119-0.077-0.233-0.117-0.351  c-1.023-2.973-8.697-23.102-28.894-23.102c-6.932,0-49.965,0-56.892,0c-14.384,0-24.874,10.971-29.02,23.478l0,0  c-12.526,36.856-48.192,87.269-143.543,134.944c17.633,0,384.382,0,402.015,0C361.657,223.577,325.99,173.164,313.468,136.308z"/>
<path style="fill:#1A6287;" d="M228.343,136.308c3.39-12.107,12.78-23.478,25.673-23.478h-26.461  c-13.905,0-24.682,10.391-29.02,23.478c-12.526,36.856-48.192,87.269-143.543,134.944h46.361  C185.708,223.577,217.262,173.164,228.343,136.308z"/>
<path style="fill:#49B5CE;" d="M198.536,136.308L198.536,136.308c-3.489,10.267-8.783,21.507-16.652,33.41H330.12  c-7.87-11.903-13.162-23.143-16.651-33.41h-0.004c0,0-0.006-0.018-0.006-0.025c-0.041-0.119-0.077-0.233-0.117-0.351  c-1.023-2.973-8.697-23.102-28.894-23.102c-6.932,0-49.965,0-56.892,0C213.171,112.83,202.681,123.801,198.536,136.308z"/>
<path style="fill:#34A4B7;" d="M182.013,169.718h31.713c10.564-18.289,14.624-33.435,14.624-33.435  c3.364-11.672,12.407-23.453,25.666-23.453h-26.461c-15.033,0-24.466,10.762-29.671,25.345  C194.303,148.243,189.06,158.926,182.013,169.718z"/>
<path style="fill:#F0C419;" d="M489.244,304.355c0,12.568-10.188,22.755-22.755,22.755H45.511  c-12.565,0-22.755-10.188-22.755-22.755v-11.378c0-12.568,10.19-22.755,22.755-22.755h420.978c12.567,0,22.755,10.187,22.755,22.755  L489.244,304.355L489.244,304.355z"/>
<path style="fill:#F7AC16;" d="M466.489,299.696H45.511c-9.743,0-18.054-6.127-21.298-14.737c-0.939,2.494-1.457,5.195-1.457,8.018  v11.378c0,12.568,10.19,22.755,22.755,22.755h420.978c12.567,0,22.755-10.188,22.755-22.755v-11.378  c0-2.823-0.518-5.524-1.457-8.018C484.544,293.569,476.233,299.696,466.489,299.696z"/>
<g>
</g>
<g>
</g>
<g>
</g>
<g>
</g>
<g>
</g>
<g>
</g>
<g>
</g>
<g>
</g>
<g>
</g>
<g>
</g>
<g>
</g>
<g>
</g>
<g>
</g>
<g>
</g>
<g>
</g>
</svg>
