<?xml version="1.0" encoding="iso-8859-1"?>
<!-- Generator: Adobe Illustrator 19.0.0, SVG Export Plug-In . SVG Version: 6.00 Build 0)  -->
<svg xmlns="http://www.w3.org/2000/svg" xmlns:xlink="http://www.w3.org/1999/xlink" version="1.1" id="Capa_1" x="0px" y="0px" viewBox="0 0 512 512" style="enable-background:new 0 0 512 512;" xml:space="preserve">
<path style="fill:#BABABA;" d="M65.591,203.899c-4.273,0-7.738-3.464-7.738-7.738c0-54.874-34.952-101.092-35.305-101.552  c-2.6-3.391-1.959-8.248,1.432-10.848c3.39-2.6,8.247-1.96,10.848,1.432c1.572,2.05,38.5,50.899,38.5,110.968  C73.328,200.434,69.864,203.899,65.591,203.899z"/>
<path style="fill:#A4A4A5;" d="M65.419,194.442c0-54.874-34.952-101.092-35.305-101.552c-2.449-3.194-2.021-7.688,0.871-10.372  c-7.19-2.229-13.011,6.126-8.437,12.091c0.353,0.46,35.305,46.678,35.305,101.552c0,6.752,8.062,10.243,12.993,5.667  C67.701,200.846,65.419,197.911,65.419,194.442z"/>
<path style="fill:#E04E4B;" d="M460.07,260.505H386.4l-47.669-86.944c0-0.003-0.002-0.004-0.002-0.007  c-8.837-16.119-22.542-19.894-30.621-20.635H128.643c-21.366,0-39.689,9.222-49.139,19.592l-0.003,0.004  c0,0-63.63,70.426-63.632,70.429C1.024,259.379,0.049,281.178,0,285.292v97.189c0,9.382,7.607,16.986,16.987,16.986H58.57  c7.581,0,430.847,0,436.418,0c9.381,0,16.987-7.605,16.987-16.986v-66.297C511.976,266.167,460.07,260.505,460.07,260.505z"/>
<path style="fill:#C44137;" d="M25.729,382.48v-97.189c0.049-4.114,1.024-25.913,15.868-42.35  c5.054-5.593,57.385-63.514,63.632-70.429l0.003-0.004l0.238-0.261c2.129-2.312,18.829-19.331,48.902-19.331h-25.729  c-21.366,0-39.689,9.222-49.139,19.592l-0.003,0.004c0,0-63.63,70.426-63.632,70.429C1.024,259.379,0.049,281.178,0,285.292v97.189  c0,9.382,7.607,16.986,16.987,16.986h25.729C33.336,399.467,25.729,391.862,25.729,382.48z"/>
<circle style="fill:#6D6E72;" cx="117.19" cy="399.468" r="58.62"/>
<path style="fill:#585A60;" d="M79.204,399.467c0-28.851,20.85-52.816,48.3-57.693c-3.351-0.595-6.795-0.924-10.317-0.924  c-32.374,0-58.617,26.244-58.617,58.617s26.243,58.616,58.617,58.616c3.522,0,6.966-0.328,10.317-0.924  C100.053,452.282,79.204,428.317,79.204,399.467z"/>
<circle style="fill:#414356;" cx="117.19" cy="399.468" r="24.17"/>
<path style="fill:#2D313F;" d="M127.505,377.612c-15.965-7.547-34.481,4.107-34.481,21.854c0,17.732,18.502,29.41,34.481,21.856  C109.073,412.606,109.067,386.331,127.505,377.612z"/>
<circle style="fill:#6D6E72;" cx="365.59" cy="399.468" r="58.62"/>
<path style="fill:#585A60;" d="M327.783,399.467c0-28.82,20.806-52.765,48.213-57.678c-36.253-6.498-69.022,21.402-69.022,57.678  c0,32.373,26.244,58.616,58.618,58.616c3.553,0,7.026-0.334,10.404-0.939C348.589,452.231,327.783,428.286,327.783,399.467z"/>
<circle style="fill:#414356;" cx="365.59" cy="399.468" r="24.17"/>
<path style="fill:#2D313F;" d="M375.996,377.651c-16.011-7.647-34.57,4.068-34.57,21.815c0,13.346,10.819,24.167,24.166,24.167  c3.726,0,7.253-0.844,10.404-2.35C357.689,412.537,357.661,386.41,375.996,377.651z"/>
<path style="fill:#49B5CE;" d="M386.4,260.505l-47.669-86.944c0-0.003-0.002-0.004-0.002-0.007  c-8.837-16.119-22.542-19.894-30.621-20.635H128.643c-21.366,0-39.689,9.222-49.139,19.592l-0.003,0.004  c-72.449,80.19-69.569,75.889-74.404,87.991H386.4V260.505z"/>
<path style="fill:#34A4B7;" d="M5.096,260.505h25.728c4.917-12.306,2.308-8.19,74.405-87.991l0.003-0.004l0.238-0.261  c2.129-2.312,18.829-19.331,48.902-19.331h-25.729c-21.366,0-39.689,9.222-49.139,19.592l-0.003,0.004  C7.202,252.537,9.934,248.394,5.096,260.505z"/>
<rect x="192.29" y="152.918" style="fill:#585A60;" width="37.513" height="107.59"/>
<rect x="192.29" y="152.918" style="fill:#414356;" width="18.756" height="107.59"/>
<path style="fill:#585A60;" d="M5.096,260.505h60.495v-72.594C8.581,251.003,9.795,248.742,5.096,260.505z"/>
<path style="fill:#414356;" d="M5.096,260.505h25.728c5.062-12.669,8.811-15.39,34.767-44.119v-28.475  C8.805,250.754,9.8,248.729,5.096,260.505z"/>
<path style="fill:#FF8828;" d="M461.824,325.652c0,11.192,9.076,20.265,20.267,20.265h29.885c0-32.244,0.26-33.65-0.916-40.531  h-28.97C470.899,305.385,461.824,314.459,461.824,325.652z"/>
<path style="fill:#ED6E18;" d="M464.558,315.519c-1.728,2.983-2.734,6.437-2.734,10.133c0,11.192,9.076,20.265,20.267,20.265h29.885  v-20.266H482.09C474.595,325.651,468.064,321.57,464.558,315.519z"/>
<path style="fill:#C44137;" d="M287.475,301.039H248.79c-4.274,0-7.738-3.464-7.738-7.738s3.464-7.738,7.738-7.738h38.686  c4.273,0,7.738,3.464,7.738,7.738S291.749,301.039,287.475,301.039z"/>
<circle style="fill:#FF8828;" cx="19.238" cy="73.148" r="19.236"/>
<path style="fill:#ED6E18;" d="M17.393,54.007C7.634,54.936,0,63.149,0,73.149c0,19.291,25.312,26.47,35.524,10.202  C19.559,84.876,8.967,67.424,17.393,54.007z"/>
<g>
</g>
<g>
</g>
<g>
</g>
<g>
</g>
<g>
</g>
<g>
</g>
<g>
</g>
<g>
</g>
<g>
</g>
<g>
</g>
<g>
</g>
<g>
</g>
<g>
</g>
<g>
</g>
<g>
</g>
</svg>
