<?xml version="1.0" encoding="iso-8859-1"?>
<!-- Generator: Adobe Illustrator 19.0.0, SVG Export Plug-In . SVG Version: 6.00 Build 0)  -->
<svg version="1.1" id="Layer_1" xmlns="http://www.w3.org/2000/svg" xmlns:xlink="http://www.w3.org/1999/xlink" x="0px" y="0px"
	 viewBox="0 0 512 512" style="enable-background:new 0 0 512 512;" xml:space="preserve">
<path style="fill:#F9E0D2;" d="M458.264,245.255c-3.083-11.008-7.026-21.63-11.766-31.816l-32.51-47.011l-43.672-35.965
	c-3.879,1.721-12.177,2.569-16.698,2.569c-5.189,0-66.343-31.161-70.646-33.396c-12.832,15.799-42.452,174.289-219.566,118.44
	c-3.815,8.76-7.065,17.841-9.685,27.179c-5.048,18.047-7.745,37.07-7.745,56.722c0,19.652,2.697,38.675,7.745,56.722
	C78.474,447.147,159.652,512,256,512c96.335,0,177.526-64.853,202.277-153.301c26.396-5.395,46.266-28.733,46.266-56.722
	C504.544,273.976,484.66,250.625,458.264,245.255z"/>
<path style="fill:#F7B239;" d="M370.317,130.463c0,12.125-4.936,7.953-25.009,24.854c-12.832,15.799-104.787,118.607-281.901,62.759
	c29.774-68.244,94.742-117.605,171.99-125.12l-14.399,19.755l77.389-38.765C298.272,75.038,370.317,129.333,370.317,130.463z"/>
<path style="fill:#E09B2D;" d="M309.948,98.955c-68.077,18.047-122.589,69.412-145.016,135.575
	c-30.018,0.128-63.851-4.573-101.524-16.454C95.789,143.847,169.838,91.955,256,91.955C274.65,91.955,292.736,94.395,309.948,98.955
	z"/>
<path style="fill:#F95428;" d="M390.817,130.823c0.116-1.092,0.18-2.196,0.18-3.327c0-17.302-14.026-31.328-31.315-31.328
	c-4.521,0-8.811,0.951-12.691,2.685L303.14,0l-67.743,92.957l-14.399,19.755l107.535,11.457c-0.116,1.092-0.18,2.196-0.18,3.327
	c0,12.125,6.885,22.632,16.955,27.821c4.303,2.235,9.184,3.494,14.373,3.494c4.521,0,8.811-0.963,12.691-2.685l43.839,98.865
	l30.288-41.552l51.867-71.146L390.817,130.823z"/>
<path style="fill:#E5CDC1;" d="M161.618,358.699c-5.048-18.047-7.745-37.07-7.745-56.722c0-19.652,2.697-38.675,7.745-56.722
	c1.015-3.609,2.119-7.193,3.314-10.725c-30.018,0.128-63.851-4.573-101.524-16.454c-3.828,8.76-7.065,17.841-9.685,27.179v0.001
	v-0.001c-26.396,5.382-46.266,28.721-46.266,56.722c0,27.988,19.871,51.327,46.266,56.722l0,0l0,0
	C78.474,447.147,159.665,512,256,512c18.65,0,36.736-2.44,53.947-7C238.236,486.002,181.578,430.026,161.618,358.699z"/>
<g>
	<path style="fill:#333333;" d="M205.643,341.572c5.322,0,9.633-4.313,9.633-9.633c0-23.033-18.739-41.771-41.772-41.771
		s-41.771,18.738-41.771,41.771c0,5.32,4.312,9.633,9.633,9.633c5.322,0,9.633-4.313,9.633-9.633
		c0-12.409,10.095-22.504,22.504-22.504c12.409,0,22.505,10.095,22.505,22.504C196.009,337.259,200.321,341.572,205.643,341.572z"/>
	<path style="fill:#333333;" d="M338.478,290.168c-23.033,0-41.772,18.738-41.772,41.771c0,5.32,4.312,9.633,9.633,9.633
		s9.633-4.313,9.633-9.633c0-12.409,10.095-22.504,22.505-22.504c12.411,0,22.505,10.095,22.505,22.504
		c0,5.32,4.312,9.633,9.633,9.633c5.322,0,9.633-4.313,9.633-9.633C380.249,308.906,361.511,290.168,338.478,290.168z"/>
	<path style="fill:#333333;" d="M301.329,396.776c-24.486,24.486-64.326,24.486-88.812,0c-3.763-3.762-9.862-3.762-13.624,0
		s-3.762,9.862,0,13.623c15.511,15.511,36.12,24.054,58.031,24.054s42.52-8.542,58.031-24.054c3.762-3.762,3.762-9.862,0-13.623
		C311.191,393.014,305.092,393.014,301.329,396.776z"/>
</g>
<path style="fill:#E5CDC1;" d="M243.136,365.14h25.71c5.322,0,9.633-4.313,9.633-9.633c0-5.32-4.312-9.633-9.633-9.633h-25.71
	c-5.322,0-9.633,4.313-9.633,9.633C233.503,360.826,237.816,365.14,243.136,365.14z"/>
<g>
</g>
<g>
</g>
<g>
</g>
<g>
</g>
<g>
</g>
<g>
</g>
<g>
</g>
<g>
</g>
<g>
</g>
<g>
</g>
<g>
</g>
<g>
</g>
<g>
</g>
<g>
</g>
<g>
</g>
</svg>
