<?xml version="1.0" encoding="iso-8859-1"?>
<!-- Generator: Adobe Illustrator 19.0.0, SVG Export Plug-In . SVG Version: 6.00 Build 0)  -->
<svg version="1.1" id="Layer_1" xmlns="http://www.w3.org/2000/svg" xmlns:xlink="http://www.w3.org/1999/xlink" x="0px" y="0px"
	 viewBox="0 0 512 512" style="enable-background:new 0 0 512 512;" xml:space="preserve">
<path style="fill:#2BA5F7;" d="M284.641,115.543L284.641,115.543c-9.585,0-17.355-7.77-17.355-17.355V63.379H53.835v34.808
	c0,9.585-7.77,17.355-17.355,17.355h-0.014c-14.293,0-25.886,11.593-25.886,25.9v331.385C10.58,494.463,28.117,512,49.737,512
	h221.632c21.621,0,39.158-17.537,39.158-39.172v-57.324V141.443C310.527,127.136,298.934,115.543,284.641,115.543z"/>
<path style="fill:#F7B239;" d="M491.804,419.001H370.489c8.304-26.539,28.775-52.853,60.658-69.397
	C463.045,366.148,483.517,392.462,491.804,419.001z"/>
<path style="fill:#E09B2D;" d="M431.147,349.604v69.397h-60.658C378.793,392.462,399.264,366.148,431.147,349.604z"/>
<g>
	<path style="fill:#2197D8;" d="M118.367,472.828V141.443c0-14.307,11.593-25.9,25.886-25.9H95.738V63.379H53.835v34.794
		c0,9.592-7.777,17.369-17.369,17.369l0,0c-14.293,0-25.886,11.593-25.886,25.9v331.385C10.58,494.463,28.117,512,49.737,512
		h107.787C135.904,512,118.367,494.463,118.367,472.828z"/>
	<rect x="53.835" y="63.379" style="fill:#2197D8;" width="213.451" height="25.131"/>
</g>
<g>
	<path style="fill:#F95428;" d="M374.862,436.482h-211.86c-5.793,0-10.489-4.696-10.489-10.489c0-5.793,4.696-10.489,10.489-10.489
		h211.861c5.794,0,10.489,4.696,10.489,10.489C385.352,431.786,380.656,436.482,374.862,436.482z"/>
	<path style="fill:#F95428;" d="M501.421,415.504v47.94c0,26.823-21.733,48.555-48.541,48.555h-43.451
		c-26.823,0-48.555-21.732-48.555-48.555v-47.94h17.565h105.418H501.421z"/>
</g>
<path style="fill:#D33924;" d="M413.313,463.445v-47.94h-34.875h-17.565v47.94c0,26.823,21.733,48.555,48.555,48.555h43.451
	c1.516,0,3.014-0.08,4.493-0.215C432.66,509.516,413.313,488.752,413.313,463.445z"/>
<path style="fill:#F95428;" d="M289.592,6.267V67.32c0,3.461-2.805,6.267-6.267,6.267h-16.039H53.835H37.783
	c-3.461,0-6.267-2.805-6.267-6.267V6.267C31.515,2.805,34.32,0,37.783,0h245.542C286.786,0,289.592,2.805,289.592,6.267z"/>
<path style="fill:#D33924;" d="M103.982,0v73.588h-6.264H37.783l0,0c-3.461,0-6.267-2.805-6.267-6.267V6.267
	C31.515,2.805,34.32,0,37.783,0H103.982z"/>
<g>
</g>
<g>
</g>
<g>
</g>
<g>
</g>
<g>
</g>
<g>
</g>
<g>
</g>
<g>
</g>
<g>
</g>
<g>
</g>
<g>
</g>
<g>
</g>
<g>
</g>
<g>
</g>
<g>
</g>
</svg>
