<?xml version="1.0" encoding="iso-8859-1"?>
<!-- Generator: Adobe Illustrator 19.0.0, SVG Export Plug-In . SVG Version: 6.00 Build 0)  -->
<svg version="1.1" id="Layer_1" xmlns="http://www.w3.org/2000/svg" xmlns:xlink="http://www.w3.org/1999/xlink" x="0px" y="0px"
	 viewBox="0 0 512 512" style="enable-background:new 0 0 512 512;" xml:space="preserve">
<path style="fill:#F9E0D2;" d="M512,256c0-28.841-20.48-52.893-47.668-58.424l0,0l0,0c-24.29-86.789-101.342-151.536-194.388-157.45
	c-4.617-0.304-9.274-0.45-13.958-0.45c-2.818,0-5.61,0.053-8.401,0.172c-25.653,0.966-50.181,6.417-72.791,15.598
	c-6.165,2.487-12.198,5.266-18.072,8.295c-52.708,27.28-92.782,75.596-109.081,133.834c-5.199,18.588-7.978,38.182-7.978,58.424
	s2.778,39.835,7.978,58.424c25.494,91.102,109.121,157.9,208.346,157.9c99.238,0,182.851-66.798,208.346-157.9l0,0
	C491.52,308.893,512,284.841,512,256z"/>
<path style="fill:#E5CDC1;" d="M158.768,314.424c-5.199-18.588-7.978-38.182-7.978-58.424s2.778-39.835,7.978-58.424
	c20.559-73.454,78.925-131.112,152.785-150.687c-17.732-4.699-36.355-7.213-55.566-7.213c-99.225,0-182.852,66.811-208.346,157.9
	l0,0l0,0C20.454,203.133,0,227.159,0,256s20.454,52.867,47.641,58.424l0,0c25.494,91.102,109.121,157.9,208.346,157.9
	c19.211,0,37.834-2.514,55.566-7.212C237.692,445.539,179.326,387.888,158.768,314.424z"/>
<g>
	<path style="fill:#333333;" d="M204.132,296.788c5.481,0,9.922-4.443,9.922-9.922c0-23.724-19.301-43.024-43.025-43.024
		s-43.024,19.3-43.024,43.024c0,5.48,4.441,9.922,9.922,9.922c5.481,0,9.922-4.443,9.922-9.922
		c0-12.781,10.397-23.179,23.179-23.179s23.18,10.397,23.18,23.179C194.209,292.345,198.651,296.788,204.132,296.788z"/>
	<path style="fill:#333333;" d="M340.952,243.842c-23.724,0-43.025,19.3-43.025,43.024c0,5.48,4.441,9.922,9.922,9.922
		c5.481,0,9.922-4.443,9.922-9.922c0-12.781,10.397-23.179,23.18-23.179s23.18,10.397,23.18,23.179c0,5.48,4.441,9.922,9.922,9.922
		c5.481,0,9.922-4.443,9.922-9.922C383.976,263.142,364.676,243.842,340.952,243.842z"/>
	<path style="fill:#333333;" d="M302.689,353.648c-25.22,25.22-66.256,25.22-91.476,0c-3.876-3.875-10.158-3.875-14.033,0
		c-3.875,3.875-3.875,10.158,0,14.032c15.977,15.977,37.204,24.776,59.772,24.776s43.795-8.798,59.772-24.776
		c3.875-3.875,3.875-10.158,0-14.032C312.847,349.773,306.565,349.773,302.689,353.648z"/>
</g>
<path style="fill:#E5CDC1;" d="M242.75,321.062h26.481c5.481,0,9.922-4.443,9.922-9.922s-4.441-9.922-9.922-9.922H242.75
	c-5.481,0-9.922,4.443-9.922,9.922S237.27,321.062,242.75,321.062z"/>
<g>
	<path style="fill:#995C0D;" d="M286.23,165.904c-1.548,3.876-5.279,6.245-9.221,6.245c-1.217,0-2.474-0.238-3.678-0.714
		c-79.975-31.99-109.703-91.287-116.609-107.692c5.874-3.03,11.907-5.808,18.072-8.295c5.16,12.211,32.215,68.095,105.906,97.558
		C285.794,155.042,288.268,160.824,286.23,165.904z"/>
	<path style="fill:#995C0D;" d="M330.18,104.543c-1.654,3.651-5.266,5.808-9.036,5.808c-1.376,0-2.765-0.278-4.101-0.886
		c-46.014-20.917-65.263-59.919-69.457-69.616c2.792-0.119,5.583-0.172,8.401-0.172c4.683,0,9.34,0.146,13.958,0.45
		c7.462,13.23,24.462,37.256,55.315,51.266C330.247,93.668,332.456,99.542,330.18,104.543z"/>
</g>
<g>
</g>
<g>
</g>
<g>
</g>
<g>
</g>
<g>
</g>
<g>
</g>
<g>
</g>
<g>
</g>
<g>
</g>
<g>
</g>
<g>
</g>
<g>
</g>
<g>
</g>
<g>
</g>
<g>
</g>
</svg>
