<?xml version="1.0" encoding="iso-8859-1"?>
<!-- Generator: Adobe Illustrator 19.0.0, SVG Export Plug-In . SVG Version: 6.00 Build 0)  -->
<svg version="1.1" id="Layer_1" xmlns="http://www.w3.org/2000/svg" xmlns:xlink="http://www.w3.org/1999/xlink" x="0px" y="0px"
	 viewBox="0 0 512 512" style="enable-background:new 0 0 512 512;" xml:space="preserve">
<path style="fill:#2BA5F7;" d="M313.291,54.408l-15.454,163.754l-44.507-25.048l-114.132-64.237l-0.567-0.319
	c24.433-31.995,59.074-56.605,100.828-68.278C264.224,53.357,289.236,51.62,313.291,54.408z"/>
<g>
	<path style="fill:#F7B239;" d="M139.199,128.877l114.132,64.237L230.41,315.139v0.012c-40.241-24.398-71.657-63.552-85.327-112.442
		C138.147,177.933,136.422,152.933,139.199,128.877z"/>
	<path style="fill:#F7B239;" d="M297.837,218.163l150.084,84.465c-19.116,14.863-41.399,26.359-66.163,33.283
		c-53.238,14.887-107.527,5.813-151.349-20.759v-0.012l22.921-122.024L297.837,218.163z"/>
</g>
<path style="fill:#2197D8;" d="M273.541,75.69c12.026-6.391,24.921-11.593,38.577-15.41c0.211-0.059,0.424-0.111,0.634-0.169
	l0.539-5.703c-24.055-2.788-49.067-1.052-73.831,5.872c-41.754,11.673-76.395,36.283-100.828,68.278l0.567,0.319l74.834,42.119
	C215.207,131.597,237.545,94.821,273.541,75.69z"/>
<path style="fill:#E09B2D;" d="M301.295,283.252c-39.82-24.143-70.986-62.739-84.879-110.915l-77.217-43.46
	c-2.776,24.055-1.052,49.055,5.884,73.831c13.67,48.89,45.086,88.044,85.327,112.442c43.821,26.572,98.111,35.646,151.349,20.759
	c22.56-6.308,43.053-16.42,60.978-29.406C392.718,317.705,342.402,308.178,301.295,283.252z"/>
<path style="fill:#666666;" d="M467.537,393.621l-10.811-92.028c-0.331-2.813-1.987-5.299-4.455-6.688L69.543,79.498
	c-10.863-6.113-23.455-7.631-35.459-4.273C22.08,78.583,12.103,86.414,5.99,97.276c-12.619,22.422-4.644,50.933,17.778,63.552
	l18.216,10.252c4.265,2.401,9.668,0.89,12.068-3.376c2.4-4.265,0.888-9.668-3.377-12.068L32.46,145.385
	c-13.907-7.827-18.854-25.509-11.027-39.417c3.791-6.737,9.98-11.594,17.425-13.677c7.443-2.082,15.255-1.141,21.992,2.65
	L243.446,197.71l-40.975,216.506l17.413,3.296l39.863-210.626l179.902,101.251l10.285,87.552c0.53,4.51,4.357,7.829,8.789,7.829
	c0.345,0,0.695-0.02,1.046-0.061C464.63,402.885,468.106,398.481,467.537,393.621z"/>
<path style="fill:#808080;" d="M222.6,375.351c16.64,5.931,28.549,21.826,28.549,40.512c0,23.749-19.256,42.998-43.005,42.998
	s-42.998-19.249-42.998-42.998c0-23.756,19.249-43.005,42.998-43.005C213.214,372.858,218.083,373.736,222.6,375.351z"/>
<path style="fill:#2BA5F7;" d="M208.145,392.307c13.009,0,23.549,10.547,23.549,23.556c0,13.001-10.54,23.549-23.549,23.549
	c-13.001,0-23.549-10.547-23.549-23.549C184.595,402.855,195.142,392.307,208.145,392.307z"/>
<path style="fill:#2197D8;" d="M208.143,392.307c-3.678,0-7.159,0.845-10.259,2.348c7.866,3.814,13.293,11.878,13.293,21.209
	c0,9.325-5.427,17.388-13.293,21.202c3.101,1.503,6.581,2.348,10.259,2.348c13.001,0,23.549-10.547,23.549-23.549
	C231.693,402.855,221.146,392.307,208.143,392.307z"/>
<path style="fill:#808080;" d="M483.45,375.351C500.09,381.282,512,397.177,512,415.863c0,23.749-19.256,42.998-43.005,42.998
	s-42.998-19.249-42.998-42.998c0-23.756,19.249-43.005,42.998-43.005C474.064,372.858,478.934,373.736,483.45,375.351z"/>
<path style="fill:#2BA5F7;" d="M468.995,392.307c13.009,0,23.549,10.547,23.549,23.556c0,13.001-10.54,23.549-23.549,23.549
	c-13.001,0-23.549-10.547-23.549-23.549C445.445,402.855,455.993,392.307,468.995,392.307z"/>
<path style="fill:#2197D8;" d="M468.995,392.307c-3.678,0-7.159,0.845-10.259,2.348c7.866,3.814,13.293,11.878,13.293,21.209
	c0,9.325-5.427,17.388-13.293,21.202c3.101,1.503,6.581,2.348,10.259,2.348c13.001,0,23.549-10.547,23.549-23.549
	C492.544,402.855,481.997,392.307,468.995,392.307z"/>
<g>
</g>
<g>
</g>
<g>
</g>
<g>
</g>
<g>
</g>
<g>
</g>
<g>
</g>
<g>
</g>
<g>
</g>
<g>
</g>
<g>
</g>
<g>
</g>
<g>
</g>
<g>
</g>
<g>
</g>
</svg>
