<?xml version="1.0" encoding="iso-8859-1"?>
<!-- Generator: Adobe Illustrator 19.0.0, SVG Export Plug-In . SVG Version: 6.00 Build 0)  -->
<svg version="1.1" id="Layer_1" xmlns="http://www.w3.org/2000/svg" xmlns:xlink="http://www.w3.org/1999/xlink" x="0px" y="0px"
	 viewBox="0 0 512 512" style="enable-background:new 0 0 512 512;" xml:space="preserve">
<path style="fill:#C2E5F9;" d="M473.72,183.847H43.903c-0.55-2.297-0.837-4.701-0.837-7.178c0-17.178,13.924-31.103,31.103-31.103
	c5.323,0,10.324,1.34,14.702,3.696c5.192-17.358,21.281-30.014,40.326-30.014c15.958,0,29.835,8.876,36.976,21.963
	c5.682-6.149,13.805-10.001,22.837-10.001c4.259,0,8.314,0.861,12.022,2.404c6.125-15.659,21.353-26.772,39.202-26.772
	c17.095,0,31.809,10.216,38.388,24.858c5.467-4.773,12.621-7.668,20.444-7.668c5.108,0,9.917,1.244,14.176,3.421
	c7.584-11.006,20.277-18.219,34.656-18.219c16.772,0,31.258,9.821,38.017,24.033c4.677-2.823,10.168-4.45,16.03-4.45
	c15.3,0,28.004,11.053,30.612,25.6c3.158-1.077,6.532-1.675,10.061-1.675C459.795,152.745,473.72,166.669,473.72,183.847z"/>
<g>
	<circle style="fill:#FFFFFF;" cx="137.929" cy="140.692" r="8.972"/>
	<circle style="fill:#FFFFFF;" cx="246.227" cy="128.108" r="8.972"/>
	<circle style="fill:#FFFFFF;" cx="353.459" cy="133.515" r="8.972"/>
	<circle style="fill:#FFFFFF;" cx="407.686" cy="151.267" r="8.972"/>
</g>
<path style="fill:#2BA5F7;" d="M506.043,186.216c-3.684-3.684-8.757-5.957-14.379-5.957H473.72H43.903H20.336
	C9.104,180.259,0,189.362,0,200.595c0,5.61,2.273,10.695,5.957,14.379c3.684,3.684,8.757,5.957,14.379,5.957h5.981v96.144
	c0,48.652,39.429,88.081,88.081,88.081h180.576c94.062,0,172.01-68.964,186.055-159.091c1.28-8.218,2.034-16.604,2.213-25.133l0,0
	h8.422c11.233,0,20.336-9.116,20.336-20.336C512,194.973,509.727,189.901,506.043,186.216z"/>
<path style="fill:#2197D8;" d="M481.029,246.065c1.28-8.218,2.034-16.604,2.213-25.133H106.463c-5.622,0-10.695-2.273-14.379-5.957
	c-3.684-3.684-5.957-8.769-5.957-14.379c0-11.233,9.104-20.336,20.336-20.336h-62.56H20.336C9.104,180.259,0,189.362,0,200.595
	c0,5.61,2.273,10.695,5.957,14.379c3.684,3.684,8.757,5.957,14.379,5.957h5.981v25.133v71.01c0,48.652,39.429,88.081,88.081,88.081
	h76.714c-48.652,0-88.081-39.429-88.081-88.081v-71.01L481.029,246.065L481.029,246.065z"/>
<g>
</g>
<g>
</g>
<g>
</g>
<g>
</g>
<g>
</g>
<g>
</g>
<g>
</g>
<g>
</g>
<g>
</g>
<g>
</g>
<g>
</g>
<g>
</g>
<g>
</g>
<g>
</g>
<g>
</g>
</svg>
