<?xml version="1.0" encoding="iso-8859-1"?>
<!-- Generator: Adobe Illustrator 19.0.0, SVG Export Plug-In . SVG Version: 6.00 Build 0)  -->
<svg version="1.1" id="Layer_1" xmlns="http://www.w3.org/2000/svg" xmlns:xlink="http://www.w3.org/1999/xlink" x="0px" y="0px"
	 viewBox="0 0 512 512" style="enable-background:new 0 0 512 512;" xml:space="preserve">
<circle style="fill:#F2F2F2;" cx="256.004" cy="256" r="255.986"/>
<g>
	<path style="fill:#2BA5F7;" d="M486.14,368.248c-33.707,68.987-97.532,120.571-174.356,137.646
		c-0.729,0.157-1.459,0.315-2.188,0.472c-0.729,0.172-1.459,0.315-2.188,0.458c-0.829,0.172-1.673,0.343-2.503,0.501
		c-1.087,0.215-2.174,0.415-3.275,0.615c-2.26,0.4-4.548,0.787-6.836,1.13c-1.144,0.186-2.302,0.343-3.447,0.501
		c-1.158,0.172-2.302,0.315-3.461,0.458c-5.792,0.715-11.627,1.244-17.519,1.573c-1.101,0.057-2.217,0.114-3.332,0.157
		c-0.086,0.014-0.172,0.014-0.257,0.014c-0.844,0.043-1.688,0.072-2.531,0.1c-0.715,0.014-1.43,0.043-2.145,0.057
		c-0.672,0.014-1.359,0.029-2.045,0.043c-1.301,0.014-2.603,0.029-3.918,0.029c5.42-6.006,10.683-12.17,15.788-18.462
		c61.108-75.366,98.819-170.481,102.037-274.305c7.179-15.76,7.351-9.51,17.19-19.335c0.815-0.815,27.658,13.815,28.344,12.899
		C453.277,248.22,491.832,311.802,486.14,368.248z"/>
	<path style="fill:#2BA5F7;" d="M489.744,151.432c1.773,3.947,3.447,7.966,5.02,12.013c-6.407-2.403-40.243-13.815-78.798-1.63
		c-6.936,4.476-20.379,5.32-26.242-0.529c-10.74-10.754-27.887-12.871-23.053-39.785c-7.065-38.612-18.963-75.566-35.051-110.145
		C402.266,33.164,459.855,84.733,489.744,151.432z"/>
	<path style="fill:#2BA5F7;" d="M331.891,183.28c-79.055,25.27-152.333,63.51-217.288,112.248
		c-30.933,23.182-59.978,48.752-86.878,76.438C9.993,337.158,0.011,297.744,0.011,256c0-58.062,19.335-111.618,51.926-154.578
		c27.529-6.164,56.16-9.424,85.562-9.424c10.912,0,21.709,0.443,32.391,1.33c54.887,4.519,106.556,20.407,152.619,45.319
		C347.536,152.705,360.407,173.441,331.891,183.28z"/>
</g>
<path style="fill:#2197D8;" d="M163.484,101.422c-32.592,42.96-51.926,96.517-51.926,154.578c0,13.443,1.044,26.643,3.046,39.528
	c-30.933,23.182-59.978,48.752-86.878,76.438C9.993,337.158,0.011,297.744,0.011,256c0-58.062,19.335-111.618,51.926-154.578
	c27.529-6.164,56.16-9.424,85.562-9.424c10.912,0,21.709,0.443,32.391,1.33C167.689,95.987,165.558,98.676,163.484,101.422z"/>
<g>
	<path style="fill:#E6E6E6;" d="M137.499,91.998c-29.403,0-58.033,3.261-85.562,9.424C98.673,39.799,172.694,0,256.011,0
		c19.163,0,37.826,2.117,55.802,6.106c-56.674,12.599-106.284,43.932-141.922,87.221C159.208,92.441,148.411,91.998,137.499,91.998z
		"/>
	<path style="fill:#E6E6E6;" d="M311.784,505.894c-17.919,3.99-36.539,6.092-55.645,6.106h-0.129
		c-99.649,0-185.983-56.917-228.285-140.034c26.9-27.686,55.945-53.256,86.878-76.438c4.19,27.129,12.642,52.842,24.669,76.438
		C173.437,439.108,236.347,489.147,311.784,505.894z"/>
</g>
<path style="fill:#2197D8;" d="M311.784,505.894c-0.729,0.157-1.459,0.315-2.188,0.472c-0.729,0.172-1.459,0.315-2.188,0.458
	c-0.829,0.172-1.673,0.343-2.503,0.501c-1.087,0.215-2.174,0.415-3.275,0.615c-2.26,0.4-4.548,0.787-6.836,1.13
	c-1.144,0.186-2.302,0.343-3.447,0.501c-1.158,0.172-2.302,0.315-3.461,0.458c-5.792,0.715-11.627,1.244-17.519,1.573
	c-1.101,0.057-2.217,0.114-3.332,0.157c-0.086,0.014-0.172,0.014-0.257,0.014c-0.844,0.043-1.688,0.072-2.531,0.1
	c-0.715,0.014-1.43,0.043-2.145,0.057c-0.672,0.014-1.359,0.029-2.045,0.043c-1.301,0.014-2.603,0.029-3.918,0.029
	c5.42-6.006,10.683-12.17,15.788-18.462C284.727,498.7,298.055,502.847,311.784,505.894z"/>
<path style="fill:#F95428;" d="M415.966,161.814c11.069,18.877,12.885,38.784,3.532,50.983c-0.686,0.915-1.444,1.788-2.26,2.603
	c-9.839,9.825-26.328,10.668-43.274,3.833v-0.014c-9.925-3.99-19.993-10.611-28.974-19.592c-5.163-5.163-9.553-10.683-13.1-16.346
	c-9.81-15.588-13.3-32.134-9.381-44.633c1.344-4.29,3.575-8.123,6.707-11.269c8.709-8.695,22.624-10.34,37.454-5.878
	c11.741,3.532,24.054,10.912,34.794,21.666C407.328,149.015,412.191,155.365,415.966,161.814z"/>
<g>
</g>
<g>
</g>
<g>
</g>
<g>
</g>
<g>
</g>
<g>
</g>
<g>
</g>
<g>
</g>
<g>
</g>
<g>
</g>
<g>
</g>
<g>
</g>
<g>
</g>
<g>
</g>
<g>
</g>
</svg>
