<?xml version="1.0" encoding="iso-8859-1"?>
<!-- Generator: Adobe Illustrator 19.0.0, SVG Export Plug-In . SVG Version: 6.00 Build 0)  -->
<svg version="1.1" id="Layer_1" xmlns="http://www.w3.org/2000/svg" xmlns:xlink="http://www.w3.org/1999/xlink" x="0px" y="0px"
	 viewBox="0 0 512 512" style="enable-background:new 0 0 512 512;" xml:space="preserve">
<path style="fill:#B27214;" d="M256.007,0c-6.505,0-12.396,2.632-16.657,6.894c-4.274,4.261-6.906,10.152-6.906,16.657v16.958
	v157.36c7.558-1.805,15.454-2.745,23.563-2.745s15.993,0.94,23.551,2.745V40.509V23.551C279.558,10.541,269.017,0,256.007,0z"/>
<path style="fill:#995C0D;" d="M256.007,0v195.124c-8.109,0-16.005,0.94-23.563,2.745V23.551c0-6.505,2.632-12.396,6.906-16.657
	C243.611,2.632,249.502,0,256.007,0z"/>
<g>
	<path style="fill:#F7B239;" d="M279.558,194.109c45.059,10.616,78.586,51.087,78.586,99.392v49.408
		c0,8.611,1.542,17.071,4.462,25.017c2.933,7.946,7.257,15.379,12.847,21.921c11.167,13.098,17.296,29.742,17.296,46.951
		l-137.996,25.719l-135.501-25.719c0-8.598,1.529-17.071,4.462-25.017c2.933-7.946,7.257-15.391,12.847-21.934
		c11.167-13.085,17.296-29.73,17.296-46.939v-49.408c0-28.213,11.431-53.744,29.918-72.219
		c13.173-13.173,29.918-22.761,48.668-27.173c7.558-1.805,15.454-2.745,23.563-2.745C264.116,191.364,272,192.304,279.558,194.109z"
		/>
	<path style="fill:#F7B239;" d="M214.708,474.336l40.045-11.819l35.295,11.819c0,20.806-16.858,37.664-37.664,37.664
		S214.708,495.142,214.708,474.336z"/>
</g>
<path style="fill:#E09B2D;" d="M241.029,474.336l26.055-7.691l-12.331-4.129l-40.045,11.819c0,20.806,16.87,37.664,37.676,37.664
	c4.63,0,9.063-0.84,13.159-2.366C251.229,504.297,241.029,490.512,241.029,474.336z"/>
<path style="fill:#F4DE3B;" d="M392.749,436.798v17.439c0,11.101-8.999,20.099-20.099,20.099h-82.602h-75.34h-75.357
	c-11.101,0-20.099-8.999-20.099-20.099v-17.439H392.749z"/>
<path style="fill:#E0C734;" d="M185.05,436.798v37.538h-21.796h-19.41h-4.493c-11.101,0-20.099-8.999-20.099-20.099v-17.439H185.05z
	"/>
<path style="fill:#E09B2D;" d="M202.359,389.847c11.167-13.085,17.296-29.73,17.296-46.939v-49.408
	c0-28.213,11.431-53.744,29.918-72.219c10.939-10.939,24.348-19.395,39.316-24.478c-3.051-1.037-6.159-1.948-9.333-2.695
	c-7.558-1.805-15.441-2.745-23.551-2.745s-16.005,0.94-23.563,2.745c-18.75,4.412-35.495,14-48.668,27.173
	c-18.487,18.475-29.918,44.006-29.918,72.219v49.408c0,17.209-6.129,33.853-17.296,46.939c-5.59,6.543-9.914,13.988-12.847,21.934
	c-2.933,7.946-4.462,16.419-4.462,25.017h65.798c0-8.598,1.529-17.071,4.462-25.017C192.445,403.835,196.769,396.39,202.359,389.847
	z"/>
<g>
</g>
<g>
</g>
<g>
</g>
<g>
</g>
<g>
</g>
<g>
</g>
<g>
</g>
<g>
</g>
<g>
</g>
<g>
</g>
<g>
</g>
<g>
</g>
<g>
</g>
<g>
</g>
<g>
</g>
</svg>
