<?xml version="1.0" encoding="iso-8859-1"?>
<!-- Generator: Adobe Illustrator 19.0.0, SVG Export Plug-In . SVG Version: 6.00 Build 0)  -->
<svg version="1.1" id="Layer_1" xmlns="http://www.w3.org/2000/svg" xmlns:xlink="http://www.w3.org/1999/xlink" x="0px" y="0px"
	 viewBox="0 0 512 512" style="enable-background:new 0 0 512 512;" xml:space="preserve">
<path style="fill:#9AD14B;" d="M369.535,66.439l0.797,8.925c5.99,67.154-46.911,124.984-114.331,124.984l0,0
	c-67.42,0-120.321-57.83-114.331-124.984l0.797-8.925C145.647,30.742,117.526,0,81.688,0l0,0C47.989,0,20.671,27.319,20.671,61.017
	v316.809C20.671,451.928,80.743,512,154.845,512h202.31c74.102,0,134.174-60.072,134.174-134.174V61.017
	C491.328,27.319,464.011,0,430.311,0l0,0C394.472,0,366.351,30.742,369.535,66.439z"/>
<path style="fill:#90BC42;" d="M74.6,377.826V61.017c0-24.017,13.882-44.783,34.052-54.739C100.543,2.275,91.403,0,81.688,0l0,0
	C47.989,0,20.671,27.319,20.671,61.017v316.809C20.671,451.928,80.743,512,154.845,512h53.93C134.671,512,74.6,451.928,74.6,377.826
	z"/>
<g>
	<path style="fill:#FFFFFF;" d="M309.779,342.647c-10.149-17.756-46.549-72.631-110.941-77.23
		c-5.923-0.426-11.104,4.049-11.527,9.991c-0.426,5.943,4.047,11.103,9.99,11.527c16.174,1.155,30.362,6.368,42.528,13.473
		c-11.46,31.579-31.141,40.572-34.625,41.944c-22.888,1.473-41.002,20.494-41.002,43.753c0,24.219,19.636,43.855,43.855,43.855
		s43.855-19.637,43.855-43.855c0-15.098-7.633-28.415-19.249-36.303c8.531-7.591,18.019-19.153,25.248-36.43
		c13.088,11.238,22.61,23.725,28.462,32.548c-15.474,6.774-26.29,22.213-26.29,40.185c0,24.219,19.636,43.855,43.855,43.855
		s43.855-19.637,43.855-43.855C347.794,363.867,331.236,345.505,309.779,342.647z"/>
	<path style="fill:#FFFFFF;" d="M303.939,440.746c-20.643,0-38.647-11.504-47.94-28.439c-9.292,16.935-27.297,28.439-47.94,28.439
		c-30.129,0-54.642-24.513-54.642-54.642c0-28.054,21.406-51.549,49.093-54.353c3.882-1.898,14.92-8.586,23.54-26.374
		c-9.544-4.385-19.437-6.964-29.516-7.684c-5.748-0.411-10.992-3.035-14.766-7.389c-3.775-4.355-5.628-9.919-5.215-15.668
		c0.408-5.744,3.036-10.991,7.4-14.767c4.359-3.774,9.935-5.622,15.661-5.211c65.07,4.648,103.565,56.497,116.95,78.286
		c24.3,5.761,42.019,27.724,42.019,53.16C358.582,416.233,334.069,440.746,303.939,440.746z M248.391,349.239
		c2.966,3.245,5.517,6.821,7.61,10.646c3.646-6.663,8.667-12.543,14.78-17.212c-2.777-3.593-6.009-7.453-9.683-11.347
		C257.366,337.87,253.123,343.851,248.391,349.239z"/>
</g>
<path style="fill:#995C0D;" d="M312.69,348.055c-1.539-3.153-38.567-77.262-113.851-82.639c-5.923-0.426-11.104,4.049-11.527,9.991
	c-0.426,5.943,4.047,11.103,9.99,11.527c16.174,1.155,30.362,6.368,42.528,13.473c-12.314,33.936-34.136,41.793-35.132,42.134
	l3.367,10.247l3.249,10.286c1.353-0.427,29.965-9.938,46.601-49.704c23.1,19.834,35.104,43.572,35.397,44.161
	c1.873,3.823,5.707,6.046,9.696,6.046c1.588,0,3.201-0.352,4.724-1.096C313.084,359.867,315.304,353.408,312.69,348.055z"/>
<g>
	<circle style="fill:#F95428;" cx="208.064" cy="386.1" r="43.855"/>
	<circle style="fill:#F95428;" cx="303.935" cy="386.1" r="43.855"/>
	<path style="fill:#F95428;" d="M321.002,483.236h-18.429c-3.971,0-7.191-3.22-7.191-7.191s3.22-7.191,7.191-7.191h18.429
		c3.971,0,7.191,3.22,7.191,7.191S324.973,483.236,321.002,483.236z M265.714,483.236h-18.429c-3.971,0-7.191-3.22-7.191-7.191
		s3.22-7.191,7.191-7.191h18.429c3.971,0,7.191,3.22,7.191,7.191S269.685,483.236,265.714,483.236z M210.426,483.236h-18.429
		c-3.971,0-7.191-3.22-7.191-7.191s3.22-7.191,7.191-7.191h18.429c3.971,0,7.191,3.22,7.191,7.191S214.398,483.236,210.426,483.236z
		 M155.138,483.236h-0.295c-6.598,0-13.211-0.618-19.653-1.838c-3.902-0.739-6.466-4.5-5.727-8.403
		c0.738-3.902,4.5-6.466,8.403-5.727c5.562,1.053,11.273,1.586,16.977,1.586h0.295c3.971,0,7.191,3.22,7.191,7.191
		S159.109,483.236,155.138,483.236z M357.859,483.233c-3.948,0-7.161-3.186-7.19-7.141c-0.029-3.971,3.168-7.214,7.141-7.241
		c5.704-0.04,11.412-0.616,16.964-1.709c3.902-0.775,7.677,1.769,8.445,5.667c0.768,3.896-1.769,7.677-5.667,8.445
		c-6.432,1.266-13.04,1.931-19.642,1.979C357.893,483.233,357.876,483.233,357.859,483.233z M102.45,468.069
		c-1.316,0-2.646-0.36-3.839-1.116c-5.551-3.514-10.807-7.574-15.62-12.065c-2.905-2.71-3.062-7.259-0.352-10.162
		c2.708-2.905,7.259-3.062,10.164-0.352c4.162,3.883,8.705,7.392,13.502,10.428c3.355,2.124,4.353,6.567,2.229,9.922
		C107.163,466.885,104.831,468.069,102.45,468.069z M410.143,467.689c-2.366,0-4.681-1.166-6.055-3.302
		c-2.149-3.341-1.181-7.791,2.159-9.938c4.775-3.071,9.292-6.611,13.427-10.523c2.885-2.731,7.436-2.605,10.165,0.279
		c2.73,2.885,2.605,7.436-0.279,10.165c-4.782,4.526-10.008,8.623-15.535,12.176C412.821,467.321,411.473,467.689,410.143,467.689z
		 M66.204,427.298c-2.682,0-5.255-1.506-6.491-4.086c-2.845-5.94-5.137-12.177-6.816-18.54c-1.012-3.84,1.28-7.773,5.12-8.787
		c3.843-1.007,7.775,1.28,8.787,5.12c1.447,5.488,3.424,10.87,5.879,15.994c1.716,3.583,0.203,7.877-3.38,9.591
		C68.302,427.073,67.245,427.298,66.204,427.298z M446.097,426.663c-1.025,0-2.067-0.22-3.055-0.685
		c-3.594-1.69-5.137-5.973-3.447-9.567c2.419-5.143,4.358-10.539,5.763-16.037c0.984-3.847,4.9-6.167,8.749-5.185
		c3.847,0.984,6.17,4.901,5.185,8.749c-1.631,6.376-3.879,12.632-6.682,18.593C451.385,425.135,448.796,426.663,446.097,426.663z
		 M56.624,373.457c-3.971,0-7.191-3.22-7.191-7.191v-18.429c0-3.971,3.22-7.191,7.191-7.191s7.191,3.22,7.191,7.191v18.429
		C63.815,370.238,60.597,373.457,56.624,373.457z M455.373,372.75c-3.971,0-7.191-3.22-7.191-7.191V347.13
		c0-3.971,3.22-7.191,7.191-7.191s7.191,3.22,7.191,7.191v18.429C462.564,369.53,459.344,372.75,455.373,372.75z M56.624,318.171
		c-3.971,0-7.191-3.22-7.191-7.191V292.55c0-3.971,3.22-7.191,7.191-7.191s7.191,3.22,7.191,7.191v18.429
		C63.815,314.95,60.597,318.171,56.624,318.171z M455.373,317.463c-3.971,0-7.191-3.22-7.191-7.191v-18.429
		c0-3.971,3.22-7.191,7.191-7.191s7.191,3.22,7.191,7.191v18.429C462.564,314.244,459.344,317.463,455.373,317.463z M56.624,262.882
		c-3.971,0-7.191-3.22-7.191-7.191v-18.429c0-3.971,3.22-7.191,7.191-7.191s7.191,3.22,7.191,7.191v18.429
		C63.815,259.662,60.597,262.882,56.624,262.882z M455.373,262.176c-3.971,0-7.191-3.22-7.191-7.191v-18.429
		c0-3.971,3.22-7.191,7.191-7.191s7.191,3.22,7.191,7.191v18.429C462.564,258.956,459.344,262.176,455.373,262.176z
		 M274.016,242.406c-3.585,0-6.688-2.678-7.131-6.327c-0.477-3.942,2.333-7.526,6.275-8.004c5.783-0.7,11.588-1.768,17.25-3.17
		c3.852-0.955,7.753,1.395,8.71,5.249s-1.395,7.755-5.249,8.71c-6.23,1.545-12.614,2.718-18.98,3.489
		C274.595,242.389,274.303,242.406,274.016,242.406z M237.268,242.317c-0.299,0-0.603-0.019-0.908-0.058
		c-6.357-0.801-12.735-2.006-18.958-3.578c-3.85-0.974-6.183-4.884-5.209-8.734c0.972-3.852,4.884-6.183,8.734-5.211
		c5.656,1.43,11.454,2.524,17.231,3.252c3.941,0.498,6.732,4.093,6.236,8.034C243.936,239.659,240.838,242.317,237.268,242.317z
		 M326.494,225.965c-2.58,0-5.074-1.392-6.363-3.831c-1.857-3.511-0.515-7.861,2.996-9.718c5.159-2.728,10.198-5.799,14.979-9.127
		c3.26-2.268,7.74-1.467,10.01,1.793c2.27,3.259,1.467,7.74-1.793,10.01c-5.257,3.66-10.799,7.037-16.475,10.037
		C328.777,225.696,327.628,225.965,326.494,225.965z M184.873,225.629c-1.143,0-2.305-0.273-3.386-0.851
		c-5.658-3.026-11.185-6.43-16.429-10.116c-3.249-2.284-4.03-6.771-1.745-10.019c2.284-3.247,6.768-4.031,10.019-1.745
		c4.766,3.352,9.791,6.446,14.937,9.199c3.502,1.873,4.824,6.23,2.95,9.732C189.925,224.25,187.44,225.629,184.873,225.629z
		 M56.624,207.594c-3.971,0-7.191-3.22-7.191-7.191v-18.429c0-3.971,3.22-7.191,7.191-7.191s7.191,3.22,7.191,7.191v18.429
		C63.815,204.374,60.597,207.594,56.624,207.594z M455.373,206.888c-3.971,0-7.191-3.22-7.191-7.191v-18.429
		c0-3.971,3.22-7.191,7.191-7.191s7.191,3.22,7.191,7.191v18.429C462.564,203.668,459.344,206.888,455.373,206.888z
		 M369.591,191.842c-1.677,0-3.36-0.582-4.723-1.77c-2.993-2.61-3.304-7.152-0.693-10.147c3.828-4.391,7.425-9.066,10.692-13.9
		c2.223-3.292,6.695-4.156,9.984-1.932c3.291,2.223,4.156,6.693,1.931,9.984c-3.594,5.32-7.553,10.467-11.767,15.3
		C373.592,191.008,371.598,191.842,369.591,191.842z M141.938,191.304c-2.018,0-4.024-0.844-5.446-2.491
		c-4.189-4.854-8.123-10.017-11.69-15.35c-2.209-3.301-1.322-7.768,1.978-9.975c3.301-2.209,7.765-1.323,9.975,1.978
		c3.242,4.847,6.816,9.54,10.623,13.949c2.596,3.006,2.262,7.548-0.744,10.142C145.275,190.73,143.602,191.304,141.938,191.304z
		 M56.624,152.306c-3.971,0-7.191-3.22-7.191-7.191v-18.429c0-3.971,3.22-7.191,7.191-7.191s7.191,3.22,7.191,7.191v18.429
		C63.815,149.087,60.597,152.306,56.624,152.306z M455.373,151.599c-3.971,0-7.191-3.22-7.191-7.191v-18.429
		c0-3.971,3.22-7.191,7.191-7.191s7.191,3.22,7.191,7.191v18.429C462.564,148.379,459.344,151.599,455.373,151.599z
		 M397.544,144.502c-0.82,0-1.652-0.141-2.468-0.439c-3.731-1.363-5.649-5.492-4.286-9.223c2.002-5.475,3.686-11.132,5.008-16.811
		c0.9-3.867,4.769-6.269,8.634-5.375c3.867,0.9,6.273,4.766,5.373,8.634c-1.454,6.246-3.306,12.466-5.507,18.488
		C403.234,142.693,400.478,144.502,397.544,144.502z M114.213,143.837c-2.947,0-5.711-1.825-6.767-4.758
		c-2.173-6.032-3.997-12.261-5.422-18.514c-0.883-3.872,1.542-7.727,5.413-8.609c3.867-0.887,7.726,1.542,8.609,5.413
		c1.296,5.685,2.954,11.35,4.93,16.837c1.346,3.736-0.593,7.855-4.329,9.202C115.844,143.699,115.021,143.837,114.213,143.837z
		 M56.624,97.018c-3.971,0-7.191-3.22-7.191-7.191V71.398c0-3.971,3.22-7.191,7.191-7.191s7.191,3.22,7.191,7.191v18.429
		C63.815,93.8,60.597,97.018,56.624,97.018z M455.373,96.312c-3.971,0-7.191-3.22-7.191-7.191V70.692
		c0-3.971,3.22-7.191,7.191-7.191s7.191,3.22,7.191,7.191v18.429C462.564,93.093,459.344,96.312,455.373,96.312z M406.714,90.293
		c-3.919,0-7.126-3.145-7.188-7.077c-0.055-3.46-0.239-6.962-0.545-10.408l-0.663-7.45c-0.352-3.955,2.569-7.448,6.525-7.801
		c3.968-0.342,7.448,2.569,7.801,6.525l0.663,7.45c0.338,3.793,0.539,7.648,0.6,11.457c0.062,3.971-3.105,7.241-7.076,7.305
		C406.79,90.293,406.753,90.293,406.714,90.293z M105.297,89.584c-0.05,0-0.101,0-0.151-0.001c-3.971-0.082-7.123-3.367-7.041-7.338
		c0.073-3.564,0.27-7.167,0.587-10.713l0.728-8.157c0.352-3.955,3.834-6.889,7.802-6.524c3.955,0.352,6.876,3.846,6.524,7.801
		l-0.728,8.157c-0.288,3.22-0.467,6.495-0.534,9.731C112.403,86.462,109.201,89.584,105.297,89.584z M69.365,46.396
		c-2.505,0-4.937-1.31-6.262-3.644c-1.96-3.455-0.749-7.843,2.705-9.803c4.825-2.737,10.315-4.185,15.878-4.185
		c2.393,0,4.759,0.253,7.034,0.754c3.879,0.854,6.331,4.69,5.478,8.569c-0.854,3.879-4.684,6.331-8.569,5.478
		c-1.261-0.278-2.587-0.419-3.942-0.419c-3.079,0-6.117,0.8-8.782,2.311C71.786,46.094,70.568,46.396,69.365,46.396z
		 M442.015,46.054c-1.138,0-2.29-0.27-3.364-0.84c-2.587-1.372-5.393-2.068-8.34-2.068c-1.529,0-3.019,0.18-4.43,0.534
		c-3.854,0.962-7.759-1.375-8.724-5.226c-0.965-3.852,1.375-7.759,5.226-8.724c2.553-0.64,5.219-0.964,7.926-0.964
		c5.247,0,10.461,1.296,15.08,3.747c3.508,1.861,4.842,6.214,2.981,9.722C447.082,44.668,444.591,46.054,442.015,46.054z"/>
</g>
<g>
</g>
<g>
</g>
<g>
</g>
<g>
</g>
<g>
</g>
<g>
</g>
<g>
</g>
<g>
</g>
<g>
</g>
<g>
</g>
<g>
</g>
<g>
</g>
<g>
</g>
<g>
</g>
<g>
</g>
</svg>
