<?xml version="1.0" encoding="iso-8859-1"?>
<!-- Generator: Adobe Illustrator 19.0.0, SVG Export Plug-In . SVG Version: 6.00 Build 0)  -->
<svg version="1.1" id="Layer_1" xmlns="http://www.w3.org/2000/svg" xmlns:xlink="http://www.w3.org/1999/xlink" x="0px" y="0px"
	 viewBox="0 0 512 512" style="enable-background:new 0 0 512 512;" xml:space="preserve">
<g>
	<path style="fill:#F95428;" d="M364.238,206.231c3.988-0.359,8.023-0.539,12.107-0.539C451.262,205.692,512,266.43,512,341.347
		c0,74.929-60.738,135.655-135.655,135.655S240.69,416.276,240.69,341.347C240.69,270.514,294.997,212.35,364.238,206.231z"/>
	<path style="fill:#F95428;" d="M114.028,313.086c32.213,11.963,55.158,42.967,55.158,79.324c0,46.727-37.878,84.593-84.593,84.593
		S0,439.137,0,392.41c0-46.715,37.878-84.581,84.593-84.581C94.939,307.829,104.867,309.685,114.028,313.086z"/>
</g>
<g>
	<path style="fill:#9AD14B;" d="M359.304,151.241l-4.958-55.373h52.99v33.746c0,27.567-18.214,51.781-44.644,59.445L359.304,151.241
		z"/>
	<path style="fill:#9AD14B;" d="M103.107,342.521c20.262,7.52,34.692,27.016,34.692,49.889c0,29.387-23.819,53.206-53.206,53.206
		c-29.375,0-53.206-23.819-53.206-53.206c0-29.375,23.831-53.194,53.206-53.194C91.107,339.216,97.346,340.389,103.107,342.521z"/>
	<path style="fill:#9AD14B;" d="M367.04,237.534c3.066-0.275,6.167-0.419,9.305-0.419c57.565,0,104.232,46.667,104.232,104.232
		c0,57.577-46.667,104.244-104.232,104.244s-104.232-46.667-104.232-104.244C272.113,286.92,313.834,242.228,367.04,237.534z"/>
</g>
<path style="fill:#808080;" d="M377.147,350.293c-0.275,0.024-0.539,0.036-0.814,0.036c-4.598,0-8.514-3.509-8.934-8.179
	l-15.987-178.419L151.618,237.57L93.011,395.535c-1.341,3.616-4.766,5.856-8.419,5.856c-1.042,0-2.096-0.18-3.126-0.563
	c-4.646-1.724-7.017-6.898-5.293-11.544l59.074-159.234l-18.095-73.264l17.436-4.311l16.358,66.199l198.812-73.48l-5.125-57.098
	c-0.97-10.945-9.999-19.196-20.981-19.196h-25.495h-17.963V50.937h17.963h25.495c20.346,0,37.063,15.28,38.871,35.554
	l22.765,254.054C385.733,345.491,382.093,349.85,377.147,350.293z"/>
<g>
	<path style="fill:#F95428;" d="M298.159,43.979v31.878c0,4.958-4.024,8.981-8.981,8.981c-4.97,0-8.981-4.024-8.981-8.981v-6.958
		h-39.542c-4.958,0-8.981-4.024-8.981-8.981s4.024-8.981,8.981-8.981h39.542v-6.958c0-4.958,4.012-8.981,8.981-8.981
		C294.135,34.998,298.159,39.021,298.159,43.979z"/>
	<path style="fill:#F95428;" d="M187.196,139.577c11.317,3.892,9.496,20.418-2.383,21.771l-54.547,6.179l-25.28,2.862
		c-18.059,2.048-32.716-12.334-32.716-29.124c0-3.149,0.515-6.395,1.629-9.628c5.281-15.34,21.998-23.495,37.339-18.214
		L187.196,139.577z"/>
</g>
<path style="fill:#D33924;" d="M111.786,141.266c0-3.149,0.515-6.395,1.629-9.628c1.993-5.789,5.616-10.554,10.179-13.96
	l-12.356-4.255c-15.34-5.281-32.058,2.874-37.339,18.214c-1.114,3.233-1.629,6.479-1.629,9.628
	c0,16.789,14.658,31.171,32.716,29.124l23.526-2.663C118.537,162.93,111.786,152.655,111.786,141.266z"/>
<g>
</g>
<g>
</g>
<g>
</g>
<g>
</g>
<g>
</g>
<g>
</g>
<g>
</g>
<g>
</g>
<g>
</g>
<g>
</g>
<g>
</g>
<g>
</g>
<g>
</g>
<g>
</g>
<g>
</g>
</svg>
