<?xml version="1.0" encoding="iso-8859-1"?>
<!-- Generator: Adobe Illustrator 19.0.0, SVG Export Plug-In . SVG Version: 6.00 Build 0)  -->
<svg version="1.1" id="Layer_1" xmlns="http://www.w3.org/2000/svg" xmlns:xlink="http://www.w3.org/1999/xlink" x="0px" y="0px"
	 viewBox="0 0 512 512" style="enable-background:new 0 0 512 512;" xml:space="preserve">
<path style="fill:#9AD14B;" d="M509.554,30.641v142.094l-40.413-7.664c-11.098-2.095-21.364,6.401-21.364,17.695v183.626
	C447.777,446.814,382.592,512,302.17,512h-92.327c-80.422,0-145.607-65.186-145.607-145.607V182.767
	c0-11.294-10.266-19.79-21.364-17.695l-17.162,3.253l-23.264,4.411V30.641l23.264-4.567L158.475,0
	c24.773,25.281,59.331,40.985,97.531,40.985S328.752,25.281,353.525,0L509.554,30.641z"/>
<path style="fill:#4D4D4D;" d="M356.899,191.392c-0.051,0-0.1,0.004-0.15,0.004h-53.647v19.517h14.984
	c-6.018,8.067-9.584,18.063-9.584,28.878c0,10.816,3.568,20.815,9.588,28.883H193.92c6.019-8.068,9.588-18.066,9.588-28.883
	c0-5.389-4.368-9.758-9.758-9.758s-9.758,4.369-9.758,9.758c0,15.926-12.956,28.883-28.882,28.883s-28.883-12.956-28.883-28.883
	c0-15.926,12.956-28.881,28.881-28.882v0.004h53.806v-19.517h-53.728c-0.026,0-0.051-0.004-0.075-0.004
	c-26.688,0-48.4,21.712-48.4,48.399s21.713,48.4,48.4,48.4h201.792c26.687,0,48.399-21.713,48.399-48.4
	S383.586,191.392,356.899,191.392z M356.899,268.674c-15.926,0-28.882-12.956-28.882-28.883c0-15.875,12.876-28.797,28.732-28.878
	h0.144v-0.004c0.003,0,0.004,0,0.007,0c15.926,0,28.882,12.956,28.882,28.882S372.824,268.674,356.899,268.674z"/>
<g>
	<path style="fill:#90BC42;" d="M158.475,0c24.773,25.281,59.331,40.985,97.531,40.985S328.752,25.281,353.525,0v27.857
		c0,53.866-43.665,97.518-97.518,97.518c-53.866,0-97.531-43.652-97.531-97.518C158.475,27.857,158.475,0,158.475,0z"/>
	<path style="fill:#90BC42;" d="M302.157,511.987c0-27.545,7.651-53.306,20.948-75.269c25.502-42.156,71.795-70.338,124.672-70.338
		c0,80.422-65.199,145.62-145.607,145.62h-0.013V511.987z"/>
	<path style="fill:#90BC42;" d="M209.843,511.987V512h-0.013c-80.409,0-145.594-65.199-145.594-145.62
		c52.864,0,99.158,28.182,124.659,70.338C202.193,458.68,209.843,484.442,209.843,511.987z"/>
	<polygon style="fill:#90BC42;" points="25.71,26.074 25.71,168.325 2.446,172.735 2.446,30.641 	"/>
	<polygon style="fill:#90BC42;" points="486.29,26.074 486.29,168.325 509.554,172.735 509.554,30.641 	"/>
</g>
<g>
</g>
<g>
</g>
<g>
</g>
<g>
</g>
<g>
</g>
<g>
</g>
<g>
</g>
<g>
</g>
<g>
</g>
<g>
</g>
<g>
</g>
<g>
</g>
<g>
</g>
<g>
</g>
<g>
</g>
</svg>
