<?xml version="1.0" encoding="iso-8859-1"?>
<!-- Generator: Adobe Illustrator 19.0.0, SVG Export Plug-In . SVG Version: 6.00 Build 0)  -->
<svg version="1.1" id="Layer_1" xmlns="http://www.w3.org/2000/svg" xmlns:xlink="http://www.w3.org/1999/xlink" x="0px" y="0px"
	 viewBox="0 0 512 512" style="enable-background:new 0 0 512 512;" xml:space="preserve">
<path style="fill:#2BA5F7;" d="M395.737,149.647v-21.308c0-4.47-3.624-8.093-8.093-8.093h-42.615c-4.47,0-8.093,3.624-8.093,8.093
	v21.308h-42.371v-21.308c0-4.47-3.624-8.093-8.093-8.093h-42.615c-4.47,0-8.093,3.624-8.093,8.093v21.308h-19.508v121.048
	l96.744,58.247l102.243-58.247V149.647L395.737,149.647L395.737,149.647z"/>
<path style="fill:#F7B239;" d="M494.591,270.694v-21.308c0-4.47-3.624-8.093-8.093-8.093h-42.615c-4.47,0-8.093,3.624-8.093,8.093
	v21.308h-20.546H313.002l-13.574,63.243l13.574,57.817H512V270.694H494.591z"/>
<path style="fill:#F95428;" d="M216.258,270.694h-30.357v-21.308c0-4.47-3.624-8.093-8.093-8.093h-42.615
	c-4.47,0-8.093,3.624-8.093,8.093v21.308H84.73v-21.308c0-4.47-3.624-8.093-8.093-8.093H34.034c-4.47,0-8.093,3.624-8.093,8.093
	v21.308H0v121.059h313.002V270.694H216.258z"/>
<g>
	<path style="fill:#D33924;" d="M57.059,241.294v29.4H25.941v-21.308c0-4.47,3.624-8.093,8.093-8.093H57.059z"/>
	<path style="fill:#D33924;" d="M158.219,241.294v29.4h-31.118v-21.308c0-4.47,3.624-8.093,8.093-8.093H158.219z"/>
</g>
<path style="fill:#E09B2D;" d="M466.908,241.294v29.4H435.79v-21.308c0-4.47,3.624-8.093,8.093-8.093H466.908z"/>
<g>
	<path style="fill:#2197D8;" d="M266.884,120.246v29.4h-31.118v-21.308c0-4.47,3.624-8.093,8.093-8.093H266.884z"/>
	<path style="fill:#2197D8;" d="M368.055,120.246v29.4h-31.118v-21.308c0-4.47,3.624-8.093,8.093-8.093H368.055z"/>
</g>
<g>
</g>
<g>
</g>
<g>
</g>
<g>
</g>
<g>
</g>
<g>
</g>
<g>
</g>
<g>
</g>
<g>
</g>
<g>
</g>
<g>
</g>
<g>
</g>
<g>
</g>
<g>
</g>
<g>
</g>
</svg>
