<?xml version="1.0" encoding="iso-8859-1"?>
<!-- Generator: Adobe Illustrator 19.0.0, SVG Export Plug-In . SVG Version: 6.00 Build 0)  -->
<svg version="1.1" id="Layer_1" xmlns="http://www.w3.org/2000/svg" xmlns:xlink="http://www.w3.org/1999/xlink" x="0px" y="0px"
	 viewBox="0 0 512 512" style="enable-background:new 0 0 512 512;" xml:space="preserve">
<path style="fill:#F95428;" d="M220.775,134.309l146.839,52.976h82.037c34.433,0,62.349,27.916,62.349,62.374v116.206H0v-76.049
	c0-50.07,35.892-91.762,83.346-100.732c6.215-1.183,26.457-27.098,33.011-27.098L220.775,134.309z"/>
<path style="fill:#D33924;" d="M181.468,189.084c6.215-1.183,12.631-1.799,19.185-1.799h-98.123c-6.554,0-12.97,0.616-19.185,1.799
	C35.892,198.054,0,239.746,0,289.816v76.049h98.123v-76.049C98.123,239.746,134.015,198.054,181.468,189.084z"/>
<g>
	<path style="fill:#999999;" d="M477.781,365.865c0.038,0.918,0.05,1.862,0.05,2.793c0,47.781-38.735,86.503-86.503,86.503
		s-86.503-38.723-86.503-86.503c0-0.931,0.013-1.874,0.05-2.793c1.472-46.472,39.616-83.71,86.453-83.71
		S476.309,319.393,477.781,365.865z"/>
	<path style="fill:#999999;" d="M207.112,365.865c0.038,0.918,0.05,1.862,0.05,2.793c0,47.781-38.723,86.503-86.503,86.503
		c-47.768,0-86.491-38.723-86.491-86.503c0-0.931,0.013-1.874,0.05-2.793c1.472-46.472,39.603-83.71,86.44-83.71
		C167.509,282.155,205.64,319.393,207.112,365.865z"/>
</g>
<g>
	<path style="fill:#F7B239;" d="M391.328,328.199c22.305,0,40.459,18.154,40.459,40.459c0,22.318-18.154,40.459-40.459,40.459
		c-22.305,0-40.459-18.141-40.459-40.459C350.869,346.353,369.023,328.199,391.328,328.199z"/>
	<path style="fill:#F7B239;" d="M120.659,328.199c22.318,0,40.459,18.154,40.459,40.459c0,22.318-18.141,40.459-40.459,40.459
		c-22.305,0-40.459-18.141-40.459-40.459C80.201,346.353,98.354,328.199,120.659,328.199z"/>
</g>
<path style="fill:#2BA5F7;" d="M325.344,56.839H213.44c-72.036,0-130.447,58.411-130.447,130.447l0.352,1.799
	c6.215-1.183,12.631-1.799,19.185-1.799H213.44h154.174V99.109C367.614,75.76,348.693,56.839,325.344,56.839z"/>
<path style="fill:#2197D8;" d="M213.44,56.839v130.447H102.531c-6.554,0-12.97,0.616-19.185,1.799l-0.352-1.799
	C82.993,115.25,141.404,56.839,213.44,56.839z"/>
<path style="fill:#333333;" d="M299.411,228.054H261.67c-5.212,0-9.435,4.225-9.435,9.435c0,5.211,4.223,9.435,9.435,9.435h37.741
	c5.212,0,9.435-4.225,9.435-9.435C308.847,232.278,304.622,228.054,299.411,228.054z"/>
<g>
</g>
<g>
</g>
<g>
</g>
<g>
</g>
<g>
</g>
<g>
</g>
<g>
</g>
<g>
</g>
<g>
</g>
<g>
</g>
<g>
</g>
<g>
</g>
<g>
</g>
<g>
</g>
<g>
</g>
</svg>
