<?xml version="1.0" encoding="iso-8859-1"?>
<!-- Generator: Adobe Illustrator 19.0.0, SVG Export Plug-In . SVG Version: 6.00 Build 0)  -->
<svg version="1.1" id="Layer_1" xmlns="http://www.w3.org/2000/svg" xmlns:xlink="http://www.w3.org/1999/xlink" x="0px" y="0px"
	 viewBox="0 0 512 512" style="enable-background:new 0 0 512 512;" xml:space="preserve">
<path style="fill:#F7B239;" d="M461.152,283.241l-164.372,7.602l-43.895-9.035l-69.808-105.227L50.361,86.76l-7.314,7.301
	c-57.395,57.408-57.395,150.485,0,207.881h100.922L43.047,342.88v34.285c0,68.709,55.694,124.403,124.403,124.403h220.147
	c68.709,0,124.403-55.694,124.403-124.403V342.88L461.152,283.241z"/>
<path style="fill:#E09B2D;" d="M261.987,316.02v-14.078H121.136c-46.438-46.438-55.296-116.23-26.59-171.593l4.728-33.76
	L50.361,86.76l-7.314,7.301c-57.395,57.408-57.395,150.485,0,207.881v40.939v34.285c0,68.709,55.694,124.403,124.403,124.403h77.458
	c-68.709,0-124.403-55.694-124.403-124.403V342.88h126.244v48.113c0,13.816,11.2,25.015,25.015,25.015
	c6.908,0,13.168-2.794,17.688-7.327c4.521-4.533,7.327-10.781,7.327-17.688v-100.15L261.987,316.02z"/>
<path style="fill:#2BA5F7;" d="M492.953,301.942l-90.845,21.296l-90.09-21.296v-36.177h148.555c17.892,0,32.38,14.489,32.38,32.367
	V301.942z"/>
<path style="fill:#B27214;" d="M312.018,342.88v48.113c0,6.908-2.806,13.155-7.327,17.688c-4.521,4.533-10.781,7.327-17.688,7.327
	c-13.816,0-25.015-11.2-25.015-25.015V342.88v-40.939v-6.413v-56.951V35.459c0-13.816,11.2-25.028,25.015-25.028
	c13.816,0,25.015,11.212,25.015,25.028v230.305v36.177V342.88L312.018,342.88z"/>
<path style="fill:#995C0D;" d="M274.685,390.993V342.88v-40.939v-6.413v-56.951V35.459c0-11.617,7.931-21.366,18.666-24.182
	c-2.03-0.533-4.151-0.846-6.349-0.846c-13.816,0-25.015,11.212-25.015,25.028v203.119v56.951v6.413v40.939v48.113
	c0,13.816,11.2,25.015,25.015,25.015c2.198,0,4.32-0.311,6.352-0.843C282.618,412.352,274.685,402.612,274.685,390.993z"/>
<polygon style="fill:#E09B2D;" points="312.018,301.942 492.953,301.942 512,301.942 512,342.88 312.018,342.88 "/>
<path style="fill:#2BA5F7;" d="M261.987,238.578v56.951L50.361,86.76l7.419-7.419c12.417-12.417,32.552-12.417,44.97,0
	L261.987,238.578z"/>
<g>
</g>
<g>
</g>
<g>
</g>
<g>
</g>
<g>
</g>
<g>
</g>
<g>
</g>
<g>
</g>
<g>
</g>
<g>
</g>
<g>
</g>
<g>
</g>
<g>
</g>
<g>
</g>
<g>
</g>
</svg>
