<?xml version="1.0" encoding="iso-8859-1"?>
<!-- Generator: Adobe Illustrator 19.0.0, SVG Export Plug-In . SVG Version: 6.00 Build 0)  -->
<svg version="1.1" id="Layer_1" xmlns="http://www.w3.org/2000/svg" xmlns:xlink="http://www.w3.org/1999/xlink" x="0px" y="0px"
	 viewBox="0 0 512 512" style="enable-background:new 0 0 512 512;" xml:space="preserve">
<path style="fill:#F7B239;" d="M505.308,360.96c-8.525-8.538-22.175-8.859-31.235-0.883c-7.16,6.303-14.56,12.272-22.162,17.893l0,0
	l-17.946-39.653l-15.176-33.524c-5.222,3.2-17.988-13.51-23.607-10.96c-7.401,3.356-7.791,25.722-15.778,27.836l17.371,38.382
	l18.709,41.326l0,0l0,0c-48.298,26.699-102.806,40.898-159.482,40.898S144.818,428.075,96.52,401.376l0,0l0,0l18.709-41.326
	l17.371-38.382c-6.754-1.788-0.068-22.479-6.41-25.159c-6.851-2.896-26.693,12.147-32.975,8.297L78.038,338.33l-17.946,39.64l0,0
	c-7.615-5.607-15.002-11.576-22.175-17.893c-4.363-3.841-9.796-5.755-15.203-5.755c-5.821,0-11.616,2.208-16.032,6.638
	c-9.247,9.247-8.859,24.41,0.937,33.069c68.72,60.624,156.029,93.746,248.383,93.746c92.341,0,179.65-33.122,248.37-93.746
	c5.072-4.483,7.628-10.693,7.628-16.943C512,371.265,509.778,365.43,505.308,360.96z"/>
<path style="fill:#E09B2D;" d="M418.789,304.793c-23.607-10.96-47.696-12.299-39.385,16.876l17.371,38.382
	c7.682-3.091,15.042-6.812,22.015-11.094c5.286-3.239,10.358-6.785,15.176-10.639L418.789,304.793z M78.038,338.33
	c4.818,3.841,9.89,7.401,15.176,10.639c6.972,4.283,14.333,7.99,22.015,11.081l17.371-38.382
	c5.634-33.189-21.131-39.88-39.385-16.862L78.038,338.33z"/>
<g>
	<rect x="38.532" y="56.959" style="fill:#F7B239;" width="20.074" height="71.035"/>
	<rect x="453.393" y="56.959" style="fill:#F7B239;" width="20.074" height="71.035"/>
	<rect x="370.42" y="56.959" style="fill:#F7B239;" width="20.074" height="71.035"/>
	<rect x="121.501" y="56.959" style="fill:#F7B239;" width="20.074" height="71.035"/>
	<rect x="204.474" y="56.959" style="fill:#F7B239;" width="20.074" height="71.035"/>
	<rect x="287.447" y="56.959" style="fill:#F7B239;" width="20.074" height="71.035"/>
</g>
<g>
	<rect x="38.532" y="56.959" style="fill:#E09B2D;" width="20.074" height="30.165"/>
	<rect x="121.501" y="56.959" style="fill:#E09B2D;" width="20.074" height="30.165"/>
	<rect x="204.474" y="56.959" style="fill:#E09B2D;" width="20.074" height="30.165"/>
	<rect x="287.447" y="56.959" style="fill:#E09B2D;" width="20.074" height="30.165"/>
	<rect x="370.42" y="56.959" style="fill:#E09B2D;" width="20.074" height="30.165"/>
	<rect x="453.393" y="56.959" style="fill:#E09B2D;" width="20.074" height="30.165"/>
</g>
<path style="fill:#2BA5F7;" d="M93.214,304.807c-42.825-26.217-71.41-73.444-71.41-127.35v-39.478
	c0-12.566,10.187-22.752,22.752-22.752h4.013h82.973h82.973h82.973h82.973h82.973h4.013c12.566,0,22.752,10.187,22.752,22.752
	v39.478c0,53.906-28.572,101.12-71.41,127.337c-12.098,7.414-25.333,13.155-39.385,16.876c-12.259,3.265-25.133,5.005-38.422,5.005
	H171.008c-13.276,0-26.15-1.74-38.408-5.005C118.548,317.948,105.312,312.221,93.214,304.807z"/>
<path style="fill:#2197D8;" d="M187.094,304.807c-42.825-26.217-71.41-73.444-71.41-127.35v-62.23H48.569h-4.013
	c-12.566,0-22.752,10.187-22.752,22.752v39.478c0,53.906,28.585,101.133,71.41,127.35c12.098,7.414,25.333,13.142,39.385,16.862
	c12.259,3.265,25.133,5.005,38.408,5.005h93.88c-13.276,0-26.15-1.74-38.408-5.005C212.427,317.948,199.192,312.221,187.094,304.807
	z"/>
<path style="fill:#FFFFFF;" d="M203.632,237.482c-7.221-7.221-11.199-16.827-11.199-27.049c0-10.232,3.977-19.843,11.199-27.064
	c7.224-7.225,16.833-11.205,27.056-11.205c9.417,0,18.316,3.376,25.305,9.559c6.996-6.185,15.891-9.565,25.301-9.565
	c10.222,0,19.832,3.981,27.063,11.211c7.231,7.223,11.216,16.833,11.216,27.057s-3.985,19.833-11.219,27.06l-52.352,52.368
	L203.632,237.482z"/>
<path style="fill:#F95428;" d="M302.68,189.046c11.817,11.804,11.817,30.954,0,42.758l-46.679,46.692l-46.692-46.692
	c-5.902-5.902-8.846-13.637-8.846-21.372c0-7.749,2.944-15.484,8.846-21.386c11.804-11.804,30.954-11.804,42.758,0l3.935,3.921
	l3.921-3.921c5.902-5.902,13.637-8.859,21.372-8.859C289.043,180.187,296.779,183.144,302.68,189.046z"/>
<path style="fill:#F7B239;" d="M482.223,24.225c12.553,0,22.751,10.184,22.751,22.751c0,6.29-2.543,11.964-6.665,16.086
	c-4.122,4.122-9.81,6.665-16.086,6.665h-18.789h-82.973h-82.973h-82.973h-82.973H48.569H29.78
	c-12.566,0-22.751-10.184-22.751-22.751c0-6.29,2.543-11.964,6.665-16.086s9.796-6.665,16.086-6.665
	C29.78,24.225,482.223,24.225,482.223,24.225z"/>
<path style="fill:#E09B2D;" d="M104.137,46.975c0-6.29,2.543-11.964,6.665-16.086c4.122-4.122,9.796-6.665,16.086-6.665H29.78
	c-6.29,0-11.964,2.543-16.086,6.665s-6.665,9.796-6.665,16.086c0,12.566,10.184,22.751,22.751,22.751h18.789h78.32
	C114.321,69.726,104.137,59.542,104.137,46.975z"/>
<g>
</g>
<g>
</g>
<g>
</g>
<g>
</g>
<g>
</g>
<g>
</g>
<g>
</g>
<g>
</g>
<g>
</g>
<g>
</g>
<g>
</g>
<g>
</g>
<g>
</g>
<g>
</g>
<g>
</g>
</svg>
