<?xml version="1.0" encoding="iso-8859-1"?>
<!-- Generator: Adobe Illustrator 19.0.0, SVG Export Plug-In . SVG Version: 6.00 Build 0)  -->
<svg version="1.1" id="Layer_1" xmlns="http://www.w3.org/2000/svg" xmlns:xlink="http://www.w3.org/1999/xlink" x="0px" y="0px"
	 viewBox="0 0 512 512" style="enable-background:new 0 0 512 512;" xml:space="preserve">
<rect x="326.366" y="379.001" style="fill:#CCCCCC;" width="140.465" height="100.564"/>
<rect x="234.273" y="379.001" style="fill:#999999;" width="140.465" height="100.564"/>
<polygon style="fill:#F7B239;" points="512,32.436 466.831,407.858 357.328,407.858 291.518,409.158 296.853,386.761 
	259.806,93.246 259.806,93.232 252.126,32.436 "/>
<polygon style="fill:#E09B2D;" points="357.328,407.858 296.853,409.158 259.806,93.246 259.806,93.232 252.126,32.436 
	355.304,32.436 374.738,407.858 "/>
<polygon style="fill:#CCCCCC;" points="298.783,93.246 298.783,175.943 174.026,175.943 174.026,93.246 259.806,93.246 "/>
<polygon style="fill:#999999;" points="223.936,93.246 223.936,175.943 174.026,175.943 174.026,93.246 208.342,93.246 "/>
<path style="fill:#2BA5F7;" d="M326.393,186.599v222.559h-29.541H146.416V186.599c0-15.253,12.358-27.597,27.61-27.61h124.756
	C314.036,158.988,326.393,171.346,326.393,186.599z"/>
<path style="fill:#2197D8;" d="M230.317,158.988h-56.291c-15.253,0.013-27.61,12.358-27.61,27.61v222.559h56.291V186.599
	C202.706,171.346,215.064,159.001,230.317,158.988z"/>
<polygon style="fill:#CCCCCC;" points="54.832,411.812 54.832,454.514 0,450.895 0,415.43 "/>
<path style="fill:#F95428;" d="M296.853,386.761h29.54h30.934v21.097v71.707H74.481c-13.068,0-23.67-10.602-23.67-23.67v-1.381
	v-42.702v-1.381c0-13.068,10.602-23.67,23.67-23.67h71.935H296.853z"/>
<path style="fill:#D33924;" d="M107.105,455.894v-1.381v-42.702v-1.381c0-13.068,10.602-23.67,23.67-23.67H74.481
	c-13.068,0-23.67,10.602-23.67,23.67v1.381v42.702v1.381c0,13.068,10.602,23.67,23.67,23.67h56.293
	C117.706,479.564,107.105,468.963,107.105,455.894z"/>
<g>
</g>
<g>
</g>
<g>
</g>
<g>
</g>
<g>
</g>
<g>
</g>
<g>
</g>
<g>
</g>
<g>
</g>
<g>
</g>
<g>
</g>
<g>
</g>
<g>
</g>
<g>
</g>
<g>
</g>
</svg>
