<?xml version="1.0" encoding="iso-8859-1"?>
<!-- Generator: Adobe Illustrator 19.0.0, SVG Export Plug-In . SVG Version: 6.00 Build 0)  -->
<svg version="1.1" id="Layer_1" xmlns="http://www.w3.org/2000/svg" xmlns:xlink="http://www.w3.org/1999/xlink" x="0px" y="0px"
	 viewBox="0 0 512 512" style="enable-background:new 0 0 512 512;" xml:space="preserve">
<path style="fill:#F7B239;" d="M492.848,54.092v36.394H19.152V54.092c0-5.288-4.287-9.576-9.576-9.576l0,0
	C4.287,44.517,0,48.804,0,54.092v330.723c0,5.269,4.271,9.541,9.54,9.541l40.901,0.005v73.122h30.643v-73.122h349.84v73.122h30.643
	v-73.122l40.892-0.005c5.269,0,9.541-4.272,9.541-9.541V54.092c0-5.288-4.287-9.576-9.576-9.576l0,0
	C497.136,44.517,492.848,48.804,492.848,54.092z M19.152,345.844v-206.84h31.289v206.84H19.152z M145.562,345.844H81.084v-206.84
	h64.478V345.844z M240.682,345.844h-64.478v-206.84h64.478V345.844z M335.803,345.844h-64.478v-206.84h64.478V345.844z
	 M366.446,345.844v-206.84h64.478v206.84H366.446z M492.848,345.844h-31.281v-206.84h31.281V345.844z"/>
<g>
	<rect x="50.441" y="394.362" style="fill:#E09B2D;" width="30.643" height="29.366"/>
	<rect x="430.929" y="394.362" style="fill:#E09B2D;" width="30.643" height="29.366"/>
	<rect x="50.441" y="139.004" style="fill:#E09B2D;" width="30.643" height="26.813"/>
	<rect x="145.567" y="139.004" style="fill:#E09B2D;" width="30.643" height="26.813"/>
	<rect x="240.687" y="139.004" style="fill:#E09B2D;" width="30.643" height="26.813"/>
	<rect x="335.808" y="139.004" style="fill:#E09B2D;" width="30.643" height="26.813"/>
	<rect x="430.929" y="139.004" style="fill:#E09B2D;" width="30.643" height="26.813"/>
</g>
<g>
</g>
<g>
</g>
<g>
</g>
<g>
</g>
<g>
</g>
<g>
</g>
<g>
</g>
<g>
</g>
<g>
</g>
<g>
</g>
<g>
</g>
<g>
</g>
<g>
</g>
<g>
</g>
<g>
</g>
</svg>
