<?xml version="1.0" encoding="iso-8859-1"?>
<!-- Generator: Adobe Illustrator 19.0.0, SVG Export Plug-In . SVG Version: 6.00 Build 0)  -->
<svg version="1.1" id="Layer_1" xmlns="http://www.w3.org/2000/svg" xmlns:xlink="http://www.w3.org/1999/xlink" x="0px" y="0px"
	 viewBox="0 0 512 512" style="enable-background:new 0 0 512 512;" xml:space="preserve">
<g>
	<rect x="71.336" y="217.4" style="fill:#666666;" width="13.78" height="180.73"/>
	<rect x="448.828" y="222.609" style="fill:#666666;" width="13.78" height="170.298"/>
	<rect x="260.078" y="162.333" style="fill:#666666;" width="13.78" height="142.489"/>
	<path style="fill:#666666;" d="M266.971,135.795c-3.806,0-6.89-3.085-6.89-6.89V6.89c0-3.805,3.084-6.89,6.89-6.89
		c3.806,0,6.89,3.085,6.89,6.89v122.014C273.861,132.711,270.777,135.795,266.971,135.795z"/>
</g>
<path style="fill:#2BA5F7;" d="M496.567,198.11c14.373,11.893,15.241,33.652,2.053,46.853
	c-11.658,11.644-30.193,12.361-42.898,1.874c-53.11-43.808-119.118-67.634-188.75-67.634s-135.641,23.826-188.75,67.634
	c-12.706,10.487-31.24,9.77-42.898-1.874c-6.243-6.256-9.343-14.414-9.343-22.559c0-9.04,3.831-18.039,11.396-24.295
	c64.534-53.413,144.846-82.476,229.595-82.476C351.708,115.634,432.034,144.697,496.567,198.11z"/>
<path style="fill:#2197D8;" d="M78.043,217.402c-6.243-6.256-9.343-14.414-9.343-22.559c0-9.04,3.831-18.039,11.396-24.295
	c4.483-3.711,9.05-7.291,13.681-10.765c-19.829,10.885-38.711,23.684-56.4,38.326c-7.565,6.256-11.396,15.255-11.396,24.295
	c0,8.144,3.101,16.302,9.343,22.559c11.658,11.644,30.193,12.361,42.898,1.874c9.152-7.549,18.696-14.49,28.565-20.832
	C96.66,228.049,85.822,225.173,78.043,217.402z"/>
<path style="fill:#9AD14B;" d="M266.972,287.944c30.441,0,55.122,24.681,55.122,55.122c0,30.455-24.681,55.122-55.122,55.122
	s-55.122-24.667-55.122-55.122C211.85,312.625,236.531,287.944,266.972,287.944z"/>
<path style="fill:#90BC42;" d="M253.196,343.066c0-23.128,14.253-42.918,34.45-51.098c-6.386-2.587-13.36-4.024-20.673-4.024
	c-30.441,0-55.122,24.681-55.122,55.122c0,30.455,24.681,55.122,55.122,55.122c7.313,0,14.288-1.436,20.673-4.021
	C267.45,385.989,253.196,366.205,253.196,343.066z"/>
<polygon style="fill:#F95428;" points="152.415,422.593 115.319,458.739 124.069,509.795 78.222,485.693 32.374,509.795 
	41.139,458.739 4.042,422.593 55.305,415.138 78.222,368.684 101.152,415.138 "/>
<path style="fill:#F7B239;" d="M455.722,368.684c20.312,0,38.654,8.475,51.69,22.076c-27.092,0.358-48.934,22.407-48.934,49.582
	c0,27.175,21.842,49.237,48.934,49.596C494.376,503.525,476.035,512,455.722,512c-39.577,0-71.658-32.081-71.658-71.658
	C384.064,400.778,416.145,368.684,455.722,368.684z"/>
<path style="fill:#E09B2D;" d="M407.951,440.342c0-35.494,25.827-64.959,59.717-70.648c-3.886-0.655-7.874-1.01-11.945-1.01
	c-39.577,0-71.658,32.095-71.658,71.658c0,39.577,32.081,71.658,71.658,71.658c4.071,0,8.059-0.355,11.945-1.009
	C433.777,505.304,407.951,475.849,407.951,440.342z"/>
<g>
</g>
<g>
</g>
<g>
</g>
<g>
</g>
<g>
</g>
<g>
</g>
<g>
</g>
<g>
</g>
<g>
</g>
<g>
</g>
<g>
</g>
<g>
</g>
<g>
</g>
<g>
</g>
<g>
</g>
</svg>
