<?xml version="1.0" encoding="iso-8859-1"?>
<!-- Generator: Adobe Illustrator 19.0.0, SVG Export Plug-In . SVG Version: 6.00 Build 0)  -->
<svg version="1.1" id="Layer_1" xmlns="http://www.w3.org/2000/svg" xmlns:xlink="http://www.w3.org/1999/xlink" x="0px" y="0px"
	 viewBox="0 0 512 512" style="enable-background:new 0 0 512 512;" xml:space="preserve">
<path style="fill:#9AD14B;" d="M363.568,191.111v129.791c0,11.286-9.158,20.432-20.444,20.432l-25.828,11.742l-22.836-11.742
	h-11.418h-69.709c-11.286,0-20.432-9.146-20.432-20.432V191.111c0-11.298,9.146-20.444,20.432-20.444l49.277-20.708l41.453,20.708
	h39.061C354.41,170.667,363.568,179.813,363.568,191.111z"/>
<path style="fill:#2BA5F7;" d="M324.507,20.444v129.791c0,11.286-9.158,20.432-20.444,20.432h-79.312h-50.479
	c-11.286,0-20.432-9.146-20.432-20.432V20.444C153.84,9.146,162.987,0,174.272,0h129.791C315.349,0,324.507,9.146,324.507,20.444z"
	/>
<path style="fill:#F7B239;" d="M444.695,361.777v129.791c0,11.286-9.158,20.432-20.444,20.432H294.46
	c-11.286,0-20.432-9.146-20.432-20.432V361.777c0-11.298,9.146-20.444,20.432-20.444h60.082h69.709
	C435.537,341.333,444.695,350.48,444.695,361.777z"/>
<path style="fill:#F95428;" d="M237.972,361.777v129.791c0,11.286-9.158,20.432-20.444,20.432H87.737
	c-11.286,0-20.432-9.146-20.432-20.432V361.777c0-11.298,9.146-20.444,20.432-20.444h129.791
	C228.814,341.333,237.972,350.48,237.972,361.777z"/>
<g>
	<path style="fill:#4D4D4D;" d="M258.098,101.56v34.251c0,4.978,4.036,9.014,9.014,9.014s9.014-4.036,9.014-9.014v-73.01
		c0-20.378-16.579-36.957-36.957-36.957s-36.957,16.579-36.957,36.957v73.01c0,4.978,4.036,9.014,9.014,9.014
		c4.978,0,9.014-4.036,9.014-9.014V101.56H258.098z M239.17,43.872c10.437,0,18.928,8.491,18.928,18.928v20.731h-37.857V62.801
		C220.242,52.363,228.733,43.872,239.17,43.872z"/>
	<path style="fill:#4D4D4D;" d="M278.231,315.492c20.378,0,36.957-16.579,36.957-36.957c0-4.978-4.036-9.014-9.014-9.014
		s-9.014,4.036-9.014,9.014c0,10.437-8.491,18.928-18.928,18.928s-18.928-8.491-18.928-18.928v-45.068
		c0-10.437,8.491-18.928,18.928-18.928c10.437,0,18.928,8.491,18.928,18.928c0,4.978,4.036,9.014,9.014,9.014
		s9.014-4.036,9.014-9.014c0-20.378-16.579-36.957-36.957-36.957s-36.957,16.579-36.957,36.957v45.068
		C241.275,298.913,257.853,315.492,278.231,315.492z"/>
	<path style="fill:#4D4D4D;" d="M152.635,367.177h-27.942c-4.978,0-9.014,4.036-9.014,9.014v100.953
		c0,4.978,4.036,9.014,9.014,9.014h27.942c20.378,0,36.957-16.579,36.957-36.957v-45.068
		C189.591,383.756,173.013,367.177,152.635,367.177z M171.563,449.202c0,10.437-8.491,18.928-18.928,18.928h-18.928v-82.925h18.928
		c10.437,0,18.928,8.491,18.928,18.928V449.202z"/>
	<path style="fill:#4D4D4D;" d="M382.13,419.494c3.271-5.249,5.169-11.438,5.169-18.065c0-18.888-15.366-34.254-34.254-34.254
		h-30.648c-4.978,0-9.014,4.036-9.014,9.014v100.958c0,4.978,4.036,9.014,9.014,9.014h48.678c18.888,0,34.254-15.366,34.254-34.254
		C405.331,436.887,395.609,424.103,382.13,419.494z M331.413,385.203h21.634c8.947,0,16.225,7.279,16.225,16.225
		s-7.279,16.225-16.225,16.225h-21.634V385.203z M371.077,468.133h-39.664v-32.451h21.634h18.031
		c8.947,0,16.225,7.279,16.225,16.225S380.024,468.133,371.077,468.133z"/>
</g>
<g>
</g>
<g>
</g>
<g>
</g>
<g>
</g>
<g>
</g>
<g>
</g>
<g>
</g>
<g>
</g>
<g>
</g>
<g>
</g>
<g>
</g>
<g>
</g>
<g>
</g>
<g>
</g>
<g>
</g>
</svg>
