<?xml version="1.0" encoding="iso-8859-1"?>
<!-- Generator: Adobe Illustrator 19.0.0, SVG Export Plug-In . SVG Version: 6.00 Build 0)  -->
<svg version="1.1" id="Layer_1" xmlns="http://www.w3.org/2000/svg" xmlns:xlink="http://www.w3.org/1999/xlink" x="0px" y="0px"
	 viewBox="0 0 512 512" style="enable-background:new 0 0 512 512;" xml:space="preserve">
<rect x="16.216" y="42.488" style="fill:#E09B2D;" width="479.567" height="112.863"/>
<path style="fill:#F7B239;" d="M495.784,178.975v-38.438H16.216v38.438v65.276v41.157c0,101.675,82.413,184.102,184.088,184.102
	h111.391h0.014c101.661,0,184.074-82.428,184.074-184.102v-41.157V178.975z"/>
<path style="fill:#F95428;" d="M80.544,197.627v27.972c0,10.296-8.356,18.652-18.652,18.652H16.216H0v-65.276h16.216h45.675
	C72.188,178.975,80.544,187.331,80.544,197.627z"/>
<rect x="195.093" y="56.207" style="fill:#F7B239;" width="121.8" height="74.591"/>
<path style="fill:#F95428;" d="M512,178.975v65.276h-16.216h-45.675c-10.296,0-18.652-8.356-18.652-18.652v-27.972
	c0-10.296,8.356-18.652,18.652-18.652h45.675L512,178.975L512,178.975z"/>
<g>
	<rect x="203.59" y="64.705" style="fill:#E09B2D;" width="104.805" height="57.596"/>
	<path style="fill:#E09B2D;" d="M333.163,383.183c-21.321-18.776-48.682-29.117-77.153-29.117
		c-28.469,0-55.837,10.345-77.172,29.122c-30.939-58.171-92.153-97.779-162.622-97.779c0,101.675,82.413,184.102,184.088,184.102
		v-0.014c0-25.956-5.393-50.652-15.089-73.046l2.456-2.19c18.821-16.789,43.09-26.033,68.338-26.033
		c25.252,0,49.515,9.244,68.321,26.031l2.453,2.19c-9.696,22.394-15.089,47.091-15.089,73.049v0.014h0.014
		c101.661,0,184.074-82.428,184.074-184.102C425.315,285.408,364.102,325.015,333.163,383.183z"/>
</g>
<g>
</g>
<g>
</g>
<g>
</g>
<g>
</g>
<g>
</g>
<g>
</g>
<g>
</g>
<g>
</g>
<g>
</g>
<g>
</g>
<g>
</g>
<g>
</g>
<g>
</g>
<g>
</g>
<g>
</g>
</svg>
