<?xml version="1.0" encoding="iso-8859-1"?>
<!-- Generator: Adobe Illustrator 19.0.0, SVG Export Plug-In . SVG Version: 6.00 Build 0)  -->
<svg version="1.1" id="Layer_1" xmlns="http://www.w3.org/2000/svg" xmlns:xlink="http://www.w3.org/1999/xlink" x="0px" y="0px"
	 viewBox="0 0 512 512" style="enable-background:new 0 0 512 512;" xml:space="preserve">
<path style="fill:#E6E6E6;" d="M393.43,9.251H112.572L0,121.823v380.925h393.43V275.5l-0.014-0.014l0.014-139.769V9.251z"/>
<polygon style="fill:#B3B3B3;" points="112.572,9.251 112.572,121.823 0,121.823 "/>
<polygon style="fill:#F7B239;" points="344.085,339.524 302.126,349.36 278.41,354.918 277.736,330.569 276.525,287.482 
	327.636,291.007 "/>
<polygon style="fill:#F95428;" points="512,121.562 393.417,275.486 344.085,339.524 310.312,313.51 310.312,313.496 
	368.806,189.414 478.213,95.534 "/>
<polygon style="fill:#D33924;" points="478.213,95.534 310.312,313.496 310.312,313.51 276.525,287.482 393.43,135.718 
	444.427,69.52 "/>
<g>
	<path style="fill:#F95428;" d="M127.75,251.559l7.799,80.59c0.516,5.334,5.006,9.324,10.257,9.324c0.332,0,0.669-0.017,1.006-0.048
		c5.672-0.549,9.825-5.592,9.275-11.264l-7.686-79.426c23.9-5.625,41.748-27.112,41.748-52.704
		c0-29.862-24.293-54.155-54.155-54.155c-29.86,0-54.154,24.293-54.154,54.155C81.839,225.09,101.788,247.577,127.75,251.559z
		 M135.994,164.512c18.484,0,33.52,15.036,33.52,33.52c0,18.482-15.038,33.518-33.52,33.518s-33.518-15.036-33.518-33.518
		C102.474,179.549,117.512,164.512,135.994,164.512z"/>
	<path style="fill:#F95428;" d="M110.738,271.313H55.711c-5.699,0-10.318,4.62-10.318,10.318s4.618,10.318,10.318,10.318h55.027
		c5.699,0,10.318-4.62,10.318-10.318S116.437,271.313,110.738,271.313z"/>
	<path style="fill:#F95428;" d="M179.668,285.734l44.022-49.524c3.786-4.259,3.402-10.78-0.857-14.566
		c-4.259-3.786-10.781-3.402-14.566,0.857l-44.022,49.524c-3.786,4.259-3.402,10.78,0.857,14.566
		c1.966,1.747,4.412,2.607,6.85,2.607C174.798,289.197,177.629,288.027,179.668,285.734z"/>
	<path style="fill:#F95428;" d="M150.977,356.89c-5.538-1.329-11.111,2.086-12.44,7.624l-16.508,68.784
		c-1.33,5.541,2.084,11.111,7.625,12.44c0.809,0.194,1.619,0.288,2.416,0.288c4.662,0,8.89-3.181,10.025-7.912l16.508-68.784
		C159.932,363.79,156.519,358.22,150.977,356.89z"/>
	<path style="fill:#F95428;" d="M255.381,374.412l-74.287-41.27c-4.985-2.769-11.263-0.973-14.031,4.009
		c-2.766,4.981-0.973,11.263,4.009,14.029l74.287,41.27c1.588,0.882,3.306,1.3,5.002,1.3c3.626,0,7.143-1.915,9.029-5.309
		C262.156,383.461,260.362,377.179,255.381,374.412z"/>
</g>
<path style="fill:#D33924;" d="M302.126,349.36l-23.717,5.558l-0.674-24.35c0.22-0.014,0.454-0.014,0.674-0.014
	C289.952,330.555,299.623,338.589,302.126,349.36z"/>
<g>
</g>
<g>
</g>
<g>
</g>
<g>
</g>
<g>
</g>
<g>
</g>
<g>
</g>
<g>
</g>
<g>
</g>
<g>
</g>
<g>
</g>
<g>
</g>
<g>
</g>
<g>
</g>
<g>
</g>
</svg>
