<?xml version="1.0" encoding="iso-8859-1"?>
<!-- Generator: Adobe Illustrator 19.0.0, SVG Export Plug-In . SVG Version: 6.00 Build 0)  -->
<svg version="1.1" id="Layer_1" xmlns="http://www.w3.org/2000/svg" xmlns:xlink="http://www.w3.org/1999/xlink" x="0px" y="0px"
	 viewBox="0 0 512 512" style="enable-background:new 0 0 512 512;" xml:space="preserve">
<path style="fill:#2BA5F7;" d="M277.297,293.682c52.458,8.279,92.577,53.688,92.577,108.492
	c0,60.657-49.169,109.826-109.826,109.826c-60.668,0-109.837-49.169-109.837-109.826c0-54.804,40.12-100.213,92.589-108.492
	l20.1,16.961l-20.1,17.892c-33.45,7.808-58.368,37.808-58.368,73.639c0,41.752,33.853,75.605,75.617,75.605
	c41.752,0,75.617-33.853,75.617-75.605c0-35.831-24.93-65.831-58.368-73.639L262.9,310.643L277.297,293.682z"/>
<path style="fill:#9AD14B;" d="M277.297,264.268v73.386c0,9.521-7.727,17.248-17.248,17.248c-9.533,0-17.248-7.727-17.248-17.248
	v-73.386c5.623-0.885,11.384-1.345,17.248-1.345C265.913,262.923,271.674,263.383,277.297,264.268z"/>
<path style="fill:#90BC42;" d="M277.297,270.018v41.292H242.8v-41.292c5.623-0.885,11.384-1.345,17.248-1.345
	C265.913,268.672,271.674,269.132,277.297,270.018z"/>
<path style="fill:#9AD14B;" d="M423.378,259.128v3.047c0,13.799-11.188,24.987-24.987,24.987H277.297h-17.248H242.8H113.599
	c-13.799,0-24.976-11.188-24.976-24.987v-3.047c0-13.799,11.177-24.987,24.976-24.987h45.995l88.357-27.563l104.444,27.563h45.995
	C412.19,234.141,423.378,245.33,423.378,259.128z"/>
<path style="fill:#F7B239;" d="M352.396,234.141H159.594c9.326-24.01,27.367-43.673,50.239-55.103
	c8.854-4.427,14.282-13.684,14.282-23.584v-0.402c0-18.973-6.773-37.141-18.433-52.09c-9.165-11.74-14.316-26.781-13.35-43.029
	c1.897-32.496,28.621-58.633,61.151-59.886c36.371-1.38,66.303,27.678,66.303,63.738c0,15.179-5.312,29.104-14.167,40.039
	c-5.876,7.279-10.315,15.512-13.281,24.274c-2.955,8.751-4.45,18.019-4.45,27.379c0,10.05,5.669,19.226,14.65,23.757
	c9.866,4.979,18.824,11.476,26.562,19.215C339.149,208.499,347.152,220.63,352.396,234.141z"/>
<path style="fill:#E09B2D;" d="M246.052,179.039c8.349-5.318,14.282-13.684,14.282-23.584v-0.402
	c0-18.973-6.773-37.141-18.433-52.09c-9.165-11.74-14.316-26.781-13.35-43.029c1.583-27.122,20.467-49.802,45.58-57.293
	c-6.512-1.93-13.451-2.866-20.65-2.593c-32.53,1.253-59.254,27.39-61.151,59.886c-0.966,16.248,4.186,31.288,13.35,43.029
	c11.66,14.949,18.433,33.117,18.433,52.09v0.402c0,9.901-5.427,19.157-14.282,23.584c-22.871,11.43-40.913,31.093-50.239,55.103
	h57.96C217.554,234.141,215.829,198.291,246.052,179.039z"/>
<path style="fill:#90BC42;" d="M174.86,262.176v-3.047c0-13.799,11.177-24.987,24.976-24.987h-40.243h-45.995
	c-13.799,0-24.976,11.188-24.976,24.987v3.047c0,13.799,11.177,24.987,24.976,24.987h86.237
	C186.037,287.163,174.86,275.974,174.86,262.176z"/>
<g>
</g>
<g>
</g>
<g>
</g>
<g>
</g>
<g>
</g>
<g>
</g>
<g>
</g>
<g>
</g>
<g>
</g>
<g>
</g>
<g>
</g>
<g>
</g>
<g>
</g>
<g>
</g>
<g>
</g>
</svg>
