<?xml version="1.0" encoding="iso-8859-1"?>
<!-- Generator: Adobe Illustrator 19.0.0, SVG Export Plug-In . SVG Version: 6.00 Build 0)  -->
<svg version="1.1" id="Layer_1" xmlns="http://www.w3.org/2000/svg" xmlns:xlink="http://www.w3.org/1999/xlink" x="0px" y="0px"
	 viewBox="0 0 512 512" style="enable-background:new 0 0 512 512;" xml:space="preserve">
<path style="fill:#F7B239;" d="M313.834,140.482H198.167c5.59-14.403,16.407-26.204,30.13-33.06c5.32-2.66,8.567-8.203,8.567-14.157
	v-0.234c0-11.379-4.067-22.278-11.051-31.255c-5.508-7.043-8.59-16.067-8.016-25.817c1.148-19.501,17.18-35.169,36.692-35.931
	c21.821-0.832,39.775,16.606,39.775,38.251c0,9.106-3.176,17.45-8.496,24.024c-3.527,4.371-6.188,9.305-7.969,14.555
	c-1.781,5.25-2.672,10.817-2.672,16.43c0,6.024,3.41,11.532,8.801,14.25c5.918,2.988,11.285,6.891,15.926,11.532
	C305.888,125.106,310.693,132.384,313.834,140.482z"/>
<path style="fill:#E09B2D;" d="M250.563,107.422c5.32-2.66,8.567-8.203,8.567-14.157v-0.234c0-11.379-4.067-22.278-11.051-31.255
	c-5.508-7.043-8.59-16.067-8.016-25.817c0.953-16.182,12.159-29.715,27.092-34.291c-3.987-1.215-8.244-1.807-12.666-1.64
	c-19.512,0.762-35.544,16.43-36.692,35.931c-0.574,9.75,2.508,18.774,8.016,25.817c6.985,8.977,11.051,19.876,11.051,31.255v0.234
	c0,5.953-3.246,11.496-8.567,14.157c-13.723,6.856-24.54,18.657-30.13,33.06h22.266C226.023,126.079,236.84,114.278,250.563,107.422
	z"/>
<path style="fill:#F95428;" d="M339.417,154.173v56.377H172.572v-56.377c0-10.216,8.281-18.496,18.496-18.496h129.852
	C331.136,135.677,339.417,143.959,339.417,154.173z"/>
<path style="fill:#D33924;" d="M232.773,135.677v74.873h-60.201v-56.377c0-10.216,8.281-18.496,18.496-18.496
	C191.068,135.677,232.773,135.677,232.773,135.677z"/>
<path style="fill:#2BA5F7;" d="M369.136,228.785v256.086c0,14.989-12.153,27.13-27.13,27.13H169.982
	c-14.977,0-27.118-12.141-27.118-27.13V228.785c0-14.977,12.141-27.13,27.118-27.13h2.59h166.845h2.59
	C356.984,201.656,369.136,213.808,369.136,228.785z"/>
<path style="fill:#2197D8;" d="M201.46,484.871V228.785c0-14.977,12.141-27.13,27.118-27.13h-56.006h-2.59
	c-14.977,0-27.118,12.153-27.118,27.13v256.086c0,14.989,12.141,27.13,27.118,27.13h58.595
	C213.601,512,201.46,499.859,201.46,484.871z"/>
<path style="fill:#E6E6E6;" d="M346.905,353.933v123.742c0,6.012-4.875,10.887-10.887,10.887H175.971
	c-6.012,0-10.887-4.875-10.887-10.887V338.007c17.579,1.523,24.258,8.567,36.376,12.856c5.578,1.981,12.317,3.375,21.809,3.375
	c32.72,0,32.72-16.536,65.439-16.536C318.803,337.702,321.217,351.707,346.905,353.933z"/>
<path style="fill:#CCCCCC;" d="M201.717,488.562h-25.747c-6.012,0-10.887-4.875-10.887-10.887V338.007
	c17.579,1.523,24.259,8.567,36.376,12.856v134.008C201.46,486.125,201.542,487.355,201.717,488.562z"/>
<g>
</g>
<g>
</g>
<g>
</g>
<g>
</g>
<g>
</g>
<g>
</g>
<g>
</g>
<g>
</g>
<g>
</g>
<g>
</g>
<g>
</g>
<g>
</g>
<g>
</g>
<g>
</g>
<g>
</g>
</svg>
