<?xml version="1.0" encoding="iso-8859-1"?>
<!-- Generator: Adobe Illustrator 19.0.0, SVG Export Plug-In . SVG Version: 6.00 Build 0)  -->
<svg version="1.1" id="Layer_1" xmlns="http://www.w3.org/2000/svg" xmlns:xlink="http://www.w3.org/1999/xlink" x="0px" y="0px"
	 viewBox="0 0 512 512" style="enable-background:new 0 0 512 512;" xml:space="preserve">
<path style="fill:#2BA5F7;" d="M385.99,230.653v222.302c0,32.608-26.436,59.045-59.057,59.045H185.055
	c-32.608,0-59.045-26.436-59.045-59.045V230.653v-36.41H385.99V230.653z"/>
<path style="fill:#F95428;" d="M410.348,174.473H385.99v-14.929c0-43.989-35.663-79.651-79.651-79.651h-13.586v-43.14
	C292.752,16.45,276.303,0,256,0s-36.752,16.45-36.752,36.752v43.14h-13.586c-43.989,0-79.651,35.663-79.651,79.651v14.929h-24.358
	c-15.474,0-29.693,5.361-40.909,14.333c-15.005,12.002-24.624,30.479-24.624,51.2V379.78c0,6.299,2.56,12.002,6.679,16.133
	c4.131,4.119,9.834,6.679,16.133,6.679c12.597,0,22.812-10.215,22.812-22.812V240.006c0-0.71,0.038-1.419,0.114-2.116
	c1.052-9.999,9.505-17.793,19.796-17.793h24.358l0,0H385.99l0,0h24.358c11,0,19.91,8.909,19.91,19.91V379.78
	c0,12.597,10.215,22.812,22.812,22.812s22.812-10.215,22.812-22.812V240.006C475.881,203.811,446.543,174.473,410.348,174.473z"/>
<g>
	<path style="fill:#D33924;" d="M230.653,36.752c0-18.362,13.456-33.571,31.05-36.31C259.844,0.153,257.94,0,256,0
		c-20.303,0-36.752,16.45-36.752,36.752v43.14h11.406V36.752z"/>
	<path style="fill:#D33924;" d="M219.248,79.892h-13.586c-43.989,0-79.651,35.663-79.651,79.651v14.929l0,0h-24.358
		c-15.474,0-29.693,5.361-40.909,14.333l21.114,49.084c1.052-9.999,9.505-17.793,19.796-17.793h24.358l0,0h60.832V185.03v-1.419
		v-24.067c0-43.989,35.663-79.651,79.652-79.651C266.493,79.892,219.248,79.892,219.248,79.892z"/>
</g>
<path style="fill:#2197D8;" d="M186.045,452.955V230.653v-10.557H126.01v10.557v222.302c0,32.608,26.436,59.045,59.045,59.045
	h60.035C212.481,512,186.045,485.564,186.045,452.955z"/>
<path style="fill:#F7B239;" d="M361.936,327.262V465.16c0,10.493-8.516,19.01-19.01,19.01H169.074
	c-10.506,0-19.023-8.516-19.023-19.01V308.708c17.198,1.495,25.435,7.515,35.992,12.369c7.807,3.587,16.893,6.539,31.81,6.539
	c38.134,0,38.134-19.263,76.268-19.263C329.201,308.353,332.014,324.676,361.936,327.262z"/>
<path style="fill:#E09B2D;" d="M194.978,484.169h-25.904c-10.506,0-19.023-8.516-19.023-19.01V308.708
	c17.198,1.495,25.435,7.515,35.992,12.369v131.878C186.044,464.412,189.313,475.121,194.978,484.169z"/>
<g>
</g>
<g>
</g>
<g>
</g>
<g>
</g>
<g>
</g>
<g>
</g>
<g>
</g>
<g>
</g>
<g>
</g>
<g>
</g>
<g>
</g>
<g>
</g>
<g>
</g>
<g>
</g>
<g>
</g>
</svg>
