<?xml version="1.0" encoding="iso-8859-1"?>
<!-- Generator: Adobe Illustrator 19.0.0, SVG Export Plug-In . SVG Version: 6.00 Build 0)  -->
<svg version="1.1" id="Layer_1" xmlns="http://www.w3.org/2000/svg" xmlns:xlink="http://www.w3.org/1999/xlink" x="0px" y="0px"
	 viewBox="0 0 512.001 512.001" style="enable-background:new 0 0 512.001 512.001;" xml:space="preserve">
<path style="fill:#F7B239;" d="M364.999,289.391l-6.419-32.155h11.822c10.649,0,19.282-8.632,19.282-19.282v-13.379
	c0-10.649-8.632-19.282-19.282-19.282h-12.873l8.274-57.26l3.154-21.791l-14.012-17.491l-19.676,17.491l-3.154,21.791l-8.274,57.26
	H185.828c-7.925,0-14.648-5.821-15.78-13.664l-6.299-43.595l-3.154-21.791l-27.434-10.895l-24.508,10.895l3.154,21.791l3.42,23.663
	c3.233,22.37,4.854,44.941,4.854,67.543v1.722c0,8.988,7.287,16.275,16.275,16.275l0,0l-6.419,32.155l-44.41,222.609h35.296
	l30.572-153.254l0,0H343.53l0,0L374.101,512h35.296L364.999,289.391z M158.813,321.546l6.419-32.155l6.406-32.155h151.646
	l6.419,32.155l6.406,32.155H158.813z"/>
<g>
	<polygon style="fill:#E09B2D;" points="368.956,126.244 365.802,148.035 332.114,148.035 335.268,126.244 354.944,108.753 	"/>
	<polygon style="fill:#E09B2D;" points="160.594,126.244 163.748,148.035 111.806,148.035 108.652,126.244 133.16,115.348 	"/>
</g>
<path style="fill:#F7B239;" d="M145.519,22.026l9.696,67.018l-22.054,26.305l-29.888-26.305L94.64,29.384
	C92.402,13.888,104.423,0,120.079,0c6.394,0,12.293,2.35,16.819,6.27C141.438,10.203,144.604,15.706,145.519,22.026z"/>
<path style="fill:#F95428;" d="M416.112,89.043c10.277,0,18.6,8.323,18.6,18.6c0,5.132-2.078,9.782-5.442,13.159
	c-3.364,3.364-8.014,5.442-13.159,5.442h-47.156h-33.688H160.594h-51.942H95.889c-10.265,0-18.6-8.323-18.6-18.6
	c0-5.132,2.09-9.782,5.454-13.159c3.364-3.364,8.014-5.442,13.146-5.442h7.383h51.942H416.112z"/>
<path style="fill:#D33924;" d="M147.778,107.644c0-5.132,2.09-9.782,5.454-13.159c3.364-3.364,8.014-5.442,13.146-5.442h-11.164
	h-51.942h-7.383c-5.132,0-9.782,2.078-13.146,5.442c-3.364,3.376-5.454,8.026-5.454,13.159c0,10.277,8.335,18.6,18.6,18.6h12.763
	h51.942h5.784C156.114,126.244,147.778,117.921,147.778,107.644z"/>
<g>
	<polygon style="fill:#E09B2D;" points="136.355,257.237 171.638,257.237 165.232,289.391 129.936,289.391 	"/>
	<polygon style="fill:#E09B2D;" points="364.999,289.391 329.703,289.391 323.284,257.237 358.58,257.237 	"/>
</g>
<g>
</g>
<g>
</g>
<g>
</g>
<g>
</g>
<g>
</g>
<g>
</g>
<g>
</g>
<g>
</g>
<g>
</g>
<g>
</g>
<g>
</g>
<g>
</g>
<g>
</g>
<g>
</g>
<g>
</g>
</svg>
