<?xml version="1.0" encoding="iso-8859-1"?>
<!-- Generator: Adobe Illustrator 19.0.0, SVG Export Plug-In . SVG Version: 6.00 Build 0)  -->
<svg version="1.1" id="Layer_1" xmlns="http://www.w3.org/2000/svg" xmlns:xlink="http://www.w3.org/1999/xlink" x="0px" y="0px"
	 viewBox="0 0 512 512" style="enable-background:new 0 0 512 512;" xml:space="preserve">
<path style="fill:#F7B239;" d="M256.004,38.588L56.378,163.651v320.018h399.24V163.651L256.004,38.588z"/>
<path style="fill:#E09B2D;" d="M265.277,365.444v-77.553c0-44.099,35.877-79.976,79.976-79.976s79.976,35.877,79.976,79.976v77.553
	H265.277z"/>
<rect x="272.23" y="319.392" style="fill:#F95428;" width="146.042" height="39.095"/>
<path style="fill:#B27214;" d="M418.273,287.891v40.463H272.231v-40.463c0-40.336,32.686-73.021,73.021-73.021
	C385.576,214.87,418.273,247.556,418.273,287.891z"/>
<polygon style="fill:#E09B2D;" points="455.618,163.651 455.618,199.837 256.004,74.774 56.378,199.837 56.378,163.651 
	256.004,38.588 "/>
<path style="fill:#F95428;" d="M296.432,123.385c10.235,10.235,10.235,26.809,0,37.044l-40.428,40.428l-40.44-40.428
	c-5.111-5.111-7.661-11.822-7.661-18.522s2.55-13.41,7.661-18.522c10.223-10.223,26.809-10.223,37.032,0l3.408,3.408l3.396-3.408
	c5.111-5.111,11.811-7.661,18.51-7.661C284.621,115.723,291.321,118.273,296.432,123.385z"/>
<g>
	<path style="fill:#2BA5F7;" d="M272.226,384.57c-4.801,0-8.693,3.892-8.693,8.693v60.271c0,4.801,3.892,8.693,8.693,8.693
		s8.693-3.892,8.693-8.693v-60.271C280.919,388.462,277.027,384.57,272.226,384.57z"/>
	<path style="fill:#2BA5F7;" d="M418.269,384.57c-4.801,0-8.693,3.892-8.693,8.693v60.271c0,4.801,3.892,8.693,8.693,8.693
		c4.801,0,8.693-3.892,8.693-8.693v-60.271C426.962,388.462,423.07,384.57,418.269,384.57z"/>
	<path style="fill:#2BA5F7;" d="M381.758,384.57c-4.801,0-8.693,3.892-8.693,8.693v60.271c0,4.801,3.892,8.693,8.693,8.693
		s8.693-3.892,8.693-8.693v-60.271C390.451,388.462,386.559,384.57,381.758,384.57z"/>
	<path style="fill:#2BA5F7;" d="M345.247,384.57c-4.801,0-8.693,3.892-8.693,8.693v60.271c0,4.801,3.892,8.693,8.693,8.693
		c4.801,0,8.693-3.892,8.693-8.693v-60.271C353.94,388.462,350.048,384.57,345.247,384.57z"/>
	<path style="fill:#2BA5F7;" d="M308.737,384.57c-4.801,0-8.693,3.892-8.693,8.693v60.271c0,4.801,3.892,8.693,8.693,8.693
		c4.801,0,8.693-3.892,8.693-8.693v-60.271C317.43,388.462,313.538,384.57,308.737,384.57z"/>
</g>
<polygon style="fill:#9AD14B;" points="502.769,203.45 255.999,48.847 9.23,203.45 0,188.717 255.999,28.331 512,188.717 "/>
<path style="fill:#E09B2D;" d="M246.732,287.891v195.778H86.78V287.891c0-44.102,35.873-79.976,79.976-79.976
	S246.732,243.789,246.732,287.891z"/>
<path style="fill:#9AD14B;" d="M93.735,287.891v195.778h146.042V287.891c0-40.336-32.686-73.021-73.021-73.021
	C126.432,214.87,93.735,247.556,93.735,287.891z"/>
<path style="fill:#90BC42;" d="M151.98,216.367c4.772-0.981,9.713-1.498,14.776-1.498c40.335,0,73.021,32.686,73.021,73.021v195.778
	h-29.555V287.891C210.222,252.62,185.227,223.199,151.98,216.367z"/>
<circle style="fill:#666666;" cx="195.731" cy="351.533" r="8.693"/>
<g>
</g>
<g>
</g>
<g>
</g>
<g>
</g>
<g>
</g>
<g>
</g>
<g>
</g>
<g>
</g>
<g>
</g>
<g>
</g>
<g>
</g>
<g>
</g>
<g>
</g>
<g>
</g>
<g>
</g>
</svg>
