<?xml version="1.0" encoding="iso-8859-1"?>
<!-- Generator: Adobe Illustrator 19.0.0, SVG Export Plug-In . SVG Version: 6.00 Build 0)  -->
<svg version="1.1" id="Layer_1" xmlns="http://www.w3.org/2000/svg" xmlns:xlink="http://www.w3.org/1999/xlink" x="0px" y="0px"
	 viewBox="0 0 512 512" style="enable-background:new 0 0 512 512;" xml:space="preserve">
<path style="fill:#2BA5F7;" d="M356.176,41.482C330.536,15.854,295.124,0,256.006,0c-78.235,0-141.664,63.417-141.664,141.652
	v228.685c0,33.902,11.906,65.025,31.794,89.41c2.084,2.559,4.253,5.045,6.507,7.446c2.34,2.498,4.753,4.899,7.263,7.214
	c25.25,23.336,59.005,37.594,96.1,37.594c57.811,0,107.53-34.633,129.551-84.291c1.243-2.791,2.388-5.63,3.449-8.506
	c1.048-2.852,2.011-5.74,2.864-8.664c3.766-12.747,5.788-26.237,5.788-40.202V141.652
	C397.658,102.534,381.803,67.121,356.176,41.482z"/>
<path style="fill:#F9E0D2;" d="M361.209,145.612c-1.73-13.198-7.726-25.042-16.561-34.121
	c-10.955-11.272-26.273-18.279-43.236-18.279h-90.811c-16.658,0-31.733,6.751-42.651,17.67c-0.195,0.195-0.402,0.402-0.597,0.609
	c-8.823,9.066-14.818,20.911-16.549,34.097c-0.341,2.596-0.524,5.252-0.524,7.945c0,33.317,27.004,60.321,60.321,60.321h90.811
	c16.646,0,31.733-6.751,42.639-17.67c10.919-10.907,17.67-25.993,17.67-42.651C361.721,150.852,361.55,148.195,361.209,145.612z"/>
<path style="fill:#E5CDC1;" d="M344.648,111.491c-10.955-11.272-26.273-18.279-43.236-18.279H252.06
	c16.963,0,32.281,7.007,43.236,18.279c10.565,10.858,17.073,25.688,17.073,42.042c0,16.658-6.751,31.745-17.67,42.651
	c-10.907,10.919-25.993,17.67-42.639,17.67h49.351c16.646,0,31.733-6.751,42.639-17.67c10.919-10.907,17.67-25.993,17.67-42.651
	C361.721,137.179,355.213,122.349,344.648,111.491z"/>
<g>
	<path style="fill:#2197D8;" d="M208.731,467.192c-23.763-25.335-38.301-59.395-38.301-96.855v-37.424V225.066v-26.544
		c-12.363-11.045-20.151-27.104-20.151-44.989c0-16.354,6.507-31.184,17.073-42.042c0.195-0.207,0.402-0.414,0.597-0.609
		c2.285-2.284,4.76-4.374,7.385-6.269C189.23,53.191,231.35,13.365,284.051,2.782C274.985,0.96,265.608,0,256.006,0
		c-78.235,0-141.664,63.417-141.664,141.652v83.414v107.847v37.424c0,37.46,14.538,71.52,38.301,96.855
		C178.478,494.769,215.231,512,256.006,512c9.609,0,18.993-0.96,28.066-2.785C254.63,503.306,228.486,488.28,208.731,467.192z"/>
	<path style="fill:#2197D8;" d="M397.658,288.701L207.249,352.52l184.62,58.018c-0.853,2.925-1.816,5.813-2.864,8.664
		c-1.06,2.876-2.206,5.715-3.449,8.506l-44.552-14.002l-181.098,60.699c-2.51-2.315-4.923-4.716-7.263-7.214
		c-2.254-2.401-4.424-4.887-6.507-7.446l165.183-55.362l-196.977-61.893v-19.157l63.209,19.863l136.594-45.783l-199.804-62.771
		v-19.157l229.306,72.044l54.009-18.096V288.701z"/>
</g>
<g>
	<path style="fill:#333333;" d="M205.74,183.259c-6.511,0-12.63-2.535-17.234-7.137c-2.38-2.38-2.38-6.238,0-8.617
		c2.378-2.38,6.238-2.38,8.616,0c4.75,4.751,12.482,4.751,17.234,0c2.378-2.38,6.238-2.38,8.616,0c2.38,2.38,2.38,6.238,0,8.617
		C218.368,180.723,212.249,183.259,205.74,183.259z"/>
	<path style="fill:#333333;" d="M306.269,183.246c-6.242,0-12.482-2.375-17.234-7.126c-2.38-2.38-2.38-6.238,0-8.617
		c2.378-2.38,6.238-2.38,8.616,0c4.75,4.75,12.481,4.751,17.235,0c2.38-2.379,6.237-2.379,8.617,0.001
		c2.379,2.38,2.379,6.237-0.001,8.617C318.751,180.871,312.508,183.246,306.269,183.246z"/>
</g>
<path style="fill:#9AD14B;" d="M344.648,111.491c-0.195,0.207-0.402,0.414-0.597,0.609c-9.603,9.603-22.41,15.976-36.68,17.377
	c-1.962,0.195-3.96,0.292-5.971,0.292h-90.799c-16.963,0-32.293-7.007-43.249-18.279c0.195-0.207,0.402-0.414,0.597-0.609
	c10.919-10.919,25.993-17.67,42.651-17.67h90.811C318.375,93.212,333.693,100.219,344.648,111.491z"/>
<path style="fill:#90BC42;" d="M344.648,111.491c-0.195,0.207-0.402,0.414-0.597,0.609c-9.603,9.603-22.41,15.976-36.68,17.377
	c-2.912-6.715-7.031-12.808-12.076-17.987c-10.955-11.272-26.273-18.279-43.236-18.279h49.354
	C318.375,93.212,333.693,100.219,344.648,111.491z"/>
<g>
</g>
<g>
</g>
<g>
</g>
<g>
</g>
<g>
</g>
<g>
</g>
<g>
</g>
<g>
</g>
<g>
</g>
<g>
</g>
<g>
</g>
<g>
</g>
<g>
</g>
<g>
</g>
<g>
</g>
</svg>
