<?xml version="1.0" encoding="iso-8859-1"?>
<!-- Generator: Adobe Illustrator 19.0.0, SVG Export Plug-In . SVG Version: 6.00 Build 0)  -->
<svg version="1.1" id="Layer_1" xmlns="http://www.w3.org/2000/svg" xmlns:xlink="http://www.w3.org/1999/xlink" x="0px" y="0px"
	 viewBox="0 0 512 512" style="enable-background:new 0 0 512 512;" xml:space="preserve">
<path style="fill:#F95428;" d="M480.519,181.103c-19.442-19.454-46.31-31.481-75.992-31.481H107.465
	c-59.352,0-107.462,48.121-107.462,107.473c0,29.67,12.027,56.539,31.469,75.992c14.576,14.576,33.314,24.977,54.267,29.29v-0.012
	h340.524C475.192,352.322,512,308.998,512,257.095C512,227.424,499.973,200.556,480.519,181.103z"/>
<polygon style="fill:#F7B239;" points="384.601,255.884 384.597,255.898 384.597,255.885 354.411,255.885 354.411,255.884 
	327.843,255.884 327.839,255.898 327.839,255.885 297.653,255.885 297.653,255.884 256.002,255.884 199.244,255.884 
	157.581,255.884 157.577,255.898 157.577,255.885 127.391,255.885 127.391,255.884 85.74,255.884 85.74,362.366 142.486,362.366 
	199.244,362.366 256.002,362.366 312.748,362.366 369.506,362.366 426.264,362.366 426.264,255.884 "/>
<path style="fill:#E54728;" d="M51.073,333.088c-19.442-19.454-31.469-46.322-31.469-75.992
	c0-59.352,48.109-107.473,107.462-107.473h-19.603C48.109,149.623,0,197.744,0,257.096c0,29.67,12.027,56.539,31.469,75.992
	c14.576,14.576,33.314,24.977,54.267,29.29v-0.012h19.553C84.357,358.048,65.637,347.653,51.073,333.088z"/>
<path style="fill:#9AD14B;" d="M271.093,185.855c9.998,0,18.104,8.107,18.104,18.116c0,9.998-8.107,18.104-18.104,18.104
	c-10.009,0-18.116-8.107-18.116-18.104C252.977,193.961,261.084,185.855,271.093,185.855z"/>
<path style="fill:#2BA5F7;" d="M221.181,185.855c9.998,0,18.104,8.107,18.104,18.116c0,9.998-8.107,18.104-18.104,18.104
	c-10.009,0-18.116-8.107-18.116-18.104C203.065,193.961,211.172,185.855,221.181,185.855z"/>
<path style="fill:#F7B239;" d="M171.263,185.855c10.009,0,18.116,8.107,18.116,18.116c0,9.998-8.107,18.104-18.116,18.104
	c-9.998,0-18.116-8.107-18.116-18.104C153.147,193.961,161.265,185.855,171.263,185.855z"/>
<g>
	<path style="fill:#9AD14B;" d="M121.357,185.855c9.998,0,18.104,8.107,18.104,18.116c0,9.998-8.107,18.104-18.104,18.104
		c-10.009,0-18.116-8.107-18.116-18.104C103.241,193.961,111.348,185.855,121.357,185.855z"/>
	<polygon style="fill:#9AD14B;" points="426.264,255.884 426.264,362.366 369.506,362.366 369.506,312.527 384.601,255.884 	"/>
</g>
<polygon style="fill:#2BA5F7;" points="312.748,312.527 312.748,362.366 256.002,362.366 256.002,255.884 297.653,255.884 "/>
<polygon style="fill:#F7B239;" points="369.506,312.527 369.506,362.366 312.748,362.366 312.748,312.527 327.843,255.884 
	354.411,255.884 "/>
<rect x="199.24" y="255.883" style="fill:#9AD14B;" width="56.758" height="106.481"/>
<polygon style="fill:#F7B239;" points="199.244,255.884 199.244,362.366 142.486,362.366 142.486,312.527 157.581,255.884 "/>
<polygon style="fill:#2BA5F7;" points="142.486,312.527 142.486,362.366 85.74,362.366 85.74,255.884 127.391,255.884 "/>
<g>
	<path style="fill:#666666;" d="M410.692,180.827h-76.68c-4.776,0-8.649,3.872-8.649,8.649c0,4.776,3.872,8.649,8.649,8.649h76.68
		c4.776,0,8.649-3.872,8.649-8.649C419.34,184.699,415.468,180.827,410.692,180.827z"/>
	<path style="fill:#666666;" d="M410.692,209.808h-76.68c-4.776,0-8.649,3.872-8.649,8.649c0,4.776,3.872,8.649,8.649,8.649h76.68
		c4.776,0,8.649-3.872,8.649-8.649C419.34,213.68,415.468,209.808,410.692,209.808z"/>
	<circle style="fill:#666666;" cx="463.564" cy="276.697" r="8.649"/>
	<circle style="fill:#666666;" cx="463.564" cy="237.49" r="8.649"/>
	<circle style="fill:#666666;" cx="482.015" cy="257.094" r="8.649"/>
	<circle style="fill:#666666;" cx="48.432" cy="276.697" r="8.649"/>
	<circle style="fill:#666666;" cx="48.432" cy="237.49" r="8.649"/>
	<circle style="fill:#666666;" cx="29.982" cy="257.094" r="8.649"/>
	<polygon style="fill:#666666;" points="384.597,255.885 384.597,312.528 369.502,312.528 354.408,312.528 354.408,255.885 	"/>
	<polygon style="fill:#666666;" points="327.839,255.885 327.839,312.528 312.745,312.528 297.65,312.528 297.65,255.885 	"/>
	<polygon style="fill:#666666;" points="157.577,255.885 157.577,312.528 142.483,312.528 127.388,312.528 127.388,255.885 	"/>
</g>
<g>
</g>
<g>
</g>
<g>
</g>
<g>
</g>
<g>
</g>
<g>
</g>
<g>
</g>
<g>
</g>
<g>
</g>
<g>
</g>
<g>
</g>
<g>
</g>
<g>
</g>
<g>
</g>
<g>
</g>
</svg>
