<?xml version="1.0" encoding="iso-8859-1"?>
<!-- Generator: Adobe Illustrator 19.0.0, SVG Export Plug-In . SVG Version: 6.00 Build 0)  -->
<svg version="1.1" id="Layer_1" xmlns="http://www.w3.org/2000/svg" xmlns:xlink="http://www.w3.org/1999/xlink" x="0px" y="0px"
	 viewBox="0 0 512 512" style="enable-background:new 0 0 512 512;" xml:space="preserve">
<polygon style="fill:#F7B239;" points="369.788,142.226 284.452,0 142.226,142.212 51.472,218.432 151.708,302.413 142.226,369.774 
	227.562,512 369.788,369.76 512,284.438 "/>
<path style="fill:#E09B2D;" d="M213.8,298.2l-71.574,71.574L0,227.548l196.678,21.862C194.755,266.789,200.471,284.872,213.8,298.2z
	"/>
<g>
	<path style="fill:#2BA5F7;" d="M496.017,15.997L369.788,142.226L298.214,213.8c-27.307,66.941-54.398,47.978-35.611-17.121
		L284.452,0L496.017,15.997z"/>
	<path style="fill:#2BA5F7;" d="M249.41,315.322L227.562,512L16.011,495.989l126.215-126.215L213.8,298.2h0.014
		C234.334,248.232,256.007,275.322,249.41,315.322z"/>
	<path style="fill:#2BA5F7;" d="M213.813,213.786L213.8,213.8c42.207,30.369,15.117,53.396-17.121,35.611L0,227.548L16.011,15.997
		l126.215,126.215L213.813,213.786z"/>
</g>
<g>
	<polyline style="fill:#E09B2D;" points="281.743,295.64 308.647,430.907 391.46,349.822 309.244,282.976 	"/>
	<polygon style="fill:#E09B2D;" points="262.603,196.678 284.452,0 214.515,69.93 238.627,198.892 249.909,217.76 	"/>
</g>
<path style="fill:#2BA5F7;" d="M512,284.438l-15.983,211.551L369.788,369.76l-71.574-71.56v-0.014
	c-36.789-22.865-42.211-42.192,17.108-35.611L512,284.438z"/>
<path style="fill:#F95428;" d="M262.603,196.678c13.004,1.436,25.641,7.152,35.611,17.121
	c13.329,13.329,19.031,31.385,17.108,48.777c-1.436,13.004-7.125,25.628-17.108,35.611v0.014
	c-13.342,13.342-31.412,19.045-48.804,17.121c-13.004-1.436-25.628-7.138-35.597-17.121H213.8
	c-13.329-13.329-19.045-31.412-17.121-48.79c1.436-13.004,7.152-25.641,17.121-35.611l0.014-0.014
	C227.142,200.457,245.211,194.755,262.603,196.678z"/>
<g>
</g>
<g>
</g>
<g>
</g>
<g>
</g>
<g>
</g>
<g>
</g>
<g>
</g>
<g>
</g>
<g>
</g>
<g>
</g>
<g>
</g>
<g>
</g>
<g>
</g>
<g>
</g>
<g>
</g>
</svg>
