<?xml version="1.0" encoding="iso-8859-1"?>
<!-- Generator: Adobe Illustrator 19.0.0, SVG Export Plug-In . SVG Version: 6.00 Build 0)  -->
<svg version="1.1" id="Layer_1" xmlns="http://www.w3.org/2000/svg" xmlns:xlink="http://www.w3.org/1999/xlink" x="0px" y="0px"
	 viewBox="0 0 512 512" style="enable-background:new 0 0 512 512;" xml:space="preserve">
<path style="fill:#2BA5F7;" d="M256.002,93.116c-4.873,0-8.822-3.95-8.822-8.822V23.989c0-4.872,3.949-8.822,8.822-8.822
	s8.822,3.95,8.822,8.822v60.304C264.824,89.166,260.875,93.116,256.002,93.116z"/>
<path style="fill:#F7B239;" d="M313.806,83.553v9.41l-51.919,38.38l-63.681-38.38v-9.41c0-12.103,9.81-21.925,21.925-21.925h35.875
	h35.875C303.996,61.628,313.806,71.45,313.806,83.553z"/>
<path style="fill:#E09B2D;" d="M241.936,92.963v-9.41c0-12.103,9.81-21.925,21.925-21.925h-7.855h-35.875
	c-12.115,0-21.925,9.821-21.925,21.925v9.41l63.681,38.38l19.641-14.518L241.936,92.963z"/>
<path style="fill:#2197D8;" d="M306.925,372.152v0.035c-0.506-0.024-1.012-0.035-1.517-0.035l-54.106,27.371l-44.697-27.371
	c-0.506,0-1.012,0.012-1.517,0.035v-0.035l-4.552-44.355l59-48.249l51.942,48.249L306.925,372.152z"/>
<polygon style="fill:#2BA5F7;" points="313.806,199.565 313.806,188.979 198.206,188.979 198.206,199.565 198.206,92.963 
	313.806,92.963 "/>
<polygon style="fill:#2197D8;" points="241.936,199.565 241.936,193.683 198.206,193.683 198.206,199.565 198.206,92.963 
	241.936,92.963 "/>
<path style="fill:#F7B239;" d="M434.028,171.864c43.062,0,77.972,34.899,77.972,77.96c0,21.537-8.728,41.027-22.842,55.13
	c-14.103,14.115-33.593,22.842-55.13,22.842H311.477H200.535H77.972C34.91,327.797,0,292.887,0,249.825
	c0-21.537,8.728-41.015,22.842-55.13c14.103-14.103,33.605-22.831,55.13-22.831h120.234h115.6L434.028,171.864L434.028,171.864z"/>
<g>
	<path style="fill:#666666;" d="M76.04,205.716c-4.873,0-8.822,3.95-8.822,8.822v70.574c0,4.872,3.949,8.822,8.822,8.822
		s8.822-3.95,8.822-8.822v-70.574C84.861,209.666,80.913,205.716,76.04,205.716z"/>
	<path style="fill:#666666;" d="M125.441,205.716c-4.873,0-8.822,3.95-8.822,8.822v70.574c0,4.872,3.949,8.822,8.822,8.822
		c4.873,0,8.822-3.95,8.822-8.822v-70.574C134.263,209.666,130.314,205.716,125.441,205.716z"/>
	<path style="fill:#666666;" d="M386.564,205.716c-4.873,0-8.822,3.95-8.822,8.822v70.574c0,4.872,3.949,8.822,8.822,8.822
		c4.873,0,8.822-3.95,8.822-8.822v-70.574C395.385,209.666,391.437,205.716,386.564,205.716z"/>
	<path style="fill:#666666;" d="M435.965,205.716c-4.873,0-8.822,3.95-8.822,8.822v70.574c0,4.872,3.949,8.822,8.822,8.822
		c4.873,0,8.822-3.95,8.822-8.822v-70.574C444.787,209.666,440.838,205.716,435.965,205.716z"/>
</g>
<path style="fill:#F95428;" d="M305.407,372.152h-98.803c-21.437,0-38.816,17.379-38.816,38.816l0,0
	c0,21.437,17.379,38.815,38.816,38.815h98.803c21.437,0,38.816-17.379,38.816-38.815l0,0
	C344.223,389.53,326.844,372.152,305.407,372.152z"/>
<path style="fill:#666666;" d="M330.105,48.102H181.9c-4.873,0-8.822-3.95-8.822-8.822s3.949-8.822,8.822-8.822h148.205
	c4.873,0,8.822,3.95,8.822,8.822S334.978,48.102,330.105,48.102z"/>
<path style="fill:#2BA5F7;" d="M272.473,449.783v30.582c0,9.092-7.375,16.467-16.467,16.467c-9.104,0-16.467-7.375-16.467-16.467
	v-30.582V388.62c0-9.092,7.363-16.467,16.467-16.467c4.54,0,8.657,1.847,11.645,4.823c2.976,2.976,4.823,7.093,4.823,11.645V449.783
	z"/>
<g>
</g>
<g>
</g>
<g>
</g>
<g>
</g>
<g>
</g>
<g>
</g>
<g>
</g>
<g>
</g>
<g>
</g>
<g>
</g>
<g>
</g>
<g>
</g>
<g>
</g>
<g>
</g>
<g>
</g>
</svg>
