<?xml version="1.0" encoding="iso-8859-1"?>
<!-- Generator: Adobe Illustrator 19.0.0, SVG Export Plug-In . SVG Version: 6.00 Build 0)  -->
<svg version="1.1" id="Layer_1" xmlns="http://www.w3.org/2000/svg" xmlns:xlink="http://www.w3.org/1999/xlink" x="0px" y="0px"
	 viewBox="0 0 512 512" style="enable-background:new 0 0 512 512;" xml:space="preserve">
<polygon style="fill:#F95428;" points="499.925,63.118 499.925,401.232 452.83,412.1 32.604,412.1 12.075,401.232 12.075,63.118 "/>
<g>
	<path style="fill:#808080;" d="M467.321,422.642c13.995,0,25.358,11.351,25.358,25.358c0,14.008-11.363,25.358-25.358,25.358
		c-14.008,0-25.358-11.351-25.358-25.358C441.962,433.992,453.313,422.642,467.321,422.642z"/>
	<path style="fill:#808080;" d="M44.679,422.642c13.995,0,25.358,11.351,25.358,25.358c0,14.008-11.363,25.358-25.358,25.358
		c-14.008,0-25.358-11.351-25.358-25.358C19.321,433.992,30.672,422.642,44.679,422.642z"/>
</g>
<path style="fill:#9AD14B;" d="M491.472,38.642c11.339,0,20.528,9.189,20.528,20.528c0,5.663-2.294,10.808-6.014,14.515
	c-3.719,3.719-8.839,6.014-14.515,6.014H20.528C9.189,79.698,0,70.509,0,59.17c0-5.663,2.294-10.808,6.014-14.515
	c3.719-3.719,8.839-6.014,14.515-6.014H491.472z"/>
<path style="fill:#90BC42;" d="M65.204,59.17c0-5.663,2.294-10.808,6.014-14.515c3.719-3.719,8.839-6.014,14.515-6.014H20.528
	c-5.675,0-10.795,2.294-14.515,6.014C2.294,48.362,0,53.506,0,59.17c0,11.339,9.189,20.528,20.528,20.528h65.204
	C74.393,79.698,65.204,70.509,65.204,59.17z"/>
<polygon style="fill:#9AD14B;" points="512,388.83 512,429.887 467.321,429.887 44.679,429.887 0,429.887 0,388.83 12.075,388.83 
	52.661,388.83 459.339,388.83 499.925,388.83 "/>
<path style="fill:#D33924;" d="M81.026,79.698v91.194c11.955,28.679,48.181,190.177,48.181,217.938H52.661H12.075V79.698H81.026z"/>
<path style="fill:#87AA39;" d="M459.339,242.657V388.83H52.661V242.657c0-57.986,47.01-104.996,104.996-104.996h196.685
	C412.329,137.66,459.339,184.67,459.339,242.657z"/>
<path style="fill:#90BC42;" d="M401.926,270.172V388.83H71.798V270.172c0-47.071,38.161-85.232,85.232-85.232h159.662
	C363.765,184.939,401.926,223.1,401.926,270.172z"/>
<g>
</g>
<g>
</g>
<g>
</g>
<g>
</g>
<g>
</g>
<g>
</g>
<g>
</g>
<g>
</g>
<g>
</g>
<g>
</g>
<g>
</g>
<g>
</g>
<g>
</g>
<g>
</g>
<g>
</g>
</svg>
