<?xml version="1.0" encoding="iso-8859-1"?>
<!-- Generator: Adobe Illustrator 19.0.0, SVG Export Plug-In . SVG Version: 6.00 Build 0)  -->
<svg version="1.1" id="Layer_1" xmlns="http://www.w3.org/2000/svg" xmlns:xlink="http://www.w3.org/1999/xlink" x="0px" y="0px"
	 viewBox="0 0 512 512" style="enable-background:new 0 0 512 512;" xml:space="preserve">
<path style="fill:#9AD14B;" d="M439.656,180.758h-19.404v-27.524h40.376v-2.899c0-25.763-20.889-46.652-46.664-46.652H46.652
	C20.889,103.683,0,124.571,0,150.335v2.899h40.376v132.291c0,67.816,54.976,122.793,122.793,122.793H297.46
	c50.988,0,94.718-31.081,113.283-75.326l0,0l0,0h28.914c39.969,0,72.344-32.387,72.344-72.344v-7.534
	C512,213.145,479.625,180.758,439.656,180.758z M461.97,282.949c-6.671,6.683-15.894,10.804-26.075,10.804h-15.918
	c0.18-2.719,0.276-5.462,0.276-8.229v-65.529h15.643c20.35,0,36.879,16.517,36.879,36.879
	C472.774,267.055,468.63,276.266,461.97,282.949z"/>
<g>
	<path style="fill:#FFFFFF;" d="M275.103,256.304c-8.453-14.787-38.766-60.487-92.393-64.318c-4.932-0.355-9.248,3.372-9.6,8.321
		c-0.355,4.949,3.37,9.247,8.32,9.6c13.47,0.962,25.286,5.304,35.417,11.22c-9.544,26.299-25.935,33.788-28.836,34.931
		c-19.061,1.227-34.146,17.068-34.146,36.438c0,20.17,16.353,36.523,36.523,36.523s36.523-16.354,36.523-36.523
		c0-12.574-6.356-23.664-16.031-30.233c7.105-6.322,15.007-15.95,21.026-30.339c10.899,9.359,18.83,19.758,23.703,27.106
		c-12.887,5.641-21.895,18.499-21.895,33.466c0,20.17,16.353,36.523,36.523,36.523s36.523-16.354,36.523-36.523
		C306.763,273.976,292.972,258.684,275.103,256.304z"/>
	<path style="fill:#FFFFFF;" d="M270.239,338.001c-17.191,0-32.186-9.581-39.924-23.684c-7.739,14.103-22.733,23.684-39.924,23.684
		c-25.092,0-45.506-20.414-45.506-45.506c0-23.363,17.827-42.931,40.885-45.265c3.233-1.581,12.425-7.151,19.605-21.964
		c-7.948-3.652-16.188-5.799-24.581-6.4c-4.787-0.343-9.154-2.527-12.297-6.154c-3.144-3.627-4.687-8.261-4.343-13.048
		c0.34-4.784,2.528-9.153,6.162-12.298c3.63-3.143,8.274-4.682,13.042-4.339c54.191,3.871,86.25,47.051,97.397,65.197
		c20.237,4.798,34.993,23.089,34.993,44.272C315.746,317.588,295.332,338.001,270.239,338.001z M223.979,261.793
		c2.47,2.702,4.595,5.681,6.337,8.866c3.036-5.549,7.218-10.446,12.309-14.335c-2.313-2.992-5.004-6.207-8.064-9.45
		C231.452,252.325,227.919,257.308,223.979,261.793z"/>
</g>
<path style="fill:#90BC42;" d="M420.253,176.59v-23.356H134.739v-2.899c0-25.763,20.889-46.652,46.652-46.652H46.652
	C20.889,103.683,0,124.571,0,150.335v2.899h40.376v23.356v108.935c0,67.816,54.976,122.793,122.793,122.793h84.437
	c-67.816,0-122.793-54.976-122.793-122.793V176.59L420.253,176.59L420.253,176.59z"/>
<path style="fill:#995C0D;" d="M277.527,260.808c-1.282-2.625-32.119-64.344-94.816-68.822c-4.932-0.355-9.248,3.372-9.6,8.321
	c-0.355,4.949,3.37,9.247,8.32,9.6c13.47,0.962,25.286,5.304,35.417,11.22c-10.255,28.262-28.428,34.805-29.259,35.089l2.804,8.534
	l2.706,8.566c1.127-0.356,24.955-8.276,38.809-41.394c19.238,16.518,29.235,36.287,29.479,36.778
	c1.559,3.184,4.753,5.035,8.075,5.035c1.322,0,2.666-0.293,3.935-0.913C277.855,270.645,279.703,265.267,277.527,260.808z"/>
<g>
	<circle style="fill:#F95428;" cx="190.394" cy="292.501" r="36.523"/>
	<circle style="fill:#F95428;" cx="270.235" cy="292.501" r="36.523"/>
</g>
<g>
</g>
<g>
</g>
<g>
</g>
<g>
</g>
<g>
</g>
<g>
</g>
<g>
</g>
<g>
</g>
<g>
</g>
<g>
</g>
<g>
</g>
<g>
</g>
<g>
</g>
<g>
</g>
<g>
</g>
</svg>
