<?xml version="1.0" encoding="iso-8859-1"?>
<!-- Generator: Adobe Illustrator 19.0.0, SVG Export Plug-In . SVG Version: 6.00 Build 0)  -->
<svg version="1.1" id="Layer_1" xmlns="http://www.w3.org/2000/svg" xmlns:xlink="http://www.w3.org/1999/xlink" x="0px" y="0px"
	 viewBox="0 0 512 512" style="enable-background:new 0 0 512 512;" xml:space="preserve">
<path style="fill:#F4DE3B;" d="M289.144,33.137v430.268h-66.274V33.137C222.869,14.84,237.697,0,256.007,0
	C274.303,0,289.144,14.84,289.144,33.137z"/>
<path style="fill:#E0C734;" d="M269.647,2.941C265.486,1.058,260.871,0,256.007,0c-18.31,0-33.137,14.84-33.137,33.137v430.268
	h27.288V33.137C250.157,19.704,258.153,8.144,269.647,2.941z"/>
<path style="fill:#9AD14B;" d="M360.512,100.256c9.772,9.772,15.802,23.248,15.802,38.14c0,29.784-24.145,53.929-53.929,53.929
	H189.615c-14.892,0-28.368-6.043-38.14-15.789c-9.746-9.772-15.789-23.248-15.789-38.14c0-29.784,24.145-53.929,53.929-53.929
	h33.254h66.274h33.241C337.277,84.467,350.765,90.51,360.512,100.256z"/>
<g>
	<path style="fill:#90BC42;" d="M360.512,100.256c-9.746-9.746-23.235-15.789-38.127-15.789h-24.69
		c14.892,0,28.381,6.043,38.127,15.789c9.772,9.772,15.802,23.248,15.802,38.14c0,29.784-24.145,53.929-53.929,53.929h24.69
		c29.784,0,53.929-24.145,53.929-53.929C376.314,123.504,370.284,110.028,360.512,100.256z"/>
	<path style="fill:#90BC42;" d="M217.749,176.536c9.772,9.746,23.248,15.789,38.14,15.789h-66.274
		c-14.892,0-28.368-6.043-38.14-15.789c-9.746-9.772-15.789-23.248-15.789-38.14c0-29.784,24.145-53.929,53.929-53.929h66.274
		c-29.784,0-53.929,24.145-53.929,53.929C201.961,153.288,208.003,166.764,217.749,176.536z"/>
</g>
<path style="fill:#F7B239;" d="M390.608,206.814c9.746,9.772,15.789,23.248,15.789,38.14c0,29.784-24.145,53.929-53.929,53.929
	H159.532c-14.892,0-28.381-6.043-38.127-15.789c-9.772-9.772-15.802-23.248-15.802-38.14c0-29.784,24.145-53.929,53.929-53.929
	h30.083h132.769h30.083C367.36,191.025,380.836,197.068,390.608,206.814z"/>
<g>
	<path style="fill:#E09B2D;" d="M390.595,206.814c-9.746-9.746-23.235-15.789-38.127-15.789h-24.69
		c14.892,0,28.381,6.043,38.127,15.789c9.772,9.772,15.802,23.248,15.802,38.14c0,29.784-24.145,53.929-53.929,53.929h24.69
		c29.784,0,53.929-24.145,53.929-53.929C406.397,230.062,400.367,216.586,390.595,206.814z"/>
	<path style="fill:#E09B2D;" d="M187.679,283.094c9.746,9.746,23.235,15.789,38.127,15.789h-66.274
		c-14.892,0-28.381-6.043-38.127-15.789c-9.772-9.772-15.802-23.248-15.802-38.14c0-29.784,24.145-53.929,53.929-53.929h66.274
		c-29.784,0-53.929,24.145-53.929,53.929C171.877,259.846,177.907,273.322,187.679,283.094z"/>
</g>
<path style="fill:#2BA5F7;" d="M428.189,313.373c9.772,9.772,15.802,23.248,15.802,38.14c0,29.784-24.145,53.929-53.929,53.929
	H121.938c-14.892,0-28.368-6.043-38.14-15.789c-9.746-9.772-15.789-23.248-15.789-38.14c0-29.784,24.145-53.929,53.929-53.929
	h37.594h192.936h37.594C404.954,297.584,418.443,303.626,428.189,313.373z"/>
<g>
	<path style="fill:#2197D8;" d="M428.189,313.373c-9.746-9.746-23.235-15.789-38.127-15.789h-24.69
		c14.892,0,28.381,6.043,38.127,15.789c9.772,9.772,15.802,23.248,15.802,38.14c0,29.784-24.145,53.929-53.929,53.929h24.69
		c29.784,0,53.929-24.145,53.929-53.929C443.991,336.621,437.961,323.145,428.189,313.373z"/>
	<path style="fill:#2197D8;" d="M150.072,389.653c9.772,9.746,23.248,15.789,38.14,15.789h-66.274
		c-14.892,0-28.368-6.043-38.14-15.789c-9.746-9.772-15.789-23.248-15.789-38.14c0-29.784,24.145-53.929,53.929-53.929h66.274
		c-29.784,0-53.929,24.145-53.929,53.929C134.283,366.405,140.326,379.881,150.072,389.653z"/>
</g>
<path style="fill:#F95428;" d="M475.205,419.931c9.746,9.772,15.789,23.248,15.789,38.14c0,29.784-24.145,53.929-53.929,53.929
	H74.935c-14.892,0-28.381-6.043-38.127-15.789c-9.772-9.772-15.802-23.248-15.802-38.14c0-29.784,24.145-53.929,53.929-53.929
	h47.003h268.124h47.003C451.957,404.142,465.433,410.185,475.205,419.931z"/>
<g>
	<path style="fill:#D33924;" d="M103.082,496.211c9.746,9.746,23.235,15.789,38.127,15.789H74.935
		c-14.892,0-28.381-6.043-38.127-15.789c-9.772-9.772-15.802-23.248-15.802-38.14c0-29.784,24.145-53.929,53.929-53.929h66.274
		c-29.784,0-53.929,24.145-53.929,53.929C87.28,472.963,93.31,486.439,103.082,496.211z"/>
	<path style="fill:#D33924;" d="M475.192,419.931c-9.746-9.746-23.235-15.789-38.127-15.789h-24.69
		c14.892,0,28.381,6.043,38.127,15.789c9.772,9.772,15.802,23.248,15.802,38.14c0,29.784-24.145,53.929-53.929,53.929h24.69
		c29.784,0,53.929-24.145,53.929-53.929C490.994,443.179,484.964,429.703,475.192,419.931z"/>
</g>
<g>
</g>
<g>
</g>
<g>
</g>
<g>
</g>
<g>
</g>
<g>
</g>
<g>
</g>
<g>
</g>
<g>
</g>
<g>
</g>
<g>
</g>
<g>
</g>
<g>
</g>
<g>
</g>
<g>
</g>
</svg>
