<?xml version="1.0" encoding="iso-8859-1"?>
<!-- Generator: Adobe Illustrator 19.0.0, SVG Export Plug-In . SVG Version: 6.00 Build 0)  -->
<svg version="1.1" id="Layer_1" xmlns="http://www.w3.org/2000/svg" xmlns:xlink="http://www.w3.org/1999/xlink" x="0px" y="0px"
	 viewBox="0 0 512 512" style="enable-background:new 0 0 512 512;" xml:space="preserve">
<rect x="135.427" y="168.551" style="fill:#E09B2D;" width="241.147" height="16.758"/>
<path style="fill:#2BA5F7;" d="M291.024,475.133C292.041,495.186,276.065,512,256,512c-19.462,0-35.069-15.808-35.069-35.035
	c0-0.603,0.011-1.218,0.045-1.832l6.603-128.936c11.664-16.166,19.171-19.517,29.539-19.517c10.356,0,20.11,6.703,27.304,19.517
	L291.024,475.133z"/>
<path style="fill:#2197D8;" d="M245.51,476.965c0-0.603,0.011-1.218,0.045-1.832l6.218-121.421
	c1.993-15.86-13.648-16.977-24.194-7.514l-6.603,128.936c-0.034,0.614-0.045,1.229-0.045,1.832C220.931,496.192,236.538,512,256,512
	c4.33,0,8.468-0.787,12.289-2.217C254.945,504.79,245.51,491.913,245.51,476.965z"/>
<path style="fill:#F95428;" d="M256,86.158c50.129,0,90.772,40.644,90.772,90.783c0,50.129-40.644,90.772-90.772,90.772
	c-50.14,0-90.783-40.644-90.783-90.772C165.217,126.802,205.86,86.158,256,86.158z"/>
<path style="fill:#D33924;" d="M223.311,176.942c0-39.976,25.847-73.89,61.734-86.007c-9.123-3.081-18.883-4.776-29.045-4.776
	c-50.14,0-90.783,40.644-90.783,90.783c0,50.129,40.644,90.772,90.783,90.772c10.162,0,19.922-1.695,29.045-4.776
	C249.158,250.821,223.311,216.908,223.311,176.942z"/>
<path style="fill:#F7B239;" d="M432.942,176.942c0-26.924-18.881-49.425-44.118-55.022c13.887-21.808,11.328-51.067-7.709-70.104
	s-48.296-21.595-70.104-7.709C305.414,18.869,282.913,0,256,0c-26.924,0-49.425,18.869-55.022,44.107
	c-21.808-13.887-51.056-11.328-70.093,7.709s-21.607,48.296-7.709,70.104c-25.237,5.597-44.118,28.097-44.118,55.022
	c0,26.913,18.881,49.414,44.118,55.011c-13.898,21.808-11.328,51.067,7.709,70.104c19.037,19.037,48.285,21.595,70.093,7.709
	c3.441,15.518,13.272,28.623,26.6,36.432c8.334,4.882,18.054,7.675,28.421,7.675c10.356,0,20.076-2.793,28.421-7.675
	c13.317-7.809,23.148-20.914,26.589-36.432c21.808,13.887,51.067,11.328,70.104-7.709s21.595-48.296,7.709-70.104
	C414.061,226.355,432.942,203.855,432.942,176.942z M368.189,176.936c0,61.864-50.33,112.192-112.192,112.192
	S143.804,238.8,143.804,176.936S194.133,64.744,255.997,64.744S368.189,115.073,368.189,176.936z"/>
<g>
</g>
<g>
</g>
<g>
</g>
<g>
</g>
<g>
</g>
<g>
</g>
<g>
</g>
<g>
</g>
<g>
</g>
<g>
</g>
<g>
</g>
<g>
</g>
<g>
</g>
<g>
</g>
<g>
</g>
</svg>
