<?xml version="1.0" encoding="iso-8859-1"?>
<!-- Generator: Adobe Illustrator 19.0.0, SVG Export Plug-In . SVG Version: 6.00 Build 0)  -->
<svg version="1.1" id="Layer_1" xmlns="http://www.w3.org/2000/svg" xmlns:xlink="http://www.w3.org/1999/xlink" x="0px" y="0px"
	 viewBox="0 0 512 512" style="enable-background:new 0 0 512 512;" xml:space="preserve">
<path style="fill:#2197D8;" d="M388.955,168.693H123.079c-4.689,0-8.489-3.801-8.489-8.489c0-4.688,3.8-8.489,8.489-8.489h265.876
	c4.689,0,8.489,3.801,8.489,8.489C397.444,164.892,393.643,168.693,388.955,168.693z"/>
<path style="fill:#2BA5F7;" d="M256.006,0h-1.177c-42.535,0.306-82.726,17.012-113.184,47.062
	c-30.458,30.039-47.707,70.016-48.579,112.528c-0.679,33.752,8.874,66.326,27.617,94.203c18.257,27.164,43.893,47.99,74.136,60.248
	c3.554,1.437,5.716,4.89,5.365,8.591l-10.979,115.946c-1.777,18.766,4.482,37.532,17.17,51.476
	C219.062,503.998,237.149,512,256.006,512s36.943-8.002,49.631-21.946c12.688-13.944,18.947-32.71,17.17-51.476L311.828,322.62
	c-0.351-3.69,1.743-7.119,5.206-8.511c29.756-12.031,55.121-32.416,73.355-58.946c18.698-27.198,28.579-59.082,28.579-92.2
	C418.968,73.106,345.863,0,256.006,0z M273.493,326.256l10.98,115.95c0.77,8.118-1.829,15.909-7.317,21.941
	c-5.487,6.032-12.999,9.354-21.153,9.354s-15.667-3.322-21.153-9.354c-5.488-6.032-8.087-13.823-7.317-21.941l10.981-115.948
	c1.966-20.766-9.781-40.015-29.232-47.898c-23.099-9.361-42.686-25.283-56.645-46.044c-14.308-21.277-21.593-46.153-21.07-71.939
	c0.659-32.435,13.841-62.945,37.121-85.908c23.277-22.962,53.967-35.733,86.415-35.962c0.304-0.002,0.603-0.003,0.908-0.003
	c33.085,0,64.198,12.816,87.691,36.142c23.71,23.543,36.768,54.909,36.768,88.321c0,51.016-30.562,96.328-77.858,115.441
	C283.526,286.117,271.555,305.793,273.493,326.256z"/>
<path style="fill:#2197D8;" d="M256.002,490.477c-12.806,0-25.094-5.433-33.712-14.905s-12.868-22.218-11.661-34.967l10.981-115.948
	c1.253-13.238-6.264-25.521-18.707-30.563c-26.246-10.638-48.502-28.725-64.357-52.306c-16.266-24.191-24.549-52.462-23.954-81.756
	c0.747-36.883,15.725-71.563,42.171-97.651c26.443-26.083,61.324-40.592,98.218-40.853c0.343-0.002,0.687-0.003,1.03-0.003
	c37.599,0,72.951,14.561,99.65,41.072c26.945,26.754,41.783,62.4,41.783,100.368c0,28.741-8.573,56.406-24.79,80.008
	c-15.833,23.041-37.854,40.736-63.686,51.174c-12.364,4.997-19.829,17.256-18.572,30.508l10.98,115.95
	c1.207,12.749-3.042,25.494-11.661,34.967C281.095,485.045,268.808,490.477,256.002,490.477z M256.008,38.503
	c-0.304,0-0.603,0.001-0.908,0.003c-32.448,0.23-63.136,13.001-86.415,35.962c-23.28,22.963-36.462,53.473-37.121,85.908
	c-0.523,25.785,6.764,50.661,21.07,71.939c13.959,20.761,33.547,36.683,56.645,46.044c19.452,7.883,31.198,27.133,29.232,47.898
	l-10.981,115.948c-0.77,8.118,1.829,15.909,7.317,21.941c5.487,6.032,12.999,9.354,21.153,9.354s15.667-3.322,21.153-9.354
	c5.488-6.032,8.087-13.823,7.317-21.941l-10.98-115.95c-1.938-20.463,10.034-40.139,29.115-47.849
	c47.296-19.112,77.858-64.426,77.858-115.441c0-33.412-13.058-64.778-36.768-88.321C320.206,51.318,289.093,38.503,256.008,38.503z"
	/>
<path style="fill:#F7B239;" d="M358.72,160.201c0.736,27.221-9.281,54.657-30.05,75.426c-40.135,40.135-105.205,40.135-145.329,0
	L328.67,90.298C348.024,109.664,358.052,134.836,358.72,160.201z"/>
<path style="fill:#F95428;" d="M183.341,90.298c40.124-40.124,105.193-40.124,145.329,0L183.341,235.627
	c-20.769-20.769-30.786-48.205-30.062-75.426C153.947,134.836,163.976,109.664,183.341,90.298z"/>
<path style="fill:#E09B2D;" d="M288.84,260.346c-35.823,12.065-76.977,3.826-105.51-24.719l40.678-40.678
	c4.856,14.872,13.186,28.851,25.014,40.678C260.612,247.217,274.285,255.468,288.84,260.346z"/>
<path style="fill:#D33924;" d="M218.96,160.201c-0.317,11.726,1.37,23.486,5.048,34.748l-40.678,40.678
	c-20.769-20.769-30.786-48.205-30.062-75.426c0.668-25.365,10.696-50.537,30.062-69.903c28.534-28.534,69.688-36.774,105.51-24.719
	c-14.555,4.878-28.228,13.129-39.818,24.719C229.656,109.664,219.628,134.836,218.96,160.201z"/>
<g>
</g>
<g>
</g>
<g>
</g>
<g>
</g>
<g>
</g>
<g>
</g>
<g>
</g>
<g>
</g>
<g>
</g>
<g>
</g>
<g>
</g>
<g>
</g>
<g>
</g>
<g>
</g>
<g>
</g>
</svg>
