<?xml version="1.0" encoding="iso-8859-1"?>
<!-- Generator: Adobe Illustrator 19.0.0, SVG Export Plug-In . SVG Version: 6.00 Build 0)  -->
<svg version="1.1" id="Layer_1" xmlns="http://www.w3.org/2000/svg" xmlns:xlink="http://www.w3.org/1999/xlink" x="0px" y="0px"
	 viewBox="0 0 512 512" style="enable-background:new 0 0 512 512;" xml:space="preserve">
<path style="fill:#E6E6E6;" d="M435.938,238.751c-5.913-5.244-14.884-4.969-20.462,0.609L231.865,422.972l0,0l0,0
	c-4.205-40.59-38.5-72.233-80.189-72.233c-19.244,0-36.899,6.737-50.768,17.99V157.666v-12.833H71.045v286.536
	c0,44.532,36.099,80.631,80.631,80.631c22.266,0,42.418-9.031,57.003-23.616l0,0L436.583,260.48
	c2.927-2.927,4.372-6.749,4.372-10.56C440.955,245.811,439.271,241.701,435.938,238.751z M151.676,482.137
	c-28,0-50.768-22.768-50.768-50.768c0-27.988,22.768-50.756,50.768-50.756c27.988,0,50.756,22.768,50.756,50.756
	C202.431,459.369,179.663,482.137,151.676,482.137z"/>
<path style="fill:#CCCCCC;" d="M245.399,426.161c-0.502-4.802-1.421-9.485-2.724-14l-10.811,10.81
	c0.287,2.759,0.43,5.567,0.43,8.398c0,22.266-9.019,42.43-23.616,57.015l34.916-34.916c1.457-6.068,2.234-12.399,2.234-18.909
	C245.829,431.728,245.685,428.92,245.399,426.161z"/>
<path style="fill:#F95428;" d="M152.739,0.012C107.717-0.573,71.045,35.74,71.045,80.631v75.244h34.367
	c6.462,0,10.978-6.343,8.911-12.459c-1.338-3.966-2.067-8.206-2.067-12.626c0-22.672,19.148-40.877,42.179-39.312
	c19.316,1.314,35.036,16.867,36.529,36.17c0.43,5.519-0.287,10.834-1.923,15.72c-2.067,6.14,2.401,12.507,8.887,12.507h34.367
	V81.825C232.295,37.508,197.044,0.573,152.739,0.012z M169.594,61.22h-35.836c-4.957,0-8.959-4.014-8.959-8.959
	s4.002-8.959,8.959-8.959h35.836c4.945,0,8.959,4.014,8.959,8.959S174.539,61.22,169.594,61.22z"/>
<path style="fill:#D33924;" d="M165.112,1.136C160.74,0.403,156.255,0,151.676,0c-44.532,0-80.631,36.099-80.631,80.631v75.244
	h26.876V80.631C97.921,40.68,126.981,7.537,165.112,1.136z"/>
<g>
</g>
<g>
</g>
<g>
</g>
<g>
</g>
<g>
</g>
<g>
</g>
<g>
</g>
<g>
</g>
<g>
</g>
<g>
</g>
<g>
</g>
<g>
</g>
<g>
</g>
<g>
</g>
<g>
</g>
</svg>
