<?xml version="1.0" encoding="iso-8859-1"?>
<!-- Generator: Adobe Illustrator 19.0.0, SVG Export Plug-In . SVG Version: 6.00 Build 0)  -->
<svg version="1.1" id="Layer_1" xmlns="http://www.w3.org/2000/svg" xmlns:xlink="http://www.w3.org/1999/xlink" x="0px" y="0px"
	 viewBox="0 0 512 512" style="enable-background:new 0 0 512 512;" xml:space="preserve">
<path style="fill:#F7B239;" d="M465.871,150.972l-126.535,28.558L228.07,150.972c27.893-37.182,70.799-60.994,118.888-60.994
	C395.073,89.978,437.978,113.79,465.871,150.972z"/>
<path style="fill:#E09B2D;" d="M388.576,96.138c-13.23-4.003-27.187-6.159-41.618-6.159c-48.09,0-90.995,23.812-118.888,60.994
	l45.905,18.754l37.316-18.754C330.817,124.942,357.706,105.48,388.576,96.138z"/>
<path style="fill:#2BA5F7;" d="M165.029,351.064v131.952H0V351.064c0-29.413,22.341-53.274,49.903-53.274h8.027L54.977,58.776
	c-0.147-11.459,5.87-21.447,14.743-26.422c3.824-2.157,8.174-3.37,12.794-3.37c15.356,0,27.734,13.407,27.538,29.793l-2.954,239.014
	h8.027C142.688,297.79,165.029,321.651,165.029,351.064z"/>
<path style="fill:#2197D8;" d="M137.95,368.921v114.095H27.079V368.921c0-19.76,15.009-35.79,33.527-35.79h43.819
	C122.941,333.131,137.95,349.161,137.95,368.921z"/>
<polygon style="fill:#F95428;" points="512,248.095 495.97,150.972 465.871,150.972 228.07,150.972 202.199,150.972 
	186.182,248.095 217.028,248.095 217.028,248.095 217.028,248.095 217.751,262.802 228.413,477.992 469.756,477.992 
	473.886,394.693 480.43,262.802 481.154,248.095 481.154,248.095 481.154,248.095 "/>
<polygon style="fill:#D33924;" points="481.154,248.095 292.864,248.095 250.575,248.095 266.592,150.972 228.07,150.972 
	202.199,150.972 186.182,248.095 217.028,248.095 217.751,262.802 217.756,262.802 228.413,477.992 301.207,477.992 
	293.398,262.802 480.43,262.802 "/>
<path style="fill:#2197D8;" d="M69.72,32.354V297.79h-11.79L54.977,58.776C54.83,47.318,60.847,37.329,69.72,32.354z"/>
<g>
</g>
<g>
</g>
<g>
</g>
<g>
</g>
<g>
</g>
<g>
</g>
<g>
</g>
<g>
</g>
<g>
</g>
<g>
</g>
<g>
</g>
<g>
</g>
<g>
</g>
<g>
</g>
<g>
</g>
</svg>
