<?xml version="1.0" encoding="iso-8859-1"?>
<!-- Generator: Adobe Illustrator 19.0.0, SVG Export Plug-In . SVG Version: 6.00 Build 0)  -->
<svg version="1.1" id="Layer_1" xmlns="http://www.w3.org/2000/svg" xmlns:xlink="http://www.w3.org/1999/xlink" x="0px" y="0px"
	 viewBox="0 0 512.001 512.001" style="enable-background:new 0 0 512.001 512.001;" xml:space="preserve">
<path style="fill:#2BA5F7;" d="M228.799,394.236c-14.356,14.356-33.18,21.535-51.992,21.535c-5.917,0-11.834-0.707-17.621-2.133
	c-12.588-3.1-24.529-9.559-34.371-19.401l-56.836-56.836c-0.024,0-0.035-0.012-0.059-0.012
	c-40.028-9.064-67.916-44.637-67.916-84.936c0-2.805,0.141-5.634,0.413-8.475l1.014-10.42l0.377-3.949l7.897-81.601l1.532,0.153
	l16.879-2.817l64.498-10.761l84.194,27.746v53.206c0,14.545,5.776,28.489,16.066,38.779l35.926,35.938
	c10.349,10.349,16.973,23.02,19.849,36.339C253.787,350.212,247.163,375.872,228.799,394.236z"/>
<path style="fill:#F95428;" d="M234.524,387.787c-1.756,2.24-3.666,4.385-5.728,6.447c-14.356,14.356-33.18,21.535-51.992,21.535
	c-5.917,0-11.834-0.707-17.621-2.133v-0.012c-0.118-1.744-0.177-3.513-0.177-5.304c0-13.013,3.029-25.318,8.428-36.256
	c13.39-27.145,41.337-45.827,73.656-45.827c2.558,0,5.068,0.118,7.555,0.354C253.206,347.558,248.503,370.142,234.524,387.787z"/>
<g>
	<path style="fill:#2197D8;" d="M159.005,408.32c0,1.792,0.059,3.56,0.177,5.304v0.012c-12.588-3.1-24.529-9.559-34.371-19.401
		l-56.836-56.836c-0.024,0-0.035-0.012-0.059-0.012l1.65-2.098c4.585-9.618,7.155-20.391,7.155-31.766l90.712,68.541
		C162.034,383.001,159.005,395.307,159.005,408.32z"/>
	<polygon style="fill:#2197D8;" points="49.049,245.85 1.43,233.557 1.807,229.608 9.704,148.007 11.236,148.161 28.115,145.344 
		48.884,151.379 	"/>
</g>
<path style="fill:#F95428;" d="M176.803,117.125v45.203L48.88,151.377l-37.647-3.218l-1.532-0.153L14,103.52
	c0.426-4.405,4.321-7.644,8.729-7.258l30.712,2.686l115.999,10.141C173.607,109.455,176.803,112.943,176.803,117.125z"/>
<g>
	<path style="fill:#D33924;" d="M53.442,98.949l-4.562,52.428l-37.647-3.218l-1.532-0.153L14,103.52
		c0.426-4.405,4.321-7.644,8.729-7.258L53.442,98.949z"/>
	<path style="fill:#D33924;" d="M76.721,303.522c0,11.374-2.57,22.148-7.155,31.766l-1.65,2.098C27.888,328.322,0,292.749,0,252.45
		c0-2.805,0.141-5.634,0.413-8.475l1.391-14.368c0.342-0.012,0.66-0.012,1.002-0.012C43.623,229.595,76.721,262.693,76.721,303.522z
		"/>
	<path style="fill:#D33924;" d="M234.524,387.787c-1.756,2.24-3.666,4.385-5.728,6.447c-14.356,14.356-33.18,21.535-51.992,21.535
		c-5.917,0-11.834-0.707-17.621-2.133v-0.012c-0.118-1.744-0.177-3.513-0.177-5.304c0-13.013,3.029-25.318,8.428-36.256
		C167.433,372.063,200.224,392.29,234.524,387.787z"/>
</g>
<path style="fill:#2BA5F7;" d="M490.468,394.236c-14.356,14.356-33.18,21.535-51.992,21.535c-5.917,0-11.834-0.707-17.621-2.133
	c-12.588-3.1-24.529-9.559-34.371-19.401l-56.836-56.836c-0.024,0-0.035-0.012-0.059-0.012
	c-40.028-9.064-67.916-44.637-67.916-84.936c0-2.805,0.141-5.634,0.413-8.475l0.519-5.351l0.872-9.017l7.897-81.601l1.532,0.153
	l6.07-1.014l75.306-12.565l84.194,27.746v53.206c0,14.545,5.776,28.489,16.066,38.779l35.926,35.938
	c10.349,10.349,16.973,23.02,19.849,36.339C515.456,350.212,508.832,375.872,490.468,394.236z"/>
<path style="fill:#F95428;" d="M496.193,387.787c-1.756,2.24-3.666,4.385-5.728,6.447c-14.356,14.356-33.18,21.535-51.992,21.535
	c-5.917,0-11.834-0.707-17.621-2.133v-0.012c-0.118-1.744-0.177-3.513-0.177-5.304c0-13.013,3.029-25.318,8.428-36.256
	c13.39-27.145,41.337-45.827,73.656-45.827c2.558,0,5.068,0.118,7.555,0.354C514.875,347.558,510.172,370.142,496.193,387.787z"/>
<g>
	<path style="fill:#2197D8;" d="M420.674,408.32c0,1.792,0.059,3.56,0.177,5.304v0.012c-12.588-3.1-24.529-9.559-34.371-19.401
		l-56.836-56.836c-0.024,0-0.035-0.012-0.059-0.012l1.65-2.098c4.585-9.618,7.155-20.391,7.155-31.766l90.712,68.541
		C423.703,383.001,420.674,395.307,420.674,408.32z"/>
	<polygon style="fill:#2197D8;" points="310.718,245.85 262.604,238.625 263.476,229.608 271.373,148.007 272.905,148.161 
		278.976,147.147 310.553,151.379 	"/>
</g>
<path style="fill:#F95428;" d="M438.472,117.125v45.203l-127.923-10.95l-37.647-3.218l-1.532-0.153l4.3-44.486
	c0.425-4.405,4.321-7.644,8.729-7.258l30.712,2.686L431.11,109.09C435.276,109.455,438.472,112.943,438.472,117.125z"/>
<g>
	<path style="fill:#D33924;" d="M315.111,98.949l-4.562,52.428l-37.647-3.218l-1.532-0.153l4.3-44.486
		c0.425-4.405,4.321-7.644,8.729-7.258L315.111,98.949z"/>
	<path style="fill:#D33924;" d="M338.39,303.522c0,11.374-2.57,22.148-7.155,31.766l-1.65,2.098
		c-40.028-9.064-67.916-44.637-67.916-84.936c0-2.805,0.141-5.634,0.413-8.475l1.391-14.368c0.342-0.012,0.66-0.012,1.002-0.012
		C305.292,229.595,338.39,262.693,338.39,303.522z"/>
	<path style="fill:#D33924;" d="M496.193,387.787c-1.756,2.24-3.666,4.385-5.728,6.447c-14.356,14.356-33.18,21.535-51.992,21.535
		c-5.917,0-11.834-0.707-17.621-2.133v-0.012c-0.118-1.744-0.177-3.513-0.177-5.304c0-13.013,3.029-25.318,8.428-36.256
		C429.102,372.063,461.893,392.29,496.193,387.787z"/>
</g>
<g>
</g>
<g>
</g>
<g>
</g>
<g>
</g>
<g>
</g>
<g>
</g>
<g>
</g>
<g>
</g>
<g>
</g>
<g>
</g>
<g>
</g>
<g>
</g>
<g>
</g>
<g>
</g>
<g>
</g>
</svg>
