<?xml version="1.0" encoding="iso-8859-1"?>
<!-- Generator: Adobe Illustrator 19.0.0, SVG Export Plug-In . SVG Version: 6.00 Build 0)  -->
<svg version="1.1" id="Layer_1" xmlns="http://www.w3.org/2000/svg" xmlns:xlink="http://www.w3.org/1999/xlink" x="0px" y="0px"
	 viewBox="0 0 512.001 512.001" style="enable-background:new 0 0 512.001 512.001;" xml:space="preserve">
<path style="fill:#F7B239;" d="M416.286,254.58l-98.702-59.223c27.423-19.497,45.311-51.534,45.311-87.747
	c0-5.407-0.402-10.718-1.171-15.9c17.166-6.732,29.316-23.436,29.316-42.968c0-25.483-20.656-46.139-46.139-46.139
	c-12.801,0-24.383,5.217-32.747,13.641c1.637,1.021,1.637,1.021,0,0C295.662,5.951,276.177,0,255.296,0s-40.366,5.951-56.869,16.243
	c-26.205,16.338-44.861,43.631-49.57,75.467c-0.769,5.182-1.171,10.494-1.171,15.9c0,35.255,16.953,66.558,43.169,86.173
	l-0.935,3.738L95.727,254.58c-14.835,8.979-19.579,28.275-10.588,43.11c8.979,14.812,28.275,19.556,43.098,10.576l39.987-24.205
	l-4.921,19.603c-5.785,23.093-2.555,45.95,7.146,65.269l-14.622,107.918c-2.319,16.941,9.512,32.546,26.453,34.864
	c1.42,0.189,2.851,0.284,4.235,0.284c15.226,0,28.5-11.227,30.629-26.737l8.979-65.588l0.864-2.828
	c8.53,2.615,17.627,4.034,27.127,4.07c0.781,0,1.573,0,2.354,0c9.5-0.035,18.598-1.455,27.127-4.07l0.864,2.828l8.991,65.588
	c2.13,15.51,15.403,26.737,30.617,26.737c1.396,0,2.816-0.095,4.235-0.284c16.941-2.319,28.784-17.923,26.453-34.864
	l-14.658-107.835h-0.012c9.748-19.331,12.99-42.223,7.193-65.352l-5.17-20.621h0.012l41.643,25.223
	c14.835,8.979,34.119,4.235,43.098-10.576C435.853,282.855,431.109,263.56,416.286,254.58z"/>
<path style="fill:#E09B2D;" d="M323.415,485.263l-9.456-84.309c-0.915,0.719-1.842,1.421-2.784,2.106
	c-8.359,6.077-19.144,7.973-29.031,4.962c-0.05-0.015-0.101-0.031-0.15-0.046c-24.998-7.619-45.181-25.353-56.538-47.913
	c-9.701-19.319-12.931-42.176-7.146-65.269l4.921-19.603l15.365-61.285h-0.001c5.443,0.849,11.018,1.305,16.699,1.305
	c10.47,0,20.585-1.507,30.155-4.296c-12.515-3.651-24.089-9.508-34.263-17.129c-26.216-19.615-43.169-50.918-43.169-86.173
	c0-5.407,0.402-10.718,1.171-15.9c4.709-31.836,23.365-59.129,49.57-75.467c8.226-5.13,17.192-9.179,26.703-11.954
	C275.892,1.499,265.77,0,255.296,0c-20.881,0-40.366,5.951-56.869,16.243C190.075,7.82,178.493,2.603,165.68,2.603
	c-25.483,0-46.139,20.656-46.139,46.139c0,19.532,12.15,36.237,29.316,42.968c-0.769,5.182-1.171,10.494-1.171,15.9
	c0,35.255,16.953,66.558,43.169,86.173l-0.935,3.738l0,0L95.727,254.58c-14.835,8.979-19.579,28.275-10.588,43.11
	c8.979,14.812,28.275,19.556,43.098,10.576l14.252-8.627c-8.086-1.784-15.458-6.735-20.087-14.37
	c-8.991-14.835-4.247-34.131,10.588-43.11l53.929-32.668l0,0l-18.696,74.571l-4.921,19.603c-5.785,23.093-2.555,45.95,7.146,65.269
	l0,0l-14.622,107.918c-2.319,16.941,9.512,32.546,26.453,34.864c1.42,0.189,2.851,0.284,4.235,0.284
	c4.352,0,8.531-0.944,12.35-2.616c-12.338-5.417-20.114-18.512-18.195-32.533l10.869-80.215
	c10.023,9.099,22.032,16.123,35.449,20.211c8.53,2.615,17.627,4.034,27.127,4.07c0.781,0,1.573,0,2.354,0
	c9.5-0.035,18.598-1.455,27.127-4.07l0.864,2.828l8.991,65.588c2.13,15.51,15.403,26.737,30.617,26.737
	c1.396,0,2.816-0.095,4.235-0.284c3.918-0.536,7.559-1.791,10.819-3.6C330.878,503.553,324.797,495.321,323.415,485.263z
	 M198.206,16.382C197.436,16.861,197.436,16.861,198.206,16.382L198.206,16.382z"/>
<g>
	<path style="fill:#4D4D4D;" d="M247.305,153.431h15.971c4.9,0,8.873-3.973,8.873-8.873c0-4.9-3.973-8.873-8.873-8.873h-15.971
		c-4.9,0-8.873,3.973-8.873,8.873C238.432,149.458,242.405,153.431,247.305,153.431z"/>
	<circle style="fill:#4D4D4D;" cx="307.357" cy="126.811" r="8.873"/>
	<circle style="fill:#4D4D4D;" cx="203.236" cy="126.811" r="8.873"/>
</g>
<g>
</g>
<g>
</g>
<g>
</g>
<g>
</g>
<g>
</g>
<g>
</g>
<g>
</g>
<g>
</g>
<g>
</g>
<g>
</g>
<g>
</g>
<g>
</g>
<g>
</g>
<g>
</g>
<g>
</g>
</svg>
