<?xml version="1.0" encoding="iso-8859-1"?>
<!-- Generator: Adobe Illustrator 19.0.0, SVG Export Plug-In . SVG Version: 6.00 Build 0)  -->
<svg version="1.1" id="Layer_1" xmlns="http://www.w3.org/2000/svg" xmlns:xlink="http://www.w3.org/1999/xlink" x="0px" y="0px"
	 viewBox="0 0 512 512" style="enable-background:new 0 0 512 512;" xml:space="preserve">
<path style="fill:#2BA5F7;" d="M464.729,316.708L512,441.17h-94.743c4.756-8.543-108.872-8.543-104.116,0H179.986
	c4.756-8.543-108.872-8.543-104.116,0H33.934V316.708h0.151l190.706-63.912l162.472,63.912H464.729L464.729,316.708z"/>
<g>
	<path style="fill:#9AD14B;" d="M424.719,412.306c0,10.481-2.705,20.32-7.461,28.863c-10.166,18.282-29.668,30.65-52.064,30.65
		c-22.383,0-41.898-12.368-52.052-30.65c-4.756-8.543-7.461-18.382-7.461-28.863c0-32.877,26.649-59.526,59.513-59.526
		C398.07,352.781,424.719,379.43,424.719,412.306z"/>
	<path style="fill:#9AD14B;" d="M187.447,412.306c0,10.481-2.705,20.32-7.461,28.863c-10.166,18.282-29.668,30.65-52.064,30.65
		c-22.383,0-41.898-12.368-52.052-30.65c-4.756-8.543-7.461-18.382-7.461-28.863c0-32.877,26.649-59.526,59.513-59.526
		C160.798,352.781,187.447,379.43,187.447,412.306z"/>
</g>
<rect x="334.606" y="69.742" style="fill:#F95428;" width="65.2" height="122.675"/>
<rect x="334.606" y="90.93" style="fill:#D33924;" width="19.907" height="70.862"/>
<polygon style="fill:#9AD14B;" points="428.506,40.181 428.506,90.924 399.806,90.924 334.606,90.924 305.894,90.924 
	305.894,40.181 "/>
<polygon style="fill:#90BC42;" points="351.11,40.181 351.11,90.924 340.526,90.924 316.482,90.924 305.894,90.924 305.894,40.181 
	"/>
<rect x="334.606" y="90.93" style="fill:#D33924;" width="65.2" height="13.211"/>
<path style="fill:#F95428;" d="M224.79,161.786V90.924l-85.042-23.075L34.085,90.924v225.784H224.79l41.395-84.677L224.79,161.786z"
	/>
<path style="fill:#F7B239;" d="M387.262,161.786c42.779,0,77.467,34.676,77.467,77.455c0,21.389-8.669,40.753-22.685,54.77
	c-14.029,14.029-33.393,22.698-54.782,22.698H224.79V161.786h109.816L387.262,161.786L387.262,161.786z"/>
<polygon style="fill:#D33924;" points="224.79,90.924 139.748,67.849 34.085,90.924 34.085,90.924 34.085,90.924 34.085,109.797 
	34.085,316.708 67.276,316.708 67.276,109.797 224.79,109.797 "/>
<polygon style="fill:#F7B239;" points="262.863,40.181 247.778,90.924 224.79,90.924 34.085,90.924 11.236,90.924 0,40.181 "/>
<rect x="86.413" y="137.798" style="fill:#FFFFFF;" width="90.44" height="67.83"/>
<g>
</g>
<g>
</g>
<g>
</g>
<g>
</g>
<g>
</g>
<g>
</g>
<g>
</g>
<g>
</g>
<g>
</g>
<g>
</g>
<g>
</g>
<g>
</g>
<g>
</g>
<g>
</g>
<g>
</g>
</svg>
