<?xml version="1.0" encoding="iso-8859-1"?>
<!-- Generator: Adobe Illustrator 19.0.0, SVG Export Plug-In . SVG Version: 6.00 Build 0)  -->
<svg version="1.1" id="Layer_1" xmlns="http://www.w3.org/2000/svg" xmlns:xlink="http://www.w3.org/1999/xlink" x="0px" y="0px"
	 viewBox="0 0 512 512" style="enable-background:new 0 0 512 512;" xml:space="preserve">
<path style="fill:#F7B239;" d="M421.016,142.19H315.467V34.679C315.467,15.509,299.958,0,280.8,0
	c-19.145,0-34.654,15.509-34.654,34.679V142.19v0.05c1.862,0.087,3.699,0.312,5.486,0.637h0.012
	c19.483,3.574,34.242,20.632,34.242,41.14v9.635v76.519v47.813V356.7v113.46c0,20.508-14.746,37.566-34.217,41.152
	c2.449,0.462,4.949,0.687,7.523,0.687h161.823c23.094,0,41.827-18.733,41.827-41.827V184.018
	C462.843,160.923,444.11,142.19,421.016,142.19z"/>
<rect x="285.88" y="193.653" style="fill:#2BA5F7;" width="130.731" height="76.519"/>
<g>
	<path style="fill:#4D4D4D;" d="M425.367,327.361H294.639c-5.177,0-9.373-4.196-9.373-9.373c0-5.176,4.195-9.373,9.373-9.373
		h130.728c5.177,0,9.373,4.197,9.373,9.373C434.74,323.165,430.545,327.361,425.367,327.361z"/>
	<path style="fill:#4D4D4D;" d="M425.367,366.067H294.639c-5.177,0-9.373-4.196-9.373-9.373s4.195-9.373,9.373-9.373h130.728
		c5.177,0,9.373,4.196,9.373,9.373S430.545,366.067,425.367,366.067z"/>
</g>
<path style="fill:#E09B2D;" d="M274.852,470.16V184.018c0-18.758,12.372-34.654,29.405-39.94c3.924-1.225,8.111-1.887,12.434-1.887
	h-1.225h-40.615V0.512c-16.309,2.812-28.706,17.021-28.706,34.167V142.19v2.094c-16.708,5.479-28.78,21.206-28.78,39.733V470.16
	c0,23.107,18.733,41.84,41.84,41.84h57.486C293.585,512,274.852,493.267,274.852,470.16z"/>
<path style="fill:#F95428;" d="M260.393,142.878h-0.013c-1.787-0.325-3.624-0.55-5.486-0.637c-0.687-0.037-1.387-0.05-2.087-0.05
	H147.258l0,0l0,0V34.679C147.258,15.509,131.749,0,112.579,0c-2.025,0-4.012,0.175-5.936,0.512
	C90.334,3.324,77.937,17.533,77.937,34.679V142.19l0.625,1.887l0,0l0,0c-17.033,5.286-29.405,21.182-29.405,39.94V470.16
	c0,23.107,18.733,41.84,41.84,41.84h161.81c2.599,0,5.149-0.237,7.611-0.687c19.47-3.587,34.217-20.645,34.217-41.152V356.7v-38.716
	v-47.813v-76.519v-9.635C294.634,163.51,279.875,146.452,260.393,142.878z"/>
<path style="fill:#D33924;" d="M106.643,470.16V184.018c0-18.758,12.372-34.654,29.405-39.94c3.924-1.225,8.111-1.887,12.434-1.887
	h-1.225h-40.615V0.512C90.334,3.324,77.937,17.533,77.937,34.679V142.19v2.094c-16.708,5.479-28.78,21.206-28.78,39.733V470.16
	c0,23.107,18.733,41.84,41.84,41.84h57.486C125.376,512,106.643,493.267,106.643,470.16z"/>
<rect x="95.389" y="193.665" style="fill:#2BA5F7;" width="153.013" height="76.506"/>
<g>
	<path style="fill:#4D4D4D;" d="M248.407,327.36H95.39c-5.177,0-9.373-4.196-9.373-9.373s4.195-9.373,9.373-9.373h153.016
		c5.177,0,9.373,4.196,9.373,9.373S253.584,327.36,248.407,327.36z"/>
	<path style="fill:#4D4D4D;" d="M248.407,366.071H95.39c-5.177,0-9.373-4.196-9.373-9.373s4.195-9.373,9.373-9.373h153.016
		c5.177,0,9.373,4.196,9.373,9.373S253.584,366.071,248.407,366.071z"/>
</g>
<g>
</g>
<g>
</g>
<g>
</g>
<g>
</g>
<g>
</g>
<g>
</g>
<g>
</g>
<g>
</g>
<g>
</g>
<g>
</g>
<g>
</g>
<g>
</g>
<g>
</g>
<g>
</g>
<g>
</g>
</svg>
