<?xml version="1.0" encoding="iso-8859-1"?>
<!-- Generator: Adobe Illustrator 19.0.0, SVG Export Plug-In . SVG Version: 6.00 Build 0)  -->
<svg version="1.1" id="Layer_1" xmlns="http://www.w3.org/2000/svg" xmlns:xlink="http://www.w3.org/1999/xlink" x="0px" y="0px"
	 viewBox="0 0 512 512" style="enable-background:new 0 0 512 512;" xml:space="preserve">
<path style="fill:#9AD14B;" d="M504.814,224.748h-41.937v-38.779h41.937c3.968,0,7.186,3.218,7.186,7.186v24.406
	C512,221.53,508.783,224.748,504.814,224.748z"/>
<path style="fill:#F7B239;" d="M453.495,247.188v5.195c0,5.984-4.852,10.835-10.835,10.835H292.116v-26.866h150.543
	C448.644,236.353,453.495,241.204,453.495,247.188z"/>
<path style="fill:#2BA5F7;" d="M498.503,185.199v40.318c0,5.984-4.852,10.835-10.835,10.835h-34.173H292.116v-17.567v-44.421
	h195.552C493.653,174.364,498.503,179.215,498.503,185.199z"/>
<path style="fill:#9AD14B;" d="M172.817,109.685c0,7.988,9.357,17.216-14.351,21.485h-43.778v61.228H69.027V117.51
	c0-15.836,11.497-28.983,26.597-31.532c1.754-0.316,3.556-0.468,5.404-0.468h59.509C181.004,88.305,172.817,100.481,172.817,109.685
	z"/>
<path style="fill:#90BC42;" d="M95.624,85.978V190.06H69.027v-72.55C69.027,101.674,80.524,88.527,95.624,85.978z"/>
<polygon style="fill:#2BA5F7;" points="213.323,268.055 203.631,288.928 164.166,288.928 164.166,306.472 195.486,306.472 
	189.261,319.882 205.173,327.269 229.235,275.443 "/>
<path style="fill:#9AD14B;" d="M277.882,278.025h-69.93c-13.883,0-26.421,8.328-31.801,21.135l-2.327,5.556l-12.257,29.193
	l-40.374,96.223c-3.871,9.216-12.889,15.216-22.901,15.216H37.893c-16.854,0-28.819-16.445-23.614-32.48l35.404-109.229
	c5.287-16.304-6.866-33.018-24-33.018h-2.883c-9.022,0-16.885-6.14-19.074-14.892l-3.129-12.515
	c-3.102-12.409,6.283-24.429,19.074-24.429l0,0l148.469-26.386l136.585,26.386h1.24v17.567v26.866v14.807L277.882,278.025
	L277.882,278.025z"/>
<path style="fill:#F7B239;" d="M365.622,66.652c23.763,0,43.033,19.27,43.033,43.033c0,11.882-4.814,22.636-12.606,30.428
	c-7.792,7.792-18.546,12.606-30.428,12.606H177.196c-14.604,0-27.504-7.268-35.282-18.399c-4.881-6.973-7.751-15.475-7.751-24.634
	c0-10.553,3.808-20.236,10.125-27.718c0.778-0.939,1.609-1.837,2.481-2.709c7.792-7.792,18.546-12.606,30.428-12.606h188.424V66.652
	z"/>
<path style="fill:#E09B2D;" d="M202.259,134.319c-4.881-6.973-7.751-15.475-7.751-24.634c0-10.553,3.808-20.235,10.125-27.718
	c0.778-0.938,1.609-1.836,2.481-2.709c7.791-7.792,18.546-12.606,30.428-12.606h-60.345c-11.882,0-22.636,4.814-30.428,12.606
	c-0.871,0.873-1.703,1.771-2.481,2.709c-6.316,7.483-10.125,17.165-10.125,27.718c0,9.159,2.87,17.662,7.751,24.634
	c7.778,11.131,20.678,18.399,35.282,18.399h60.345C222.938,152.718,210.037,145.45,202.259,134.319z"/>
<path style="fill:#2BA5F7;" d="M78.57,294.154c-0.353,4.694-1.26,9.371-2.737,13.928L38.924,421.956h56.577l43.192-102.94
	l10.439-24.862H78.57L78.57,294.154z"/>
<path style="fill:#9AD14B;" d="M225.403,336.151h-69.085v-17.544h69.085c7.275,0,13.861-4.027,17.188-10.51l21.36-41.708
	l15.616,7.998l-21.365,41.715C251.854,328.47,239.287,336.151,225.403,336.151z"/>
<path style="fill:#D33924;" d="M90.01,174.364v1.228l-13.579,43.193H19.67l21.394-32.091c5.136-7.703,13.781-12.33,23.04-12.33
	h4.924H90.01z"/>
<polygon style="fill:#F95428;" points="305.964,174.364 305.964,218.785 304.724,218.785 76.431,218.785 90.01,175.592 
	90.01,174.364 114.688,174.364 "/>
<g>
</g>
<g>
</g>
<g>
</g>
<g>
</g>
<g>
</g>
<g>
</g>
<g>
</g>
<g>
</g>
<g>
</g>
<g>
</g>
<g>
</g>
<g>
</g>
<g>
</g>
<g>
</g>
<g>
</g>
</svg>
