<?xml version="1.0" encoding="iso-8859-1"?>
<!-- Generator: Adobe Illustrator 19.0.0, SVG Export Plug-In . SVG Version: 6.00 Build 0)  -->
<svg version="1.1" id="Layer_1" xmlns="http://www.w3.org/2000/svg" xmlns:xlink="http://www.w3.org/1999/xlink" x="0px" y="0px"
	 viewBox="0 0 512 512" style="enable-background:new 0 0 512 512;" xml:space="preserve">
<g>
	<rect x="247.159" y="459.316" style="fill:#808080;" width="17.678" height="43.841"/>
	<rect x="247.159" y="98.347" style="fill:#808080;" width="17.678" height="115.047"/>
</g>
<path style="fill:#F95428;" d="M279.529,23.535v65.867c0,6.494-2.628,12.374-6.883,16.629c-4.266,4.254-10.135,6.894-16.641,6.894
	c-1.202,0-2.381-0.094-3.536-0.259c-11.326-1.709-19.999-11.479-19.999-23.264V23.535c0-11.797,8.674-21.567,19.999-23.276
	C253.625,0.094,254.804,0,256.006,0C269.005,0,279.529,10.536,279.529,23.535z"/>
<path style="fill:#2197D8;" d="M296.323,428.686c0.236,1.744,0.354,3.524,0.354,5.327c0,22.463-18.208,40.682-40.671,40.682
	s-40.671-18.22-40.671-40.682c0-1.803,0.118-3.583,0.354-5.327c9.086-18.279,26.517-7.036,40.317-7.036
	C269.806,421.65,287.237,413.943,296.323,428.686z"/>
<path style="fill:#2BA5F7;" d="M303.724,212.422v33.134c0.012,12.822-31.29,28.143-47.718,28.143
	c-16.44,0-51.266-9.428-47.73-28.143v-33.134c0-7.507,6.086-13.594,13.594-13.594h34.136h34.124
	C297.638,198.828,303.724,204.914,303.724,212.422z"/>
<path style="fill:#2197D8;" d="M237.727,198.828v46.728c-4.508,7.225-12.403,11.546-17.472,11.546
	c-5.072,0-11.785-5.107-11.98-11.546v-33.134c0-7.507,6.086-13.594,13.594-13.594h1.134H237.727z"/>
<path style="fill:#F95428;" d="M303.724,245.556c-15.297-2.345-31.29-3.712-47.718-3.712c-16.44,0-32.421,1.367-47.73,3.712
	C119.71,259.062,53.69,304.953,52.488,305.802h-0.012c0,0,70.11,98.665,163.213,122.884c13.023,3.406,26.517,5.339,40.317,5.339
	c13.8,0,27.283-1.933,40.317-5.339c93.091-24.219,163.201-122.884,163.201-122.884S393.103,259.18,303.724,245.556z"/>
<path style="fill:#F7B239;" d="M303.724,245.556c89.379,13.624,155.8,60.246,155.8,60.246H52.488
	c1.202-0.849,67.223-46.74,155.788-60.246c15.309-2.345,31.29-3.712,47.73-3.712C272.434,241.844,288.427,243.211,303.724,245.556z"
	/>
<path style="fill:#E09B2D;" d="M306.706,246.027c-87.092,14.048-151.663,58.938-152.854,59.774H52.499
	c1.202-0.849,67.223-46.74,155.788-60.246c15.309-2.345,31.29-3.712,47.73-3.712c16.429,0,32.421,1.367,47.718,3.712
	C304.726,245.709,305.716,245.862,306.706,246.027z"/>
<g>
	<path style="fill:#D33924;" d="M306.694,425.657c-3.418,1.108-6.871,2.121-10.359,3.029c-13.034,3.406-26.517,5.339-40.317,5.339
		s-27.294-1.933-40.317-5.339C122.598,404.467,52.488,305.802,52.488,305.802H153.84C153.84,305.802,218.8,397.219,306.694,425.657z
		"/>
	<path style="fill:#D33924;" d="M252.47,0.259v112.407c-11.326-1.709-19.999-11.479-19.999-23.264V23.535
		C232.471,11.738,241.145,1.968,252.47,0.259z"/>
</g>
<path style="fill:#F7B239;" d="M300.196,512H211.81l0,0c0-9.763,7.915-17.678,17.678-17.678h53.03
	C292.281,494.322,300.196,502.236,300.196,512L300.196,512z"/>
<g>
</g>
<g>
</g>
<g>
</g>
<g>
</g>
<g>
</g>
<g>
</g>
<g>
</g>
<g>
</g>
<g>
</g>
<g>
</g>
<g>
</g>
<g>
</g>
<g>
</g>
<g>
</g>
<g>
</g>
</svg>
